<?xml version="1.0" encoding="UTF-8" standalone="no"?>
<!DOCTYPE svg PUBLIC "-//W3C//DTD SVG 1.1//EN" "http://www.w3.org/Graphics/SVG/1.1/DTD/svg11.dtd">
<svg width="100%" height="100%" viewBox="0 0 652 480" version="1.1" xmlns="http://www.w3.org/2000/svg" xmlns:xlink="http://www.w3.org/1999/xlink" xml:space="preserve" xmlns:serif="http://www.serif.com/" style="fill-rule:evenodd;clip-rule:evenodd;stroke-linecap:round;stroke-miterlimit:1.5;">
    <rect id="barriers" x="0.834" y="-0" width="650.8" height="479.243" style="fill:none;"/>
    <g>
        <path d="M602.691,378.689L518.256,232.443L372.01,316.878L456.445,463.124L602.691,378.689Z" style="fill:#fff;stroke:#000;stroke-width:4.17px;"/>
        <path d="M602.691,307.636L518.256,161.39L372.01,245.825L456.445,392.071L602.691,307.636Z" style="fill:#fff;stroke:#000;stroke-width:4.17px;"/>
        <path d="M602.691,236.582L518.256,90.336L372.01,174.771L456.445,321.017L602.691,236.582Z" style="fill:#fff;stroke:#000;stroke-width:4.17px;"/>
        <path d="M602.691,165.529L518.256,19.283L372.01,103.718L456.445,249.964L602.691,165.529Z" style="fill:#fff;stroke:#000;stroke-width:4.17px;"/>
        <path d="M77.772,229.627C77.522,229.54 77.397,229.328 77.397,228.992C77.397,228.656 77.522,228.455 77.772,228.39L81.743,227.023C81.862,226.979 81.971,226.957 82.069,226.957C82.405,226.957 82.573,227.223 82.573,227.755L82.573,238.188C82.595,238.676 82.692,238.866 82.866,238.758C82.909,238.714 83.026,238.633 83.216,238.513C83.406,238.394 83.533,238.305 83.598,238.245C83.664,238.185 83.791,238.096 83.981,237.976C84.171,237.857 84.312,237.77 84.404,237.716C84.496,237.662 84.629,237.578 84.803,237.464C84.977,237.35 85.126,237.271 85.251,237.228C85.375,237.184 85.516,237.125 85.674,237.049C85.831,236.973 85.975,236.916 86.105,236.878C86.235,236.84 86.374,236.81 86.52,236.788C86.667,236.767 86.805,236.756 86.935,236.756C88.443,236.756 89.726,237.423 90.784,238.758C91.842,240.092 92.371,241.671 92.371,243.494C92.371,245.805 91.655,247.745 90.223,249.313C88.791,250.881 86.962,251.665 84.738,251.665C83.609,251.665 82.096,251.453 80.197,251.03C79.926,250.943 79.774,250.688 79.741,250.265C79.774,247.552 79.79,244.636 79.79,241.516C79.79,238.397 79.774,235.068 79.741,231.531C79.741,230.891 79.73,230.489 79.709,230.327C79.709,230.11 79.519,229.963 79.139,229.887C78.987,229.844 78.754,229.795 78.439,229.741C78.124,229.686 77.902,229.648 77.772,229.627ZM82.573,243.852C82.573,245.849 82.649,247.159 82.801,247.783C82.953,248.407 83.281,248.908 83.786,249.288C84.29,249.668 84.895,249.858 85.6,249.858C86.729,249.858 87.651,249.375 88.367,248.409C89.084,247.444 89.442,246.147 89.442,244.519C89.442,242.87 89.084,241.554 88.367,240.572C87.651,239.59 86.751,239.099 85.666,239.099C85.004,239.099 84.049,239.555 82.801,240.467C82.671,240.575 82.606,240.884 82.606,241.394C82.606,241.568 82.6,241.94 82.589,242.509C82.579,243.079 82.573,243.526 82.573,243.852Z" style="fill-rule:nonzero;"/>
        <path d="M94.324,248.458C94.324,246.744 95.513,245.577 97.889,244.959C98.551,244.785 99.554,244.395 100.9,243.787C101.074,243.613 101.16,243.472 101.16,243.364L101.128,241.264C101.106,239.441 100.439,238.53 99.126,238.53C98.789,238.53 98.429,238.668 98.043,238.945C97.658,239.221 97.466,239.506 97.466,239.799C97.466,240.157 97.509,240.434 97.596,240.629C97.466,240.781 97.127,240.99 96.579,241.256C96.031,241.522 95.67,241.676 95.496,241.72C95.182,241.828 94.94,241.839 94.772,241.752C94.604,241.666 94.52,241.432 94.52,241.053C94.52,240.25 95.225,239.284 96.636,238.155C97.786,237.244 98.838,236.788 99.793,236.788C100.509,236.788 101.217,236.967 101.917,237.325C102.617,237.683 103.162,238.15 103.553,238.725C103.824,239.105 103.987,239.46 104.041,239.791C104.095,240.122 104.123,240.814 104.123,241.866L104.123,247.758C104.123,248.203 104.152,248.537 104.212,248.759C104.272,248.982 104.334,249.109 104.399,249.142C104.464,249.174 104.551,249.191 104.66,249.191C105.083,249.191 105.506,249.001 105.929,248.621C106.081,248.534 106.211,248.491 106.32,248.491C106.537,248.534 106.678,248.686 106.743,248.946C106.776,249.044 106.792,249.136 106.792,249.223C106.792,249.364 106.759,249.489 106.694,249.597C105.208,250.91 104.019,251.567 103.13,251.567C102.197,251.567 101.594,251.051 101.323,250.021C101.301,249.89 101.215,249.88 101.063,249.988C100.303,250.585 99.695,250.997 99.24,251.225C98.784,251.453 98.258,251.567 97.661,251.567C96.684,251.567 95.884,251.277 95.26,250.696C94.636,250.116 94.324,249.37 94.324,248.458ZM98.833,246.228C97.726,246.673 97.167,247.27 97.156,248.019C97.156,248.464 97.314,248.843 97.628,249.158C97.943,249.473 98.334,249.63 98.8,249.63C99.115,249.63 99.549,249.446 100.102,249.077C100.656,248.708 100.998,248.371 101.128,248.068L101.128,245.821C101.128,245.67 101.101,245.539 101.046,245.431C101.003,245.344 100.954,245.301 100.9,245.301L100.867,245.301C100.292,245.594 99.614,245.903 98.833,246.228Z" style="fill-rule:nonzero;"/>
        <path d="M107.947,250.525L107.947,250.216C107.947,250.162 107.964,250.094 107.996,250.012C108.029,249.931 108.089,249.88 108.175,249.858C108.262,249.836 108.387,249.825 108.55,249.825C109.266,249.825 109.727,249.649 109.933,249.296C110.139,248.944 110.242,248.078 110.242,246.7L110.242,240.792C110.221,240.749 110.204,240.67 110.194,240.556C110.183,240.442 110.166,240.347 110.145,240.271C110.123,240.195 110.08,240.147 110.015,240.125C109.971,240.103 109.749,240.014 109.347,239.856C108.946,239.699 108.647,239.577 108.452,239.49C108.202,239.382 108.067,239.202 108.045,238.953L108.045,238.693C108.045,238.4 108.17,238.221 108.419,238.155C108.778,237.982 109.407,237.748 110.307,237.456C111.262,237.119 111.919,236.864 112.277,236.691C112.407,236.625 112.521,236.593 112.619,236.593C112.716,236.593 112.798,236.62 112.863,236.674C113.004,236.794 113.085,236.978 113.107,237.228C113.107,238.269 113.118,239.023 113.14,239.49C113.736,238.134 114.192,237.369 114.507,237.195C114.8,237.043 115.101,236.967 115.41,236.967C115.719,236.967 115.985,237 116.208,237.065C116.43,237.13 116.715,237.222 117.062,237.342C117.409,237.461 117.681,237.542 117.876,237.586C117.919,237.607 117.976,237.624 118.047,237.635C118.117,237.645 118.163,237.656 118.185,237.667C118.467,237.765 118.608,237.911 118.608,238.107C118.608,238.161 118.597,238.221 118.576,238.286C118.402,238.861 118.071,239.599 117.583,240.499C117.16,240.477 116.704,240.331 116.216,240.06C115.771,239.843 115.402,239.734 115.109,239.734C114.512,239.734 113.883,240.364 113.221,241.622L113.221,246.456C113.221,246.966 113.232,247.514 113.253,248.1C113.275,248.881 113.367,249.359 113.53,249.532C113.693,249.706 114.154,249.793 114.914,249.793L115.646,249.793C115.896,249.793 116.053,249.988 116.118,250.379C116.183,250.769 116.123,251.041 115.939,251.193C115.874,251.236 115.765,251.258 115.613,251.258L112.082,251.225C111.127,251.203 110.367,251.193 109.803,251.193C108.946,251.193 108.517,251.214 108.517,251.258L108.436,251.258C108.251,251.258 108.126,251.203 108.061,251.095C107.975,250.965 107.937,250.775 107.947,250.525Z" style="fill-rule:nonzero;"/>
        <path d="M119.601,250.525L119.601,250.216C119.601,250.162 119.617,250.094 119.65,250.012C119.682,249.931 119.742,249.88 119.829,249.858C119.916,249.836 120.041,249.825 120.203,249.825C120.919,249.825 121.381,249.649 121.587,249.296C121.793,248.944 121.896,248.078 121.896,246.7L121.896,240.792C121.874,240.749 121.858,240.67 121.847,240.556C121.836,240.442 121.82,240.347 121.798,240.271C121.777,240.195 121.733,240.147 121.668,240.125C121.625,240.103 121.402,240.014 121.001,239.856C120.599,239.699 120.301,239.577 120.106,239.49C119.856,239.382 119.72,239.202 119.699,238.953L119.699,238.693C119.699,238.4 119.824,238.221 120.073,238.155C120.431,237.982 121.061,237.748 121.961,237.456C122.916,237.119 123.572,236.864 123.931,236.691C124.061,236.625 124.175,236.593 124.272,236.593C124.37,236.593 124.451,236.62 124.516,236.674C124.658,236.794 124.739,236.978 124.761,237.228C124.761,238.269 124.771,239.023 124.793,239.49C125.39,238.134 125.846,237.369 126.16,237.195C126.453,237.043 126.754,236.967 127.064,236.967C127.373,236.967 127.639,237 127.861,237.065C128.084,237.13 128.368,237.222 128.716,237.342C129.063,237.461 129.334,237.542 129.529,237.586C129.573,237.607 129.63,237.624 129.7,237.635C129.771,237.645 129.817,237.656 129.839,237.667C130.121,237.765 130.262,237.911 130.262,238.107C130.262,238.161 130.251,238.221 130.229,238.286C130.056,238.861 129.725,239.599 129.237,240.499C128.813,240.477 128.358,240.331 127.869,240.06C127.424,239.843 127.056,239.734 126.763,239.734C126.166,239.734 125.536,240.364 124.875,241.622L124.875,246.456C124.875,246.966 124.885,247.514 124.907,248.1C124.929,248.881 125.021,249.359 125.184,249.532C125.347,249.706 125.808,249.793 126.567,249.793L127.3,249.793C127.549,249.793 127.707,249.988 127.772,250.379C127.837,250.769 127.777,251.041 127.593,251.193C127.528,251.236 127.419,251.258 127.267,251.258L123.735,251.225C122.78,251.203 122.021,251.193 121.457,251.193C120.599,251.193 120.171,251.214 120.171,251.258L120.089,251.258C119.905,251.258 119.78,251.203 119.715,251.095C119.628,250.965 119.59,250.775 119.601,250.525Z" style="fill-rule:nonzero;"/>
        <path d="M131.255,250.59L131.255,250.411C131.255,249.999 131.39,249.793 131.662,249.793L132.752,249.679C132.904,249.668 133.032,249.625 133.135,249.549C133.238,249.473 133.327,249.427 133.403,249.41C133.479,249.394 133.533,249.321 133.566,249.191C133.598,249.06 133.634,248.979 133.672,248.946C133.71,248.914 133.734,248.792 133.745,248.58C133.756,248.369 133.761,248.222 133.761,248.141L133.761,241.02C133.761,240.217 133.723,239.75 133.647,239.62C133.604,239.533 133.409,239.457 133.061,239.392C133.018,239.392 132.584,239.273 131.759,239.034C131.564,238.969 131.464,238.785 131.458,238.481C131.453,238.177 131.531,237.971 131.694,237.862C133.116,237.331 134.423,236.864 135.617,236.463C135.758,236.419 135.883,236.398 135.991,236.398C136.425,236.398 136.648,236.739 136.658,237.423L136.658,246.896C136.658,247.72 136.669,248.285 136.691,248.588C136.713,249.12 136.789,249.437 136.919,249.54C137.049,249.644 137.429,249.695 138.058,249.695L138.188,249.695C138.557,249.695 138.769,249.874 138.823,250.232L138.823,250.834C138.823,251.127 138.66,251.274 138.335,251.274C138.281,251.274 138.221,251.268 138.156,251.258C137.646,251.225 136.854,251.209 135.779,251.209C134.705,251.209 133.354,251.225 131.727,251.258C131.64,251.258 131.545,251.187 131.442,251.046C131.339,250.905 131.276,250.753 131.255,250.59ZM133.436,232.215C133.089,231.867 132.915,231.428 132.915,230.896C132.915,230.365 133.099,229.914 133.468,229.545C133.837,229.176 134.277,228.992 134.787,228.992C135.34,228.992 135.801,229.176 136.17,229.545C136.539,229.914 136.723,230.375 136.723,230.929C136.723,231.461 136.534,231.892 136.154,232.223C135.774,232.554 135.307,232.719 134.754,232.719C134.222,232.719 133.783,232.551 133.436,232.215Z" style="fill-rule:nonzero;"/>
        <path d="M140.304,244.422C140.304,242.262 140.955,240.461 142.257,239.018C143.559,237.575 145.187,236.853 147.14,236.853C149.43,236.853 151.041,237.846 151.974,239.832C152.311,240.548 152.609,241.069 152.869,241.394C152.934,241.59 152.967,241.763 152.967,241.915C152.967,242.295 152.75,242.49 152.316,242.501C151.502,242.534 150.385,242.55 148.963,242.55C147.542,242.55 145.822,242.534 143.804,242.501C143.38,242.501 143.169,242.865 143.169,243.592C143.169,245.241 143.608,246.592 144.487,247.644C145.366,248.697 146.473,249.223 147.807,249.223C149.251,249.223 150.542,248.545 151.681,247.189C151.855,246.972 152.077,246.906 152.348,246.993C152.522,247.037 152.658,247.164 152.755,247.376C152.853,247.587 152.858,247.769 152.772,247.921C150.634,250.406 148.545,251.654 146.505,251.665C144.726,251.665 143.247,250.965 142.07,249.565C140.893,248.165 140.304,246.451 140.304,244.422ZM143.608,240.808C143.608,240.873 143.635,240.928 143.69,240.971C143.766,241.025 143.85,241.061 143.942,241.077C144.034,241.093 144.113,241.101 144.178,241.101L148.67,241.101C148.789,241.101 148.914,241.08 149.044,241.036C149.153,241.004 149.207,240.955 149.207,240.89L149.207,240.857C148.741,239.099 147.818,238.221 146.44,238.221C144.552,238.221 143.608,239.083 143.608,240.808Z" style="fill-rule:nonzero;"/>
        <path d="M154.497,250.525L154.497,250.216C154.497,250.162 154.513,250.094 154.546,250.012C154.578,249.931 154.638,249.88 154.725,249.858C154.812,249.836 154.936,249.825 155.099,249.825C155.815,249.825 156.276,249.649 156.483,249.296C156.689,248.944 156.792,248.078 156.792,246.7L156.792,240.792C156.77,240.749 156.754,240.67 156.743,240.556C156.732,240.442 156.716,240.347 156.694,240.271C156.672,240.195 156.629,240.147 156.564,240.125C156.521,240.103 156.298,240.014 155.897,239.856C155.495,239.699 155.197,239.577 155.001,239.49C154.752,239.382 154.616,239.202 154.595,238.953L154.595,238.693C154.595,238.4 154.719,238.221 154.969,238.155C155.327,237.982 155.956,237.748 156.857,237.456C157.812,237.119 158.468,236.864 158.826,236.691C158.957,236.625 159.07,236.593 159.168,236.593C159.266,236.593 159.347,236.62 159.412,236.674C159.553,236.794 159.635,236.978 159.656,237.228C159.656,238.269 159.667,239.023 159.689,239.49C160.286,238.134 160.741,237.369 161.056,237.195C161.349,237.043 161.65,236.967 161.959,236.967C162.269,236.967 162.535,237 162.757,237.065C162.979,237.13 163.264,237.222 163.612,237.342C163.959,237.461 164.23,237.542 164.425,237.586C164.469,237.607 164.526,237.624 164.596,237.635C164.667,237.645 164.713,237.656 164.735,237.667C165.017,237.765 165.158,237.911 165.158,238.107C165.158,238.161 165.147,238.221 165.125,238.286C164.952,238.861 164.621,239.599 164.132,240.499C163.709,240.477 163.253,240.331 162.765,240.06C162.32,239.843 161.951,239.734 161.658,239.734C161.062,239.734 160.432,240.364 159.77,241.622L159.77,246.456C159.77,246.966 159.781,247.514 159.803,248.1C159.825,248.881 159.917,249.359 160.08,249.532C160.242,249.706 160.704,249.793 161.463,249.793L162.195,249.793C162.445,249.793 162.602,249.988 162.667,250.379C162.733,250.769 162.673,251.041 162.488,251.193C162.423,251.236 162.315,251.258 162.163,251.258L158.631,251.225C157.676,251.203 156.917,251.193 156.352,251.193C155.495,251.193 155.067,251.214 155.067,251.258L154.985,251.258C154.801,251.258 154.676,251.203 154.611,251.095C154.524,250.965 154.486,250.775 154.497,250.525Z" style="fill-rule:nonzero;"/>
        <path d="M166.509,240.76C166.509,239.555 166.948,238.57 167.827,237.805C168.706,237.04 169.802,236.658 171.115,236.658C171.961,236.658 172.916,236.88 173.979,237.325C174.034,238.117 174.061,238.834 174.061,239.474C174.061,239.951 174.044,240.391 174.012,240.792C174.012,240.857 173.947,240.93 173.817,241.012C173.686,241.093 173.551,241.134 173.41,241.134C173.062,241.123 172.867,241.009 172.824,240.792C172.672,239.946 172.392,239.306 171.986,238.872C171.579,238.438 171.109,238.221 170.578,238.221C170.111,238.221 169.734,238.367 169.446,238.66C169.159,238.953 169.015,239.322 169.015,239.767C169.015,240.103 169.159,240.453 169.446,240.817C169.734,241.18 170.011,241.468 170.277,241.679C170.542,241.891 170.949,242.173 171.497,242.526C172.045,242.878 172.352,243.076 172.417,243.12C174.196,244.346 175.086,245.702 175.086,247.189C175.086,248.371 174.641,249.383 173.751,250.224C172.862,251.065 171.815,251.485 170.61,251.485C169.872,251.485 169.221,251.366 168.657,251.127C168.527,251.084 168.435,251.051 168.38,251.03C168.272,251.138 168.185,251.268 168.12,251.42C167.773,251.518 167.55,251.567 167.453,251.567L167.42,251.567C167.105,251.523 166.948,251.366 166.948,251.095C166.818,249.782 166.72,248.54 166.655,247.368C166.633,247.194 166.715,247.067 166.899,246.985C167.084,246.904 167.301,246.885 167.55,246.928C167.702,246.993 167.811,247.14 167.876,247.368C168.299,249.212 169.178,250.135 170.513,250.135C171.044,250.135 171.484,249.95 171.831,249.581C172.178,249.212 172.352,248.762 172.352,248.23C172.352,247.59 172.045,246.974 171.432,246.383C170.819,245.792 170.152,245.29 169.43,244.877C168.709,244.465 168.041,243.898 167.428,243.177C166.815,242.455 166.509,241.649 166.509,240.76Z" style="fill-rule:nonzero;"/>
        <g transform="matrix(1,0,0,1,-421.597,29.2596)">
            <g transform="matrix(33.3333,0,0,33.3333,497.808,305.217)">
                <path d="M0.031,-0.312C0.031,-0.348 0.044,-0.378 0.07,-0.401C0.097,-0.424 0.13,-0.435 0.169,-0.435C0.194,-0.435 0.223,-0.428 0.255,-0.415C0.257,-0.391 0.257,-0.37 0.257,-0.351C0.257,-0.336 0.257,-0.323 0.256,-0.311C0.256,-0.309 0.254,-0.307 0.25,-0.304C0.246,-0.302 0.242,-0.301 0.238,-0.301C0.227,-0.301 0.222,-0.305 0.22,-0.311C0.216,-0.336 0.207,-0.356 0.195,-0.369C0.183,-0.382 0.169,-0.388 0.153,-0.388C0.139,-0.388 0.128,-0.384 0.119,-0.375C0.11,-0.366 0.106,-0.355 0.106,-0.342C0.106,-0.332 0.11,-0.321 0.119,-0.31C0.128,-0.299 0.136,-0.291 0.144,-0.284C0.152,-0.278 0.164,-0.27 0.18,-0.259C0.197,-0.248 0.206,-0.243 0.208,-0.241C0.261,-0.204 0.288,-0.164 0.288,-0.119C0.288,-0.084 0.275,-0.053 0.248,-0.028C0.221,-0.003 0.19,0.01 0.154,0.01C0.132,0.01 0.112,0.006 0.095,-0.001C0.091,-0.002 0.089,-0.003 0.087,-0.004C0.084,-0.001 0.081,0.003 0.079,0.008C0.069,0.011 0.062,0.012 0.059,0.012L0.058,0.012C0.049,0.011 0.044,0.006 0.044,-0.002C0.04,-0.041 0.037,-0.079 0.035,-0.114C0.035,-0.119 0.037,-0.123 0.042,-0.125C0.048,-0.128 0.055,-0.128 0.062,-0.127C0.067,-0.125 0.07,-0.121 0.072,-0.114C0.084,-0.058 0.111,-0.031 0.151,-0.031C0.167,-0.031 0.18,-0.036 0.19,-0.047C0.201,-0.058 0.206,-0.072 0.206,-0.088C0.206,-0.107 0.197,-0.126 0.178,-0.143C0.16,-0.161 0.14,-0.176 0.118,-0.188C0.097,-0.201 0.077,-0.218 0.058,-0.24C0.04,-0.261 0.031,-0.285 0.031,-0.312Z" style="fill-rule:nonzero;"/>
            </g>
            <g transform="matrix(33.3333,0,0,33.3333,508.273,305.217)">
                <path d="M0.021,-0.39C0.023,-0.393 0.027,-0.396 0.032,-0.399C0.068,-0.418 0.096,-0.458 0.117,-0.52C0.118,-0.528 0.125,-0.531 0.137,-0.532L0.138,-0.532C0.149,-0.532 0.154,-0.527 0.154,-0.518C0.153,-0.497 0.152,-0.479 0.152,-0.465C0.152,-0.45 0.153,-0.44 0.154,-0.433C0.154,-0.43 0.158,-0.427 0.166,-0.425L0.265,-0.425C0.277,-0.425 0.282,-0.42 0.282,-0.412C0.282,-0.409 0.282,-0.406 0.281,-0.403C0.279,-0.393 0.277,-0.382 0.272,-0.369C0.268,-0.362 0.261,-0.358 0.252,-0.359L0.163,-0.36C0.159,-0.361 0.156,-0.359 0.154,-0.353L0.154,-0.181C0.154,-0.131 0.158,-0.098 0.165,-0.082C0.173,-0.065 0.187,-0.057 0.208,-0.057C0.227,-0.057 0.244,-0.073 0.261,-0.105C0.264,-0.111 0.269,-0.113 0.276,-0.113C0.283,-0.112 0.288,-0.11 0.292,-0.106C0.294,-0.104 0.295,-0.1 0.295,-0.094C0.295,-0.087 0.295,-0.083 0.294,-0.082C0.266,-0.02 0.227,0.011 0.176,0.011C0.144,0.011 0.118,-0.001 0.098,-0.025C0.078,-0.049 0.068,-0.08 0.068,-0.117L0.068,-0.353C0.068,-0.356 0.065,-0.358 0.058,-0.359C0.054,-0.36 0.048,-0.36 0.042,-0.361C0.035,-0.361 0.03,-0.362 0.026,-0.362C0.022,-0.369 0.02,-0.375 0.02,-0.381C0.02,-0.385 0.02,-0.388 0.021,-0.39Z" style="fill-rule:nonzero;"/>
            </g>
            <g transform="matrix(33.3333,0,0,33.3333,518.902,305.217)">
                <path d="M0.02,-0.019L0.02,-0.028C0.02,-0.03 0.021,-0.032 0.021,-0.034C0.022,-0.037 0.024,-0.038 0.027,-0.039C0.029,-0.04 0.033,-0.04 0.038,-0.04C0.06,-0.04 0.073,-0.045 0.08,-0.056C0.086,-0.066 0.089,-0.092 0.089,-0.134L0.089,-0.311C0.088,-0.312 0.088,-0.315 0.087,-0.318C0.087,-0.322 0.087,-0.324 0.086,-0.327C0.085,-0.329 0.084,-0.33 0.082,-0.331C0.081,-0.332 0.074,-0.334 0.062,-0.339C0.05,-0.344 0.041,-0.347 0.035,-0.35C0.028,-0.353 0.024,-0.359 0.023,-0.366L0.023,-0.374C0.023,-0.383 0.027,-0.388 0.034,-0.39C0.045,-0.395 0.064,-0.402 0.091,-0.411C0.119,-0.421 0.139,-0.429 0.15,-0.434C0.154,-0.436 0.157,-0.437 0.16,-0.437C0.163,-0.437 0.166,-0.436 0.167,-0.435C0.172,-0.431 0.174,-0.425 0.175,-0.418C0.175,-0.387 0.175,-0.364 0.176,-0.35C0.194,-0.391 0.207,-0.414 0.217,-0.419C0.226,-0.424 0.235,-0.426 0.244,-0.426C0.253,-0.426 0.261,-0.425 0.268,-0.423C0.274,-0.421 0.283,-0.418 0.293,-0.415C0.304,-0.411 0.312,-0.409 0.318,-0.407C0.319,-0.407 0.321,-0.406 0.323,-0.406C0.325,-0.405 0.326,-0.405 0.327,-0.405C0.336,-0.402 0.34,-0.397 0.34,-0.392C0.34,-0.39 0.34,-0.388 0.339,-0.386C0.334,-0.369 0.324,-0.347 0.309,-0.32C0.296,-0.32 0.283,-0.325 0.268,-0.333C0.255,-0.34 0.244,-0.343 0.235,-0.343C0.217,-0.343 0.198,-0.324 0.178,-0.286L0.178,-0.141C0.178,-0.126 0.179,-0.109 0.179,-0.092C0.18,-0.068 0.183,-0.054 0.188,-0.049C0.192,-0.044 0.206,-0.041 0.229,-0.041L0.251,-0.041C0.258,-0.041 0.263,-0.035 0.265,-0.023C0.267,-0.012 0.265,-0.004 0.26,0.001C0.258,0.002 0.255,0.003 0.25,0.003L0.144,0.002C0.115,0.001 0.093,0.001 0.076,0.001C0.05,0.001 0.037,0.002 0.037,0.003L0.035,0.003C0.029,0.003 0.025,0.001 0.023,-0.002C0.021,-0.006 0.02,-0.012 0.02,-0.019Z" style="fill-rule:nonzero;"/>
            </g>
            <g transform="matrix(33.3333,0,0,33.3333,530.555,305.217)">
                <path d="M0.026,-0.202C0.026,-0.267 0.045,-0.321 0.084,-0.364C0.124,-0.408 0.172,-0.429 0.231,-0.429C0.3,-0.429 0.348,-0.399 0.376,-0.34C0.386,-0.318 0.395,-0.303 0.403,-0.293C0.405,-0.287 0.406,-0.282 0.406,-0.277C0.406,-0.266 0.399,-0.26 0.386,-0.26C0.362,-0.259 0.328,-0.258 0.286,-0.258C0.243,-0.258 0.191,-0.259 0.131,-0.26C0.118,-0.26 0.112,-0.249 0.112,-0.227C0.112,-0.178 0.125,-0.137 0.151,-0.105C0.178,-0.074 0.211,-0.058 0.251,-0.058C0.294,-0.058 0.333,-0.078 0.367,-0.119C0.372,-0.126 0.379,-0.128 0.387,-0.125C0.392,-0.124 0.396,-0.12 0.399,-0.114C0.402,-0.107 0.403,-0.102 0.4,-0.097C0.336,-0.023 0.273,0.015 0.212,0.015C0.159,0.015 0.114,-0.006 0.079,-0.048C0.044,-0.09 0.026,-0.141 0.026,-0.202ZM0.125,-0.311C0.125,-0.309 0.126,-0.307 0.127,-0.306C0.13,-0.304 0.132,-0.303 0.135,-0.302C0.138,-0.302 0.14,-0.302 0.142,-0.302L0.277,-0.302C0.28,-0.302 0.284,-0.302 0.288,-0.304C0.291,-0.305 0.293,-0.306 0.293,-0.308L0.293,-0.309C0.279,-0.362 0.251,-0.388 0.21,-0.388C0.153,-0.388 0.125,-0.362 0.125,-0.311Z" style="fill-rule:nonzero;"/>
            </g>
            <g transform="matrix(33.3333,0,0,33.3333,544.943,305.217)">
                <path d="M0.026,-0.202C0.026,-0.267 0.045,-0.321 0.084,-0.364C0.124,-0.408 0.172,-0.429 0.231,-0.429C0.3,-0.429 0.348,-0.399 0.376,-0.34C0.386,-0.318 0.395,-0.303 0.403,-0.293C0.405,-0.287 0.406,-0.282 0.406,-0.277C0.406,-0.266 0.399,-0.26 0.386,-0.26C0.362,-0.259 0.328,-0.258 0.286,-0.258C0.243,-0.258 0.191,-0.259 0.131,-0.26C0.118,-0.26 0.112,-0.249 0.112,-0.227C0.112,-0.178 0.125,-0.137 0.151,-0.105C0.178,-0.074 0.211,-0.058 0.251,-0.058C0.294,-0.058 0.333,-0.078 0.367,-0.119C0.372,-0.126 0.379,-0.128 0.387,-0.125C0.392,-0.124 0.396,-0.12 0.399,-0.114C0.402,-0.107 0.403,-0.102 0.4,-0.097C0.336,-0.023 0.273,0.015 0.212,0.015C0.159,0.015 0.114,-0.006 0.079,-0.048C0.044,-0.09 0.026,-0.141 0.026,-0.202ZM0.125,-0.311C0.125,-0.309 0.126,-0.307 0.127,-0.306C0.13,-0.304 0.132,-0.303 0.135,-0.302C0.138,-0.302 0.14,-0.302 0.142,-0.302L0.277,-0.302C0.28,-0.302 0.284,-0.302 0.288,-0.304C0.291,-0.305 0.293,-0.306 0.293,-0.308L0.293,-0.309C0.279,-0.362 0.251,-0.388 0.21,-0.388C0.153,-0.388 0.125,-0.362 0.125,-0.311Z" style="fill-rule:nonzero;"/>
            </g>
            <g transform="matrix(33.3333,0,0,33.3333,559.331,305.217)">
                <path d="M0.021,-0.39C0.023,-0.393 0.027,-0.396 0.032,-0.399C0.068,-0.418 0.096,-0.458 0.117,-0.52C0.118,-0.528 0.125,-0.531 0.137,-0.532L0.138,-0.532C0.149,-0.532 0.154,-0.527 0.154,-0.518C0.153,-0.497 0.152,-0.479 0.152,-0.465C0.152,-0.45 0.153,-0.44 0.154,-0.433C0.154,-0.43 0.158,-0.427 0.166,-0.425L0.265,-0.425C0.277,-0.425 0.282,-0.42 0.282,-0.412C0.282,-0.409 0.282,-0.406 0.281,-0.403C0.279,-0.393 0.277,-0.382 0.272,-0.369C0.268,-0.362 0.261,-0.358 0.252,-0.359L0.163,-0.36C0.159,-0.361 0.156,-0.359 0.154,-0.353L0.154,-0.181C0.154,-0.131 0.158,-0.098 0.165,-0.082C0.173,-0.065 0.187,-0.057 0.208,-0.057C0.227,-0.057 0.244,-0.073 0.261,-0.105C0.264,-0.111 0.269,-0.113 0.276,-0.113C0.283,-0.112 0.288,-0.11 0.292,-0.106C0.294,-0.104 0.295,-0.1 0.295,-0.094C0.295,-0.087 0.295,-0.083 0.294,-0.082C0.266,-0.02 0.227,0.011 0.176,0.011C0.144,0.011 0.118,-0.001 0.098,-0.025C0.078,-0.049 0.068,-0.08 0.068,-0.117L0.068,-0.353C0.068,-0.356 0.065,-0.358 0.058,-0.359C0.054,-0.36 0.048,-0.36 0.042,-0.361C0.035,-0.361 0.03,-0.362 0.026,-0.362C0.022,-0.369 0.02,-0.375 0.02,-0.381C0.02,-0.385 0.02,-0.388 0.021,-0.39Z" style="fill-rule:nonzero;"/>
            </g>
            <g transform="matrix(33.3333,0,0,33.3333,578.114,305.217)">
                <path d="M0.025,-0.006C0.024,-0.009 0.023,-0.012 0.023,-0.015C0.023,-0.019 0.024,-0.023 0.025,-0.027C0.028,-0.035 0.032,-0.039 0.038,-0.039L0.043,-0.039C0.064,-0.039 0.078,-0.045 0.085,-0.055C0.091,-0.066 0.094,-0.093 0.094,-0.135L0.094,-0.269C0.094,-0.314 0.093,-0.339 0.09,-0.346C0.089,-0.35 0.077,-0.354 0.056,-0.358L0.036,-0.362C0.03,-0.363 0.027,-0.369 0.027,-0.38C0.028,-0.391 0.031,-0.397 0.036,-0.399C0.05,-0.403 0.079,-0.414 0.122,-0.431C0.135,-0.436 0.145,-0.44 0.152,-0.441C0.155,-0.442 0.158,-0.442 0.16,-0.442C0.166,-0.442 0.171,-0.44 0.174,-0.438C0.179,-0.433 0.181,-0.427 0.181,-0.419L0.181,-0.376C0.181,-0.375 0.182,-0.373 0.183,-0.37C0.184,-0.368 0.185,-0.365 0.186,-0.364C0.187,-0.362 0.188,-0.361 0.189,-0.362C0.252,-0.406 0.301,-0.428 0.336,-0.428C0.412,-0.428 0.45,-0.368 0.45,-0.247C0.45,-0.228 0.449,-0.199 0.446,-0.16C0.443,-0.121 0.442,-0.091 0.442,-0.071C0.442,-0.058 0.444,-0.05 0.449,-0.046C0.454,-0.043 0.465,-0.041 0.484,-0.041C0.493,-0.045 0.5,-0.043 0.505,-0.036C0.507,-0.032 0.509,-0.026 0.509,-0.016C0.509,-0.007 0.506,-0.001 0.501,0.001C0.498,0.002 0.494,0.002 0.488,0.002C0.474,0.002 0.444,0.002 0.396,0.001L0.354,0.001C0.33,0.001 0.313,0.002 0.303,0.002L0.301,0.002C0.288,0.002 0.281,-0.005 0.281,-0.019C0.281,-0.024 0.282,-0.029 0.285,-0.034C0.288,-0.039 0.291,-0.041 0.295,-0.041L0.301,-0.041C0.321,-0.043 0.335,-0.047 0.342,-0.053C0.349,-0.06 0.354,-0.072 0.356,-0.091C0.36,-0.128 0.362,-0.185 0.362,-0.262C0.362,-0.331 0.34,-0.365 0.296,-0.365C0.267,-0.365 0.229,-0.347 0.181,-0.31L0.181,-0.092C0.181,-0.068 0.184,-0.054 0.19,-0.049C0.196,-0.044 0.211,-0.041 0.235,-0.041C0.243,-0.041 0.248,-0.034 0.249,-0.019C0.249,-0.005 0.243,0.002 0.23,0.003C0.219,0.003 0.201,0.002 0.178,0.002L0.096,0.002C0.072,0.002 0.054,0.002 0.043,0.002L0.04,0.002C0.032,0.002 0.027,-0.001 0.025,-0.006Z" style="fill-rule:nonzero;"/>
            </g>
            <g transform="matrix(33.3333,0,0,33.3333,595.546,305.217)">
                <path d="M0.026,-0.202C0.026,-0.267 0.045,-0.321 0.084,-0.364C0.124,-0.408 0.172,-0.429 0.231,-0.429C0.3,-0.429 0.348,-0.399 0.376,-0.34C0.386,-0.318 0.395,-0.303 0.403,-0.293C0.405,-0.287 0.406,-0.282 0.406,-0.277C0.406,-0.266 0.399,-0.26 0.386,-0.26C0.362,-0.259 0.328,-0.258 0.286,-0.258C0.243,-0.258 0.191,-0.259 0.131,-0.26C0.118,-0.26 0.112,-0.249 0.112,-0.227C0.112,-0.178 0.125,-0.137 0.151,-0.105C0.178,-0.074 0.211,-0.058 0.251,-0.058C0.294,-0.058 0.333,-0.078 0.367,-0.119C0.372,-0.126 0.379,-0.128 0.387,-0.125C0.392,-0.124 0.396,-0.12 0.399,-0.114C0.402,-0.107 0.403,-0.102 0.4,-0.097C0.336,-0.023 0.273,0.015 0.212,0.015C0.159,0.015 0.114,-0.006 0.079,-0.048C0.044,-0.09 0.026,-0.141 0.026,-0.202ZM0.125,-0.311C0.125,-0.309 0.126,-0.307 0.127,-0.306C0.13,-0.304 0.132,-0.303 0.135,-0.302C0.138,-0.302 0.14,-0.302 0.142,-0.302L0.277,-0.302C0.28,-0.302 0.284,-0.302 0.288,-0.304C0.291,-0.305 0.293,-0.306 0.293,-0.308L0.293,-0.309C0.279,-0.362 0.251,-0.388 0.21,-0.388C0.153,-0.388 0.125,-0.362 0.125,-0.311Z" style="fill-rule:nonzero;"/>
            </g>
            <g transform="matrix(33.3333,0,0,33.3333,609.934,305.217)">
                <path d="M0.021,-0.39C0.023,-0.393 0.027,-0.396 0.032,-0.399C0.068,-0.418 0.096,-0.458 0.117,-0.52C0.118,-0.528 0.125,-0.531 0.137,-0.532L0.138,-0.532C0.149,-0.532 0.154,-0.527 0.154,-0.518C0.153,-0.497 0.152,-0.479 0.152,-0.465C0.152,-0.45 0.153,-0.44 0.154,-0.433C0.154,-0.43 0.158,-0.427 0.166,-0.425L0.265,-0.425C0.277,-0.425 0.282,-0.42 0.282,-0.412C0.282,-0.409 0.282,-0.406 0.281,-0.403C0.279,-0.393 0.277,-0.382 0.272,-0.369C0.268,-0.362 0.261,-0.358 0.252,-0.359L0.163,-0.36C0.159,-0.361 0.156,-0.359 0.154,-0.353L0.154,-0.181C0.154,-0.131 0.158,-0.098 0.165,-0.082C0.173,-0.065 0.187,-0.057 0.208,-0.057C0.227,-0.057 0.244,-0.073 0.261,-0.105C0.264,-0.111 0.269,-0.113 0.276,-0.113C0.283,-0.112 0.288,-0.11 0.292,-0.106C0.294,-0.104 0.295,-0.1 0.295,-0.094C0.295,-0.087 0.295,-0.083 0.294,-0.082C0.266,-0.02 0.227,0.011 0.176,0.011C0.144,0.011 0.118,-0.001 0.098,-0.025C0.078,-0.049 0.068,-0.08 0.068,-0.117L0.068,-0.353C0.068,-0.356 0.065,-0.358 0.058,-0.359C0.054,-0.36 0.048,-0.36 0.042,-0.361C0.035,-0.361 0.03,-0.362 0.026,-0.362C0.022,-0.369 0.02,-0.375 0.02,-0.381C0.02,-0.385 0.02,-0.388 0.021,-0.39Z" style="fill-rule:nonzero;"/>
            </g>
            <g transform="matrix(33.3333,0,0,33.3333,620.562,305.217)">
                <path d="M0.011,-0.391C0.01,-0.394 0.009,-0.397 0.009,-0.4C0.009,-0.405 0.01,-0.409 0.012,-0.412C0.015,-0.416 0.021,-0.417 0.03,-0.416C0.138,-0.416 0.199,-0.416 0.213,-0.417C0.222,-0.417 0.227,-0.413 0.229,-0.404C0.231,-0.399 0.231,-0.393 0.229,-0.386C0.227,-0.38 0.224,-0.377 0.219,-0.377C0.19,-0.376 0.175,-0.37 0.175,-0.36C0.175,-0.352 0.206,-0.272 0.268,-0.122C0.271,-0.117 0.272,-0.114 0.273,-0.114C0.274,-0.114 0.275,-0.115 0.276,-0.116L0.359,-0.311C0.344,-0.338 0.335,-0.354 0.33,-0.359C0.32,-0.369 0.307,-0.374 0.291,-0.375L0.274,-0.376C0.271,-0.376 0.268,-0.378 0.265,-0.383C0.263,-0.387 0.261,-0.391 0.261,-0.396C0.261,-0.401 0.261,-0.406 0.264,-0.41C0.266,-0.415 0.269,-0.417 0.272,-0.417C0.328,-0.416 0.374,-0.415 0.411,-0.415C0.436,-0.415 0.456,-0.415 0.471,-0.416L0.477,-0.417L0.479,-0.417C0.489,-0.417 0.495,-0.411 0.497,-0.399C0.498,-0.387 0.496,-0.379 0.49,-0.376C0.458,-0.375 0.442,-0.369 0.442,-0.356C0.442,-0.348 0.447,-0.333 0.456,-0.31L0.535,-0.122C0.538,-0.114 0.541,-0.116 0.546,-0.127C0.549,-0.13 0.562,-0.162 0.585,-0.221C0.611,-0.282 0.626,-0.321 0.629,-0.336C0.631,-0.345 0.631,-0.352 0.629,-0.358C0.627,-0.363 0.623,-0.367 0.617,-0.37C0.612,-0.372 0.606,-0.373 0.602,-0.374C0.597,-0.375 0.59,-0.375 0.581,-0.375C0.571,-0.375 0.565,-0.375 0.562,-0.376C0.557,-0.378 0.555,-0.385 0.554,-0.398C0.554,-0.411 0.557,-0.417 0.565,-0.417C0.589,-0.416 0.616,-0.416 0.644,-0.416C0.673,-0.416 0.703,-0.416 0.736,-0.417C0.737,-0.417 0.738,-0.417 0.739,-0.417C0.745,-0.418 0.749,-0.415 0.751,-0.409C0.752,-0.406 0.753,-0.402 0.753,-0.398C0.753,-0.394 0.752,-0.391 0.751,-0.388C0.749,-0.381 0.746,-0.377 0.742,-0.376C0.717,-0.373 0.701,-0.367 0.696,-0.359C0.691,-0.351 0.684,-0.337 0.676,-0.315C0.659,-0.276 0.617,-0.172 0.55,-0.005C0.547,0.003 0.544,0.007 0.541,0.007C0.54,0.007 0.537,0.008 0.532,0.009C0.53,0.009 0.522,0.009 0.509,0.008C0.5,0.007 0.494,0.004 0.491,-0.003L0.391,-0.242C0.388,-0.25 0.385,-0.251 0.382,-0.245C0.367,-0.214 0.348,-0.168 0.323,-0.108C0.298,-0.047 0.284,-0.013 0.281,-0.005C0.277,0.005 0.271,0.01 0.264,0.011C0.262,0.012 0.257,0.012 0.25,0.012C0.242,0.012 0.237,0.012 0.235,0.011C0.229,0.01 0.224,0.005 0.221,-0.004L0.101,-0.297C0.086,-0.333 0.075,-0.355 0.067,-0.363C0.059,-0.37 0.043,-0.375 0.02,-0.376C0.016,-0.377 0.013,-0.382 0.011,-0.391Z" style="fill-rule:nonzero;"/>
            </g>
            <g transform="matrix(33.3333,0,0,33.3333,646.115,305.217)">
                <path d="M0.032,-0.208C0.032,-0.272 0.054,-0.325 0.097,-0.367C0.14,-0.409 0.194,-0.43 0.258,-0.43C0.322,-0.43 0.376,-0.409 0.42,-0.366C0.465,-0.323 0.487,-0.27 0.487,-0.207C0.486,-0.145 0.464,-0.093 0.421,-0.05C0.377,-0.006 0.324,0.015 0.261,0.015C0.196,0.015 0.142,-0.006 0.098,-0.049C0.054,-0.091 0.032,-0.145 0.032,-0.208ZM0.129,-0.237C0.129,-0.179 0.143,-0.13 0.171,-0.091C0.2,-0.052 0.233,-0.032 0.272,-0.032C0.305,-0.032 0.332,-0.048 0.354,-0.078C0.375,-0.109 0.386,-0.147 0.386,-0.192C0.386,-0.247 0.372,-0.292 0.344,-0.329C0.316,-0.365 0.283,-0.384 0.244,-0.384C0.212,-0.384 0.184,-0.37 0.162,-0.342C0.14,-0.315 0.129,-0.279 0.129,-0.237Z" style="fill-rule:nonzero;"/>
            </g>
            <g transform="matrix(33.3333,0,0,33.3333,663.368,305.217)">
                <path d="M0.02,-0.019L0.02,-0.028C0.02,-0.03 0.021,-0.032 0.021,-0.034C0.022,-0.037 0.024,-0.038 0.027,-0.039C0.029,-0.04 0.033,-0.04 0.038,-0.04C0.06,-0.04 0.073,-0.045 0.08,-0.056C0.086,-0.066 0.089,-0.092 0.089,-0.134L0.089,-0.311C0.088,-0.312 0.088,-0.315 0.087,-0.318C0.087,-0.322 0.087,-0.324 0.086,-0.327C0.085,-0.329 0.084,-0.33 0.082,-0.331C0.081,-0.332 0.074,-0.334 0.062,-0.339C0.05,-0.344 0.041,-0.347 0.035,-0.35C0.028,-0.353 0.024,-0.359 0.023,-0.366L0.023,-0.374C0.023,-0.383 0.027,-0.388 0.034,-0.39C0.045,-0.395 0.064,-0.402 0.091,-0.411C0.119,-0.421 0.139,-0.429 0.15,-0.434C0.154,-0.436 0.157,-0.437 0.16,-0.437C0.163,-0.437 0.166,-0.436 0.167,-0.435C0.172,-0.431 0.174,-0.425 0.175,-0.418C0.175,-0.387 0.175,-0.364 0.176,-0.35C0.194,-0.391 0.207,-0.414 0.217,-0.419C0.226,-0.424 0.235,-0.426 0.244,-0.426C0.253,-0.426 0.261,-0.425 0.268,-0.423C0.274,-0.421 0.283,-0.418 0.293,-0.415C0.304,-0.411 0.312,-0.409 0.318,-0.407C0.319,-0.407 0.321,-0.406 0.323,-0.406C0.325,-0.405 0.326,-0.405 0.327,-0.405C0.336,-0.402 0.34,-0.397 0.34,-0.392C0.34,-0.39 0.34,-0.388 0.339,-0.386C0.334,-0.369 0.324,-0.347 0.309,-0.32C0.296,-0.32 0.283,-0.325 0.268,-0.333C0.255,-0.34 0.244,-0.343 0.235,-0.343C0.217,-0.343 0.198,-0.324 0.178,-0.286L0.178,-0.141C0.178,-0.126 0.179,-0.109 0.179,-0.092C0.18,-0.068 0.183,-0.054 0.188,-0.049C0.192,-0.044 0.206,-0.041 0.229,-0.041L0.251,-0.041C0.258,-0.041 0.263,-0.035 0.265,-0.023C0.267,-0.012 0.265,-0.004 0.26,0.001C0.258,0.002 0.255,0.003 0.25,0.003L0.144,0.002C0.115,0.001 0.093,0.001 0.076,0.001C0.05,0.001 0.037,0.002 0.037,0.003L0.035,0.003C0.029,0.003 0.025,0.001 0.023,-0.002C0.021,-0.006 0.02,-0.012 0.02,-0.019Z" style="fill-rule:nonzero;"/>
            </g>
            <g transform="matrix(33.3333,0,0,33.3333,675.021,305.217)">
                <path d="M0.015,-0.663C0.015,-0.674 0.019,-0.68 0.025,-0.681C0.043,-0.686 0.064,-0.693 0.087,-0.702C0.111,-0.712 0.128,-0.719 0.139,-0.722C0.144,-0.723 0.148,-0.724 0.151,-0.724C0.156,-0.724 0.159,-0.723 0.161,-0.721C0.165,-0.717 0.167,-0.711 0.168,-0.7L0.169,-0.296C0.169,-0.292 0.17,-0.288 0.172,-0.284C0.174,-0.28 0.177,-0.279 0.18,-0.282L0.283,-0.357C0.297,-0.367 0.304,-0.375 0.304,-0.379C0.304,-0.381 0.303,-0.382 0.302,-0.383C0.299,-0.384 0.294,-0.385 0.287,-0.385C0.284,-0.385 0.28,-0.385 0.276,-0.385C0.271,-0.386 0.269,-0.386 0.268,-0.386C0.259,-0.388 0.253,-0.391 0.252,-0.396C0.251,-0.399 0.251,-0.403 0.252,-0.407C0.253,-0.42 0.259,-0.426 0.271,-0.426L0.452,-0.426C0.457,-0.426 0.461,-0.425 0.464,-0.42C0.466,-0.416 0.468,-0.411 0.468,-0.405C0.468,-0.4 0.466,-0.395 0.464,-0.39C0.461,-0.385 0.459,-0.383 0.457,-0.383C0.416,-0.382 0.376,-0.368 0.339,-0.339C0.321,-0.325 0.288,-0.301 0.241,-0.267C0.237,-0.262 0.237,-0.257 0.24,-0.253C0.32,-0.17 0.379,-0.11 0.417,-0.071C0.43,-0.058 0.44,-0.05 0.448,-0.045C0.455,-0.041 0.466,-0.039 0.481,-0.039L0.492,-0.039C0.497,-0.037 0.501,-0.033 0.502,-0.025C0.502,-0.023 0.502,-0.021 0.502,-0.019C0.502,-0.014 0.502,-0.01 0.5,-0.006C0.497,0 0.494,0.003 0.49,0.003C0.461,0.001 0.429,0 0.394,0C0.358,0 0.32,0.001 0.279,0.003C0.276,0.003 0.272,0.001 0.27,-0.004C0.267,-0.009 0.265,-0.014 0.265,-0.019C0.265,-0.027 0.267,-0.033 0.27,-0.035C0.272,-0.038 0.278,-0.039 0.285,-0.039C0.303,-0.039 0.313,-0.042 0.313,-0.047C0.313,-0.052 0.306,-0.062 0.293,-0.075L0.179,-0.197C0.173,-0.201 0.169,-0.201 0.169,-0.197L0.169,-0.073C0.169,-0.071 0.169,-0.068 0.169,-0.064C0.17,-0.06 0.17,-0.057 0.171,-0.056C0.172,-0.055 0.173,-0.053 0.174,-0.05C0.176,-0.047 0.178,-0.045 0.18,-0.044C0.182,-0.043 0.185,-0.042 0.188,-0.042C0.191,-0.041 0.195,-0.04 0.199,-0.04L0.228,-0.04C0.231,-0.04 0.234,-0.038 0.237,-0.033C0.24,-0.028 0.241,-0.023 0.241,-0.018C0.241,-0.012 0.24,-0.008 0.237,-0.003C0.234,0.001 0.231,0.003 0.228,0.003C0.179,0.002 0.137,0.001 0.104,0.001C0.07,0.001 0.045,0.002 0.028,0.003L0.027,0.003C0.022,0.003 0.019,-0.002 0.017,-0.013C0.014,-0.024 0.015,-0.031 0.018,-0.035C0.021,-0.039 0.027,-0.041 0.036,-0.041C0.058,-0.041 0.07,-0.045 0.075,-0.054C0.079,-0.063 0.081,-0.09 0.081,-0.135L0.081,-0.57C0.081,-0.592 0.081,-0.609 0.08,-0.622C0.079,-0.63 0.069,-0.636 0.05,-0.638C0.042,-0.642 0.034,-0.644 0.026,-0.644C0.018,-0.646 0.015,-0.651 0.015,-0.66L0.015,-0.663Z" style="fill-rule:nonzero;"/>
            </g>
            <g transform="matrix(33.3333,0,0,33.3333,497.808,338.551)">
                <path d="M0.02,-0.019L0.02,-0.028C0.02,-0.03 0.021,-0.032 0.021,-0.034C0.022,-0.037 0.024,-0.038 0.027,-0.039C0.029,-0.04 0.033,-0.04 0.038,-0.04C0.06,-0.04 0.073,-0.045 0.08,-0.056C0.086,-0.066 0.089,-0.092 0.089,-0.134L0.089,-0.311C0.088,-0.312 0.088,-0.315 0.087,-0.318C0.087,-0.322 0.087,-0.324 0.086,-0.327C0.085,-0.329 0.084,-0.33 0.082,-0.331C0.081,-0.332 0.074,-0.334 0.062,-0.339C0.05,-0.344 0.041,-0.347 0.035,-0.35C0.028,-0.353 0.024,-0.359 0.023,-0.366L0.023,-0.374C0.023,-0.383 0.027,-0.388 0.034,-0.39C0.045,-0.395 0.064,-0.402 0.091,-0.411C0.119,-0.421 0.139,-0.429 0.15,-0.434C0.154,-0.436 0.157,-0.437 0.16,-0.437C0.163,-0.437 0.166,-0.436 0.167,-0.435C0.172,-0.431 0.174,-0.425 0.175,-0.418C0.175,-0.387 0.175,-0.364 0.176,-0.35C0.194,-0.391 0.207,-0.414 0.217,-0.419C0.226,-0.424 0.235,-0.426 0.244,-0.426C0.253,-0.426 0.261,-0.425 0.268,-0.423C0.274,-0.421 0.283,-0.418 0.293,-0.415C0.304,-0.411 0.312,-0.409 0.318,-0.407C0.319,-0.407 0.321,-0.406 0.323,-0.406C0.325,-0.405 0.326,-0.405 0.327,-0.405C0.336,-0.402 0.34,-0.397 0.34,-0.392C0.34,-0.39 0.34,-0.388 0.339,-0.386C0.334,-0.369 0.324,-0.347 0.309,-0.32C0.296,-0.32 0.283,-0.325 0.268,-0.333C0.255,-0.34 0.244,-0.343 0.235,-0.343C0.217,-0.343 0.198,-0.324 0.178,-0.286L0.178,-0.141C0.178,-0.126 0.179,-0.109 0.179,-0.092C0.18,-0.068 0.183,-0.054 0.188,-0.049C0.192,-0.044 0.206,-0.041 0.229,-0.041L0.251,-0.041C0.258,-0.041 0.263,-0.035 0.265,-0.023C0.267,-0.012 0.265,-0.004 0.26,0.001C0.258,0.002 0.255,0.003 0.25,0.003L0.144,0.002C0.115,0.001 0.093,0.001 0.076,0.001C0.05,0.001 0.037,0.002 0.037,0.003L0.035,0.003C0.029,0.003 0.025,0.001 0.023,-0.002C0.021,-0.006 0.02,-0.012 0.02,-0.019Z" style="fill-rule:nonzero;"/>
            </g>
            <g transform="matrix(33.3333,0,0,33.3333,509.462,338.551)">
                <path d="M0.025,-0.081C0.025,-0.132 0.061,-0.167 0.132,-0.186C0.152,-0.191 0.182,-0.203 0.222,-0.221C0.227,-0.226 0.23,-0.231 0.23,-0.234L0.229,-0.297C0.228,-0.352 0.208,-0.379 0.169,-0.379C0.159,-0.379 0.148,-0.375 0.136,-0.366C0.125,-0.358 0.119,-0.35 0.119,-0.341C0.119,-0.33 0.12,-0.322 0.123,-0.316C0.119,-0.311 0.109,-0.305 0.093,-0.297C0.076,-0.289 0.065,-0.285 0.06,-0.283C0.051,-0.28 0.043,-0.28 0.038,-0.282C0.033,-0.285 0.031,-0.292 0.031,-0.303C0.031,-0.327 0.052,-0.356 0.094,-0.39C0.129,-0.417 0.16,-0.431 0.189,-0.431C0.21,-0.431 0.232,-0.426 0.253,-0.415C0.274,-0.404 0.29,-0.39 0.302,-0.373C0.31,-0.362 0.315,-0.351 0.316,-0.341C0.318,-0.331 0.319,-0.31 0.319,-0.279L0.319,-0.102C0.319,-0.089 0.32,-0.079 0.322,-0.072C0.323,-0.065 0.325,-0.062 0.327,-0.061C0.329,-0.06 0.332,-0.059 0.335,-0.059C0.348,-0.059 0.36,-0.065 0.373,-0.076C0.378,-0.079 0.382,-0.08 0.385,-0.08C0.391,-0.079 0.396,-0.074 0.397,-0.066C0.398,-0.063 0.399,-0.061 0.399,-0.058C0.399,-0.054 0.398,-0.05 0.396,-0.047C0.351,-0.007 0.316,0.012 0.289,0.012C0.261,0.012 0.243,-0.003 0.235,-0.034C0.234,-0.038 0.232,-0.038 0.227,-0.035C0.204,-0.017 0.186,-0.005 0.172,0.002C0.159,0.009 0.143,0.012 0.125,0.012C0.096,0.012 0.072,0.003 0.053,-0.014C0.034,-0.031 0.025,-0.054 0.025,-0.081ZM0.16,-0.148C0.127,-0.135 0.11,-0.117 0.11,-0.094C0.11,-0.081 0.115,-0.069 0.124,-0.06C0.133,-0.051 0.145,-0.046 0.159,-0.046C0.169,-0.046 0.182,-0.051 0.198,-0.063C0.215,-0.074 0.225,-0.084 0.229,-0.093L0.229,-0.16C0.229,-0.165 0.228,-0.169 0.227,-0.172C0.225,-0.174 0.224,-0.176 0.222,-0.176L0.221,-0.176C0.204,-0.167 0.184,-0.158 0.16,-0.148Z" style="fill-rule:nonzero;"/>
            </g>
            <g transform="matrix(33.3333,0,0,33.3333,523.247,338.551)">
                <path d="M0.02,-0.017L0.02,-0.022C0.02,-0.035 0.024,-0.041 0.032,-0.041L0.065,-0.044C0.069,-0.045 0.073,-0.046 0.076,-0.048C0.08,-0.051 0.082,-0.052 0.084,-0.052C0.087,-0.053 0.088,-0.055 0.089,-0.059C0.09,-0.063 0.091,-0.065 0.093,-0.066C0.094,-0.067 0.094,-0.071 0.095,-0.077C0.095,-0.084 0.095,-0.088 0.095,-0.091L0.095,-0.304C0.095,-0.328 0.094,-0.342 0.092,-0.346C0.09,-0.349 0.085,-0.351 0.074,-0.353C0.073,-0.353 0.06,-0.357 0.035,-0.364C0.029,-0.366 0.026,-0.371 0.026,-0.38C0.026,-0.389 0.028,-0.396 0.033,-0.399C0.076,-0.415 0.115,-0.429 0.151,-0.441C0.155,-0.442 0.159,-0.443 0.162,-0.443C0.175,-0.443 0.182,-0.433 0.182,-0.412L0.182,-0.128C0.182,-0.103 0.182,-0.086 0.183,-0.077C0.184,-0.061 0.186,-0.052 0.19,-0.049C0.194,-0.045 0.205,-0.044 0.224,-0.044L0.228,-0.044C0.239,-0.044 0.245,-0.039 0.247,-0.028L0.247,-0.01C0.247,-0.001 0.242,0.003 0.232,0.003C0.231,0.003 0.229,0.003 0.227,0.003C0.212,0.002 0.188,0.001 0.156,0.001C0.124,0.001 0.083,0.002 0.034,0.003C0.032,0.003 0.029,0.001 0.026,-0.003C0.023,-0.008 0.021,-0.012 0.02,-0.017ZM0.085,-0.568C0.075,-0.579 0.07,-0.592 0.07,-0.608C0.07,-0.624 0.075,-0.637 0.086,-0.648C0.097,-0.66 0.111,-0.665 0.126,-0.665C0.143,-0.665 0.156,-0.66 0.167,-0.648C0.179,-0.637 0.184,-0.624 0.184,-0.607C0.184,-0.591 0.178,-0.578 0.167,-0.568C0.156,-0.558 0.142,-0.553 0.125,-0.553C0.109,-0.553 0.096,-0.558 0.085,-0.568Z" style="fill-rule:nonzero;"/>
            </g>
            <g transform="matrix(33.3333,0,0,33.3333,532.102,338.551)">
                <path d="M0.025,-0.01C0.024,-0.014 0.023,-0.018 0.023,-0.021C0.023,-0.026 0.024,-0.03 0.026,-0.033C0.028,-0.038 0.03,-0.04 0.032,-0.041C0.034,-0.041 0.039,-0.041 0.046,-0.041C0.069,-0.041 0.084,-0.045 0.09,-0.052C0.096,-0.059 0.099,-0.076 0.099,-0.101L0.099,-0.619C0.099,-0.627 0.095,-0.631 0.088,-0.631L0.04,-0.64C0.034,-0.641 0.03,-0.647 0.03,-0.658C0.029,-0.669 0.033,-0.675 0.04,-0.678C0.087,-0.692 0.129,-0.706 0.167,-0.72L0.168,-0.72C0.173,-0.72 0.177,-0.717 0.181,-0.712C0.185,-0.706 0.187,-0.7 0.187,-0.694L0.187,-0.102C0.187,-0.073 0.189,-0.056 0.193,-0.05C0.197,-0.044 0.209,-0.041 0.23,-0.041C0.245,-0.041 0.253,-0.038 0.254,-0.031L0.254,-0.018C0.254,-0.005 0.249,0.002 0.239,0.002C0.191,0.001 0.15,0.001 0.117,0.001C0.084,0.001 0.059,0.001 0.041,0.002C0.039,0.002 0.036,0.001 0.032,-0.001C0.028,-0.004 0.026,-0.007 0.025,-0.01Z" style="fill-rule:nonzero;"/>
            </g>
            <g transform="matrix(33.3333,0,0,33.3333,541.167,338.551)">
                <path d="M0.011,-0.391C0.01,-0.394 0.009,-0.397 0.009,-0.4C0.009,-0.405 0.01,-0.409 0.012,-0.412C0.015,-0.416 0.021,-0.417 0.03,-0.416C0.138,-0.416 0.199,-0.416 0.213,-0.417C0.222,-0.417 0.227,-0.413 0.229,-0.404C0.231,-0.399 0.231,-0.393 0.229,-0.386C0.227,-0.38 0.224,-0.377 0.219,-0.377C0.19,-0.376 0.175,-0.37 0.175,-0.36C0.175,-0.352 0.206,-0.272 0.268,-0.122C0.271,-0.117 0.272,-0.114 0.273,-0.114C0.274,-0.114 0.275,-0.115 0.276,-0.116L0.359,-0.311C0.344,-0.338 0.335,-0.354 0.33,-0.359C0.32,-0.369 0.307,-0.374 0.291,-0.375L0.274,-0.376C0.271,-0.376 0.268,-0.378 0.265,-0.383C0.263,-0.387 0.261,-0.391 0.261,-0.396C0.261,-0.401 0.261,-0.406 0.264,-0.41C0.266,-0.415 0.269,-0.417 0.272,-0.417C0.328,-0.416 0.374,-0.415 0.411,-0.415C0.436,-0.415 0.456,-0.415 0.471,-0.416L0.477,-0.417L0.479,-0.417C0.489,-0.417 0.495,-0.411 0.497,-0.399C0.498,-0.387 0.496,-0.379 0.49,-0.376C0.458,-0.375 0.442,-0.369 0.442,-0.356C0.442,-0.348 0.447,-0.333 0.456,-0.31L0.535,-0.122C0.538,-0.114 0.541,-0.116 0.546,-0.127C0.549,-0.13 0.562,-0.162 0.585,-0.221C0.611,-0.282 0.626,-0.321 0.629,-0.336C0.631,-0.345 0.631,-0.352 0.629,-0.358C0.627,-0.363 0.623,-0.367 0.617,-0.37C0.612,-0.372 0.606,-0.373 0.602,-0.374C0.597,-0.375 0.59,-0.375 0.581,-0.375C0.571,-0.375 0.565,-0.375 0.562,-0.376C0.557,-0.378 0.555,-0.385 0.554,-0.398C0.554,-0.411 0.557,-0.417 0.565,-0.417C0.589,-0.416 0.616,-0.416 0.644,-0.416C0.673,-0.416 0.703,-0.416 0.736,-0.417C0.737,-0.417 0.738,-0.417 0.739,-0.417C0.745,-0.418 0.749,-0.415 0.751,-0.409C0.752,-0.406 0.753,-0.402 0.753,-0.398C0.753,-0.394 0.752,-0.391 0.751,-0.388C0.749,-0.381 0.746,-0.377 0.742,-0.376C0.717,-0.373 0.701,-0.367 0.696,-0.359C0.691,-0.351 0.684,-0.337 0.676,-0.315C0.659,-0.276 0.617,-0.172 0.55,-0.005C0.547,0.003 0.544,0.007 0.541,0.007C0.54,0.007 0.537,0.008 0.532,0.009C0.53,0.009 0.522,0.009 0.509,0.008C0.5,0.007 0.494,0.004 0.491,-0.003L0.391,-0.242C0.388,-0.25 0.385,-0.251 0.382,-0.245C0.367,-0.214 0.348,-0.168 0.323,-0.108C0.298,-0.047 0.284,-0.013 0.281,-0.005C0.277,0.005 0.271,0.01 0.264,0.011C0.262,0.012 0.257,0.012 0.25,0.012C0.242,0.012 0.237,0.012 0.235,0.011C0.229,0.01 0.224,0.005 0.221,-0.004L0.101,-0.297C0.086,-0.333 0.075,-0.355 0.067,-0.363C0.059,-0.37 0.043,-0.375 0.02,-0.376C0.016,-0.377 0.013,-0.382 0.011,-0.391Z" style="fill-rule:nonzero;"/>
            </g>
            <g transform="matrix(33.3333,0,0,33.3333,566.721,338.551)">
                <path d="M0.025,-0.081C0.025,-0.132 0.061,-0.167 0.132,-0.186C0.152,-0.191 0.182,-0.203 0.222,-0.221C0.227,-0.226 0.23,-0.231 0.23,-0.234L0.229,-0.297C0.228,-0.352 0.208,-0.379 0.169,-0.379C0.159,-0.379 0.148,-0.375 0.136,-0.366C0.125,-0.358 0.119,-0.35 0.119,-0.341C0.119,-0.33 0.12,-0.322 0.123,-0.316C0.119,-0.311 0.109,-0.305 0.093,-0.297C0.076,-0.289 0.065,-0.285 0.06,-0.283C0.051,-0.28 0.043,-0.28 0.038,-0.282C0.033,-0.285 0.031,-0.292 0.031,-0.303C0.031,-0.327 0.052,-0.356 0.094,-0.39C0.129,-0.417 0.16,-0.431 0.189,-0.431C0.21,-0.431 0.232,-0.426 0.253,-0.415C0.274,-0.404 0.29,-0.39 0.302,-0.373C0.31,-0.362 0.315,-0.351 0.316,-0.341C0.318,-0.331 0.319,-0.31 0.319,-0.279L0.319,-0.102C0.319,-0.089 0.32,-0.079 0.322,-0.072C0.323,-0.065 0.325,-0.062 0.327,-0.061C0.329,-0.06 0.332,-0.059 0.335,-0.059C0.348,-0.059 0.36,-0.065 0.373,-0.076C0.378,-0.079 0.382,-0.08 0.385,-0.08C0.391,-0.079 0.396,-0.074 0.397,-0.066C0.398,-0.063 0.399,-0.061 0.399,-0.058C0.399,-0.054 0.398,-0.05 0.396,-0.047C0.351,-0.007 0.316,0.012 0.289,0.012C0.261,0.012 0.243,-0.003 0.235,-0.034C0.234,-0.038 0.232,-0.038 0.227,-0.035C0.204,-0.017 0.186,-0.005 0.172,0.002C0.159,0.009 0.143,0.012 0.125,0.012C0.096,0.012 0.072,0.003 0.053,-0.014C0.034,-0.031 0.025,-0.054 0.025,-0.081ZM0.16,-0.148C0.127,-0.135 0.11,-0.117 0.11,-0.094C0.11,-0.081 0.115,-0.069 0.124,-0.06C0.133,-0.051 0.145,-0.046 0.159,-0.046C0.169,-0.046 0.182,-0.051 0.198,-0.063C0.215,-0.074 0.225,-0.084 0.229,-0.093L0.229,-0.16C0.229,-0.165 0.228,-0.169 0.227,-0.172C0.225,-0.174 0.224,-0.176 0.222,-0.176L0.221,-0.176C0.204,-0.167 0.184,-0.158 0.16,-0.148Z" style="fill-rule:nonzero;"/>
            </g>
            <g transform="matrix(33.3333,0,0,33.3333,580.506,338.551)">
                <path d="M0.01,-0.391C0.008,-0.394 0.008,-0.397 0.008,-0.399C0.008,-0.403 0.009,-0.407 0.011,-0.41C0.014,-0.416 0.019,-0.419 0.028,-0.419L0.205,-0.419C0.215,-0.419 0.22,-0.416 0.223,-0.409C0.225,-0.403 0.225,-0.397 0.222,-0.39C0.219,-0.383 0.216,-0.38 0.213,-0.379C0.199,-0.379 0.189,-0.378 0.182,-0.375C0.175,-0.373 0.172,-0.371 0.171,-0.369C0.17,-0.367 0.17,-0.364 0.17,-0.359C0.17,-0.354 0.174,-0.343 0.181,-0.327C0.191,-0.307 0.2,-0.285 0.208,-0.262C0.217,-0.239 0.226,-0.214 0.237,-0.187C0.248,-0.159 0.256,-0.137 0.263,-0.12C0.265,-0.118 0.267,-0.116 0.268,-0.115C0.269,-0.113 0.27,-0.114 0.271,-0.115L0.329,-0.27C0.344,-0.311 0.352,-0.338 0.352,-0.349C0.352,-0.357 0.351,-0.362 0.35,-0.366C0.348,-0.369 0.343,-0.372 0.336,-0.375C0.328,-0.378 0.316,-0.379 0.299,-0.379C0.294,-0.381 0.291,-0.388 0.291,-0.399C0.291,-0.41 0.295,-0.417 0.302,-0.418L0.311,-0.418C0.331,-0.418 0.356,-0.418 0.386,-0.418C0.417,-0.419 0.441,-0.419 0.458,-0.419C0.467,-0.419 0.473,-0.416 0.475,-0.409C0.476,-0.406 0.476,-0.403 0.476,-0.401C0.476,-0.397 0.475,-0.393 0.474,-0.389C0.471,-0.382 0.468,-0.379 0.465,-0.379C0.446,-0.378 0.431,-0.369 0.419,-0.354C0.408,-0.339 0.393,-0.305 0.374,-0.254L0.255,0.074C0.243,0.106 0.23,0.141 0.214,0.18C0.204,0.204 0.192,0.225 0.178,0.241C0.166,0.257 0.148,0.264 0.125,0.264C0.112,0.264 0.099,0.259 0.088,0.248C0.077,0.236 0.072,0.224 0.072,0.211C0.072,0.189 0.09,0.174 0.126,0.165C0.148,0.159 0.166,0.148 0.181,0.131C0.195,0.114 0.205,0.087 0.212,0.05L0.221,0.006L0.1,-0.288C0.083,-0.33 0.071,-0.355 0.064,-0.364C0.057,-0.372 0.042,-0.377 0.019,-0.379C0.015,-0.38 0.012,-0.384 0.01,-0.391Z" style="fill-rule:nonzero;"/>
            </g>
            <g transform="matrix(33.3333,0,0,33.3333,497.808,371.884)">
                <path d="M0.02,-0.019L0.02,-0.028C0.02,-0.03 0.021,-0.032 0.021,-0.034C0.022,-0.037 0.024,-0.038 0.027,-0.039C0.029,-0.04 0.033,-0.04 0.038,-0.04C0.06,-0.04 0.073,-0.045 0.08,-0.056C0.086,-0.066 0.089,-0.092 0.089,-0.134L0.089,-0.311C0.088,-0.312 0.088,-0.315 0.087,-0.318C0.087,-0.322 0.087,-0.324 0.086,-0.327C0.085,-0.329 0.084,-0.33 0.082,-0.331C0.081,-0.332 0.074,-0.334 0.062,-0.339C0.05,-0.344 0.041,-0.347 0.035,-0.35C0.028,-0.353 0.024,-0.359 0.023,-0.366L0.023,-0.374C0.023,-0.383 0.027,-0.388 0.034,-0.39C0.045,-0.395 0.064,-0.402 0.091,-0.411C0.119,-0.421 0.139,-0.429 0.15,-0.434C0.154,-0.436 0.157,-0.437 0.16,-0.437C0.163,-0.437 0.166,-0.436 0.167,-0.435C0.172,-0.431 0.174,-0.425 0.175,-0.418C0.175,-0.387 0.175,-0.364 0.176,-0.35C0.194,-0.391 0.207,-0.414 0.217,-0.419C0.226,-0.424 0.235,-0.426 0.244,-0.426C0.253,-0.426 0.261,-0.425 0.268,-0.423C0.274,-0.421 0.283,-0.418 0.293,-0.415C0.304,-0.411 0.312,-0.409 0.318,-0.407C0.319,-0.407 0.321,-0.406 0.323,-0.406C0.325,-0.405 0.326,-0.405 0.327,-0.405C0.336,-0.402 0.34,-0.397 0.34,-0.392C0.34,-0.39 0.34,-0.388 0.339,-0.386C0.334,-0.369 0.324,-0.347 0.309,-0.32C0.296,-0.32 0.283,-0.325 0.268,-0.333C0.255,-0.34 0.244,-0.343 0.235,-0.343C0.217,-0.343 0.198,-0.324 0.178,-0.286L0.178,-0.141C0.178,-0.126 0.179,-0.109 0.179,-0.092C0.18,-0.068 0.183,-0.054 0.188,-0.049C0.192,-0.044 0.206,-0.041 0.229,-0.041L0.251,-0.041C0.258,-0.041 0.263,-0.035 0.265,-0.023C0.267,-0.012 0.265,-0.004 0.26,0.001C0.258,0.002 0.255,0.003 0.25,0.003L0.144,0.002C0.115,0.001 0.093,0.001 0.076,0.001C0.05,0.001 0.037,0.002 0.037,0.003L0.035,0.003C0.029,0.003 0.025,0.001 0.023,-0.002C0.021,-0.006 0.02,-0.012 0.02,-0.019Z" style="fill-rule:nonzero;"/>
            </g>
            <g transform="matrix(33.3333,0,0,33.3333,509.462,371.884)">
                <path d="M0.02,-0.017L0.02,-0.022C0.02,-0.035 0.024,-0.041 0.032,-0.041L0.065,-0.044C0.069,-0.045 0.073,-0.046 0.076,-0.048C0.08,-0.051 0.082,-0.052 0.084,-0.052C0.087,-0.053 0.088,-0.055 0.089,-0.059C0.09,-0.063 0.091,-0.065 0.093,-0.066C0.094,-0.067 0.094,-0.071 0.095,-0.077C0.095,-0.084 0.095,-0.088 0.095,-0.091L0.095,-0.304C0.095,-0.328 0.094,-0.342 0.092,-0.346C0.09,-0.349 0.085,-0.351 0.074,-0.353C0.073,-0.353 0.06,-0.357 0.035,-0.364C0.029,-0.366 0.026,-0.371 0.026,-0.38C0.026,-0.389 0.028,-0.396 0.033,-0.399C0.076,-0.415 0.115,-0.429 0.151,-0.441C0.155,-0.442 0.159,-0.443 0.162,-0.443C0.175,-0.443 0.182,-0.433 0.182,-0.412L0.182,-0.128C0.182,-0.103 0.182,-0.086 0.183,-0.077C0.184,-0.061 0.186,-0.052 0.19,-0.049C0.194,-0.045 0.205,-0.044 0.224,-0.044L0.228,-0.044C0.239,-0.044 0.245,-0.039 0.247,-0.028L0.247,-0.01C0.247,-0.001 0.242,0.003 0.232,0.003C0.231,0.003 0.229,0.003 0.227,0.003C0.212,0.002 0.188,0.001 0.156,0.001C0.124,0.001 0.083,0.002 0.034,0.003C0.032,0.003 0.029,0.001 0.026,-0.003C0.023,-0.008 0.021,-0.012 0.02,-0.017ZM0.085,-0.568C0.075,-0.579 0.07,-0.592 0.07,-0.608C0.07,-0.624 0.075,-0.637 0.086,-0.648C0.097,-0.66 0.111,-0.665 0.126,-0.665C0.143,-0.665 0.156,-0.66 0.167,-0.648C0.179,-0.637 0.184,-0.624 0.184,-0.607C0.184,-0.591 0.178,-0.578 0.167,-0.568C0.156,-0.558 0.142,-0.553 0.125,-0.553C0.109,-0.553 0.096,-0.558 0.085,-0.568Z" style="fill-rule:nonzero;"/>
            </g>
            <g transform="matrix(33.3333,0,0,33.3333,518.316,371.884)">
                <path d="M0.013,-0.399C0.015,-0.412 0.019,-0.418 0.027,-0.419C0.029,-0.419 0.035,-0.419 0.045,-0.419C0.06,-0.419 0.083,-0.419 0.114,-0.418C0.137,-0.418 0.157,-0.418 0.174,-0.418C0.198,-0.418 0.218,-0.418 0.233,-0.419C0.236,-0.419 0.238,-0.417 0.24,-0.412C0.243,-0.408 0.244,-0.403 0.244,-0.398C0.244,-0.393 0.243,-0.388 0.24,-0.384C0.237,-0.38 0.234,-0.378 0.231,-0.378L0.222,-0.378C0.209,-0.378 0.199,-0.377 0.192,-0.375C0.185,-0.374 0.182,-0.372 0.181,-0.371C0.18,-0.369 0.179,-0.366 0.179,-0.363C0.179,-0.351 0.212,-0.271 0.278,-0.12C0.28,-0.118 0.282,-0.118 0.285,-0.123C0.288,-0.127 0.291,-0.131 0.292,-0.135C0.327,-0.223 0.356,-0.289 0.377,-0.334C0.379,-0.339 0.38,-0.343 0.38,-0.348C0.38,-0.365 0.362,-0.374 0.324,-0.377L0.319,-0.377C0.316,-0.377 0.315,-0.377 0.314,-0.377C0.313,-0.378 0.312,-0.378 0.311,-0.379C0.31,-0.38 0.309,-0.382 0.308,-0.384C0.306,-0.389 0.305,-0.396 0.307,-0.405C0.308,-0.414 0.312,-0.419 0.317,-0.419C0.343,-0.418 0.371,-0.418 0.4,-0.418C0.429,-0.418 0.459,-0.418 0.491,-0.419C0.5,-0.419 0.504,-0.412 0.504,-0.399C0.503,-0.387 0.499,-0.38 0.493,-0.379C0.475,-0.377 0.461,-0.37 0.451,-0.359C0.442,-0.348 0.428,-0.322 0.41,-0.28L0.29,-0.005C0.286,0.004 0.28,0.009 0.273,0.01C0.271,0.01 0.268,0.01 0.264,0.01L0.258,0.01C0.251,0.01 0.246,0.009 0.244,0.009C0.239,0.007 0.235,0.001 0.231,-0.009L0.104,-0.3L0.089,-0.334C0.088,-0.338 0.086,-0.341 0.085,-0.344C0.083,-0.349 0.081,-0.353 0.078,-0.356C0.075,-0.36 0.072,-0.363 0.07,-0.365C0.068,-0.367 0.064,-0.369 0.059,-0.371C0.053,-0.372 0.05,-0.373 0.049,-0.374C0.048,-0.374 0.043,-0.375 0.036,-0.376C0.029,-0.377 0.024,-0.378 0.023,-0.378C0.016,-0.379 0.012,-0.384 0.012,-0.393C0.012,-0.395 0.012,-0.397 0.013,-0.399Z" style="fill-rule:nonzero;"/>
            </g>
            <g transform="matrix(33.3333,0,0,33.3333,535.503,371.884)">
                <path d="M0.026,-0.202C0.026,-0.267 0.045,-0.321 0.084,-0.364C0.124,-0.408 0.172,-0.429 0.231,-0.429C0.3,-0.429 0.348,-0.399 0.376,-0.34C0.386,-0.318 0.395,-0.303 0.403,-0.293C0.405,-0.287 0.406,-0.282 0.406,-0.277C0.406,-0.266 0.399,-0.26 0.386,-0.26C0.362,-0.259 0.328,-0.258 0.286,-0.258C0.243,-0.258 0.191,-0.259 0.131,-0.26C0.118,-0.26 0.112,-0.249 0.112,-0.227C0.112,-0.178 0.125,-0.137 0.151,-0.105C0.178,-0.074 0.211,-0.058 0.251,-0.058C0.294,-0.058 0.333,-0.078 0.367,-0.119C0.372,-0.126 0.379,-0.128 0.387,-0.125C0.392,-0.124 0.396,-0.12 0.399,-0.114C0.402,-0.107 0.403,-0.102 0.4,-0.097C0.336,-0.023 0.273,0.015 0.212,0.015C0.159,0.015 0.114,-0.006 0.079,-0.048C0.044,-0.09 0.026,-0.141 0.026,-0.202ZM0.125,-0.311C0.125,-0.309 0.126,-0.307 0.127,-0.306C0.13,-0.304 0.132,-0.303 0.135,-0.302C0.138,-0.302 0.14,-0.302 0.142,-0.302L0.277,-0.302C0.28,-0.302 0.284,-0.302 0.288,-0.304C0.291,-0.305 0.293,-0.306 0.293,-0.308L0.293,-0.309C0.279,-0.362 0.251,-0.388 0.21,-0.388C0.153,-0.388 0.125,-0.362 0.125,-0.311Z" style="fill-rule:nonzero;"/>
            </g>
            <g transform="matrix(33.3333,0,0,33.3333,549.891,371.884)">
                <path d="M0.02,-0.019L0.02,-0.028C0.02,-0.03 0.021,-0.032 0.021,-0.034C0.022,-0.037 0.024,-0.038 0.027,-0.039C0.029,-0.04 0.033,-0.04 0.038,-0.04C0.06,-0.04 0.073,-0.045 0.08,-0.056C0.086,-0.066 0.089,-0.092 0.089,-0.134L0.089,-0.311C0.088,-0.312 0.088,-0.315 0.087,-0.318C0.087,-0.322 0.087,-0.324 0.086,-0.327C0.085,-0.329 0.084,-0.33 0.082,-0.331C0.081,-0.332 0.074,-0.334 0.062,-0.339C0.05,-0.344 0.041,-0.347 0.035,-0.35C0.028,-0.353 0.024,-0.359 0.023,-0.366L0.023,-0.374C0.023,-0.383 0.027,-0.388 0.034,-0.39C0.045,-0.395 0.064,-0.402 0.091,-0.411C0.119,-0.421 0.139,-0.429 0.15,-0.434C0.154,-0.436 0.157,-0.437 0.16,-0.437C0.163,-0.437 0.166,-0.436 0.167,-0.435C0.172,-0.431 0.174,-0.425 0.175,-0.418C0.175,-0.387 0.175,-0.364 0.176,-0.35C0.194,-0.391 0.207,-0.414 0.217,-0.419C0.226,-0.424 0.235,-0.426 0.244,-0.426C0.253,-0.426 0.261,-0.425 0.268,-0.423C0.274,-0.421 0.283,-0.418 0.293,-0.415C0.304,-0.411 0.312,-0.409 0.318,-0.407C0.319,-0.407 0.321,-0.406 0.323,-0.406C0.325,-0.405 0.326,-0.405 0.327,-0.405C0.336,-0.402 0.34,-0.397 0.34,-0.392C0.34,-0.39 0.34,-0.388 0.339,-0.386C0.334,-0.369 0.324,-0.347 0.309,-0.32C0.296,-0.32 0.283,-0.325 0.268,-0.333C0.255,-0.34 0.244,-0.343 0.235,-0.343C0.217,-0.343 0.198,-0.324 0.178,-0.286L0.178,-0.141C0.178,-0.126 0.179,-0.109 0.179,-0.092C0.18,-0.068 0.183,-0.054 0.188,-0.049C0.192,-0.044 0.206,-0.041 0.229,-0.041L0.251,-0.041C0.258,-0.041 0.263,-0.035 0.265,-0.023C0.267,-0.012 0.265,-0.004 0.26,0.001C0.258,0.002 0.255,0.003 0.25,0.003L0.144,0.002C0.115,0.001 0.093,0.001 0.076,0.001C0.05,0.001 0.037,0.002 0.037,0.003L0.035,0.003C0.029,0.003 0.025,0.001 0.023,-0.002C0.021,-0.006 0.02,-0.012 0.02,-0.019Z" style="fill-rule:nonzero;"/>
            </g>
            <g transform="matrix(33.3333,0,0,33.3333,561.545,371.884)">
                <path d="M0.031,-0.312C0.031,-0.348 0.044,-0.378 0.07,-0.401C0.097,-0.424 0.13,-0.435 0.169,-0.435C0.194,-0.435 0.223,-0.428 0.255,-0.415C0.257,-0.391 0.257,-0.37 0.257,-0.351C0.257,-0.336 0.257,-0.323 0.256,-0.311C0.256,-0.309 0.254,-0.307 0.25,-0.304C0.246,-0.302 0.242,-0.301 0.238,-0.301C0.227,-0.301 0.222,-0.305 0.22,-0.311C0.216,-0.336 0.207,-0.356 0.195,-0.369C0.183,-0.382 0.169,-0.388 0.153,-0.388C0.139,-0.388 0.128,-0.384 0.119,-0.375C0.11,-0.366 0.106,-0.355 0.106,-0.342C0.106,-0.332 0.11,-0.321 0.119,-0.31C0.128,-0.299 0.136,-0.291 0.144,-0.284C0.152,-0.278 0.164,-0.27 0.18,-0.259C0.197,-0.248 0.206,-0.243 0.208,-0.241C0.261,-0.204 0.288,-0.164 0.288,-0.119C0.288,-0.084 0.275,-0.053 0.248,-0.028C0.221,-0.003 0.19,0.01 0.154,0.01C0.132,0.01 0.112,0.006 0.095,-0.001C0.091,-0.002 0.089,-0.003 0.087,-0.004C0.084,-0.001 0.081,0.003 0.079,0.008C0.069,0.011 0.062,0.012 0.059,0.012L0.058,0.012C0.049,0.011 0.044,0.006 0.044,-0.002C0.04,-0.041 0.037,-0.079 0.035,-0.114C0.035,-0.119 0.037,-0.123 0.042,-0.125C0.048,-0.128 0.055,-0.128 0.062,-0.127C0.067,-0.125 0.07,-0.121 0.072,-0.114C0.084,-0.058 0.111,-0.031 0.151,-0.031C0.167,-0.031 0.18,-0.036 0.19,-0.047C0.201,-0.058 0.206,-0.072 0.206,-0.088C0.206,-0.107 0.197,-0.126 0.178,-0.143C0.16,-0.161 0.14,-0.176 0.118,-0.188C0.097,-0.201 0.077,-0.218 0.058,-0.24C0.04,-0.261 0.031,-0.285 0.031,-0.312Z" style="fill-rule:nonzero;"/>
            </g>
            <g transform="matrix(33.3333,0,0,33.3333,497.808,405.217)">
                <path d="M0.03,-0.193C0.03,-0.26 0.053,-0.316 0.1,-0.363C0.147,-0.409 0.203,-0.432 0.27,-0.432C0.303,-0.432 0.331,-0.426 0.355,-0.414C0.379,-0.401 0.391,-0.385 0.391,-0.364C0.391,-0.352 0.387,-0.343 0.38,-0.335C0.372,-0.327 0.362,-0.323 0.351,-0.323C0.333,-0.323 0.311,-0.335 0.287,-0.358C0.27,-0.375 0.252,-0.384 0.235,-0.384C0.205,-0.384 0.178,-0.367 0.156,-0.334C0.133,-0.302 0.121,-0.262 0.121,-0.216C0.121,-0.167 0.133,-0.128 0.156,-0.098C0.18,-0.068 0.21,-0.053 0.247,-0.053C0.292,-0.053 0.329,-0.073 0.357,-0.114C0.362,-0.126 0.37,-0.131 0.38,-0.128C0.387,-0.125 0.392,-0.12 0.393,-0.112C0.394,-0.11 0.394,-0.108 0.394,-0.106C0.394,-0.102 0.392,-0.097 0.389,-0.093C0.346,-0.023 0.287,0.012 0.213,0.012C0.16,0.012 0.116,-0.007 0.082,-0.046C0.047,-0.085 0.03,-0.134 0.03,-0.193Z" style="fill-rule:nonzero;"/>
            </g>
            <g transform="matrix(33.3333,0,0,33.3333,512.196,405.217)">
                <path d="M0.032,-0.208C0.032,-0.272 0.054,-0.325 0.097,-0.367C0.14,-0.409 0.194,-0.43 0.258,-0.43C0.322,-0.43 0.376,-0.409 0.42,-0.366C0.465,-0.323 0.487,-0.27 0.487,-0.207C0.486,-0.145 0.464,-0.093 0.421,-0.05C0.377,-0.006 0.324,0.015 0.261,0.015C0.196,0.015 0.142,-0.006 0.098,-0.049C0.054,-0.091 0.032,-0.145 0.032,-0.208ZM0.129,-0.237C0.129,-0.179 0.143,-0.13 0.171,-0.091C0.2,-0.052 0.233,-0.032 0.272,-0.032C0.305,-0.032 0.332,-0.048 0.354,-0.078C0.375,-0.109 0.386,-0.147 0.386,-0.192C0.386,-0.247 0.372,-0.292 0.344,-0.329C0.316,-0.365 0.283,-0.384 0.244,-0.384C0.212,-0.384 0.184,-0.37 0.162,-0.342C0.14,-0.315 0.129,-0.279 0.129,-0.237Z" style="fill-rule:nonzero;"/>
            </g>
            <g transform="matrix(33.3333,0,0,33.3333,529.449,405.217)">
                <path d="M0.025,-0.081C0.025,-0.132 0.061,-0.167 0.132,-0.186C0.152,-0.191 0.182,-0.203 0.222,-0.221C0.227,-0.226 0.23,-0.231 0.23,-0.234L0.229,-0.297C0.228,-0.352 0.208,-0.379 0.169,-0.379C0.159,-0.379 0.148,-0.375 0.136,-0.366C0.125,-0.358 0.119,-0.35 0.119,-0.341C0.119,-0.33 0.12,-0.322 0.123,-0.316C0.119,-0.311 0.109,-0.305 0.093,-0.297C0.076,-0.289 0.065,-0.285 0.06,-0.283C0.051,-0.28 0.043,-0.28 0.038,-0.282C0.033,-0.285 0.031,-0.292 0.031,-0.303C0.031,-0.327 0.052,-0.356 0.094,-0.39C0.129,-0.417 0.16,-0.431 0.189,-0.431C0.21,-0.431 0.232,-0.426 0.253,-0.415C0.274,-0.404 0.29,-0.39 0.302,-0.373C0.31,-0.362 0.315,-0.351 0.316,-0.341C0.318,-0.331 0.319,-0.31 0.319,-0.279L0.319,-0.102C0.319,-0.089 0.32,-0.079 0.322,-0.072C0.323,-0.065 0.325,-0.062 0.327,-0.061C0.329,-0.06 0.332,-0.059 0.335,-0.059C0.348,-0.059 0.36,-0.065 0.373,-0.076C0.378,-0.079 0.382,-0.08 0.385,-0.08C0.391,-0.079 0.396,-0.074 0.397,-0.066C0.398,-0.063 0.399,-0.061 0.399,-0.058C0.399,-0.054 0.398,-0.05 0.396,-0.047C0.351,-0.007 0.316,0.012 0.289,0.012C0.261,0.012 0.243,-0.003 0.235,-0.034C0.234,-0.038 0.232,-0.038 0.227,-0.035C0.204,-0.017 0.186,-0.005 0.172,0.002C0.159,0.009 0.143,0.012 0.125,0.012C0.096,0.012 0.072,0.003 0.053,-0.014C0.034,-0.031 0.025,-0.054 0.025,-0.081ZM0.16,-0.148C0.127,-0.135 0.11,-0.117 0.11,-0.094C0.11,-0.081 0.115,-0.069 0.124,-0.06C0.133,-0.051 0.145,-0.046 0.159,-0.046C0.169,-0.046 0.182,-0.051 0.198,-0.063C0.215,-0.074 0.225,-0.084 0.229,-0.093L0.229,-0.16C0.229,-0.165 0.228,-0.169 0.227,-0.172C0.225,-0.174 0.224,-0.176 0.222,-0.176L0.221,-0.176C0.204,-0.167 0.184,-0.158 0.16,-0.148Z" style="fill-rule:nonzero;"/>
            </g>
            <g transform="matrix(33.3333,0,0,33.3333,543.234,405.217)">
                <path d="M0.031,-0.312C0.031,-0.348 0.044,-0.378 0.07,-0.401C0.097,-0.424 0.13,-0.435 0.169,-0.435C0.194,-0.435 0.223,-0.428 0.255,-0.415C0.257,-0.391 0.257,-0.37 0.257,-0.351C0.257,-0.336 0.257,-0.323 0.256,-0.311C0.256,-0.309 0.254,-0.307 0.25,-0.304C0.246,-0.302 0.242,-0.301 0.238,-0.301C0.227,-0.301 0.222,-0.305 0.22,-0.311C0.216,-0.336 0.207,-0.356 0.195,-0.369C0.183,-0.382 0.169,-0.388 0.153,-0.388C0.139,-0.388 0.128,-0.384 0.119,-0.375C0.11,-0.366 0.106,-0.355 0.106,-0.342C0.106,-0.332 0.11,-0.321 0.119,-0.31C0.128,-0.299 0.136,-0.291 0.144,-0.284C0.152,-0.278 0.164,-0.27 0.18,-0.259C0.197,-0.248 0.206,-0.243 0.208,-0.241C0.261,-0.204 0.288,-0.164 0.288,-0.119C0.288,-0.084 0.275,-0.053 0.248,-0.028C0.221,-0.003 0.19,0.01 0.154,0.01C0.132,0.01 0.112,0.006 0.095,-0.001C0.091,-0.002 0.089,-0.003 0.087,-0.004C0.084,-0.001 0.081,0.003 0.079,0.008C0.069,0.011 0.062,0.012 0.059,0.012L0.058,0.012C0.049,0.011 0.044,0.006 0.044,-0.002C0.04,-0.041 0.037,-0.079 0.035,-0.114C0.035,-0.119 0.037,-0.123 0.042,-0.125C0.048,-0.128 0.055,-0.128 0.062,-0.127C0.067,-0.125 0.07,-0.121 0.072,-0.114C0.084,-0.058 0.111,-0.031 0.151,-0.031C0.167,-0.031 0.18,-0.036 0.19,-0.047C0.201,-0.058 0.206,-0.072 0.206,-0.088C0.206,-0.107 0.197,-0.126 0.178,-0.143C0.16,-0.161 0.14,-0.176 0.118,-0.188C0.097,-0.201 0.077,-0.218 0.058,-0.24C0.04,-0.261 0.031,-0.285 0.031,-0.312Z" style="fill-rule:nonzero;"/>
            </g>
            <g transform="matrix(33.3333,0,0,33.3333,553.7,405.217)">
                <path d="M0.021,-0.39C0.023,-0.393 0.027,-0.396 0.032,-0.399C0.068,-0.418 0.096,-0.458 0.117,-0.52C0.118,-0.528 0.125,-0.531 0.137,-0.532L0.138,-0.532C0.149,-0.532 0.154,-0.527 0.154,-0.518C0.153,-0.497 0.152,-0.479 0.152,-0.465C0.152,-0.45 0.153,-0.44 0.154,-0.433C0.154,-0.43 0.158,-0.427 0.166,-0.425L0.265,-0.425C0.277,-0.425 0.282,-0.42 0.282,-0.412C0.282,-0.409 0.282,-0.406 0.281,-0.403C0.279,-0.393 0.277,-0.382 0.272,-0.369C0.268,-0.362 0.261,-0.358 0.252,-0.359L0.163,-0.36C0.159,-0.361 0.156,-0.359 0.154,-0.353L0.154,-0.181C0.154,-0.131 0.158,-0.098 0.165,-0.082C0.173,-0.065 0.187,-0.057 0.208,-0.057C0.227,-0.057 0.244,-0.073 0.261,-0.105C0.264,-0.111 0.269,-0.113 0.276,-0.113C0.283,-0.112 0.288,-0.11 0.292,-0.106C0.294,-0.104 0.295,-0.1 0.295,-0.094C0.295,-0.087 0.295,-0.083 0.294,-0.082C0.266,-0.02 0.227,0.011 0.176,0.011C0.144,0.011 0.118,-0.001 0.098,-0.025C0.078,-0.049 0.068,-0.08 0.068,-0.117L0.068,-0.353C0.068,-0.356 0.065,-0.358 0.058,-0.359C0.054,-0.36 0.048,-0.36 0.042,-0.361C0.035,-0.361 0.03,-0.362 0.026,-0.362C0.022,-0.369 0.02,-0.375 0.02,-0.381C0.02,-0.385 0.02,-0.388 0.021,-0.39Z" style="fill-rule:nonzero;"/>
            </g>
            <g transform="matrix(33.3333,0,0,33.3333,564.328,405.217)">
                <path d="M0.025,-0.01C0.024,-0.014 0.023,-0.018 0.023,-0.021C0.023,-0.026 0.024,-0.03 0.026,-0.033C0.028,-0.038 0.03,-0.04 0.032,-0.041C0.034,-0.041 0.039,-0.041 0.046,-0.041C0.069,-0.041 0.084,-0.045 0.09,-0.052C0.096,-0.059 0.099,-0.076 0.099,-0.101L0.099,-0.619C0.099,-0.627 0.095,-0.631 0.088,-0.631L0.04,-0.64C0.034,-0.641 0.03,-0.647 0.03,-0.658C0.029,-0.669 0.033,-0.675 0.04,-0.678C0.087,-0.692 0.129,-0.706 0.167,-0.72L0.168,-0.72C0.173,-0.72 0.177,-0.717 0.181,-0.712C0.185,-0.706 0.187,-0.7 0.187,-0.694L0.187,-0.102C0.187,-0.073 0.189,-0.056 0.193,-0.05C0.197,-0.044 0.209,-0.041 0.23,-0.041C0.245,-0.041 0.253,-0.038 0.254,-0.031L0.254,-0.018C0.254,-0.005 0.249,0.002 0.239,0.002C0.191,0.001 0.15,0.001 0.117,0.001C0.084,0.001 0.059,0.001 0.041,0.002C0.039,0.002 0.036,0.001 0.032,-0.001C0.028,-0.004 0.026,-0.007 0.025,-0.01Z" style="fill-rule:nonzero;"/>
            </g>
            <g transform="matrix(33.3333,0,0,33.3333,573.394,405.217)">
                <path d="M0.02,-0.017L0.02,-0.022C0.02,-0.035 0.024,-0.041 0.032,-0.041L0.065,-0.044C0.069,-0.045 0.073,-0.046 0.076,-0.048C0.08,-0.051 0.082,-0.052 0.084,-0.052C0.087,-0.053 0.088,-0.055 0.089,-0.059C0.09,-0.063 0.091,-0.065 0.093,-0.066C0.094,-0.067 0.094,-0.071 0.095,-0.077C0.095,-0.084 0.095,-0.088 0.095,-0.091L0.095,-0.304C0.095,-0.328 0.094,-0.342 0.092,-0.346C0.09,-0.349 0.085,-0.351 0.074,-0.353C0.073,-0.353 0.06,-0.357 0.035,-0.364C0.029,-0.366 0.026,-0.371 0.026,-0.38C0.026,-0.389 0.028,-0.396 0.033,-0.399C0.076,-0.415 0.115,-0.429 0.151,-0.441C0.155,-0.442 0.159,-0.443 0.162,-0.443C0.175,-0.443 0.182,-0.433 0.182,-0.412L0.182,-0.128C0.182,-0.103 0.182,-0.086 0.183,-0.077C0.184,-0.061 0.186,-0.052 0.19,-0.049C0.194,-0.045 0.205,-0.044 0.224,-0.044L0.228,-0.044C0.239,-0.044 0.245,-0.039 0.247,-0.028L0.247,-0.01C0.247,-0.001 0.242,0.003 0.232,0.003C0.231,0.003 0.229,0.003 0.227,0.003C0.212,0.002 0.188,0.001 0.156,0.001C0.124,0.001 0.083,0.002 0.034,0.003C0.032,0.003 0.029,0.001 0.026,-0.003C0.023,-0.008 0.021,-0.012 0.02,-0.017ZM0.085,-0.568C0.075,-0.579 0.07,-0.592 0.07,-0.608C0.07,-0.624 0.075,-0.637 0.086,-0.648C0.097,-0.66 0.111,-0.665 0.126,-0.665C0.143,-0.665 0.156,-0.66 0.167,-0.648C0.179,-0.637 0.184,-0.624 0.184,-0.607C0.184,-0.591 0.178,-0.578 0.167,-0.568C0.156,-0.558 0.142,-0.553 0.125,-0.553C0.109,-0.553 0.096,-0.558 0.085,-0.568Z" style="fill-rule:nonzero;"/>
            </g>
            <g transform="matrix(33.3333,0,0,33.3333,582.248,405.217)">
                <path d="M0.025,-0.006C0.024,-0.009 0.023,-0.012 0.023,-0.015C0.023,-0.019 0.024,-0.023 0.025,-0.027C0.028,-0.035 0.032,-0.039 0.038,-0.039L0.043,-0.039C0.064,-0.039 0.078,-0.045 0.085,-0.055C0.091,-0.066 0.094,-0.093 0.094,-0.135L0.094,-0.269C0.094,-0.314 0.093,-0.339 0.09,-0.346C0.089,-0.35 0.077,-0.354 0.056,-0.358L0.036,-0.362C0.03,-0.363 0.027,-0.369 0.027,-0.38C0.028,-0.391 0.031,-0.397 0.036,-0.399C0.05,-0.403 0.079,-0.414 0.122,-0.431C0.135,-0.436 0.145,-0.44 0.152,-0.441C0.155,-0.442 0.158,-0.442 0.16,-0.442C0.166,-0.442 0.171,-0.44 0.174,-0.438C0.179,-0.433 0.181,-0.427 0.181,-0.419L0.181,-0.376C0.181,-0.375 0.182,-0.373 0.183,-0.37C0.184,-0.368 0.185,-0.365 0.186,-0.364C0.187,-0.362 0.188,-0.361 0.189,-0.362C0.252,-0.406 0.301,-0.428 0.336,-0.428C0.412,-0.428 0.45,-0.368 0.45,-0.247C0.45,-0.228 0.449,-0.199 0.446,-0.16C0.443,-0.121 0.442,-0.091 0.442,-0.071C0.442,-0.058 0.444,-0.05 0.449,-0.046C0.454,-0.043 0.465,-0.041 0.484,-0.041C0.493,-0.045 0.5,-0.043 0.505,-0.036C0.507,-0.032 0.509,-0.026 0.509,-0.016C0.509,-0.007 0.506,-0.001 0.501,0.001C0.498,0.002 0.494,0.002 0.488,0.002C0.474,0.002 0.444,0.002 0.396,0.001L0.354,0.001C0.33,0.001 0.313,0.002 0.303,0.002L0.301,0.002C0.288,0.002 0.281,-0.005 0.281,-0.019C0.281,-0.024 0.282,-0.029 0.285,-0.034C0.288,-0.039 0.291,-0.041 0.295,-0.041L0.301,-0.041C0.321,-0.043 0.335,-0.047 0.342,-0.053C0.349,-0.06 0.354,-0.072 0.356,-0.091C0.36,-0.128 0.362,-0.185 0.362,-0.262C0.362,-0.331 0.34,-0.365 0.296,-0.365C0.267,-0.365 0.229,-0.347 0.181,-0.31L0.181,-0.092C0.181,-0.068 0.184,-0.054 0.19,-0.049C0.196,-0.044 0.211,-0.041 0.235,-0.041C0.243,-0.041 0.248,-0.034 0.249,-0.019C0.249,-0.005 0.243,0.002 0.23,0.003C0.219,0.003 0.201,0.002 0.178,0.002L0.096,0.002C0.072,0.002 0.054,0.002 0.043,0.002L0.04,0.002C0.032,0.002 0.027,-0.001 0.025,-0.006Z" style="fill-rule:nonzero;"/>
            </g>
            <g transform="matrix(33.3333,0,0,33.3333,599.68,405.217)">
                <path d="M0.026,-0.202C0.026,-0.267 0.045,-0.321 0.084,-0.364C0.124,-0.408 0.172,-0.429 0.231,-0.429C0.3,-0.429 0.348,-0.399 0.376,-0.34C0.386,-0.318 0.395,-0.303 0.403,-0.293C0.405,-0.287 0.406,-0.282 0.406,-0.277C0.406,-0.266 0.399,-0.26 0.386,-0.26C0.362,-0.259 0.328,-0.258 0.286,-0.258C0.243,-0.258 0.191,-0.259 0.131,-0.26C0.118,-0.26 0.112,-0.249 0.112,-0.227C0.112,-0.178 0.125,-0.137 0.151,-0.105C0.178,-0.074 0.211,-0.058 0.251,-0.058C0.294,-0.058 0.333,-0.078 0.367,-0.119C0.372,-0.126 0.379,-0.128 0.387,-0.125C0.392,-0.124 0.396,-0.12 0.399,-0.114C0.402,-0.107 0.403,-0.102 0.4,-0.097C0.336,-0.023 0.273,0.015 0.212,0.015C0.159,0.015 0.114,-0.006 0.079,-0.048C0.044,-0.09 0.026,-0.141 0.026,-0.202ZM0.125,-0.311C0.125,-0.309 0.126,-0.307 0.127,-0.306C0.13,-0.304 0.132,-0.303 0.135,-0.302C0.138,-0.302 0.14,-0.302 0.142,-0.302L0.277,-0.302C0.28,-0.302 0.284,-0.302 0.288,-0.304C0.291,-0.305 0.293,-0.306 0.293,-0.308L0.293,-0.309C0.279,-0.362 0.251,-0.388 0.21,-0.388C0.153,-0.388 0.125,-0.362 0.125,-0.311Z" style="fill-rule:nonzero;"/>
            </g>
        </g>
        <path d="M211.376,220.36L352.833,122.29" style="fill:none;stroke:#000;stroke-width:2.29px;stroke-dasharray:6.88,6.88,0,0;"/>
        <path d="M211.376,232.443L352.833,183.408" style="fill:none;stroke:#000;stroke-width:2.29px;stroke-dasharray:6.88,6.88,0,0;"/>
        <path d="M211.376,244.527L352.833,244.527" style="fill:none;stroke:#000;stroke-width:2.29px;stroke-dasharray:6.88,6.88,0,0;"/>
        <path d="M211.376,259.143L352.833,310.677" style="fill:none;stroke:#000;stroke-width:2.29px;stroke-dasharray:6.88,6.88,0,0;"/>
        <path d="M53.897,328.677L51.897,328.677C48.097,335.544 45.214,342.777 43.247,350.377C41.281,357.977 40.297,365.71 40.297,373.577C40.297,377.91 40.547,382.027 41.047,385.927C41.547,389.827 42.281,393.627 43.247,397.327C44.214,401.027 45.431,404.677 46.897,408.277C48.364,411.877 50.064,415.577 51.997,419.377L53.997,419.377C50.131,412.31 47.214,404.927 45.247,397.227C43.281,389.527 42.297,381.644 42.297,373.577C42.297,365.71 43.281,357.977 45.247,350.377C47.214,342.777 50.097,335.544 53.897,328.677Z" style="fill-rule:nonzero;"/>
        <path d="M296.275,419.377L298.275,419.377C302.075,412.51 304.958,405.294 306.925,397.727C308.892,390.16 309.875,382.444 309.875,374.577C309.875,370.244 309.625,366.127 309.125,362.227C308.625,358.327 307.892,354.527 306.925,350.827C305.958,347.127 304.742,343.46 303.275,339.827C301.808,336.194 300.108,332.477 298.175,328.677L296.175,328.677C300.042,335.744 302.958,343.144 304.925,350.877C306.892,358.61 307.875,366.51 307.875,374.577C307.875,382.444 306.892,390.16 304.925,397.727C302.958,405.294 300.075,412.51 296.275,419.377Z" style="fill-rule:nonzero;"/>
        <path d="M560.197,332.636C564.243,337.52 567.637,343.218 570.152,350.004C574.972,363.005 579.764,376.085 585.39,388.718" style="fill:none;stroke:#000;stroke-width:2.29px;"/>
        <path d="M433.677,208.754C438.279,205.564 442.792,202.89 447.054,200.929C449.154,199.963 451.194,199.17 453.152,198.574C485.01,188.872 520.427,186.231 545.383,161.455C561.922,145.035 568.396,126.981 569.58,108.147" style="fill:none;stroke:#000;stroke-width:2.29px;"/>
        <path d="M429.825,70.552C459.276,104.69 492.418,136.285 515.735,175.519C521.855,185.815 526.462,197.238 530.663,208.754" style="fill:none;stroke:#000;stroke-width:2.29px;"/>
    </g>
</svg>
