<?xml version="1.0" encoding="UTF-8" standalone="no"?>
<!DOCTYPE svg PUBLIC "-//W3C//DTD SVG 1.1//EN" "http://www.w3.org/Graphics/SVG/1.1/DTD/svg11.dtd">
<svg width="100%" height="100%" viewBox="0 0 652 305" version="1.1" xmlns="http://www.w3.org/2000/svg" xmlns:xlink="http://www.w3.org/1999/xlink" xml:space="preserve" xmlns:serif="http://www.serif.com/" style="fill-rule:evenodd;clip-rule:evenodd;stroke-linecap:round;stroke-miterlimit:1.5;">
    <rect id="clusters" x="0.497" y="0" width="651.138" height="304.856" style="fill:none;"/>
    <g>
        <path d="M78.097,166.494C78.097,164.269 78.876,162.384 80.433,160.838C81.99,159.292 83.881,158.519 86.105,158.519C87.19,158.519 88.134,158.725 88.937,159.137C89.74,159.549 90.141,160.103 90.141,160.797C90.141,161.177 90.014,161.497 89.759,161.757C89.504,162.018 89.187,162.148 88.807,162.148C88.188,162.148 87.478,161.763 86.675,160.993C86.1,160.417 85.519,160.13 84.933,160.13C83.935,160.13 83.053,160.678 82.288,161.774C81.523,162.87 81.141,164.188 81.141,165.729C81.141,167.356 81.534,168.667 82.321,169.66C83.107,170.652 84.114,171.149 85.34,171.149C86.848,171.149 88.069,170.476 89.002,169.131C89.176,168.729 89.431,168.572 89.767,168.659C90.017,168.745 90.163,168.924 90.207,169.196C90.228,169.261 90.239,169.32 90.239,169.375C90.239,169.527 90.185,169.678 90.076,169.83C88.633,172.163 86.675,173.33 84.201,173.33C82.443,173.33 80.986,172.679 79.831,171.377C78.675,170.075 78.097,168.447 78.097,166.494Z" style="fill-rule:nonzero;"/>
        <path d="M92.322,172.597C92.29,172.456 92.274,172.326 92.274,172.207C92.274,172.055 92.301,171.925 92.355,171.816C92.42,171.664 92.488,171.583 92.558,171.572C92.629,171.561 92.784,171.556 93.022,171.556C93.804,171.556 94.295,171.434 94.495,171.189C94.696,170.945 94.796,170.4 94.796,169.554L94.796,152.285C94.796,152.035 94.672,151.905 94.422,151.894L92.827,151.585C92.61,151.542 92.493,151.344 92.477,150.991C92.461,150.638 92.577,150.413 92.827,150.315C94.379,149.871 95.789,149.404 97.059,148.916L97.108,148.916C97.249,148.927 97.384,149.019 97.515,149.192C97.645,149.388 97.715,149.588 97.726,149.795L97.726,169.521C97.726,170.476 97.794,171.054 97.93,171.255C98.065,171.455 98.475,171.556 99.158,171.556C99.647,171.556 99.913,171.67 99.956,171.897L99.956,172.321C99.956,172.766 99.788,172.988 99.451,172.988C97.845,172.966 96.495,172.955 95.399,172.955C94.303,172.955 93.456,172.966 92.86,172.988C92.794,172.988 92.694,172.95 92.558,172.874C92.423,172.798 92.344,172.706 92.322,172.597Z" style="fill-rule:nonzero;"/>
        <path d="M101.209,159.756C101.198,159.69 101.193,159.631 101.193,159.576C101.193,159.349 101.312,159.197 101.551,159.121C101.746,159.077 102.378,158.917 103.447,158.641C104.516,158.364 105.273,158.182 105.718,158.095C105.935,158.052 106.111,158.117 106.247,158.291C106.382,158.464 106.45,158.665 106.45,158.893L106.45,166.754C106.45,168.469 106.629,169.603 106.987,170.156C107.345,170.709 108.034,170.986 109.054,170.986C109.944,170.986 111.089,170.443 112.488,169.358C112.575,169.141 112.619,168.973 112.619,168.854L112.619,162.392C112.619,162.284 112.613,162.124 112.602,161.912C112.592,161.701 112.564,161.532 112.521,161.408C112.478,161.283 112.423,161.15 112.358,161.009C112.293,160.868 112.204,160.751 112.09,160.659C111.976,160.567 111.843,160.51 111.691,160.488C111.376,160.445 111.132,160.401 110.959,160.358C110.937,160.358 110.568,160.303 109.852,160.195C109.656,160.086 109.57,159.875 109.591,159.56C109.613,159.246 109.738,159.056 109.966,158.991C112.32,158.459 113.894,158.15 114.686,158.063L114.816,158.063C115.304,158.063 115.554,158.296 115.565,158.763L115.565,170.188C115.565,170.568 115.692,170.78 115.947,170.823C116.202,170.867 116.46,170.834 116.72,170.726L117.42,170.53C117.615,170.509 117.756,170.601 117.843,170.807C117.898,170.937 117.93,171.073 117.941,171.214C117.941,171.312 117.93,171.404 117.908,171.491C117.854,171.729 117.724,171.876 117.518,171.93C116.313,172.462 115.082,172.858 113.823,173.118C113.649,173.162 113.498,173.183 113.367,173.183C112.912,173.183 112.673,172.95 112.651,172.483L112.602,171.824C112.592,171.645 112.575,171.501 112.554,171.393C112.532,171.057 112.423,170.964 112.228,171.116C111.61,171.561 111.1,171.911 110.698,172.166C110.297,172.421 109.784,172.665 109.16,172.898C108.536,173.132 107.926,173.248 107.329,173.248C106.016,173.248 105.042,172.839 104.407,172.02C103.773,171.2 103.455,170.058 103.455,168.593L103.455,161.692C103.455,161.356 103.417,161.123 103.341,160.993C103.265,160.862 103.103,160.748 102.853,160.651C102.723,160.607 102.514,160.548 102.226,160.472C101.939,160.396 101.714,160.336 101.551,160.293C101.399,160.271 101.285,160.092 101.209,159.756Z" style="fill-rule:nonzero;"/>
        <path d="M119.373,162.522C119.373,161.318 119.813,160.333 120.692,159.568C121.57,158.803 122.666,158.421 123.979,158.421C124.826,158.421 125.781,158.643 126.844,159.088C126.898,159.88 126.925,160.596 126.925,161.237C126.925,161.714 126.909,162.154 126.876,162.555C126.876,162.62 126.811,162.693 126.681,162.775C126.551,162.856 126.415,162.897 126.274,162.897C125.927,162.886 125.732,162.772 125.688,162.555C125.536,161.709 125.257,161.068 124.85,160.634C124.443,160.2 123.974,159.983 123.442,159.983C122.976,159.983 122.599,160.13 122.311,160.423C122.024,160.716 121.88,161.085 121.88,161.53C121.88,161.866 122.024,162.216 122.311,162.579C122.599,162.943 122.875,163.23 123.141,163.442C123.407,163.654 123.814,163.936 124.362,164.288C124.91,164.641 125.216,164.839 125.281,164.882C127.061,166.109 127.951,167.465 127.951,168.951C127.951,170.134 127.506,171.146 126.616,171.987C125.726,172.828 124.679,173.248 123.475,173.248C122.737,173.248 122.086,173.129 121.522,172.89C121.391,172.847 121.299,172.814 121.245,172.793C121.136,172.901 121.05,173.031 120.985,173.183C120.637,173.281 120.415,173.33 120.317,173.33L120.285,173.33C119.97,173.286 119.813,173.129 119.813,172.858C119.682,171.545 119.585,170.302 119.52,169.131C119.498,168.957 119.579,168.829 119.764,168.748C119.948,168.667 120.165,168.648 120.415,168.691C120.567,168.756 120.675,168.903 120.74,169.131C121.164,170.975 122.042,171.897 123.377,171.897C123.909,171.897 124.348,171.713 124.695,171.344C125.043,170.975 125.216,170.525 125.216,169.993C125.216,169.353 124.91,168.737 124.297,168.146C123.684,167.554 123.016,167.053 122.295,166.64C121.573,166.228 120.906,165.661 120.293,164.939C119.68,164.218 119.373,163.412 119.373,162.522Z" style="fill-rule:nonzero;"/>
        <path d="M129.513,159.918C129.578,159.81 129.703,159.712 129.888,159.625C131.07,158.985 132.014,157.64 132.72,155.589C132.763,155.339 132.98,155.209 133.371,155.198L133.419,155.198C133.788,155.198 133.962,155.35 133.94,155.654C133.908,156.37 133.891,156.964 133.891,157.436C133.891,157.908 133.908,158.258 133.94,158.486C133.94,158.595 134.076,158.687 134.347,158.763L137.651,158.763C138.031,158.763 138.221,158.909 138.221,159.202C138.221,159.289 138.205,159.387 138.172,159.495C138.129,159.831 138.031,160.206 137.879,160.618C137.749,160.868 137.526,160.982 137.212,160.96L134.25,160.927C134.119,160.884 134.016,160.96 133.94,161.155L133.94,166.884C133.94,168.555 134.068,169.662 134.323,170.205C134.578,170.747 135.052,171.019 135.747,171.019C136.365,171.019 136.957,170.487 137.521,169.424C137.608,169.228 137.768,169.141 138.001,169.163C138.234,169.185 138.416,169.261 138.546,169.391C138.612,169.456 138.644,169.594 138.644,169.806C138.644,170.018 138.633,170.145 138.612,170.188C137.678,172.261 136.365,173.297 134.673,173.297C133.609,173.297 132.744,172.896 132.077,172.093C131.409,171.29 131.076,170.264 131.076,169.017L131.076,161.155C131.076,161.068 130.967,161.003 130.75,160.96C130.598,160.938 130.417,160.917 130.205,160.895C129.993,160.873 129.817,160.862 129.676,160.862C129.535,160.624 129.464,160.407 129.464,160.211C129.464,160.103 129.481,160.005 129.513,159.918Z" style="fill-rule:nonzero;"/>
        <path d="M140.304,166.185C140.304,164.025 140.955,162.224 142.257,160.781C143.559,159.338 145.187,158.616 147.14,158.616C149.43,158.616 151.041,159.609 151.974,161.595C152.311,162.311 152.609,162.832 152.869,163.157C152.934,163.353 152.967,163.526 152.967,163.678C152.967,164.058 152.75,164.253 152.316,164.264C151.502,164.297 150.385,164.313 148.963,164.313C147.542,164.313 145.822,164.297 143.804,164.264C143.38,164.264 143.169,164.627 143.169,165.354C143.169,167.004 143.608,168.355 144.487,169.407C145.366,170.46 146.473,170.986 147.807,170.986C149.251,170.986 150.542,170.308 151.681,168.951C151.855,168.734 152.077,168.669 152.348,168.756C152.522,168.8 152.658,168.927 152.755,169.139C152.853,169.35 152.858,169.532 152.772,169.684C150.634,172.169 148.545,173.417 146.505,173.427C144.726,173.427 143.247,172.728 142.07,171.328C140.893,169.928 140.304,168.214 140.304,166.185ZM143.608,162.571C143.608,162.636 143.635,162.691 143.69,162.734C143.766,162.788 143.85,162.824 143.942,162.84C144.034,162.856 144.113,162.864 144.178,162.864L148.67,162.864C148.789,162.864 148.914,162.843 149.044,162.799C149.153,162.767 149.207,162.718 149.207,162.653L149.207,162.62C148.741,160.862 147.818,159.983 146.44,159.983C144.552,159.983 143.608,160.846 143.608,162.571Z" style="fill-rule:nonzero;"/>
        <path d="M154.497,172.288L154.497,171.979C154.497,171.925 154.513,171.857 154.546,171.775C154.578,171.694 154.638,171.642 154.725,171.621C154.812,171.599 154.936,171.588 155.099,171.588C155.815,171.588 156.276,171.412 156.483,171.059C156.689,170.707 156.792,169.841 156.792,168.463L156.792,162.555C156.77,162.512 156.754,162.433 156.743,162.319C156.732,162.205 156.716,162.11 156.694,162.034C156.672,161.958 156.629,161.909 156.564,161.888C156.521,161.866 156.298,161.776 155.897,161.619C155.495,161.462 155.197,161.34 155.001,161.253C154.752,161.144 154.616,160.965 154.595,160.716L154.595,160.455C154.595,160.162 154.719,159.983 154.969,159.918C155.327,159.745 155.956,159.511 156.857,159.218C157.812,158.882 158.468,158.627 158.826,158.453C158.957,158.388 159.07,158.356 159.168,158.356C159.266,158.356 159.347,158.383 159.412,158.437C159.553,158.557 159.635,158.741 159.656,158.991C159.656,160.032 159.667,160.786 159.689,161.253C160.286,159.897 160.741,159.132 161.056,158.958C161.349,158.806 161.65,158.73 161.959,158.73C162.269,158.73 162.535,158.763 162.757,158.828C162.979,158.893 163.264,158.985 163.612,159.104C163.959,159.224 164.23,159.305 164.425,159.349C164.469,159.37 164.526,159.387 164.596,159.397C164.667,159.408 164.713,159.419 164.735,159.43C165.017,159.528 165.158,159.674 165.158,159.869C165.158,159.924 165.147,159.983 165.125,160.049C164.952,160.624 164.621,161.361 164.132,162.262C163.709,162.24 163.253,162.094 162.765,161.823C162.32,161.606 161.951,161.497 161.658,161.497C161.062,161.497 160.432,162.126 159.77,163.385L159.77,168.219C159.77,168.729 159.781,169.277 159.803,169.863C159.825,170.644 159.917,171.122 160.08,171.295C160.242,171.469 160.704,171.556 161.463,171.556L162.195,171.556C162.445,171.556 162.602,171.751 162.667,172.142C162.733,172.532 162.673,172.803 162.488,172.955C162.423,172.999 162.315,173.021 162.163,173.021L158.631,172.988C157.676,172.966 156.917,172.955 156.352,172.955C155.495,172.955 155.067,172.977 155.067,173.021L154.985,173.021C154.801,173.021 154.676,172.966 154.611,172.858C154.524,172.728 154.486,172.538 154.497,172.288Z" style="fill-rule:nonzero;"/>
        <path d="M166.509,162.522C166.509,161.318 166.948,160.333 167.827,159.568C168.706,158.803 169.802,158.421 171.115,158.421C171.961,158.421 172.916,158.643 173.979,159.088C174.034,159.88 174.061,160.596 174.061,161.237C174.061,161.714 174.044,162.154 174.012,162.555C174.012,162.62 173.947,162.693 173.817,162.775C173.686,162.856 173.551,162.897 173.41,162.897C173.062,162.886 172.867,162.772 172.824,162.555C172.672,161.709 172.392,161.068 171.986,160.634C171.579,160.2 171.109,159.983 170.578,159.983C170.111,159.983 169.734,160.13 169.446,160.423C169.159,160.716 169.015,161.085 169.015,161.53C169.015,161.866 169.159,162.216 169.446,162.579C169.734,162.943 170.011,163.23 170.277,163.442C170.542,163.654 170.949,163.936 171.497,164.288C172.045,164.641 172.352,164.839 172.417,164.882C174.196,166.109 175.086,167.465 175.086,168.951C175.086,170.134 174.641,171.146 173.751,171.987C172.862,172.828 171.815,173.248 170.61,173.248C169.872,173.248 169.221,173.129 168.657,172.89C168.527,172.847 168.435,172.814 168.38,172.793C168.272,172.901 168.185,173.031 168.12,173.183C167.773,173.281 167.55,173.33 167.453,173.33L167.42,173.33C167.105,173.286 166.948,173.129 166.948,172.858C166.818,171.545 166.72,170.302 166.655,169.131C166.633,168.957 166.715,168.829 166.899,168.748C167.084,168.667 167.301,168.648 167.55,168.691C167.702,168.756 167.811,168.903 167.876,169.131C168.299,170.975 169.178,171.897 170.513,171.897C171.044,171.897 171.484,171.713 171.831,171.344C172.178,170.975 172.352,170.525 172.352,169.993C172.352,169.353 172.045,168.737 171.432,168.146C170.819,167.554 170.152,167.053 169.43,166.64C168.709,166.228 168.041,165.661 167.428,164.939C166.815,164.218 166.509,163.412 166.509,162.522Z" style="fill-rule:nonzero;"/>
        <path d="M211.376,166.29L352.833,166.29" style="fill:none;stroke:#000;stroke-width:2.29px;stroke-dasharray:6.88,6.88,0,0;"/>
        <path d="M565.987,62.697C594.146,84.686 612.266,118.955 612.266,157.422C612.266,189.253 599.859,218.209 579.622,239.712L552.284,206.809L561.909,196.563L536.624,173.61L534.723,164.006L540.208,129.925L532.553,125.483L543.515,95.196L572.679,95.196L565.987,62.697Z" style="fill:#3b6e8c;"/>
        <path d="M376.116,189.174C373.438,179.217 372.01,168.748 372.01,157.947C372.01,91.647 425.838,37.82 492.138,37.82C495.957,37.82 499.734,37.998 503.469,38.349L505.117,60.404L505.726,72.413L492.138,70.211L476.421,70.211L471.185,72.413L471.185,81.534L474.4,92.152L482.301,99.52L474.4,119.822L492.138,134.238L464.95,141.226L476.421,154.712L462.071,165.661L441.621,176.519L430.92,168.299L415.799,182.073L403.629,188.818L376.259,189.176L376.116,189.174Z" style="fill:#bc5b4f;"/>
        <path d="M503.429,37.82C526.882,40.009 548.386,48.953 565.975,62.688L570.6,95.196L543.515,95.196L532.553,125.483L540.208,129.925L534.239,161.561L536.624,173.61L561.909,196.563L552.284,206.809L570.6,227.198L579.622,239.712C557.706,263.001 526.607,277.55 492.138,277.55C436.83,277.55 390.202,240.092 376.259,189.176L407.451,189.176L431.435,168.695L442.591,176.072L476.596,155.025L465.455,141.736L490.967,134.539L474.401,120.278L475.389,113.182L482.909,99.121L474.401,90.735L471.185,73.266L476.421,70.211L505.183,72.413L506.568,69.02L502.921,42.16L503.429,37.82Z" style="fill:#efc758;"/>
        <g>
            <circle cx="492.138" cy="157.422" r="120.128" style="fill:none;stroke:#000;stroke-width:2.29px;stroke-dasharray:6.88,6.88,0,0;"/>
            <path d="M467.331,41.17C468.105,59.578 470.199,84.891 475.496,91.953C501.786,127.004 562.162,121.317 579.727,168.699C585.54,184.381 591.314,200.179 598.56,215.168" style="fill:none;stroke:#000;stroke-width:2.29px;"/>
            <path d="M431.005,261.067C441.994,251.697 453.295,244.266 462.727,241.393C494.585,231.691 530.002,229.05 554.958,204.274C596.912,162.623 574.098,110.454 564.478,61.721" style="fill:none;stroke:#000;stroke-width:2.29px;"/>
            <path d="M403.629,76.546C417.414,88.932 432.731,105.555 438.198,111.892C467.649,146.03 501.993,179.105 525.31,218.338C533.885,232.766 539.491,249.406 545.171,265.417" style="fill:none;stroke:#000;stroke-width:2.29px;"/>
            <path d="M500.203,111.892C500.203,111.892 518.666,88.622 519.191,84.844C519.716,81.066 505.726,72.413 505.726,72.413" style="fill:none;stroke:#000;stroke-width:2.29px;"/>
            <path d="M531.986,125.469C531.986,125.469 540.598,99.2 543.374,94.476C546.15,89.752 519.205,84.844 519.205,84.844" style="fill:none;stroke:#000;stroke-width:2.29px;"/>
            <path d="M572.679,94.476L543.374,94.476" style="fill:none;stroke:#000;stroke-width:2.29px;"/>
            <path d="M471.185,72.394C479.562,66.498 498.009,71.486 503.807,72.394C509.604,73.302 500.058,40.443 503.807,37.294" style="fill:none;stroke:#000;stroke-width:2.29px;"/>
            <path d="M506.568,190.7C515.425,190.7 535.12,173.093 536.706,173.622C537.602,173.92 544.384,179.549 546.873,181.761C549.882,184.433 561.909,194.515 561.909,196.563" style="fill:none;stroke:#000;stroke-width:2.29px;"/>
            <path d="M540.208,129.925C540.208,135.741 535.046,160.292 533.801,162.782C533.4,163.585 536.624,169.03 536.624,173.61" style="fill:none;stroke:#000;stroke-width:2.29px;"/>
            <path d="M488.91,168.504C494.399,168.504 505.456,166.714 509.933,162.238C512.311,159.86 516.554,156.238 519.678,155.197C520.453,154.939 531.613,160.817 533.767,162.97" style="fill:none;stroke:#000;stroke-width:2.29px;"/>
            <path d="M519.741,155.189C519.785,155.154 505.564,143.681 502.441,140.558C501.609,139.726 503.744,134.965 504.076,134.434C507.28,129.299 509.918,124.081 509.918,118.072" style="fill:none;stroke:#000;stroke-width:2.29px;"/>
            <path d="M464.95,141.226C471.502,139.914 491.093,133.715 491.995,134.166C494.745,135.541 499.876,138.409 502.25,140.372" style="fill:none;stroke:#000;stroke-width:2.29px;"/>
            <path d="M492.138,134.143C490.931,133.418 473.126,121.872 473.786,117.916C474.601,113.038 480.148,104.115 482.301,99.52" style="fill:none;stroke:#000;stroke-width:2.29px;"/>
            <path d="M446.282,119.165C450.178,116.568 456.527,113.868 458.568,113.224C461.073,112.433 472.22,118.668 473.769,119.165" style="fill:none;stroke:#000;stroke-width:2.29px;"/>
            <path d="M423.538,94.902C434.326,87.008 443.636,85.045 446.352,82.329C446.751,81.929 446.344,80.517 446.235,79.869C445.812,77.328 440.31,54.472 438.709,50.313" style="fill:none;stroke:#000;stroke-width:2.29px;"/>
            <path d="M446.282,82.397C454.21,86.361 463.665,81.534 471.185,81.534" style="fill:none;stroke:#000;stroke-width:2.29px;"/>
            <path d="M498.514,232.13C498.317,232.09 503.513,239.485 504.336,241.139C508.871,250.263 510.709,258.157 511.714,268.155C511.881,269.814 512.165,274.757 510.802,276.119" style="fill:none;stroke:#000;stroke-width:2.29px;"/>
            <path d="M471.231,238.97C471.231,248.806 469.923,258.332 468.362,267.678C467.855,270.714 471.231,273.561 471.231,276.077" style="fill:none;stroke:#000;stroke-width:2.29px;"/>
            <path d="M498.514,232.13C498.507,232.01 493.481,221.922 490.581,218.615C484.391,211.556 476.058,206.751 469.534,200.228C469.018,199.712 484.95,182.068 486.5,177.453C487.446,174.634 489.093,171.685 489.093,168.749" style="fill:none;stroke:#000;stroke-width:2.29px;"/>
            <path d="M403.2,238.05C406.427,238.05 432.495,210.833 433.988,207.848C434.449,206.925 451.992,240.769 455.503,244.28" style="fill:none;stroke:#000;stroke-width:2.29px;"/>
            <path d="M433.988,207.848C438.538,207.848 462.559,200.228 469.534,200.228" style="fill:none;stroke:#000;stroke-width:2.29px;"/>
            <path d="M374.033,143.195C391.805,141.986 409.342,158.062 409.779,157.625C413.932,153.471 447.088,122.136 447.088,121.692" style="fill:none;stroke:#000;stroke-width:2.29px;"/>
            <path d="M409.293,157.422C414.172,161.326 433.305,168.865 435.855,170.892C437.918,172.531 439.416,175.586 441.463,176.609C441.667,176.711 457.396,168.08 459.776,167.081C461.354,166.419 476.421,155.674 476.421,154.712" style="fill:none;stroke:#000;stroke-width:2.29px;"/>
            <path d="M441.621,176.519C441.621,178.702 440.322,191.593 441.11,194.55C441.941,197.668 444.152,205.083 444.112,205.198" style="fill:none;stroke:#000;stroke-width:2.29px;"/>
            <path d="M376.259,189.176C385.266,189.176 398.564,191.131 407.123,187.778C412.79,185.558 430.92,169.75 430.92,168.295" style="fill:none;stroke:#000;stroke-width:2.29px;"/>
            <path d="M552.284,206.809C552.284,206.809 576.763,232.537 579.622,239.712" style="fill:none;stroke:#000;stroke-width:2.29px;"/>
            <path d="M579.622,138.449L610.008,134.143" style="fill:none;stroke:#000;stroke-width:2.29px;"/>
            <path d="M574.689,106.584C574.689,106.584 594.818,101.041 594.712,94.902" style="fill:none;stroke:#000;stroke-width:2.29px;"/>
        </g>
    </g>
</svg>
