<?xml version="1.0" encoding="UTF-8" standalone="no"?>
<!DOCTYPE svg PUBLIC "-//W3C//DTD SVG 1.1//EN" "http://www.w3.org/Graphics/SVG/1.1/DTD/svg11.dtd">
<svg width="100%" height="100%" viewBox="0 0 261 260" version="1.1" xmlns="http://www.w3.org/2000/svg" xmlns:xlink="http://www.w3.org/1999/xlink" xml:space="preserve" xmlns:serif="http://www.serif.com/" style="fill-rule:evenodd;clip-rule:evenodd;stroke-linecap:round;stroke-miterlimit:1.5;">
    <rect id="clusters_no_labels" x="0.065" y="0" width="260.004" height="260.004" style="fill:none;"/>
    <g>
        <path d="M202.509,35.064C230.668,57.053 248.788,91.322 248.788,129.789C248.788,161.62 236.381,190.576 216.144,212.079L188.807,179.176L198.432,168.931L173.147,145.977L171.246,136.374L176.73,102.292L169.076,97.851L180.038,67.564L209.201,67.564L202.509,35.064Z" style="fill:#3b6e8c;"/>
        <path d="M12.639,161.541C9.961,151.584 8.533,141.115 8.533,130.315C8.533,64.014 62.36,10.187 128.66,10.187C132.479,10.187 136.257,10.365 139.991,10.716L141.64,32.771L142.249,44.78L128.66,42.578L112.943,42.578L107.707,44.78L107.707,53.901L110.923,64.519L118.824,71.887L110.923,92.189L128.66,106.605L101.472,113.594L112.943,127.079L98.594,138.028L78.143,148.886L67.443,140.666L52.322,154.44L40.152,161.186L12.781,161.544L12.639,161.541Z" style="fill:#bc5b4f;"/>
        <path d="M139.952,10.187C163.404,12.376 184.909,21.321 202.498,35.055L207.123,67.564L180.038,67.564L169.076,97.851L176.73,102.292L170.762,133.928L173.147,145.977L198.432,168.931L188.807,179.176L207.123,199.565L216.144,212.079C194.228,235.368 163.13,249.917 128.66,249.917C73.353,249.917 26.725,212.459 12.782,161.544L43.973,161.544L67.958,141.062L79.113,148.439L113.119,127.392L101.978,114.103L127.489,106.906L110.924,92.645L111.911,85.55L119.432,71.488L110.924,63.103L107.707,45.633L112.943,42.578L141.706,44.78L143.091,41.388L139.444,14.527L139.952,10.187Z" style="fill:#efc758;"/>
        <g>
            <circle cx="128.66" cy="129.789" r="120.128" style="fill:none;stroke:#000;stroke-width:2.29px;stroke-dasharray:6.88,6.88,0,0;"/>
            <path d="M103.854,13.537C104.628,31.946 106.721,57.259 112.018,64.321C138.309,99.371 198.685,93.684 216.25,141.066C222.063,156.749 227.837,172.547 235.083,187.535" style="fill:none;stroke:#000;stroke-width:2.29px;"/>
            <path d="M67.528,233.434C78.517,224.064 89.818,216.633 99.249,213.76C131.108,204.058 166.525,201.417 191.481,176.641C233.434,134.99 210.621,82.821 201.001,34.088" style="fill:none;stroke:#000;stroke-width:2.29px;"/>
            <path d="M40.152,48.913C53.937,61.3 69.253,77.922 74.72,84.259C104.171,118.397 138.515,151.472 161.833,190.705C170.408,205.134 176.014,221.774 181.694,237.784" style="fill:none;stroke:#000;stroke-width:2.29px;"/>
            <path d="M136.725,84.259C136.725,84.259 155.189,60.989 155.714,57.211C156.238,53.434 142.249,44.78 142.249,44.78" style="fill:none;stroke:#000;stroke-width:2.29px;"/>
            <path d="M168.509,97.836C168.509,97.836 177.121,71.567 179.897,66.843C182.673,62.119 155.728,57.211 155.728,57.211" style="fill:none;stroke:#000;stroke-width:2.29px;"/>
            <path d="M209.201,66.843L179.897,66.843" style="fill:none;stroke:#000;stroke-width:2.29px;"/>
            <path d="M107.707,44.761C116.084,38.865 134.532,43.853 140.329,44.761C146.127,45.67 136.581,12.81 140.329,9.662" style="fill:none;stroke:#000;stroke-width:2.29px;"/>
            <path d="M143.091,163.067C151.947,163.067 171.642,145.46 173.229,145.989C174.125,146.287 180.906,151.917 183.396,154.128C186.404,156.8 198.432,166.882 198.432,168.931" style="fill:none;stroke:#000;stroke-width:2.29px;"/>
            <path d="M176.73,102.292C176.73,108.108 171.569,132.66 170.324,135.15C169.923,135.952 173.147,141.397 173.147,145.977" style="fill:none;stroke:#000;stroke-width:2.29px;"/>
            <path d="M125.433,140.871C130.922,140.871 141.979,139.082 146.455,134.605C148.833,132.227 153.077,128.606 156.2,127.565C156.975,127.306 168.136,133.184 170.289,135.337" style="fill:none;stroke:#000;stroke-width:2.29px;"/>
            <path d="M156.264,127.556C156.307,127.522 142.086,116.048 138.964,112.925C138.131,112.093 140.267,107.333 140.599,106.801C143.803,101.666 146.441,96.448 146.441,90.439" style="fill:none;stroke:#000;stroke-width:2.29px;"/>
            <path d="M101.472,113.594C108.025,112.281 127.615,106.082 128.518,106.533C131.268,107.908 136.399,110.776 138.773,112.739" style="fill:none;stroke:#000;stroke-width:2.29px;"/>
            <path d="M128.66,106.51C127.453,105.786 109.649,94.239 110.309,90.283C111.123,85.405 116.671,76.482 118.824,71.887" style="fill:none;stroke:#000;stroke-width:2.29px;"/>
            <path d="M82.805,91.532C86.7,88.935 93.05,86.236 95.091,85.591C97.595,84.8 108.742,91.036 110.291,91.532" style="fill:none;stroke:#000;stroke-width:2.29px;"/>
            <path d="M60.061,67.269C70.848,59.375 80.158,57.412 82.875,54.696C83.274,54.296 82.866,52.884 82.758,52.236C82.335,49.696 76.833,26.84 75.232,22.68" style="fill:none;stroke:#000;stroke-width:2.29px;"/>
            <path d="M82.805,54.764C90.732,58.728 100.187,53.901 107.707,53.901" style="fill:none;stroke:#000;stroke-width:2.29px;"/>
            <path d="M135.037,204.497C134.839,204.458 140.036,211.852 140.858,213.506C145.393,222.63 147.231,230.524 148.237,240.522C148.404,242.181 148.688,247.124 147.325,248.487" style="fill:none;stroke:#000;stroke-width:2.29px;"/>
            <path d="M107.754,211.338C107.754,221.173 106.445,230.699 104.885,240.045C104.378,243.081 107.754,245.928 107.754,248.445" style="fill:none;stroke:#000;stroke-width:2.29px;"/>
            <path d="M135.037,204.497C135.03,204.377 130.004,194.289 127.104,190.983C120.914,183.924 112.581,179.119 106.057,172.595C105.54,172.079 121.473,154.435 123.023,149.82C123.969,147.001 125.615,144.053 125.615,141.116" style="fill:none;stroke:#000;stroke-width:2.29px;"/>
            <path d="M39.722,210.418C42.949,210.418 69.018,183.2 70.51,180.215C70.972,179.292 88.515,213.136 92.026,216.647" style="fill:none;stroke:#000;stroke-width:2.29px;"/>
            <path d="M70.51,180.215C75.061,180.215 99.082,172.595 106.057,172.595" style="fill:none;stroke:#000;stroke-width:2.29px;"/>
            <path d="M10.556,115.562C28.327,114.354 45.865,130.429 46.301,129.992C50.455,125.838 83.611,94.503 83.611,94.06" style="fill:none;stroke:#000;stroke-width:2.29px;"/>
            <path d="M45.816,129.789C50.695,133.693 69.827,141.232 72.378,143.259C74.441,144.898 75.938,147.953 77.986,148.976C78.19,149.078 93.919,140.447 96.299,139.449C97.877,138.786 112.943,128.041 112.943,127.079" style="fill:none;stroke:#000;stroke-width:2.29px;"/>
            <path d="M78.143,148.886C78.143,151.069 76.845,163.96 77.633,166.917C78.464,170.035 80.675,177.45 80.635,177.565" style="fill:none;stroke:#000;stroke-width:2.29px;"/>
            <path d="M12.781,161.544C21.789,161.544 35.086,163.498 43.645,160.145C49.313,157.926 67.443,142.117 67.443,140.662" style="fill:none;stroke:#000;stroke-width:2.29px;"/>
            <path d="M188.807,179.176C188.807,179.176 213.285,204.904 216.145,212.08" style="fill:none;stroke:#000;stroke-width:2.29px;"/>
            <path d="M216.145,110.816L246.53,106.51" style="fill:none;stroke:#000;stroke-width:2.29px;"/>
            <path d="M211.212,78.951C211.212,78.951 231.341,73.408 231.235,67.269" style="fill:none;stroke:#000;stroke-width:2.29px;"/>
        </g>
    </g>
</svg>
