<?xml version="1.0" encoding="UTF-8" standalone="no"?>
<!DOCTYPE svg PUBLIC "-//W3C//DTD SVG 1.1//EN" "http://www.w3.org/Graphics/SVG/1.1/DTD/svg11.dtd">
<svg width="100%" height="100%" viewBox="0 0 645 267" version="1.1" xmlns="http://www.w3.org/2000/svg" xmlns:xlink="http://www.w3.org/1999/xlink" xml:space="preserve" xmlns:serif="http://www.serif.com/" style="fill-rule:evenodd;clip-rule:evenodd;stroke-linecap:round;stroke-miterlimit:1.5;">
    <rect id="enclosures_footprints_no_labels" x="0.422" y="0" width="644.034" height="266.708" style="fill:none;"/>
    <circle cx="129.155" cy="133.272" r="120.128" style="fill:#fff;stroke:#000;stroke-width:2.29px;stroke-dasharray:6.88,6.88,0,0;"/>
    <path d="M104.348,17.02C105.122,35.428 107.216,60.741 112.513,67.803C138.803,102.854 199.18,97.167 216.744,144.549C222.558,160.231 228.331,176.029 235.578,191.018" style="fill:none;stroke:#3b6e8c;stroke-width:2.29px;"/>
    <path d="M68.022,236.916C79.011,227.547 90.312,220.115 99.744,217.243C131.602,207.541 167.019,204.9 191.975,180.124C233.929,138.473 211.115,86.304 201.495,37.571" style="fill:none;stroke:#3b6e8c;stroke-width:2.29px;"/>
    <path d="M40.646,52.396C54.431,64.782 69.748,81.405 75.215,87.742C104.666,121.88 139.01,154.955 162.327,194.188C170.902,208.616 176.508,225.256 182.188,241.267" style="fill:none;stroke:#3b6e8c;stroke-width:2.29px;"/>
    <g>
        <path d="M633.363,169.005L548.928,22.759L402.682,107.194L487.117,253.44L633.363,169.005Z" style="fill:#fff;stroke:#000;stroke-width:4.17px;"/>
        <path d="M552.808,91.696L542.708,87.344L537.039,100.499L547.14,104.851L552.808,91.696Z"/>
        <path d="M528.618,78.996L515.824,69.739L507.427,81.345L520.222,90.602L528.618,78.996Z"/>
        <path d="M486.834,90.762L474.039,81.506L465.643,93.112L478.437,102.368L486.834,90.762Z"/>
        <path d="M484.725,113.286L480.255,119.989L491.021,127.169L495.491,120.466L484.725,113.286Z"/>
        <path d="M520.61,110.034L510.013,102.368L502.639,112.561L513.235,120.228L520.61,110.034Z"/>
        <path d="M521.759,144.318L511.906,131.977L500.711,140.916L510.565,153.256L521.759,144.318Z"/>
        <path d="M552.132,126.257L537.536,120.228L532.067,133.467L546.662,139.497L552.132,126.257Z"/>
        <path d="M533.14,173.993L544.999,164.719L538.405,156.287L526.546,165.561L533.14,173.993Z"/>
        <path d="M589.079,151.438L572.574,139.497L561.702,154.523L578.208,166.464L589.079,151.438Z"/>
        <path d="M568.662,190.944L558.892,176.773L543.999,187.04L553.769,201.211L568.662,190.944Z"/>
        <path d="M490.864,202.598L472.582,208.762L477.159,222.336L495.441,216.172L490.864,202.598Z"/>
        <path d="M530.455,200.105L514.498,179.602L503.194,188.4L519.151,208.903L530.455,200.105Z"/>
        <path d="M498.318,171.543L490.789,160.539L472.582,172.997L480.111,184.001L498.318,171.543Z"/>
        <path d="M479.428,144.649L469.02,132.773L458.247,142.213L468.654,154.09L479.428,144.649Z"/>
        <path d="M443.294,108.643L425.671,97.938L413.769,117.531L431.392,128.236L443.294,108.643Z"/>
        <path d="M618.173,142.696L613.937,142.729L614.206,177.005L619.58,176.963L628.49,171.819L628.401,160.41L618.173,142.696Z"/>
        <path d="M587.223,107.128L572.183,102.313L567.816,115.956L582.856,120.77L587.223,107.128Z"/>
        <path d="M514.468,42.655L500.643,50.637L500.806,53.077L515.099,52.125L514.468,42.655Z"/>
        <path d="M572.379,61.021L545.436,41.528L537.039,53.134L563.983,72.627L572.379,61.021Z"/>
    </g>
    <path d="M338.007,112.908L338.007,141.693L309.34,141.693L309.34,144.062L338.007,144.062L338.007,172.847L340.376,172.847L340.376,144.062L369.042,144.062L369.042,141.693L340.376,141.693L340.376,112.908L338.007,112.908Z" style="fill-rule:nonzero;"/>
</svg>
