<?xml version="1.0" encoding="UTF-8" standalone="no"?>
<!DOCTYPE svg PUBLIC "-//W3C//DTD SVG 1.1//EN" "http://www.w3.org/Graphics/SVG/1.1/DTD/svg11.dtd">
<svg width="100%" height="100%" viewBox="0 0 652 334" version="1.1" xmlns="http://www.w3.org/2000/svg" xmlns:xlink="http://www.w3.org/1999/xlink" xml:space="preserve" xmlns:serif="http://www.serif.com/" style="fill-rule:evenodd;clip-rule:evenodd;stroke-linecap:round;stroke-miterlimit:1.5;">
    <rect id="enclosures" x="0.834" y="0" width="650.8" height="333.099" style="fill:none;"/>
    <g>
        <path d="M39.523,174.382C39.523,172.223 40.174,170.421 41.476,168.978C42.778,167.535 44.406,166.814 46.359,166.814C48.648,166.814 50.26,167.806 51.193,169.792C51.529,170.508 51.828,171.029 52.088,171.355C52.153,171.55 52.186,171.724 52.186,171.875C52.186,172.255 51.969,172.451 51.535,172.461C50.721,172.494 49.603,172.51 48.182,172.51C46.76,172.51 45.041,172.494 43.022,172.461C42.599,172.461 42.388,172.825 42.388,173.552C42.388,175.201 42.827,176.552 43.706,177.605C44.585,178.657 45.692,179.183 47.026,179.183C48.469,179.183 49.761,178.505 50.9,177.149C51.074,176.932 51.296,176.867 51.567,176.954C51.741,176.997 51.876,177.124 51.974,177.336C52.072,177.548 52.077,177.729 51.99,177.881C49.853,180.366 47.764,181.614 45.724,181.625C43.945,181.625 42.466,180.925 41.289,179.525C40.112,178.125 39.523,176.411 39.523,174.382ZM42.827,170.769C42.827,170.834 42.854,170.888 42.908,170.931C42.984,170.986 43.068,171.021 43.161,171.037C43.253,171.054 43.332,171.062 43.397,171.062L47.889,171.062C48.008,171.062 48.133,171.04 48.263,170.997C48.372,170.964 48.426,170.915 48.426,170.85L48.426,170.818C47.959,169.06 47.037,168.181 45.659,168.181C43.771,168.181 42.827,169.043 42.827,170.769Z" style="fill-rule:nonzero;"/>
        <path d="M53.878,180.925C53.846,180.827 53.83,180.724 53.83,180.616C53.83,180.485 53.851,180.35 53.895,180.209C53.971,179.948 54.112,179.818 54.318,179.818L54.481,179.818C55.197,179.818 55.661,179.636 55.872,179.273C56.084,178.909 56.19,178.028 56.19,176.628L56.19,172.152C56.19,170.666 56.141,169.808 56.043,169.581C56,169.45 55.625,169.32 54.92,169.19L54.253,169.06C54.036,169.016 53.935,168.816 53.952,168.457C53.968,168.099 54.068,167.888 54.253,167.823C54.719,167.671 55.674,167.313 57.117,166.749C57.562,166.575 57.893,166.466 58.11,166.423C58.208,166.401 58.3,166.39 58.387,166.39C58.582,166.39 58.734,166.439 58.843,166.537C59.016,166.678 59.098,166.884 59.087,167.155L59.087,168.588C59.087,168.631 59.103,168.696 59.136,168.783C59.168,168.87 59.206,168.943 59.25,169.003C59.293,169.062 59.325,169.081 59.347,169.06C61.441,167.595 63.074,166.857 64.246,166.846C66.774,166.846 68.044,168.859 68.055,172.885C68.055,173.525 68.009,174.496 67.917,175.798C67.824,177.1 67.778,178.087 67.778,178.76C67.778,179.183 67.857,179.455 68.014,179.574C68.172,179.693 68.559,179.753 69.178,179.753C69.471,179.623 69.704,179.677 69.878,179.916C69.965,180.046 70.008,180.268 70.008,180.583C70.008,180.898 69.921,181.088 69.748,181.153C69.661,181.175 69.514,181.185 69.308,181.185C68.863,181.185 67.849,181.18 66.265,181.169L64.865,181.169C64.051,181.169 63.481,181.175 63.156,181.185L63.091,181.185C62.657,181.185 62.429,180.952 62.407,180.485C62.407,180.312 62.453,180.146 62.545,179.989C62.638,179.832 62.749,179.753 62.879,179.753L63.074,179.753C63.758,179.688 64.219,179.55 64.458,179.338C64.697,179.126 64.848,178.711 64.914,178.093C65.044,176.845 65.109,174.941 65.109,172.38C65.109,170.091 64.376,168.946 62.912,168.946C61.957,168.946 60.682,169.559 59.087,170.785L59.087,178.06C59.087,178.842 59.187,179.319 59.388,179.493C59.589,179.666 60.085,179.753 60.877,179.753C61.148,179.753 61.306,179.997 61.349,180.485C61.349,180.952 61.138,181.196 60.714,181.218C60.345,181.207 59.765,181.202 58.973,181.202L56.255,181.202C55.452,181.202 54.86,181.196 54.481,181.185L54.383,181.185C54.112,181.185 53.944,181.099 53.878,180.925Z" style="fill-rule:nonzero;"/>
        <path d="M71.473,174.691C71.473,172.467 72.251,170.582 73.808,169.035C75.366,167.489 77.256,166.716 79.481,166.716C80.566,166.716 81.51,166.922 82.313,167.334C83.116,167.747 83.517,168.3 83.517,168.995C83.517,169.374 83.39,169.694 83.135,169.955C82.88,170.215 82.562,170.346 82.182,170.346C81.564,170.346 80.853,169.96 80.05,169.19C79.475,168.615 78.895,168.327 78.309,168.327C77.311,168.327 76.429,168.875 75.664,169.971C74.899,171.067 74.516,172.385 74.516,173.926C74.516,175.554 74.91,176.864 75.696,177.857C76.483,178.85 77.49,179.346 78.716,179.346C80.224,179.346 81.445,178.673 82.378,177.328C82.551,176.926 82.806,176.769 83.143,176.856C83.392,176.943 83.539,177.122 83.582,177.393C83.604,177.458 83.615,177.518 83.615,177.572C83.615,177.724 83.561,177.876 83.452,178.028C82.009,180.361 80.05,181.527 77.576,181.527C75.819,181.527 74.362,180.876 73.206,179.574C72.051,178.272 71.473,176.644 71.473,174.691Z" style="fill-rule:nonzero;"/>
        <path d="M85.698,180.795C85.666,180.654 85.649,180.523 85.649,180.404C85.649,180.252 85.676,180.122 85.731,180.013C85.796,179.862 85.864,179.78 85.934,179.769C86.005,179.758 86.159,179.753 86.398,179.753C87.179,179.753 87.67,179.631 87.871,179.387C88.072,179.143 88.172,178.597 88.172,177.751L88.172,160.482C88.172,160.233 88.047,160.102 87.798,160.092L86.203,159.782C85.986,159.739 85.869,159.541 85.853,159.188C85.836,158.836 85.953,158.61 86.203,158.513C87.754,158.068 89.165,157.601 90.434,157.113L90.483,157.113C90.624,157.124 90.76,157.216 90.89,157.39C91.02,157.585 91.091,157.786 91.102,157.992L91.102,177.719C91.102,178.673 91.17,179.251 91.305,179.452C91.441,179.653 91.85,179.753 92.534,179.753C93.022,179.753 93.288,179.867 93.332,180.095L93.332,180.518C93.332,180.963 93.163,181.185 92.827,181.185C91.221,181.164 89.87,181.153 88.774,181.153C87.678,181.153 86.832,181.164 86.235,181.185C86.17,181.185 86.07,181.147 85.934,181.071C85.798,180.995 85.72,180.903 85.698,180.795Z" style="fill-rule:nonzero;"/>
        <path d="M95.008,174.187C95.008,172.049 95.73,170.28 97.173,168.881C98.616,167.481 100.404,166.781 102.536,166.781C104.668,166.781 106.472,167.494 107.947,168.921C109.423,170.348 110.161,172.114 110.161,174.219C110.139,176.281 109.404,178.031 107.956,179.468C106.507,180.906 104.736,181.625 102.641,181.625C100.482,181.625 98.67,180.914 97.205,179.493C95.74,178.071 95.008,176.303 95.008,174.187ZM98.231,173.226C98.231,175.158 98.703,176.777 99.647,178.085C100.591,179.392 101.708,180.046 103,180.046C104.085,180.046 104.991,179.536 105.718,178.516C106.445,177.496 106.808,176.232 106.808,174.724C106.808,172.901 106.342,171.379 105.408,170.158C104.475,168.938 103.363,168.327 102.072,168.327C100.987,168.327 100.075,168.788 99.337,169.711C98.6,170.633 98.231,171.805 98.231,173.226Z" style="fill-rule:nonzero;"/>
        <path d="M112.212,170.72C112.212,169.515 112.651,168.531 113.53,167.766C114.409,167.001 115.505,166.618 116.818,166.618C117.664,166.618 118.619,166.841 119.682,167.286C119.737,168.078 119.764,168.794 119.764,169.434C119.764,169.911 119.748,170.351 119.715,170.752C119.715,170.818 119.65,170.891 119.52,170.972C119.39,171.054 119.254,171.094 119.113,171.094C118.766,171.083 118.57,170.969 118.527,170.752C118.375,169.906 118.096,169.266 117.689,168.832C117.282,168.398 116.812,168.181 116.281,168.181C115.814,168.181 115.437,168.327 115.15,168.62C114.862,168.913 114.718,169.282 114.718,169.727C114.718,170.063 114.862,170.413 115.15,170.777C115.437,171.14 115.714,171.428 115.98,171.639C116.246,171.851 116.652,172.133 117.2,172.486C117.748,172.838 118.055,173.036 118.12,173.08C119.899,174.306 120.789,175.662 120.789,177.149C120.789,178.332 120.344,179.343 119.455,180.184C118.565,181.025 117.518,181.446 116.313,181.446C115.575,181.446 114.924,181.326 114.36,181.088C114.23,181.044 114.138,181.012 114.084,180.99C113.975,181.099 113.888,181.229 113.823,181.381C113.476,181.478 113.253,181.527 113.156,181.527L113.123,181.527C112.809,181.484 112.651,181.326 112.651,181.055C112.521,179.742 112.423,178.5 112.358,177.328C112.337,177.154 112.418,177.027 112.602,176.945C112.787,176.864 113.004,176.845 113.253,176.888C113.405,176.954 113.514,177.1 113.579,177.328C114.002,179.173 114.881,180.095 116.216,180.095C116.747,180.095 117.187,179.91 117.534,179.541C117.881,179.173 118.055,178.722 118.055,178.191C118.055,177.55 117.748,176.935 117.135,176.343C116.522,175.752 115.855,175.25 115.133,174.838C114.412,174.425 113.744,173.858 113.131,173.137C112.518,172.415 112.212,171.61 112.212,170.72Z" style="fill-rule:nonzero;"/>
        <path d="M122.303,167.953C122.292,167.888 122.287,167.828 122.287,167.774C122.287,167.546 122.406,167.394 122.645,167.318C122.84,167.275 123.472,167.115 124.541,166.838C125.61,166.561 126.366,166.38 126.811,166.293C127.028,166.249 127.205,166.314 127.34,166.488C127.476,166.662 127.544,166.862 127.544,167.09L127.544,174.952C127.544,176.666 127.723,177.8 128.081,178.353C128.439,178.907 129.128,179.183 130.148,179.183C131.038,179.183 132.182,178.641 133.582,177.556C133.669,177.339 133.712,177.171 133.712,177.051L133.712,170.59C133.712,170.481 133.707,170.321 133.696,170.11C133.685,169.898 133.658,169.73 133.615,169.605C133.571,169.48 133.517,169.347 133.452,169.206C133.387,169.065 133.297,168.948 133.183,168.856C133.07,168.764 132.937,168.707 132.785,168.685C132.47,168.642 132.226,168.599 132.052,168.555C132.031,168.555 131.662,168.501 130.945,168.392C130.75,168.284 130.663,168.072 130.685,167.758C130.707,167.443 130.832,167.253 131.059,167.188C133.414,166.656 134.987,166.347 135.779,166.26L135.91,166.26C136.398,166.26 136.648,166.494 136.658,166.96L136.658,178.386C136.658,178.766 136.786,178.977 137.041,179.021C137.296,179.064 137.554,179.031 137.814,178.923L138.514,178.728C138.709,178.706 138.85,178.798 138.937,179.004C138.991,179.135 139.024,179.27 139.035,179.411C139.035,179.509 139.024,179.601 139.002,179.688C138.948,179.927 138.818,180.073 138.612,180.127C137.407,180.659 136.176,181.055 134.917,181.316C134.743,181.359 134.591,181.381 134.461,181.381C134.005,181.381 133.767,181.147 133.745,180.681L133.696,180.022C133.685,179.843 133.669,179.699 133.647,179.59C133.626,179.254 133.517,179.162 133.322,179.314C132.703,179.758 132.193,180.108 131.792,180.363C131.39,180.618 130.878,180.863 130.254,181.096C129.63,181.329 129.019,181.446 128.423,181.446C127.11,181.446 126.136,181.036 125.501,180.217C124.866,179.398 124.549,178.256 124.549,176.791L124.549,169.89C124.549,169.553 124.511,169.32 124.435,169.19C124.359,169.06 124.196,168.946 123.947,168.848C123.817,168.805 123.608,168.745 123.32,168.669C123.033,168.593 122.807,168.533 122.645,168.49C122.493,168.468 122.379,168.289 122.303,167.953Z" style="fill-rule:nonzero;"/>
        <path d="M140.109,180.485L140.109,180.176C140.109,180.122 140.125,180.054 140.158,179.973C140.19,179.891 140.25,179.84 140.337,179.818C140.424,179.796 140.548,179.786 140.711,179.786C141.427,179.786 141.888,179.609 142.095,179.257C142.301,178.904 142.404,178.039 142.404,176.661L142.404,170.752C142.382,170.709 142.366,170.63 142.355,170.516C142.344,170.402 142.328,170.308 142.306,170.232C142.284,170.156 142.241,170.107 142.176,170.085C142.133,170.063 141.91,169.974 141.509,169.817C141.107,169.659 140.809,169.537 140.613,169.45C140.364,169.342 140.228,169.163 140.207,168.913L140.207,168.653C140.207,168.36 140.331,168.181 140.581,168.116C140.939,167.942 141.568,167.709 142.469,167.416C143.424,167.079 144.08,166.824 144.438,166.651C144.569,166.586 144.682,166.553 144.78,166.553C144.878,166.553 144.959,166.58 145.024,166.635C145.165,166.754 145.247,166.938 145.268,167.188C145.268,168.23 145.279,168.984 145.301,169.45C145.898,168.094 146.353,167.329 146.668,167.155C146.961,167.003 147.262,166.928 147.571,166.928C147.881,166.928 148.147,166.96 148.369,167.025C148.591,167.09 148.876,167.183 149.223,167.302C149.571,167.421 149.842,167.503 150.037,167.546C150.081,167.568 150.138,167.584 150.208,167.595C150.279,167.606 150.325,167.617 150.347,167.627C150.629,167.725 150.77,167.872 150.77,168.067C150.77,168.121 150.759,168.181 150.737,168.246C150.564,168.821 150.233,169.559 149.744,170.459C149.321,170.438 148.865,170.291 148.377,170.02C147.932,169.803 147.563,169.694 147.27,169.694C146.674,169.694 146.044,170.324 145.382,171.582L145.382,176.416C145.382,176.926 145.393,177.474 145.415,178.06C145.437,178.842 145.529,179.319 145.692,179.493C145.854,179.666 146.316,179.753 147.075,179.753L147.807,179.753C148.057,179.753 148.214,179.948 148.279,180.339C148.345,180.73 148.285,181.001 148.1,181.153C148.035,181.196 147.927,181.218 147.775,181.218L144.243,181.185C143.288,181.164 142.529,181.153 141.964,181.153C141.107,181.153 140.679,181.175 140.679,181.218L140.597,181.218C140.413,181.218 140.288,181.164 140.223,181.055C140.136,180.925 140.098,180.735 140.109,180.485Z" style="fill-rule:nonzero;"/>
        <path d="M151.958,174.382C151.958,172.223 152.609,170.421 153.911,168.978C155.213,167.535 156.841,166.814 158.794,166.814C161.083,166.814 162.695,167.806 163.628,169.792C163.964,170.508 164.263,171.029 164.523,171.355C164.588,171.55 164.621,171.724 164.621,171.875C164.621,172.255 164.404,172.451 163.97,172.461C163.156,172.494 162.038,172.51 160.617,172.51C159.195,172.51 157.475,172.494 155.457,172.461C155.034,172.461 154.822,172.825 154.822,173.552C154.822,175.201 155.262,176.552 156.141,177.605C157.02,178.657 158.126,179.183 159.461,179.183C160.904,179.183 162.195,178.505 163.335,177.149C163.508,176.932 163.731,176.867 164.002,176.954C164.176,176.997 164.311,177.124 164.409,177.336C164.507,177.548 164.512,177.729 164.425,177.881C162.288,180.366 160.199,181.614 158.159,181.625C156.38,181.625 154.901,180.925 153.724,179.525C152.547,178.125 151.958,176.411 151.958,174.382ZM155.262,170.769C155.262,170.834 155.289,170.888 155.343,170.931C155.419,170.986 155.503,171.021 155.596,171.037C155.688,171.054 155.766,171.062 155.832,171.062L160.324,171.062C160.443,171.062 160.568,171.04 160.698,170.997C160.807,170.964 160.861,170.915 160.861,170.85L160.861,170.818C160.394,169.06 159.472,168.181 158.094,168.181C156.206,168.181 155.262,169.043 155.262,170.769Z" style="fill-rule:nonzero;"/>
        <path d="M166.509,170.72C166.509,169.515 166.948,168.531 167.827,167.766C168.706,167.001 169.802,166.618 171.115,166.618C171.961,166.618 172.916,166.841 173.979,167.286C174.034,168.078 174.061,168.794 174.061,169.434C174.061,169.911 174.044,170.351 174.012,170.752C174.012,170.818 173.947,170.891 173.817,170.972C173.686,171.054 173.551,171.094 173.41,171.094C173.062,171.083 172.867,170.969 172.824,170.752C172.672,169.906 172.392,169.266 171.986,168.832C171.579,168.398 171.109,168.181 170.578,168.181C170.111,168.181 169.734,168.327 169.446,168.62C169.159,168.913 169.015,169.282 169.015,169.727C169.015,170.063 169.159,170.413 169.446,170.777C169.734,171.14 170.011,171.428 170.277,171.639C170.542,171.851 170.949,172.133 171.497,172.486C172.045,172.838 172.352,173.036 172.417,173.08C174.196,174.306 175.086,175.662 175.086,177.149C175.086,178.332 174.641,179.343 173.751,180.184C172.862,181.025 171.815,181.446 170.61,181.446C169.872,181.446 169.221,181.326 168.657,181.088C168.527,181.044 168.435,181.012 168.38,180.99C168.272,181.099 168.185,181.229 168.12,181.381C167.773,181.478 167.55,181.527 167.453,181.527L167.42,181.527C167.105,181.484 166.948,181.326 166.948,181.055C166.818,179.742 166.72,178.5 166.655,177.328C166.633,177.154 166.715,177.027 166.899,176.945C167.084,176.864 167.301,176.845 167.55,176.888C167.702,176.954 167.811,177.1 167.876,177.328C168.299,179.173 169.178,180.095 170.513,180.095C171.044,180.095 171.484,179.91 171.831,179.541C172.178,179.173 172.352,178.722 172.352,178.191C172.352,177.55 172.045,176.935 171.432,176.343C170.819,175.752 170.152,175.25 169.43,174.838C168.709,174.425 168.041,173.858 167.428,173.137C166.815,172.415 166.509,171.61 166.509,170.72Z" style="fill-rule:nonzero;"/>
        <path d="M211.376,174.487L352.833,174.487" style="fill:none;stroke:#000;stroke-width:2.29px;stroke-dasharray:6.88,6.88,0,0;"/>
        <circle cx="492.138" cy="164.134" r="120.128" style="fill:none;stroke:#000;stroke-width:2.29px;stroke-dasharray:6.88,6.88,0,0;"/>
        <path d="M467.331,47.882C468.105,66.29 470.199,91.603 475.496,98.665C501.786,133.716 562.162,128.029 579.727,175.411C585.54,191.093 591.314,206.891 598.56,221.88" style="fill:none;stroke:#3b6e8c;stroke-width:2.29px;"/>
        <path d="M431.005,267.779C441.994,258.409 453.295,250.978 462.727,248.105C494.585,238.403 530.002,235.762 554.958,210.986C596.912,169.335 574.098,117.166 564.478,68.433" style="fill:none;stroke:#3b6e8c;stroke-width:2.29px;"/>
        <path d="M403.629,83.258C417.414,95.644 432.731,112.267 438.198,118.604C467.649,152.742 501.993,185.817 525.31,225.05C533.885,239.478 539.491,256.118 545.171,272.129" style="fill:none;stroke:#3b6e8c;stroke-width:2.29px;"/>
    </g>
</svg>
