<?xml version="1.0" encoding="UTF-8" standalone="no"?>
<!DOCTYPE svg PUBLIC "-//W3C//DTD SVG 1.1//EN" "http://www.w3.org/Graphics/SVG/1.1/DTD/svg11.dtd">
<svg width="100%" height="100%" viewBox="0 0 1436 303" version="1.1" xmlns="http://www.w3.org/2000/svg" xmlns:xlink="http://www.w3.org/1999/xlink" xml:space="preserve" xmlns:serif="http://www.serif.com/" style="fill-rule:evenodd;clip-rule:evenodd;stroke-linecap:round;stroke-miterlimit:1.5;">
    <rect id="enclosures_footprints" x="0.497" y="0" width="1434.66" height="302.15" style="fill:none;"/>
    <path d="M1219.42,161.442C1219.42,159.728 1220.61,158.561 1222.98,157.943C1223.64,157.769 1224.65,157.379 1225.99,156.771C1226.17,156.597 1226.26,156.456 1226.26,156.348L1226.22,154.248C1226.2,152.425 1225.53,151.514 1224.22,151.514C1223.88,151.514 1223.52,151.652 1223.14,151.929C1222.75,152.205 1222.56,152.49 1222.56,152.783C1222.56,153.141 1222.6,153.418 1222.69,153.613C1222.56,153.765 1222.22,153.974 1221.67,154.24C1221.12,154.506 1220.76,154.66 1220.59,154.704C1220.28,154.812 1220.04,154.823 1219.87,154.736C1219.7,154.65 1219.61,154.416 1219.61,154.036C1219.61,153.234 1220.32,152.268 1221.73,151.139C1222.88,150.228 1223.93,149.772 1224.89,149.772C1225.6,149.772 1226.31,149.951 1227.01,150.309C1227.71,150.667 1228.26,151.134 1228.65,151.709C1228.92,152.089 1229.08,152.444 1229.14,152.775C1229.19,153.106 1229.22,153.798 1229.22,154.85L1229.22,160.742C1229.22,161.187 1229.25,161.521 1229.31,161.743C1229.37,161.966 1229.43,162.093 1229.49,162.126C1229.56,162.158 1229.65,162.175 1229.75,162.175C1230.18,162.175 1230.6,161.985 1231.02,161.605C1231.17,161.518 1231.31,161.475 1231.41,161.475C1231.63,161.518 1231.77,161.67 1231.84,161.93C1231.87,162.028 1231.89,162.12 1231.89,162.207C1231.89,162.348 1231.85,162.473 1231.79,162.581C1230.3,163.894 1229.11,164.551 1228.22,164.551C1227.29,164.551 1226.69,164.035 1226.42,163.005C1226.4,162.874 1226.31,162.864 1226.16,162.972C1225.4,163.569 1224.79,163.981 1224.33,164.209C1223.88,164.437 1223.35,164.551 1222.76,164.551C1221.78,164.551 1220.98,164.261 1220.36,163.68C1219.73,163.1 1219.42,162.354 1219.42,161.442ZM1223.93,159.212C1222.82,159.657 1222.26,160.254 1222.25,161.003C1222.25,161.448 1222.41,161.827 1222.72,162.142C1223.04,162.457 1223.43,162.614 1223.89,162.614C1224.21,162.614 1224.64,162.43 1225.2,162.061C1225.75,161.692 1226.09,161.355 1226.22,161.051L1226.22,158.805C1226.22,158.653 1226.19,158.523 1226.14,158.415C1226.1,158.328 1226.05,158.285 1225.99,158.285L1225.96,158.285C1225.39,158.578 1224.71,158.887 1223.93,159.212Z" style="fill-rule:nonzero;"/>
    <path d="M1233.2,163.949C1233.17,163.851 1233.16,163.748 1233.16,163.639C1233.16,163.509 1233.18,163.374 1233.22,163.232C1233.3,162.972 1233.44,162.842 1233.64,162.842L1233.81,162.842C1234.52,162.842 1234.99,162.66 1235.2,162.297C1235.41,161.933 1235.52,161.051 1235.52,159.652L1235.52,155.176C1235.52,153.689 1235.47,152.832 1235.37,152.604C1235.33,152.474 1234.95,152.344 1234.25,152.214L1233.58,152.083C1233.36,152.04 1233.26,151.839 1233.28,151.481C1233.29,151.123 1233.39,150.911 1233.58,150.846C1234.05,150.694 1235,150.336 1236.44,149.772C1236.89,149.599 1237.22,149.49 1237.44,149.447C1237.53,149.425 1237.63,149.414 1237.71,149.414C1237.91,149.414 1238.06,149.463 1238.17,149.561C1238.34,149.702 1238.42,149.908 1238.41,150.179L1238.41,151.611C1238.41,151.655 1238.43,151.72 1238.46,151.807C1238.49,151.893 1238.53,151.967 1238.58,152.026C1238.62,152.086 1238.65,152.105 1238.67,152.083C1240.77,150.619 1242.4,149.881 1243.57,149.87C1246.1,149.87 1247.37,151.883 1247.38,155.908C1247.38,156.548 1247.34,157.52 1247.24,158.822C1247.15,160.124 1247.1,161.111 1247.1,161.784C1247.1,162.207 1247.18,162.478 1247.34,162.598C1247.5,162.717 1247.89,162.777 1248.5,162.777C1248.8,162.647 1249.03,162.701 1249.2,162.939C1249.29,163.07 1249.33,163.292 1249.33,163.607C1249.33,163.921 1249.25,164.111 1249.07,164.176C1248.99,164.198 1248.84,164.209 1248.63,164.209C1248.19,164.209 1247.17,164.204 1245.59,164.193L1244.19,164.193C1243.38,164.193 1242.81,164.198 1242.48,164.209L1242.42,164.209C1241.98,164.209 1241.76,163.976 1241.73,163.509C1241.73,163.336 1241.78,163.17 1241.87,163.013C1241.96,162.855 1242.08,162.777 1242.2,162.777L1242.4,162.777C1243.08,162.712 1243.55,162.573 1243.78,162.362C1244.02,162.15 1244.17,161.735 1244.24,161.117C1244.37,159.869 1244.43,157.964 1244.43,155.404C1244.43,153.114 1243.7,151.969 1242.24,151.969C1241.28,151.969 1240.01,152.582 1238.41,153.809L1238.41,161.084C1238.41,161.865 1238.51,162.343 1238.71,162.516C1238.91,162.69 1239.41,162.777 1240.2,162.777C1240.48,162.777 1240.63,163.021 1240.67,163.509C1240.67,163.976 1240.46,164.22 1240.04,164.242C1239.67,164.231 1239.09,164.225 1238.3,164.225L1235.58,164.225C1234.78,164.225 1234.19,164.22 1233.81,164.209L1233.71,164.209C1233.44,164.209 1233.27,164.122 1233.2,163.949Z" style="fill-rule:nonzero;"/>
    <path d="M1250.8,157.715C1250.8,155.49 1251.58,153.605 1253.13,152.059C1254.69,150.513 1256.58,149.74 1258.81,149.74C1259.89,149.74 1260.84,149.946 1261.64,150.358C1262.44,150.77 1262.84,151.324 1262.84,152.018C1262.84,152.398 1262.72,152.718 1262.46,152.979C1262.21,153.239 1261.89,153.369 1261.51,153.369C1260.89,153.369 1260.18,152.984 1259.38,152.214C1258.8,151.638 1258.22,151.351 1257.63,151.351C1256.64,151.351 1255.76,151.899 1254.99,152.995C1254.23,154.091 1253.84,155.409 1253.84,156.95C1253.84,158.578 1254.24,159.888 1255.02,160.881C1255.81,161.873 1256.82,162.37 1258.04,162.37C1259.55,162.37 1260.77,161.697 1261.7,160.352C1261.88,159.95 1262.13,159.793 1262.47,159.88C1262.72,159.966 1262.87,160.145 1262.91,160.417C1262.93,160.482 1262.94,160.541 1262.94,160.596C1262.94,160.748 1262.89,160.9 1262.78,161.051C1261.34,163.384 1259.38,164.551 1256.9,164.551C1255.14,164.551 1253.69,163.9 1252.53,162.598C1251.38,161.296 1250.8,159.668 1250.8,157.715Z" style="fill-rule:nonzero;"/>
    <path d="M1264.99,162.939C1265.06,162.853 1265.32,162.777 1265.79,162.712C1266.45,162.668 1266.87,162.478 1267.03,162.142C1267.2,161.806 1267.29,160.976 1267.29,159.652L1267.29,144.613L1267.25,143.376C1267.25,142.974 1267.03,142.752 1266.59,142.708C1266.43,142.687 1266.21,142.66 1265.93,142.627C1265.64,142.594 1265.43,142.567 1265.3,142.546C1265.08,142.502 1264.96,142.307 1264.93,141.96C1264.91,141.612 1265.02,141.385 1265.27,141.276C1266.42,140.788 1267.82,140.31 1269.47,139.844C1269.54,139.822 1269.61,139.811 1269.68,139.811C1269.84,139.822 1269.98,139.882 1270.09,139.99C1270.25,140.142 1270.33,140.403 1270.33,140.772L1270.33,150.724C1270.33,150.784 1270.35,150.879 1270.38,151.009C1270.41,151.139 1270.45,151.21 1270.51,151.221C1270.56,151.232 1270.63,151.226 1270.72,151.204C1272.21,150.25 1273.64,149.772 1275.03,149.772C1276.96,149.772 1278.19,150.586 1278.7,152.214C1278.99,153.125 1279.14,154.359 1279.14,155.916C1279.14,157.473 1279.09,158.74 1278.99,159.717C1278.95,160.65 1278.92,161.372 1278.92,161.882C1278.92,162.218 1279.02,162.435 1279.23,162.533C1279.43,162.63 1279.95,162.679 1280.8,162.679C1280.93,162.679 1281.04,162.69 1281.13,162.712C1281.22,162.733 1281.29,162.798 1281.33,162.907C1281.38,163.015 1281.4,163.089 1281.41,163.127C1281.42,163.165 1281.44,163.281 1281.46,163.477L1281.46,163.639C1281.46,164.019 1281.33,164.209 1281.06,164.209C1280.25,164.22 1279.38,164.225 1278.45,164.225L1277.02,164.225C1275.53,164.214 1274.57,164.209 1274.12,164.209C1273.66,164.209 1273.42,163.965 1273.42,163.477C1273.4,163.325 1273.44,163.165 1273.53,162.996C1273.62,162.828 1273.74,162.744 1273.89,162.744L1274.09,162.744C1274.81,162.744 1275.27,162.655 1275.48,162.476C1275.69,162.297 1275.82,161.93 1275.86,161.377C1276.02,160.064 1276.09,158.578 1276.09,156.917C1276.09,155.496 1276.04,154.506 1275.93,153.947C1275.82,153.388 1275.61,152.93 1275.29,152.572C1274.83,152.062 1274.2,151.807 1273.42,151.807C1273.25,151.807 1273.09,151.812 1272.94,151.823C1272.8,151.834 1272.65,151.869 1272.5,151.929C1272.34,151.988 1272.22,152.035 1272.13,152.067C1272.04,152.1 1271.91,152.165 1271.75,152.262C1271.58,152.36 1271.47,152.425 1271.4,152.458C1271.33,152.49 1271.19,152.574 1270.99,152.71C1270.79,152.846 1270.67,152.924 1270.62,152.946C1270.43,153.055 1270.33,153.478 1270.33,154.216L1270.33,161.051C1270.33,161.833 1270.42,162.316 1270.6,162.5C1270.78,162.684 1271.2,162.777 1271.86,162.777C1272.26,162.777 1272.48,162.923 1272.53,163.216C1272.53,163.466 1272.54,163.629 1272.56,163.704C1272.56,164.073 1272.41,164.258 1272.1,164.258C1272.06,164.258 1272.01,164.252 1271.96,164.242C1271.68,164.231 1271.27,164.225 1270.73,164.225C1270.19,164.225 1269.52,164.231 1268.71,164.242C1267.9,164.252 1267.22,164.258 1266.66,164.258C1266.1,164.258 1265.66,164.252 1265.33,164.242L1265.29,164.242C1265.15,164.242 1265.05,164.168 1264.97,164.022C1264.89,163.875 1264.85,163.704 1264.85,163.509C1264.85,163.27 1264.89,163.081 1264.99,162.939Z" style="fill-rule:nonzero;"/>
    <path d="M1283.34,157.21C1283.34,155.073 1284.06,153.304 1285.5,151.904C1286.94,150.505 1288.73,149.805 1290.86,149.805C1293,149.805 1294.8,150.518 1296.27,151.945C1297.75,153.372 1298.49,155.138 1298.49,157.243C1298.47,159.305 1297.73,161.054 1296.28,162.492C1294.83,163.93 1293.06,164.648 1290.97,164.648C1288.81,164.648 1287,163.938 1285.53,162.516C1284.07,161.095 1283.34,159.326 1283.34,157.21ZM1286.56,156.25C1286.56,158.181 1287.03,159.801 1287.97,161.108C1288.92,162.416 1290.04,163.07 1291.33,163.07C1292.41,163.07 1293.32,162.56 1294.04,161.54C1294.77,160.52 1295.13,159.256 1295.13,157.747C1295.13,155.925 1294.67,154.403 1293.74,153.182C1292.8,151.961 1291.69,151.351 1290.4,151.351C1289.31,151.351 1288.4,151.812 1287.66,152.734C1286.93,153.657 1286.56,154.829 1286.56,156.25Z" style="fill-rule:nonzero;"/>
    <path d="M1300.18,163.509L1300.18,163.2C1300.18,163.146 1300.2,163.078 1300.23,162.996C1300.26,162.915 1300.32,162.864 1300.41,162.842C1300.5,162.82 1300.62,162.809 1300.78,162.809C1301.5,162.809 1301.96,162.633 1302.17,162.28C1302.37,161.928 1302.48,161.062 1302.48,159.684L1302.48,153.776C1302.45,153.733 1302.44,153.654 1302.43,153.54C1302.42,153.426 1302.4,153.331 1302.38,153.255C1302.36,153.179 1302.31,153.13 1302.25,153.109C1302.2,153.087 1301.98,152.998 1301.58,152.84C1301.18,152.683 1300.88,152.561 1300.68,152.474C1300.43,152.365 1300.3,152.186 1300.28,151.937L1300.28,151.676C1300.28,151.383 1300.4,151.204 1300.65,151.139C1301.01,150.966 1301.64,150.732 1302.54,150.439C1303.5,150.103 1304.15,149.848 1304.51,149.675C1304.64,149.609 1304.75,149.577 1304.85,149.577C1304.95,149.577 1305.03,149.604 1305.1,149.658C1305.24,149.778 1305.32,149.962 1305.34,150.212C1305.34,151.253 1305.35,152.007 1305.37,152.474C1305.97,151.118 1306.42,150.353 1306.74,150.179C1307.03,150.027 1307.33,149.951 1307.64,149.951C1307.95,149.951 1308.22,149.984 1308.44,150.049C1308.66,150.114 1308.95,150.206 1309.3,150.326C1309.64,150.445 1309.91,150.526 1310.11,150.57C1310.15,150.591 1310.21,150.608 1310.28,150.619C1310.35,150.629 1310.4,150.64 1310.42,150.651C1310.7,150.749 1310.84,150.895 1310.84,151.091C1310.84,151.145 1310.83,151.204 1310.81,151.27C1310.63,151.845 1310.3,152.582 1309.82,153.483C1309.39,153.461 1308.94,153.315 1308.45,153.044C1308,152.827 1307.63,152.718 1307.34,152.718C1306.75,152.718 1306.12,153.347 1305.45,154.606L1305.45,159.44C1305.45,159.95 1305.46,160.498 1305.49,161.084C1305.51,161.865 1305.6,162.343 1305.76,162.516C1305.93,162.69 1306.39,162.777 1307.15,162.777L1307.88,162.777C1308.13,162.777 1308.29,162.972 1308.35,163.363C1308.42,163.753 1308.36,164.025 1308.17,164.176C1308.11,164.22 1308,164.242 1307.85,164.242L1304.32,164.209C1303.36,164.187 1302.6,164.176 1302.04,164.176C1301.18,164.176 1300.75,164.198 1300.75,164.242L1300.67,164.242C1300.48,164.242 1300.36,164.187 1300.29,164.079C1300.21,163.949 1300.17,163.759 1300.18,163.509Z" style="fill-rule:nonzero;"/>
    <path d="M1312.19,153.744C1312.19,152.539 1312.63,151.554 1313.51,150.789C1314.39,150.024 1315.49,149.642 1316.8,149.642C1317.64,149.642 1318.6,149.864 1319.66,150.309C1319.72,151.101 1319.74,151.818 1319.74,152.458C1319.74,152.935 1319.73,153.375 1319.69,153.776C1319.69,153.841 1319.63,153.914 1319.5,153.996C1319.37,154.077 1319.23,154.118 1319.09,154.118C1318.75,154.107 1318.55,153.993 1318.51,153.776C1318.36,152.93 1318.08,152.29 1317.67,151.856C1317.26,151.421 1316.79,151.204 1316.26,151.204C1315.8,151.204 1315.42,151.351 1315.13,151.644C1314.84,151.937 1314.7,152.306 1314.7,152.751C1314.7,153.087 1314.84,153.437 1315.13,153.8C1315.42,154.164 1315.69,154.452 1315.96,154.663C1316.23,154.875 1316.63,155.157 1317.18,155.509C1317.73,155.862 1318.04,156.06 1318.1,156.104C1319.88,157.33 1320.77,158.686 1320.77,160.173C1320.77,161.355 1320.33,162.367 1319.43,163.208C1318.55,164.049 1317.5,164.469 1316.29,164.469C1315.56,164.469 1314.9,164.35 1314.34,164.111C1314.21,164.068 1314.12,164.035 1314.06,164.014C1313.95,164.122 1313.87,164.252 1313.8,164.404C1313.46,164.502 1313.23,164.551 1313.14,164.551L1313.1,164.551C1312.79,164.507 1312.63,164.35 1312.63,164.079C1312.5,162.766 1312.4,161.523 1312.34,160.352C1312.32,160.178 1312.4,160.05 1312.58,159.969C1312.77,159.888 1312.98,159.869 1313.23,159.912C1313.39,159.977 1313.49,160.124 1313.56,160.352C1313.98,162.196 1314.86,163.119 1316.2,163.119C1316.73,163.119 1317.17,162.934 1317.51,162.565C1317.86,162.196 1318.04,161.746 1318.04,161.214C1318.04,160.574 1317.73,159.958 1317.12,159.367C1316.5,158.776 1315.84,158.274 1315.11,157.861C1314.39,157.449 1313.73,156.882 1313.11,156.161C1312.5,155.439 1312.19,154.633 1312.19,153.744Z" style="fill-rule:nonzero;"/>
    <path d="M39.523,156.52C39.523,154.361 40.174,152.559 41.476,151.116C42.778,149.673 44.406,148.952 46.359,148.952C48.648,148.952 50.26,149.944 51.193,151.93C51.529,152.646 51.828,153.167 52.088,153.493C52.153,153.688 52.186,153.861 52.186,154.013C52.186,154.393 51.969,154.588 51.535,154.599C50.721,154.632 49.603,154.648 48.182,154.648C46.76,154.648 45.041,154.632 43.022,154.599C42.599,154.599 42.388,154.963 42.388,155.69C42.388,157.339 42.827,158.69 43.706,159.743C44.585,160.795 45.692,161.321 47.026,161.321C48.469,161.321 49.761,160.643 50.9,159.287C51.074,159.07 51.296,159.005 51.567,159.091C51.741,159.135 51.876,159.262 51.974,159.474C52.072,159.686 52.077,159.867 51.99,160.019C49.853,162.504 47.764,163.752 45.724,163.763C43.945,163.763 42.466,163.063 41.289,161.663C40.112,160.263 39.523,158.549 39.523,156.52ZM42.827,152.907C42.827,152.972 42.854,153.026 42.908,153.069C42.984,153.124 43.068,153.159 43.161,153.175C43.253,153.191 43.332,153.2 43.397,153.2L47.889,153.2C48.008,153.2 48.133,153.178 48.263,153.134C48.372,153.102 48.426,153.053 48.426,152.988L48.426,152.955C47.959,151.198 47.037,150.319 45.659,150.319C43.771,150.319 42.827,151.181 42.827,152.907Z" style="fill-rule:nonzero;"/>
    <path d="M53.878,163.063C53.846,162.965 53.83,162.862 53.83,162.754C53.83,162.623 53.851,162.488 53.895,162.347C53.971,162.086 54.112,161.956 54.318,161.956L54.481,161.956C55.197,161.956 55.661,161.774 55.872,161.411C56.084,161.047 56.19,160.166 56.19,158.766L56.19,154.29C56.19,152.804 56.141,151.946 56.043,151.718C56,151.588 55.625,151.458 54.92,151.328L54.253,151.198C54.036,151.154 53.935,150.953 53.952,150.595C53.968,150.237 54.068,150.026 54.253,149.961C54.719,149.809 55.674,149.451 57.117,148.886C57.562,148.713 57.893,148.604 58.11,148.561C58.208,148.539 58.3,148.528 58.387,148.528C58.582,148.528 58.734,148.577 58.843,148.675C59.016,148.816 59.098,149.022 59.087,149.293L59.087,150.726C59.087,150.769 59.103,150.834 59.136,150.921C59.168,151.008 59.206,151.081 59.25,151.141C59.293,151.2 59.325,151.219 59.347,151.198C61.441,149.733 63.074,148.995 64.246,148.984C66.774,148.984 68.044,150.997 68.055,155.022C68.055,155.663 68.009,156.634 67.917,157.936C67.824,159.238 67.778,160.225 67.778,160.898C67.778,161.321 67.857,161.593 68.014,161.712C68.172,161.831 68.559,161.891 69.178,161.891C69.471,161.761 69.704,161.815 69.878,162.054C69.965,162.184 70.008,162.406 70.008,162.721C70.008,163.036 69.921,163.226 69.748,163.291C69.661,163.312 69.514,163.323 69.308,163.323C68.863,163.323 67.849,163.318 66.265,163.307L64.865,163.307C64.051,163.307 63.481,163.312 63.156,163.323L63.091,163.323C62.657,163.323 62.429,163.09 62.407,162.623C62.407,162.45 62.453,162.284 62.545,162.127C62.638,161.97 62.749,161.891 62.879,161.891L63.074,161.891C63.758,161.826 64.219,161.688 64.458,161.476C64.697,161.264 64.848,160.849 64.914,160.231C65.044,158.983 65.109,157.079 65.109,154.518C65.109,152.228 64.376,151.084 62.912,151.084C61.957,151.084 60.682,151.697 59.087,152.923L59.087,160.198C59.087,160.98 59.187,161.457 59.388,161.631C59.589,161.804 60.085,161.891 60.877,161.891C61.148,161.891 61.306,162.135 61.349,162.623C61.349,163.09 61.138,163.334 60.714,163.356C60.345,163.345 59.765,163.34 58.973,163.34L56.255,163.34C55.452,163.34 54.86,163.334 54.481,163.323L54.383,163.323C54.112,163.323 53.944,163.236 53.878,163.063Z" style="fill-rule:nonzero;"/>
    <path d="M71.473,156.829C71.473,154.605 72.251,152.719 73.808,151.173C75.366,149.627 77.256,148.854 79.481,148.854C80.566,148.854 81.51,149.06 82.313,149.472C83.116,149.885 83.517,150.438 83.517,151.133C83.517,151.512 83.39,151.832 83.135,152.093C82.88,152.353 82.562,152.483 82.182,152.483C81.564,152.483 80.853,152.098 80.05,151.328C79.475,150.753 78.895,150.465 78.309,150.465C77.311,150.465 76.429,151.013 75.664,152.109C74.899,153.205 74.516,154.523 74.516,156.064C74.516,157.692 74.91,159.002 75.696,159.995C76.483,160.988 77.49,161.484 78.716,161.484C80.224,161.484 81.445,160.811 82.378,159.466C82.551,159.064 82.806,158.907 83.143,158.994C83.392,159.081 83.539,159.26 83.582,159.531C83.604,159.596 83.615,159.656 83.615,159.71C83.615,159.862 83.561,160.014 83.452,160.166C82.009,162.499 80.05,163.665 77.576,163.665C75.819,163.665 74.362,163.014 73.206,161.712C72.051,160.41 71.473,158.782 71.473,156.829Z" style="fill-rule:nonzero;"/>
    <path d="M85.698,162.933C85.666,162.792 85.649,162.661 85.649,162.542C85.649,162.39 85.676,162.26 85.731,162.151C85.796,161.999 85.864,161.918 85.934,161.907C86.005,161.896 86.159,161.891 86.398,161.891C87.179,161.891 87.67,161.769 87.871,161.525C88.072,161.281 88.172,160.735 88.172,159.889L88.172,142.62C88.172,142.371 88.047,142.24 87.798,142.23L86.203,141.92C85.986,141.877 85.869,141.679 85.853,141.326C85.836,140.974 85.953,140.748 86.203,140.651C87.754,140.206 89.165,139.739 90.434,139.251L90.483,139.251C90.624,139.262 90.76,139.354 90.89,139.528C91.02,139.723 91.091,139.924 91.102,140.13L91.102,159.856C91.102,160.811 91.17,161.389 91.305,161.59C91.441,161.791 91.85,161.891 92.534,161.891C93.022,161.891 93.288,162.005 93.332,162.233L93.332,162.656C93.332,163.101 93.163,163.323 92.827,163.323C91.221,163.302 89.87,163.291 88.774,163.291C87.678,163.291 86.832,163.302 86.235,163.323C86.17,163.323 86.07,163.285 85.934,163.209C85.798,163.133 85.72,163.041 85.698,162.933Z" style="fill-rule:nonzero;"/>
    <path d="M95.008,156.325C95.008,154.187 95.73,152.418 97.173,151.019C98.616,149.619 100.404,148.919 102.536,148.919C104.668,148.919 106.472,149.632 107.947,151.059C109.423,152.486 110.161,154.252 110.161,156.357C110.139,158.419 109.404,160.168 107.956,161.606C106.507,163.044 104.736,163.763 102.641,163.763C100.482,163.763 98.67,163.052 97.205,161.631C95.74,160.209 95.008,158.44 95.008,156.325ZM98.231,155.364C98.231,157.296 98.703,158.915 99.647,160.223C100.591,161.53 101.708,162.184 103,162.184C104.085,162.184 104.991,161.674 105.718,160.654C106.445,159.634 106.808,158.37 106.808,156.862C106.808,155.039 106.342,153.517 105.408,152.296C104.475,151.076 103.363,150.465 102.072,150.465C100.987,150.465 100.075,150.926 99.337,151.849C98.6,152.771 98.231,153.943 98.231,155.364Z" style="fill-rule:nonzero;"/>
    <path d="M112.212,152.858C112.212,151.653 112.651,150.669 113.53,149.904C114.409,149.139 115.505,148.756 116.818,148.756C117.664,148.756 118.619,148.979 119.682,149.424C119.737,150.216 119.764,150.932 119.764,151.572C119.764,152.049 119.748,152.489 119.715,152.89C119.715,152.955 119.65,153.029 119.52,153.11C119.39,153.191 119.254,153.232 119.113,153.232C118.766,153.221 118.57,153.107 118.527,152.89C118.375,152.044 118.096,151.404 117.689,150.97C117.282,150.536 116.812,150.319 116.281,150.319C115.814,150.319 115.437,150.465 115.15,150.758C114.862,151.051 114.718,151.42 114.718,151.865C114.718,152.201 114.862,152.551 115.15,152.915C115.437,153.278 115.714,153.566 115.98,153.777C116.246,153.989 116.652,154.271 117.2,154.624C117.748,154.976 118.055,155.174 118.12,155.218C119.899,156.444 120.789,157.8 120.789,159.287C120.789,160.47 120.344,161.481 119.455,162.322C118.565,163.163 117.518,163.584 116.313,163.584C115.575,163.584 114.924,163.464 114.36,163.226C114.23,163.182 114.138,163.15 114.084,163.128C113.975,163.236 113.888,163.367 113.823,163.519C113.476,163.616 113.253,163.665 113.156,163.665L113.123,163.665C112.809,163.622 112.651,163.464 112.651,163.193C112.521,161.88 112.423,160.638 112.358,159.466C112.337,159.292 112.418,159.165 112.602,159.083C112.787,159.002 113.004,158.983 113.253,159.026C113.405,159.091 113.514,159.238 113.579,159.466C114.002,161.31 114.881,162.233 116.216,162.233C116.747,162.233 117.187,162.048 117.534,161.679C117.881,161.31 118.055,160.86 118.055,160.328C118.055,159.688 117.748,159.072 117.135,158.481C116.522,157.89 115.855,157.388 115.133,156.976C114.412,156.563 113.744,155.996 113.131,155.275C112.518,154.553 112.212,153.748 112.212,152.858Z" style="fill-rule:nonzero;"/>
    <path d="M122.303,150.091C122.292,150.026 122.287,149.966 122.287,149.912C122.287,149.684 122.406,149.532 122.645,149.456C122.84,149.413 123.472,149.253 124.541,148.976C125.61,148.699 126.366,148.517 126.811,148.431C127.028,148.387 127.205,148.452 127.34,148.626C127.476,148.8 127.544,149 127.544,149.228L127.544,157.09C127.544,158.804 127.723,159.938 128.081,160.491C128.439,161.045 129.128,161.321 130.148,161.321C131.038,161.321 132.182,160.779 133.582,159.694C133.669,159.477 133.712,159.309 133.712,159.189L133.712,152.728C133.712,152.619 133.707,152.459 133.696,152.247C133.685,152.036 133.658,151.868 133.615,151.743C133.571,151.618 133.517,151.485 133.452,151.344C133.387,151.203 133.297,151.086 133.183,150.994C133.07,150.902 132.937,150.845 132.785,150.823C132.47,150.78 132.226,150.736 132.052,150.693C132.031,150.693 131.662,150.639 130.945,150.53C130.75,150.422 130.663,150.21 130.685,149.896C130.707,149.581 130.832,149.391 131.059,149.326C133.414,148.794 134.987,148.485 135.779,148.398L135.91,148.398C136.398,148.398 136.648,148.631 136.658,149.098L136.658,160.524C136.658,160.904 136.786,161.115 137.041,161.159C137.296,161.202 137.554,161.169 137.814,161.061L138.514,160.866C138.709,160.844 138.85,160.936 138.937,161.142C138.991,161.272 139.024,161.408 139.035,161.549C139.035,161.647 139.024,161.739 139.002,161.826C138.948,162.065 138.818,162.211 138.612,162.265C137.407,162.797 136.176,163.193 134.917,163.453C134.743,163.497 134.591,163.519 134.461,163.519C134.005,163.519 133.767,163.285 133.745,162.819L133.696,162.16C133.685,161.98 133.669,161.837 133.647,161.728C133.626,161.392 133.517,161.3 133.322,161.452C132.703,161.896 132.193,162.246 131.792,162.501C131.39,162.756 130.878,163 130.254,163.234C129.63,163.467 129.019,163.584 128.423,163.584C127.11,163.584 126.136,163.174 125.501,162.355C124.866,161.536 124.549,160.394 124.549,158.929L124.549,152.028C124.549,151.691 124.511,151.458 124.435,151.328C124.359,151.198 124.196,151.084 123.947,150.986C123.817,150.943 123.608,150.883 123.32,150.807C123.033,150.731 122.807,150.671 122.645,150.628C122.493,150.606 122.379,150.427 122.303,150.091Z" style="fill-rule:nonzero;"/>
    <path d="M140.109,162.623L140.109,162.314C140.109,162.26 140.125,162.192 140.158,162.111C140.19,162.029 140.25,161.978 140.337,161.956C140.424,161.934 140.548,161.924 140.711,161.924C141.427,161.924 141.888,161.747 142.095,161.395C142.301,161.042 142.404,160.177 142.404,158.799L142.404,152.89C142.382,152.847 142.366,152.768 142.355,152.654C142.344,152.54 142.328,152.445 142.306,152.369C142.284,152.294 142.241,152.245 142.176,152.223C142.133,152.201 141.91,152.112 141.509,151.954C141.107,151.797 140.809,151.675 140.613,151.588C140.364,151.48 140.228,151.301 140.207,151.051L140.207,150.791C140.207,150.498 140.331,150.319 140.581,150.254C140.939,150.08 141.568,149.847 142.469,149.554C143.424,149.217 144.08,148.962 144.438,148.789C144.569,148.724 144.682,148.691 144.78,148.691C144.878,148.691 144.959,148.718 145.024,148.772C145.165,148.892 145.247,149.076 145.268,149.326C145.268,150.368 145.279,151.122 145.301,151.588C145.898,150.232 146.353,149.467 146.668,149.293C146.961,149.141 147.262,149.065 147.571,149.065C147.881,149.065 148.147,149.098 148.369,149.163C148.591,149.228 148.876,149.32 149.223,149.44C149.571,149.559 149.842,149.641 150.037,149.684C150.081,149.706 150.138,149.722 150.208,149.733C150.279,149.744 150.325,149.754 150.347,149.765C150.629,149.863 150.77,150.009 150.77,150.205C150.77,150.259 150.759,150.319 150.737,150.384C150.564,150.959 150.233,151.697 149.744,152.597C149.321,152.576 148.865,152.429 148.377,152.158C147.932,151.941 147.563,151.832 147.27,151.832C146.674,151.832 146.044,152.462 145.382,153.72L145.382,158.554C145.382,159.064 145.393,159.612 145.415,160.198C145.437,160.98 145.529,161.457 145.692,161.631C145.854,161.804 146.316,161.891 147.075,161.891L147.807,161.891C148.057,161.891 148.214,162.086 148.279,162.477C148.345,162.868 148.285,163.139 148.1,163.291C148.035,163.334 147.927,163.356 147.775,163.356L144.243,163.323C143.288,163.302 142.529,163.291 141.964,163.291C141.107,163.291 140.679,163.312 140.679,163.356L140.597,163.356C140.413,163.356 140.288,163.302 140.223,163.193C140.136,163.063 140.098,162.873 140.109,162.623Z" style="fill-rule:nonzero;"/>
    <path d="M151.958,156.52C151.958,154.361 152.609,152.559 153.911,151.116C155.213,149.673 156.841,148.952 158.794,148.952C161.083,148.952 162.695,149.944 163.628,151.93C163.964,152.646 164.263,153.167 164.523,153.493C164.588,153.688 164.621,153.861 164.621,154.013C164.621,154.393 164.404,154.588 163.97,154.599C163.156,154.632 162.038,154.648 160.617,154.648C159.195,154.648 157.475,154.632 155.457,154.599C155.034,154.599 154.822,154.963 154.822,155.69C154.822,157.339 155.262,158.69 156.141,159.743C157.02,160.795 158.126,161.321 159.461,161.321C160.904,161.321 162.195,160.643 163.335,159.287C163.508,159.07 163.731,159.005 164.002,159.091C164.176,159.135 164.311,159.262 164.409,159.474C164.507,159.686 164.512,159.867 164.425,160.019C162.288,162.504 160.199,163.752 158.159,163.763C156.38,163.763 154.901,163.063 153.724,161.663C152.547,160.263 151.958,158.549 151.958,156.52ZM155.262,152.907C155.262,152.972 155.289,153.026 155.343,153.069C155.419,153.124 155.503,153.159 155.596,153.175C155.688,153.191 155.766,153.2 155.832,153.2L160.324,153.2C160.443,153.2 160.568,153.178 160.698,153.134C160.807,153.102 160.861,153.053 160.861,152.988L160.861,152.955C160.394,151.198 159.472,150.319 158.094,150.319C156.206,150.319 155.262,151.181 155.262,152.907Z" style="fill-rule:nonzero;"/>
    <path d="M166.509,152.858C166.509,151.653 166.948,150.669 167.827,149.904C168.706,149.139 169.802,148.756 171.115,148.756C171.961,148.756 172.916,148.979 173.979,149.424C174.034,150.216 174.061,150.932 174.061,151.572C174.061,152.049 174.044,152.489 174.012,152.89C174.012,152.955 173.947,153.029 173.817,153.11C173.686,153.191 173.551,153.232 173.41,153.232C173.062,153.221 172.867,153.107 172.824,152.89C172.672,152.044 172.392,151.404 171.986,150.97C171.579,150.536 171.109,150.319 170.578,150.319C170.111,150.319 169.734,150.465 169.446,150.758C169.159,151.051 169.015,151.42 169.015,151.865C169.015,152.201 169.159,152.551 169.446,152.915C169.734,153.278 170.011,153.566 170.277,153.777C170.542,153.989 170.949,154.271 171.497,154.624C172.045,154.976 172.352,155.174 172.417,155.218C174.196,156.444 175.086,157.8 175.086,159.287C175.086,160.47 174.641,161.481 173.751,162.322C172.862,163.163 171.815,163.584 170.61,163.584C169.872,163.584 169.221,163.464 168.657,163.226C168.527,163.182 168.435,163.15 168.38,163.128C168.272,163.236 168.185,163.367 168.12,163.519C167.773,163.616 167.55,163.665 167.453,163.665L167.42,163.665C167.105,163.622 166.948,163.464 166.948,163.193C166.818,161.88 166.72,160.638 166.655,159.466C166.633,159.292 166.715,159.165 166.899,159.083C167.084,159.002 167.301,158.983 167.55,159.026C167.702,159.091 167.811,159.238 167.876,159.466C168.299,161.31 169.178,162.233 170.513,162.233C171.044,162.233 171.484,162.048 171.831,161.679C172.178,161.31 172.352,160.86 172.352,160.328C172.352,159.688 172.045,159.072 171.432,158.481C170.819,157.89 170.152,157.388 169.43,156.976C168.709,156.563 168.041,155.996 167.428,155.275C166.815,154.553 166.509,153.748 166.509,152.858Z" style="fill-rule:nonzero;"/>
    <path d="M1215.39,209.887C1215.14,209.8 1215.02,209.589 1215.02,209.252C1215.02,208.916 1215.14,208.715 1215.39,208.65L1219.36,207.283C1219.48,207.24 1219.59,207.218 1219.69,207.218C1220.03,207.218 1220.19,207.484 1220.19,208.015L1220.19,218.448C1220.21,218.937 1220.31,219.127 1220.49,219.018C1220.53,218.975 1220.65,218.893 1220.84,218.774C1221.03,218.655 1221.15,218.565 1221.22,218.505C1221.28,218.446 1221.41,218.356 1221.6,218.237C1221.79,218.117 1221.93,218.031 1222.02,217.976C1222.12,217.922 1222.25,217.838 1222.42,217.724C1222.6,217.61 1222.75,217.532 1222.87,217.488C1223,217.445 1223.14,217.385 1223.29,217.309C1223.45,217.233 1223.6,217.176 1223.73,217.138C1223.86,217.1 1223.99,217.07 1224.14,217.049C1224.29,217.027 1224.42,217.016 1224.56,217.016C1226.06,217.016 1227.35,217.683 1228.4,219.018C1229.46,220.353 1229.99,221.931 1229.99,223.754C1229.99,226.066 1229.28,228.005 1227.84,229.573C1226.41,231.141 1224.58,231.925 1222.36,231.925C1221.23,231.925 1219.72,231.713 1217.82,231.29C1217.55,231.203 1217.39,230.948 1217.36,230.525C1217.39,227.813 1217.41,224.896 1217.41,221.777C1217.41,218.657 1217.39,215.329 1217.36,211.792C1217.36,211.151 1217.35,210.75 1217.33,210.587C1217.33,210.37 1217.14,210.224 1216.76,210.148C1216.61,210.104 1216.37,210.055 1216.06,210.001C1215.75,209.947 1215.52,209.909 1215.39,209.887ZM1220.19,224.112C1220.19,226.109 1220.27,227.419 1220.42,228.043C1220.57,228.667 1220.9,229.169 1221.41,229.549C1221.91,229.928 1222.52,230.118 1223.22,230.118C1224.35,230.118 1225.27,229.635 1225.99,228.67C1226.7,227.704 1227.06,226.407 1227.06,224.78C1227.06,223.13 1226.7,221.815 1225.99,220.833C1225.27,219.851 1224.37,219.36 1223.29,219.36C1222.62,219.36 1221.67,219.816 1220.42,220.727C1220.29,220.836 1220.23,221.145 1220.23,221.655C1220.23,221.828 1220.22,222.2 1220.21,222.77C1220.2,223.339 1220.19,223.787 1220.19,224.112Z" style="fill-rule:nonzero;"/>
    <path d="M1231.77,218.253C1231.76,218.188 1231.75,218.128 1231.75,218.074C1231.75,217.846 1231.87,217.694 1232.11,217.618C1232.3,217.575 1232.93,217.415 1234,217.138C1235.07,216.862 1235.83,216.68 1236.27,216.593C1236.49,216.55 1236.67,216.615 1236.8,216.788C1236.94,216.962 1237.01,217.163 1237.01,217.39L1237.01,225.252C1237.01,226.966 1237.19,228.1 1237.54,228.653C1237.9,229.207 1238.59,229.484 1239.61,229.484C1240.5,229.484 1241.64,228.941 1243.05,227.856C1243.13,227.639 1243.17,227.471 1243.17,227.351L1243.17,220.89C1243.17,220.781 1243.17,220.621 1243.16,220.41C1243.15,220.198 1243.12,220.03 1243.08,219.905C1243.03,219.78 1242.98,219.647 1242.91,219.506C1242.85,219.365 1242.76,219.249 1242.65,219.156C1242.53,219.064 1242.4,219.007 1242.25,218.986C1241.93,218.942 1241.69,218.899 1241.52,218.855C1241.49,218.855 1241.12,218.801 1240.41,218.693C1240.21,218.584 1240.13,218.372 1240.15,218.058C1240.17,217.743 1240.29,217.553 1240.52,217.488C1242.88,216.956 1244.45,216.647 1245.24,216.56L1245.37,216.56C1245.86,216.56 1246.11,216.794 1246.12,217.26L1246.12,228.686C1246.12,229.066 1246.25,229.277 1246.5,229.321C1246.76,229.364 1247.02,229.332 1247.28,229.223L1247.98,229.028C1248.17,229.006 1248.31,229.098 1248.4,229.305C1248.45,229.435 1248.49,229.57 1248.5,229.711C1248.5,229.809 1248.49,229.901 1248.46,229.988C1248.41,230.227 1248.28,230.373 1248.07,230.428C1246.87,230.959 1245.64,231.355 1244.38,231.616C1244.21,231.659 1244.05,231.681 1243.92,231.681C1243.47,231.681 1243.23,231.448 1243.21,230.981L1243.16,230.322C1243.15,230.143 1243.13,229.999 1243.11,229.89C1243.09,229.554 1242.98,229.462 1242.79,229.614C1242.17,230.059 1241.66,230.409 1241.26,230.664C1240.85,230.919 1240.34,231.163 1239.72,231.396C1239.09,231.629 1238.48,231.746 1237.88,231.746C1236.57,231.746 1235.6,231.336 1234.96,230.517C1234.33,229.698 1234.01,228.556 1234.01,227.091L1234.01,220.19C1234.01,219.854 1233.97,219.62 1233.9,219.49C1233.82,219.36 1233.66,219.246 1233.41,219.148C1233.28,219.105 1233.07,219.045 1232.78,218.969C1232.5,218.893 1232.27,218.834 1232.11,218.79C1231.96,218.769 1231.84,218.589 1231.77,218.253Z" style="fill-rule:nonzero;"/>
    <path d="M1249.57,230.851L1249.57,230.672C1249.57,230.259 1249.71,230.053 1249.98,230.053L1251.07,229.939C1251.22,229.928 1251.35,229.885 1251.45,229.809C1251.56,229.733 1251.64,229.687 1251.72,229.671C1251.8,229.654 1251.85,229.581 1251.88,229.451C1251.91,229.321 1251.95,229.239 1251.99,229.207C1252.03,229.174 1252.05,229.052 1252.06,228.841C1252.07,228.629 1252.08,228.483 1252.08,228.401L1252.08,221.28C1252.08,220.477 1252.04,220.011 1251.96,219.881C1251.92,219.794 1251.73,219.718 1251.38,219.653C1251.34,219.653 1250.9,219.533 1250.08,219.295C1249.88,219.23 1249.78,219.045 1249.78,218.741C1249.77,218.438 1249.85,218.231 1250.01,218.123C1251.43,217.591 1252.74,217.125 1253.93,216.723C1254.08,216.68 1254.2,216.658 1254.31,216.658C1254.74,216.658 1254.96,217 1254.98,217.683L1254.98,227.156C1254.98,227.981 1254.99,228.545 1255.01,228.849C1255.03,229.38 1255.11,229.698 1255.24,229.801C1255.37,229.904 1255.75,229.956 1256.38,229.956L1256.51,229.956C1256.87,229.956 1257.09,230.135 1257.14,230.493L1257.14,231.095C1257.14,231.388 1256.98,231.534 1256.65,231.534C1256.6,231.534 1256.54,231.529 1256.47,231.518C1255.96,231.486 1255.17,231.469 1254.1,231.469C1253.02,231.469 1251.67,231.486 1250.04,231.518C1249.96,231.518 1249.86,231.448 1249.76,231.306C1249.66,231.165 1249.59,231.014 1249.57,230.851ZM1251.75,212.475C1251.4,212.128 1251.23,211.688 1251.23,211.157C1251.23,210.625 1251.42,210.175 1251.79,209.806C1252.15,209.437 1252.59,209.252 1253.1,209.252C1253.66,209.252 1254.12,209.437 1254.49,209.806C1254.86,210.175 1255.04,210.636 1255.04,211.189C1255.04,211.721 1254.85,212.152 1254.47,212.483C1254.09,212.814 1253.62,212.98 1253.07,212.98C1252.54,212.98 1252.1,212.811 1251.75,212.475Z" style="fill-rule:nonzero;"/>
    <path d="M1258.59,231.095C1258.56,230.954 1258.54,230.824 1258.54,230.704C1258.54,230.552 1258.57,230.422 1258.62,230.314C1258.69,230.162 1258.75,230.08 1258.83,230.07C1258.89,230.059 1259.05,230.053 1259.29,230.053C1260.07,230.053 1260.56,229.931 1260.76,229.687C1260.96,229.443 1261.06,228.898 1261.06,228.051L1261.06,210.782C1261.06,210.533 1260.94,210.403 1260.69,210.392L1259.09,210.083C1258.88,210.039 1258.76,209.841 1258.74,209.488C1258.73,209.136 1258.84,208.911 1259.09,208.813C1260.64,208.368 1262.06,207.902 1263.33,207.413L1263.37,207.413C1263.52,207.424 1263.65,207.516 1263.78,207.69C1263.91,207.885 1263.98,208.086 1263.99,208.292L1263.99,228.019C1263.99,228.974 1264.06,229.551 1264.2,229.752C1264.33,229.953 1264.74,230.053 1265.42,230.053C1265.91,230.053 1266.18,230.167 1266.22,230.395L1266.22,230.818C1266.22,231.263 1266.05,231.486 1265.72,231.486C1264.11,231.464 1262.76,231.453 1261.66,231.453C1260.57,231.453 1259.72,231.464 1259.13,231.486C1259.06,231.486 1258.96,231.448 1258.83,231.372C1258.69,231.296 1258.61,231.203 1258.59,231.095Z" style="fill-rule:nonzero;"/>
    <path d="M1267.56,224.991C1267.56,222.745 1268.28,220.855 1269.72,219.319C1271.16,217.784 1272.95,217.016 1275.09,217.016C1275.83,217.016 1276.67,217.163 1277.6,217.456C1277.64,217.456 1277.69,217.461 1277.73,217.472C1277.77,217.483 1277.81,217.461 1277.83,217.407C1277.85,217.352 1277.87,217.315 1277.89,217.293C1277.91,217.271 1277.93,217.22 1277.94,217.138C1277.95,217.057 1277.96,217.005 1277.96,216.984C1277.96,216.962 1277.96,216.913 1277.97,216.837C1277.98,216.761 1277.99,216.712 1277.99,216.691L1277.99,210.359C1277.92,210.11 1277.87,209.974 1277.83,209.952C1277.72,209.887 1277.55,209.838 1277.31,209.806C1277.08,209.773 1276.82,209.752 1276.54,209.741C1276.26,209.73 1276.07,209.714 1275.99,209.692C1275.74,209.67 1275.6,209.469 1275.57,209.09C1275.52,208.688 1275.67,208.455 1276.02,208.39C1277.59,207.88 1278.96,207.402 1280.12,206.958C1280.23,206.914 1280.33,206.892 1280.41,206.892C1280.55,206.892 1280.65,206.941 1280.72,207.039C1280.85,207.202 1280.92,207.43 1280.92,207.723L1280.92,227.384C1280.92,228.165 1280.96,228.64 1281.04,228.808C1281.12,228.976 1281.32,229.06 1281.62,229.06C1281.87,229.06 1282.19,228.957 1282.6,228.751C1282.79,228.686 1282.96,228.675 1283.09,228.719C1283.23,228.762 1283.34,228.908 1283.43,229.158C1283.47,229.332 1283.49,229.484 1283.49,229.614C1283.49,229.863 1283.4,230.032 1283.23,230.118C1281.94,230.737 1280.5,231.279 1278.92,231.746C1278.54,231.854 1278.28,231.765 1278.14,231.477C1278,231.19 1277.93,230.883 1277.96,230.558C1277.96,230.406 1277.95,230.278 1277.92,230.175C1277.9,230.072 1277.87,230.01 1277.83,229.988C1277.78,229.966 1277.74,229.966 1277.7,229.988C1275.85,231.279 1274.36,231.925 1273.22,231.925C1271.65,231.925 1270.31,231.247 1269.21,229.89C1268.11,228.534 1267.56,226.901 1267.56,224.991ZM1270.58,223.95C1270.58,225.621 1270.95,226.977 1271.69,228.019C1272.43,229.06 1273.34,229.581 1274.42,229.581C1275.34,229.581 1276.44,229.136 1277.73,228.247C1277.84,228.247 1277.91,228.051 1277.96,227.661L1277.96,221.085C1276.89,219.533 1275.71,218.758 1274.39,218.758C1273.26,218.758 1272.35,219.23 1271.64,220.174C1270.94,221.118 1270.58,222.376 1270.58,223.95Z" style="fill-rule:nonzero;"/>
    <path d="M1284.58,230.851L1284.58,230.672C1284.58,230.259 1284.72,230.053 1284.99,230.053L1286.08,229.939C1286.23,229.928 1286.36,229.885 1286.46,229.809C1286.56,229.733 1286.65,229.687 1286.73,229.671C1286.81,229.654 1286.86,229.581 1286.89,229.451C1286.92,229.321 1286.96,229.239 1287,229.207C1287.04,229.174 1287.06,229.052 1287.07,228.841C1287.08,228.629 1287.09,228.483 1287.09,228.401L1287.09,221.28C1287.09,220.477 1287.05,220.011 1286.97,219.881C1286.93,219.794 1286.74,219.718 1286.39,219.653C1286.35,219.653 1285.91,219.533 1285.09,219.295C1284.89,219.23 1284.79,219.045 1284.79,218.741C1284.78,218.438 1284.86,218.231 1285.02,218.123C1286.44,217.591 1287.75,217.125 1288.94,216.723C1289.08,216.68 1289.21,216.658 1289.32,216.658C1289.75,216.658 1289.97,217 1289.99,217.683L1289.99,227.156C1289.99,227.981 1290,228.545 1290.02,228.849C1290.04,229.38 1290.12,229.698 1290.25,229.801C1290.38,229.904 1290.76,229.956 1291.38,229.956L1291.52,229.956C1291.88,229.956 1292.1,230.135 1292.15,230.493L1292.15,231.095C1292.15,231.388 1291.99,231.534 1291.66,231.534C1291.61,231.534 1291.55,231.529 1291.48,231.518C1290.97,231.486 1290.18,231.469 1289.11,231.469C1288.03,231.469 1286.68,231.486 1285.05,231.518C1284.97,231.518 1284.87,231.448 1284.77,231.306C1284.67,231.165 1284.6,231.014 1284.58,230.851ZM1286.76,212.475C1286.41,212.128 1286.24,211.688 1286.24,211.157C1286.24,210.625 1286.43,210.175 1286.8,209.806C1287.16,209.437 1287.6,209.252 1288.11,209.252C1288.67,209.252 1289.13,209.437 1289.5,209.806C1289.87,210.175 1290.05,210.636 1290.05,211.189C1290.05,211.721 1289.86,212.152 1289.48,212.483C1289.1,212.814 1288.63,212.98 1288.08,212.98C1287.55,212.98 1287.11,212.811 1286.76,212.475Z" style="fill-rule:nonzero;"/>
    <path d="M1293.6,231.225C1293.57,231.127 1293.55,231.024 1293.55,230.916C1293.55,230.786 1293.57,230.65 1293.62,230.509C1293.69,230.249 1293.83,230.118 1294.04,230.118L1294.2,230.118C1294.92,230.118 1295.38,229.937 1295.59,229.573C1295.8,229.21 1295.91,228.328 1295.91,226.928L1295.91,222.452C1295.91,220.966 1295.86,220.109 1295.76,219.881C1295.72,219.751 1295.35,219.62 1294.64,219.49L1293.97,219.36C1293.76,219.316 1293.65,219.116 1293.67,218.758C1293.69,218.4 1293.79,218.188 1293.97,218.123C1294.44,217.971 1295.39,217.613 1296.84,217.049C1297.28,216.875 1297.61,216.767 1297.83,216.723C1297.93,216.701 1298.02,216.691 1298.11,216.691C1298.3,216.691 1298.45,216.739 1298.56,216.837C1298.74,216.978 1298.82,217.184 1298.81,217.456L1298.81,218.888C1298.81,218.931 1298.82,218.996 1298.86,219.083C1298.89,219.17 1298.93,219.243 1298.97,219.303C1299.01,219.363 1299.05,219.382 1299.07,219.36C1301.16,217.895 1302.79,217.157 1303.97,217.146C1306.49,217.146 1307.76,219.159 1307.78,223.185C1307.78,223.825 1307.73,224.796 1307.64,226.098C1307.54,227.4 1307.5,228.388 1307.5,229.06C1307.5,229.484 1307.58,229.755 1307.73,229.874C1307.89,229.994 1308.28,230.053 1308.9,230.053C1309.19,229.923 1309.42,229.977 1309.6,230.216C1309.68,230.346 1309.73,230.569 1309.73,230.883C1309.73,231.198 1309.64,231.388 1309.47,231.453C1309.38,231.475 1309.23,231.486 1309.03,231.486C1308.58,231.486 1307.57,231.48 1305.98,231.469L1304.59,231.469C1303.77,231.469 1303.2,231.475 1302.88,231.486L1302.81,231.486C1302.38,231.486 1302.15,231.252 1302.13,230.786C1302.13,230.612 1302.17,230.447 1302.27,230.289C1302.36,230.132 1302.47,230.053 1302.6,230.053L1302.79,230.053C1303.48,229.988 1303.94,229.85 1304.18,229.638C1304.42,229.427 1304.57,229.012 1304.63,228.393C1304.76,227.145 1304.83,225.241 1304.83,222.68C1304.83,220.391 1304.1,219.246 1302.63,219.246C1301.68,219.246 1300.4,219.859 1298.81,221.085L1298.81,228.361C1298.81,229.142 1298.91,229.619 1299.11,229.793C1299.31,229.966 1299.81,230.053 1300.6,230.053C1300.87,230.053 1301.03,230.297 1301.07,230.786C1301.07,231.252 1300.86,231.496 1300.43,231.518C1300.07,231.507 1299.49,231.502 1298.69,231.502L1295.98,231.502C1295.17,231.502 1294.58,231.496 1294.2,231.486L1294.1,231.486C1293.83,231.486 1293.66,231.399 1293.6,231.225Z" style="fill-rule:nonzero;"/>
    <path d="M1311.06,235.961C1311.06,235.321 1311.22,234.743 1311.54,234.228C1311.85,233.713 1312.16,233.338 1312.47,233.105C1312.78,232.872 1313.27,232.543 1313.93,232.12C1314.12,231.947 1314.1,231.838 1313.86,231.795C1312.4,231.198 1311.66,230.352 1311.66,229.256C1311.66,229.039 1311.76,228.816 1311.95,228.588C1312.14,228.361 1312.31,228.209 1312.45,228.133C1312.6,228.057 1312.85,227.921 1313.19,227.726C1313.62,227.509 1313.93,227.33 1314.14,227.189C1314.36,227.026 1314.39,226.89 1314.24,226.782C1312.68,225.849 1311.9,224.509 1311.89,222.762C1311.89,221.167 1312.44,219.826 1313.55,218.741C1314.65,217.656 1315.99,217.114 1317.57,217.114C1319.06,217.114 1320.24,217.57 1321.11,218.481L1321.3,218.481C1321.39,218.481 1322.35,218.372 1324.2,218.155C1324.49,218.112 1324.7,218.123 1324.82,218.188C1324.93,218.253 1325.01,218.443 1325.03,218.758C1325.1,219.409 1325.14,219.919 1325.14,220.288L1325.14,220.418C1325.1,220.798 1324.93,220.987 1324.64,220.987C1324.37,220.987 1323.76,220.922 1322.83,220.792C1322.63,220.792 1322.54,220.846 1322.54,220.955C1322.54,220.977 1322.55,221.009 1322.57,221.053C1322.7,221.476 1322.77,221.953 1322.77,222.485C1322.77,223.993 1322.23,225.233 1321.15,226.204C1320.07,227.175 1318.72,227.661 1317.1,227.661C1316.74,227.661 1316.32,227.601 1315.83,227.482C1315.72,227.634 1315.43,227.889 1314.97,228.247C1314.82,228.399 1314.71,228.515 1314.63,228.597C1314.57,228.678 1314.5,228.776 1314.43,228.89C1314.37,229.003 1314.38,229.104 1314.46,229.191C1314.55,229.277 1314.71,229.353 1314.94,229.418C1315.49,229.57 1316.6,229.663 1318.27,229.695C1320.71,229.739 1322.44,229.994 1323.46,230.46C1324.69,231.014 1325.3,232.077 1325.3,233.65C1325.3,235.386 1324.44,236.838 1322.7,238.004C1320.96,239.171 1318.9,239.754 1316.5,239.754C1315.25,239.754 1314.03,239.398 1312.85,238.688C1311.66,237.977 1311.06,237.068 1311.06,235.961ZM1313.86,235.083C1313.84,235.842 1314.27,236.471 1315.15,236.971C1316.03,237.47 1317.08,237.719 1318.31,237.719C1319.35,237.719 1320.38,237.375 1321.41,236.686C1322.44,235.997 1322.96,235.289 1322.96,234.562C1322.96,233.878 1322.72,233.365 1322.24,233.024C1321.77,232.682 1320.86,232.468 1319.53,232.381C1319.44,232.381 1318.22,232.348 1315.86,232.283C1315.8,232.37 1315.71,232.465 1315.6,232.568C1315.5,232.671 1315.38,232.782 1315.25,232.902C1315.13,233.021 1315.03,233.119 1314.97,233.195C1314.23,233.997 1313.86,234.627 1313.86,235.083ZM1314.69,222.062C1314.69,223.331 1314.96,224.329 1315.5,225.056C1316.04,225.783 1316.69,226.147 1317.46,226.147C1318.2,226.147 1318.81,225.843 1319.28,225.236C1319.76,224.628 1320,223.776 1320,222.68C1320,221.454 1319.73,220.459 1319.18,219.694C1318.64,218.929 1317.98,218.546 1317.2,218.546C1316.48,218.546 1315.89,218.874 1315.41,219.531C1314.93,220.187 1314.69,221.031 1314.69,222.062Z" style="fill-rule:nonzero;"/>
    <path d="M1327.32,221.02C1327.32,219.816 1327.76,218.831 1328.64,218.066C1329.52,217.301 1330.62,216.918 1331.93,216.918C1332.78,216.918 1333.73,217.141 1334.79,217.586C1334.85,218.378 1334.87,219.094 1334.87,219.734C1334.87,220.212 1334.86,220.651 1334.83,221.053C1334.83,221.118 1334.76,221.191 1334.63,221.272C1334.5,221.354 1334.36,221.394 1334.22,221.394C1333.88,221.384 1333.68,221.27 1333.64,221.053C1333.49,220.206 1333.21,219.566 1332.8,219.132C1332.39,218.698 1331.92,218.481 1331.39,218.481C1330.92,218.481 1330.55,218.627 1330.26,218.92C1329.97,219.213 1329.83,219.582 1329.83,220.027C1329.83,220.364 1329.97,220.714 1330.26,221.077C1330.55,221.44 1330.82,221.728 1331.09,221.94C1331.36,222.151 1331.76,222.433 1332.31,222.786C1332.86,223.139 1333.16,223.337 1333.23,223.38C1335.01,224.606 1335.9,225.963 1335.9,227.449C1335.9,228.632 1335.45,229.644 1334.57,230.485C1333.67,231.325 1332.63,231.746 1331.42,231.746C1330.69,231.746 1330.04,231.627 1329.47,231.388C1329.34,231.344 1329.25,231.312 1329.19,231.29C1329.09,231.399 1329,231.529 1328.93,231.681C1328.59,231.778 1328.36,231.827 1328.27,231.827L1328.23,231.827C1327.92,231.784 1327.76,231.627 1327.76,231.355C1327.63,230.042 1327.53,228.8 1327.47,227.628C1327.45,227.454 1327.53,227.327 1327.71,227.246C1327.9,227.164 1328.11,227.145 1328.36,227.189C1328.52,227.254 1328.62,227.4 1328.69,227.628C1329.11,229.473 1329.99,230.395 1331.33,230.395C1331.86,230.395 1332.3,230.211 1332.64,229.842C1332.99,229.473 1333.16,229.022 1333.16,228.491C1333.16,227.851 1332.86,227.235 1332.25,226.643C1331.63,226.052 1330.96,225.55 1330.24,225.138C1329.52,224.726 1328.86,224.159 1328.24,223.437C1327.63,222.715 1327.32,221.91 1327.32,221.02Z" style="fill-rule:nonzero;"/>
    <path d="M211.376,156.625L352.833,156.625" style="fill:none;stroke:#000;stroke-width:2.29px;stroke-dasharray:6.88,6.88,0,0;"/>
    <path d="M1192.44,180.27L1190.44,180.27C1186.64,187.137 1183.76,194.37 1181.79,201.97C1179.83,209.57 1178.84,217.304 1178.84,225.17C1178.84,229.504 1179.09,233.62 1179.59,237.52C1180.09,241.42 1180.83,245.22 1181.79,248.92C1182.76,252.62 1183.98,256.27 1185.44,259.87C1186.91,263.47 1188.61,267.17 1190.54,270.97L1192.54,270.97C1188.68,263.904 1185.76,256.52 1183.79,248.82C1181.83,241.12 1180.84,233.237 1180.84,225.17C1180.84,217.304 1181.83,209.57 1183.79,201.97C1185.76,194.37 1188.64,187.137 1192.44,180.27Z" style="fill-rule:nonzero;"/>
    <circle cx="492.138" cy="146.272" r="120.128" style="fill:#fff;stroke:#000;stroke-width:2.29px;stroke-dasharray:6.88,6.88,0,0;"/>
    <path d="M467.331,30.02C468.105,48.428 470.199,73.741 475.496,80.803C501.786,115.854 562.162,110.167 579.727,157.549C585.54,173.231 591.314,189.029 598.56,204.018" style="fill:none;stroke:#3b6e8c;stroke-width:2.29px;"/>
    <path d="M431.005,249.916C441.994,240.547 453.295,233.115 462.727,230.243C494.585,220.541 530.002,217.9 554.958,193.124C596.912,151.473 574.098,99.304 564.478,50.571" style="fill:none;stroke:#3b6e8c;stroke-width:2.29px;"/>
    <path d="M403.629,65.396C417.414,77.782 432.731,94.405 438.198,100.742C467.649,134.88 501.993,167.955 525.31,207.188C533.885,221.616 539.491,238.256 545.171,254.267" style="fill:none;stroke:#3b6e8c;stroke-width:2.29px;"/>
    <g>
        <path d="M996.346,182.005L911.911,35.759L765.665,120.194L850.1,266.44L996.346,182.005Z" style="fill:#fff;stroke:#000;stroke-width:4.17px;"/>
        <path d="M915.791,104.696L905.69,100.344L900.022,113.499L910.123,117.851L915.791,104.696Z"/>
        <path d="M891.601,91.996L878.807,82.739L870.41,94.345L883.205,103.602L891.601,91.996Z"/>
        <path d="M849.817,103.762L837.022,94.506L828.626,106.112L841.42,115.368L849.817,103.762Z"/>
        <path d="M847.708,126.286L843.237,132.989L854.004,140.169L858.474,133.466L847.708,126.286Z"/>
        <path d="M883.593,123.034L872.996,115.368L865.622,125.561L876.218,133.228L883.593,123.034Z"/>
        <path d="M884.742,157.318L874.888,144.977L863.694,153.916L873.548,166.256L884.742,157.318Z"/>
        <path d="M915.114,139.257L900.519,133.228L895.05,146.467L909.645,152.497L915.114,139.257Z"/>
        <path d="M896.123,186.993L907.982,177.719L901.388,169.287L889.529,178.561L896.123,186.993Z"/>
        <path d="M952.062,164.438L935.556,152.497L924.685,167.523L941.191,179.464L952.062,164.438Z"/>
        <path d="M931.645,203.944L921.875,189.773L906.982,200.04L916.752,214.211L931.645,203.944Z"/>
        <path d="M853.847,215.598L835.565,221.762L840.142,235.336L858.423,229.172L853.847,215.598Z"/>
        <path d="M893.438,213.105L877.481,192.602L866.176,201.4L882.134,221.903L893.438,213.105Z"/>
        <path d="M861.301,184.543L853.772,173.539L835.565,185.997L843.094,197.001L861.301,184.543Z"/>
        <path d="M842.411,157.649L832.003,145.773L821.229,155.213L831.637,167.09L842.411,157.649Z"/>
        <path d="M806.277,121.643L788.654,110.938L776.752,130.531L794.375,141.236L806.277,121.643Z"/>
        <path d="M981.156,155.696L976.92,155.729L977.188,190.005L982.563,189.963L991.473,184.819L991.384,173.41L981.156,155.696Z"/>
        <path d="M950.206,120.128L935.166,115.313L930.799,128.956L945.839,133.77L950.206,120.128Z"/>
        <path d="M877.451,55.655L863.626,63.637L863.789,66.077L878.082,65.125L877.451,55.655Z"/>
        <path d="M935.362,74.021L908.419,54.528L900.022,66.134L926.966,85.627L935.362,74.021Z"/>
    </g>
    <path d="M1033.31,156.625L1174.76,156.625" style="fill:none;stroke:#000;stroke-width:2.29px;stroke-dasharray:6.88,6.88,0,0;"/>
    <path d="M700.989,125.908L700.989,154.693L672.323,154.693L672.323,157.062L700.989,157.062L700.989,185.847L703.359,185.847L703.359,157.062L732.025,157.062L732.025,154.693L703.359,154.693L703.359,125.908L700.989,125.908Z" style="fill-rule:nonzero;"/>
    <path d="M1364.78,270.97L1366.78,270.97C1370.58,264.104 1373.47,256.887 1375.43,249.32C1377.4,241.754 1378.38,234.037 1378.38,226.17C1378.38,221.837 1378.13,217.72 1377.63,213.82C1377.13,209.92 1376.4,206.12 1375.43,202.42C1374.47,198.72 1373.25,195.054 1371.78,191.42C1370.32,187.787 1368.62,184.07 1366.68,180.27L1364.68,180.27C1368.55,187.337 1371.47,194.737 1373.43,202.47C1375.4,210.204 1376.38,218.104 1376.38,226.17C1376.38,234.037 1375.4,241.754 1373.43,249.32C1371.47,256.887 1368.58,264.104 1364.78,270.97Z" style="fill-rule:nonzero;"/>
</svg>
