<?xml version="1.0" encoding="UTF-8" standalone="no"?>
<!DOCTYPE svg PUBLIC "-//W3C//DTD SVG 1.1//EN" "http://www.w3.org/Graphics/SVG/1.1/DTD/svg11.dtd">
<svg width="100%" height="100%" viewBox="0 0 268 267" version="1.1" xmlns="http://www.w3.org/2000/svg" xmlns:xlink="http://www.w3.org/1999/xlink" xml:space="preserve" xmlns:serif="http://www.serif.com/" style="fill-rule:evenodd;clip-rule:evenodd;stroke-linecap:round;stroke-miterlimit:1.5;">
    <rect id="enclosures_no_labels" x="0.62" y="0" width="266.708" height="266.708" style="fill:none;"/>
    <circle cx="132.694" cy="133.272" r="120.128" style="fill:#fff;stroke:#000;stroke-width:2.29px;stroke-dasharray:6.88,6.88,0,0;"/>
    <path d="M107.887,17.02C108.661,35.428 110.755,60.741 116.052,67.803C142.342,102.854 202.719,97.167 220.283,144.549C226.096,160.231 231.87,176.029 239.116,191.018" style="fill:none;stroke:#3b6e8c;stroke-width:2.29px;"/>
    <path d="M71.561,236.916C82.55,227.547 93.851,220.115 103.283,217.243C135.141,207.541 170.558,204.9 195.514,180.124C237.468,138.473 214.654,86.304 205.034,37.571" style="fill:none;stroke:#3b6e8c;stroke-width:2.29px;"/>
    <path d="M44.185,52.396C57.97,64.782 73.287,81.405 78.754,87.742C108.205,121.88 142.549,154.955 165.866,194.188C174.441,208.616 180.047,225.256 185.727,241.267" style="fill:none;stroke:#3b6e8c;stroke-width:2.29px;"/>
</svg>
