<?xml version="1.0" encoding="UTF-8" standalone="no"?>
<!DOCTYPE svg PUBLIC "-//W3C//DTD SVG 1.1//EN" "http://www.w3.org/Graphics/SVG/1.1/DTD/svg11.dtd">
<svg width="100%" height="100%" viewBox="0 0 701 333" version="1.1" xmlns="http://www.w3.org/2000/svg" xmlns:xlink="http://www.w3.org/1999/xlink" xml:space="preserve" xmlns:serif="http://www.serif.com/" style="fill-rule:evenodd;clip-rule:evenodd;stroke-linecap:round;stroke-miterlimit:1.5;">
    <rect id="et" x="0.497" y="0" width="700.169" height="332.702" style="fill:none;"/>
    <g>
        <path d="M524.52,121.754C524.52,121.754 542.984,98.484 543.509,94.706C544.033,90.929 530.044,82.275 530.044,82.275" style="fill:none;stroke:#bc5b4f;stroke-width:2.29px;"/>
        <path d="M556.304,135.331C556.304,135.331 564.916,109.062 567.692,104.338C570.468,99.614 543.523,94.706 543.523,94.706" style="fill:none;stroke:#bc5b4f;stroke-width:2.29px;"/>
        <path d="M596.996,104.338L567.692,104.338" style="fill:none;stroke:#bc5b4f;stroke-width:2.29px;"/>
        <path d="M495.502,82.256C503.879,76.36 522.327,81.348 528.124,82.256C533.922,83.165 524.376,50.305 528.124,47.156" style="fill:none;stroke:#bc5b4f;stroke-width:2.29px;"/>
        <path d="M530.886,200.562C539.742,200.562 559.437,182.955 561.024,183.484C561.92,183.782 568.701,189.412 571.191,191.623C574.199,194.295 586.227,204.377 586.227,206.425" style="fill:none;stroke:#bc5b4f;stroke-width:2.29px;"/>
        <path d="M564.525,139.787C564.525,145.603 559.364,170.155 558.119,172.644C557.718,173.447 560.942,178.892 560.942,183.472" style="fill:none;stroke:#bc5b4f;stroke-width:2.29px;"/>
        <path d="M513.228,178.366C518.717,178.366 529.773,176.577 534.25,172.1C536.628,169.722 540.872,166.1 543.995,165.059C544.77,164.801 555.931,170.679 558.084,172.832" style="fill:none;stroke:#bc5b4f;stroke-width:2.29px;"/>
        <path d="M544.059,165.051C544.102,165.016 529.881,153.543 526.759,150.42C525.926,149.588 528.062,144.828 528.393,144.296C531.598,139.161 534.236,133.943 534.236,127.934" style="fill:none;stroke:#bc5b4f;stroke-width:2.29px;"/>
        <path d="M489.267,151.088C495.82,149.776 515.41,143.577 516.313,144.028C519.063,145.403 524.194,148.271 526.568,150.234" style="fill:none;stroke:#bc5b4f;stroke-width:2.29px;"/>
        <path d="M516.455,144.005C515.248,143.28 497.444,131.734 498.104,127.778C498.918,122.9 504.466,113.977 506.619,109.382" style="fill:none;stroke:#bc5b4f;stroke-width:2.29px;"/>
        <path d="M470.6,129.027C474.495,126.43 480.844,123.731 482.886,123.086C485.39,122.295 496.537,128.53 498.086,129.027" style="fill:none;stroke:#bc5b4f;stroke-width:2.29px;"/>
        <path d="M447.856,104.764C458.643,96.87 467.953,94.907 470.67,92.191C471.069,91.791 470.661,90.379 470.553,89.731C470.13,87.19 464.628,64.335 463.027,60.175" style="fill:none;stroke:#bc5b4f;stroke-width:2.29px;"/>
        <path d="M470.6,92.259C478.527,96.223 487.982,91.396 495.502,91.396" style="fill:none;stroke:#bc5b4f;stroke-width:2.29px;"/>
        <path d="M522.832,241.992C522.634,241.952 527.831,249.347 528.653,251.001C533.188,260.125 535.026,268.019 536.032,278.017C536.199,279.676 536.483,284.619 535.12,285.982" style="fill:none;stroke:#bc5b4f;stroke-width:2.29px;"/>
        <path d="M495.549,248.832C495.549,258.668 494.24,268.194 492.68,277.54C492.173,280.576 495.549,283.423 495.549,285.939" style="fill:none;stroke:#bc5b4f;stroke-width:2.29px;"/>
        <path d="M522.832,241.992C522.825,241.872 517.799,231.784 514.899,228.477C508.709,221.419 500.376,216.613 493.852,210.09C493.335,209.574 509.268,191.93 510.817,187.315C511.764,184.496 513.41,181.548 513.41,178.611" style="fill:none;stroke:#bc5b4f;stroke-width:2.29px;"/>
        <path d="M427.517,247.913C430.744,247.913 456.812,220.695 458.305,217.71C458.767,216.787 476.31,250.631 479.821,254.142" style="fill:none;stroke:#bc5b4f;stroke-width:2.29px;"/>
        <path d="M458.305,217.71C462.855,217.71 486.877,210.09 493.852,210.09" style="fill:none;stroke:#bc5b4f;stroke-width:2.29px;"/>
        <path d="M398.351,153.057C416.122,151.849 433.66,167.924 434.096,167.487C438.25,163.333 471.406,131.998 471.406,131.554" style="fill:none;stroke:#bc5b4f;stroke-width:2.29px;"/>
        <path d="M433.611,167.284C438.49,171.188 457.622,178.727 460.173,180.754C462.236,182.393 463.733,185.448 465.781,186.471C465.985,186.573 481.714,177.942 484.094,176.943C485.671,176.281 500.738,165.536 500.738,164.574" style="fill:none;stroke:#bc5b4f;stroke-width:2.29px;"/>
        <path d="M465.938,186.381C465.938,188.564 464.64,201.455 465.428,204.412C466.259,207.53 468.47,214.945 468.43,215.06" style="fill:none;stroke:#bc5b4f;stroke-width:2.29px;"/>
        <path d="M400.576,199.038C409.584,199.038 422.881,200.993 431.44,197.64C437.108,195.421 455.238,179.612 455.238,178.157" style="fill:none;stroke:#bc5b4f;stroke-width:2.29px;"/>
        <path d="M576.602,216.671C576.602,216.671 601.08,242.399 603.94,249.574" style="fill:none;stroke:#bc5b4f;stroke-width:2.29px;"/>
        <path d="M603.94,148.311L634.325,144.005" style="fill:none;stroke:#bc5b4f;stroke-width:2.29px;"/>
        <path d="M599.007,116.446C599.007,116.446 619.135,110.903 619.029,104.764" style="fill:none;stroke:#bc5b4f;stroke-width:2.29px;"/>
        <circle cx="516.455" cy="167.284" r="120.128" style="fill:none;stroke:#000;stroke-width:2.29px;stroke-dasharray:6.88,6.88,0,0;"/>
        <path d="M491.649,51.032C492.423,69.441 494.516,94.753 499.813,101.815C526.104,136.866 586.48,131.179 604.045,178.561C609.858,194.243 615.632,210.041 622.878,225.03" style="fill:none;stroke:#3b6e8c;stroke-width:2.29px;"/>
        <path d="M455.323,270.929C466.312,261.559 477.613,254.128 487.044,251.255C518.902,241.553 554.32,238.912 579.276,214.136C621.229,172.485 598.416,120.316 588.796,71.583" style="fill:none;stroke:#3b6e8c;stroke-width:2.29px;"/>
        <path d="M427.947,86.408C441.731,98.794 457.048,115.417 462.515,121.754C491.966,155.892 526.31,188.967 549.628,228.2C558.203,242.629 563.809,259.268 569.489,275.279" style="fill:none;stroke:#3b6e8c;stroke-width:2.29px;"/>
    </g>
    <g transform="matrix(1,0,0,1,-444.352,-122.526)">
        <g transform="matrix(33.3333,0,0,33.3333,497.808,305.217)">
            <path d="M0.026,-0.202C0.026,-0.267 0.045,-0.321 0.084,-0.364C0.124,-0.408 0.172,-0.429 0.231,-0.429C0.3,-0.429 0.348,-0.399 0.376,-0.34C0.386,-0.318 0.395,-0.303 0.403,-0.293C0.405,-0.287 0.406,-0.282 0.406,-0.277C0.406,-0.266 0.399,-0.26 0.386,-0.26C0.362,-0.259 0.328,-0.258 0.286,-0.258C0.243,-0.258 0.191,-0.259 0.131,-0.26C0.118,-0.26 0.112,-0.249 0.112,-0.227C0.112,-0.178 0.125,-0.137 0.151,-0.105C0.178,-0.074 0.211,-0.058 0.251,-0.058C0.294,-0.058 0.333,-0.078 0.367,-0.119C0.372,-0.126 0.379,-0.128 0.387,-0.125C0.392,-0.124 0.396,-0.12 0.399,-0.114C0.402,-0.107 0.403,-0.102 0.4,-0.097C0.336,-0.023 0.273,0.015 0.212,0.015C0.159,0.015 0.114,-0.006 0.079,-0.048C0.044,-0.09 0.026,-0.141 0.026,-0.202ZM0.125,-0.311C0.125,-0.309 0.126,-0.307 0.127,-0.306C0.13,-0.304 0.132,-0.303 0.135,-0.302C0.138,-0.302 0.14,-0.302 0.142,-0.302L0.277,-0.302C0.28,-0.302 0.284,-0.302 0.288,-0.304C0.291,-0.305 0.293,-0.306 0.293,-0.308L0.293,-0.309C0.279,-0.362 0.251,-0.388 0.21,-0.388C0.153,-0.388 0.125,-0.362 0.125,-0.311Z" style="fill-rule:nonzero;"/>
        </g>
        <g transform="matrix(33.3333,0,0,33.3333,512.196,305.217)">
            <path d="M0.025,-0.006C0.024,-0.009 0.023,-0.012 0.023,-0.015C0.023,-0.019 0.024,-0.023 0.025,-0.027C0.028,-0.035 0.032,-0.039 0.038,-0.039L0.043,-0.039C0.064,-0.039 0.078,-0.045 0.085,-0.055C0.091,-0.066 0.094,-0.093 0.094,-0.135L0.094,-0.269C0.094,-0.314 0.093,-0.339 0.09,-0.346C0.089,-0.35 0.077,-0.354 0.056,-0.358L0.036,-0.362C0.03,-0.363 0.027,-0.369 0.027,-0.38C0.028,-0.391 0.031,-0.397 0.036,-0.399C0.05,-0.403 0.079,-0.414 0.122,-0.431C0.135,-0.436 0.145,-0.44 0.152,-0.441C0.155,-0.442 0.158,-0.442 0.16,-0.442C0.166,-0.442 0.171,-0.44 0.174,-0.438C0.179,-0.433 0.181,-0.427 0.181,-0.419L0.181,-0.376C0.181,-0.375 0.182,-0.373 0.183,-0.37C0.184,-0.368 0.185,-0.365 0.186,-0.364C0.187,-0.362 0.188,-0.361 0.189,-0.362C0.252,-0.406 0.301,-0.428 0.336,-0.428C0.412,-0.428 0.45,-0.368 0.45,-0.247C0.45,-0.228 0.449,-0.199 0.446,-0.16C0.443,-0.121 0.442,-0.091 0.442,-0.071C0.442,-0.058 0.444,-0.05 0.449,-0.046C0.454,-0.043 0.465,-0.041 0.484,-0.041C0.493,-0.045 0.5,-0.043 0.505,-0.036C0.507,-0.032 0.509,-0.026 0.509,-0.016C0.509,-0.007 0.506,-0.001 0.501,0.001C0.498,0.002 0.494,0.002 0.488,0.002C0.474,0.002 0.444,0.002 0.396,0.001L0.354,0.001C0.33,0.001 0.313,0.002 0.303,0.002L0.301,0.002C0.288,0.002 0.281,-0.005 0.281,-0.019C0.281,-0.024 0.282,-0.029 0.285,-0.034C0.288,-0.039 0.291,-0.041 0.295,-0.041L0.301,-0.041C0.321,-0.043 0.335,-0.047 0.342,-0.053C0.349,-0.06 0.354,-0.072 0.356,-0.091C0.36,-0.128 0.362,-0.185 0.362,-0.262C0.362,-0.331 0.34,-0.365 0.296,-0.365C0.267,-0.365 0.229,-0.347 0.181,-0.31L0.181,-0.092C0.181,-0.068 0.184,-0.054 0.19,-0.049C0.196,-0.044 0.211,-0.041 0.235,-0.041C0.243,-0.041 0.248,-0.034 0.249,-0.019C0.249,-0.005 0.243,0.002 0.23,0.003C0.219,0.003 0.201,0.002 0.178,0.002L0.096,0.002C0.072,0.002 0.054,0.002 0.043,0.002L0.04,0.002C0.032,0.002 0.027,-0.001 0.025,-0.006Z" style="fill-rule:nonzero;"/>
        </g>
        <g transform="matrix(33.3333,0,0,33.3333,529.628,305.217)">
            <path d="M0.03,-0.193C0.03,-0.26 0.053,-0.316 0.1,-0.363C0.147,-0.409 0.203,-0.432 0.27,-0.432C0.303,-0.432 0.331,-0.426 0.355,-0.414C0.379,-0.401 0.391,-0.385 0.391,-0.364C0.391,-0.352 0.387,-0.343 0.38,-0.335C0.372,-0.327 0.362,-0.323 0.351,-0.323C0.333,-0.323 0.311,-0.335 0.287,-0.358C0.27,-0.375 0.252,-0.384 0.235,-0.384C0.205,-0.384 0.178,-0.367 0.156,-0.334C0.133,-0.302 0.121,-0.262 0.121,-0.216C0.121,-0.167 0.133,-0.128 0.156,-0.098C0.18,-0.068 0.21,-0.053 0.247,-0.053C0.292,-0.053 0.329,-0.073 0.357,-0.114C0.362,-0.126 0.37,-0.131 0.38,-0.128C0.387,-0.125 0.392,-0.12 0.393,-0.112C0.394,-0.11 0.394,-0.108 0.394,-0.106C0.394,-0.102 0.392,-0.097 0.389,-0.093C0.346,-0.023 0.287,0.012 0.213,0.012C0.16,0.012 0.116,-0.007 0.082,-0.046C0.047,-0.085 0.03,-0.134 0.03,-0.193Z" style="fill-rule:nonzero;"/>
        </g>
        <g transform="matrix(33.3333,0,0,33.3333,544.016,305.217)">
            <path d="M0.025,-0.01C0.024,-0.014 0.023,-0.018 0.023,-0.021C0.023,-0.026 0.024,-0.03 0.026,-0.033C0.028,-0.038 0.03,-0.04 0.032,-0.041C0.034,-0.041 0.039,-0.041 0.046,-0.041C0.069,-0.041 0.084,-0.045 0.09,-0.052C0.096,-0.059 0.099,-0.076 0.099,-0.101L0.099,-0.619C0.099,-0.627 0.095,-0.631 0.088,-0.631L0.04,-0.64C0.034,-0.641 0.03,-0.647 0.03,-0.658C0.029,-0.669 0.033,-0.675 0.04,-0.678C0.087,-0.692 0.129,-0.706 0.167,-0.72L0.168,-0.72C0.173,-0.72 0.177,-0.717 0.181,-0.712C0.185,-0.706 0.187,-0.7 0.187,-0.694L0.187,-0.102C0.187,-0.073 0.189,-0.056 0.193,-0.05C0.197,-0.044 0.209,-0.041 0.23,-0.041C0.245,-0.041 0.253,-0.038 0.254,-0.031L0.254,-0.018C0.254,-0.005 0.249,0.002 0.239,0.002C0.191,0.001 0.15,0.001 0.117,0.001C0.084,0.001 0.059,0.001 0.041,0.002C0.039,0.002 0.036,0.001 0.032,-0.001C0.028,-0.004 0.026,-0.007 0.025,-0.01Z" style="fill-rule:nonzero;"/>
        </g>
        <g transform="matrix(33.3333,0,0,33.3333,553.081,305.217)">
            <path d="M0.032,-0.208C0.032,-0.272 0.054,-0.325 0.097,-0.367C0.14,-0.409 0.194,-0.43 0.258,-0.43C0.322,-0.43 0.376,-0.409 0.42,-0.366C0.465,-0.323 0.487,-0.27 0.487,-0.207C0.486,-0.145 0.464,-0.093 0.421,-0.05C0.377,-0.006 0.324,0.015 0.261,0.015C0.196,0.015 0.142,-0.006 0.098,-0.049C0.054,-0.091 0.032,-0.145 0.032,-0.208ZM0.129,-0.237C0.129,-0.179 0.143,-0.13 0.171,-0.091C0.2,-0.052 0.233,-0.032 0.272,-0.032C0.305,-0.032 0.332,-0.048 0.354,-0.078C0.375,-0.109 0.386,-0.147 0.386,-0.192C0.386,-0.247 0.372,-0.292 0.344,-0.329C0.316,-0.365 0.283,-0.384 0.244,-0.384C0.212,-0.384 0.184,-0.37 0.162,-0.342C0.14,-0.315 0.129,-0.279 0.129,-0.237Z" style="fill-rule:nonzero;"/>
        </g>
        <g transform="matrix(33.3333,0,0,33.3333,570.334,305.217)">
            <path d="M0.031,-0.312C0.031,-0.348 0.044,-0.378 0.07,-0.401C0.097,-0.424 0.13,-0.435 0.169,-0.435C0.194,-0.435 0.223,-0.428 0.255,-0.415C0.257,-0.391 0.257,-0.37 0.257,-0.351C0.257,-0.336 0.257,-0.323 0.256,-0.311C0.256,-0.309 0.254,-0.307 0.25,-0.304C0.246,-0.302 0.242,-0.301 0.238,-0.301C0.227,-0.301 0.222,-0.305 0.22,-0.311C0.216,-0.336 0.207,-0.356 0.195,-0.369C0.183,-0.382 0.169,-0.388 0.153,-0.388C0.139,-0.388 0.128,-0.384 0.119,-0.375C0.11,-0.366 0.106,-0.355 0.106,-0.342C0.106,-0.332 0.11,-0.321 0.119,-0.31C0.128,-0.299 0.136,-0.291 0.144,-0.284C0.152,-0.278 0.164,-0.27 0.18,-0.259C0.197,-0.248 0.206,-0.243 0.208,-0.241C0.261,-0.204 0.288,-0.164 0.288,-0.119C0.288,-0.084 0.275,-0.053 0.248,-0.028C0.221,-0.003 0.19,0.01 0.154,0.01C0.132,0.01 0.112,0.006 0.095,-0.001C0.091,-0.002 0.089,-0.003 0.087,-0.004C0.084,-0.001 0.081,0.003 0.079,0.008C0.069,0.011 0.062,0.012 0.059,0.012L0.058,0.012C0.049,0.011 0.044,0.006 0.044,-0.002C0.04,-0.041 0.037,-0.079 0.035,-0.114C0.035,-0.119 0.037,-0.123 0.042,-0.125C0.048,-0.128 0.055,-0.128 0.062,-0.127C0.067,-0.125 0.07,-0.121 0.072,-0.114C0.084,-0.058 0.111,-0.031 0.151,-0.031C0.167,-0.031 0.18,-0.036 0.19,-0.047C0.201,-0.058 0.206,-0.072 0.206,-0.088C0.206,-0.107 0.197,-0.126 0.178,-0.143C0.16,-0.161 0.14,-0.176 0.118,-0.188C0.097,-0.201 0.077,-0.218 0.058,-0.24C0.04,-0.261 0.031,-0.285 0.031,-0.312Z" style="fill-rule:nonzero;"/>
        </g>
        <g transform="matrix(33.3333,0,0,33.3333,580.799,305.217)">
            <path d="M0.026,-0.202C0.026,-0.267 0.045,-0.321 0.084,-0.364C0.124,-0.408 0.172,-0.429 0.231,-0.429C0.3,-0.429 0.348,-0.399 0.376,-0.34C0.386,-0.318 0.395,-0.303 0.403,-0.293C0.405,-0.287 0.406,-0.282 0.406,-0.277C0.406,-0.266 0.399,-0.26 0.386,-0.26C0.362,-0.259 0.328,-0.258 0.286,-0.258C0.243,-0.258 0.191,-0.259 0.131,-0.26C0.118,-0.26 0.112,-0.249 0.112,-0.227C0.112,-0.178 0.125,-0.137 0.151,-0.105C0.178,-0.074 0.211,-0.058 0.251,-0.058C0.294,-0.058 0.333,-0.078 0.367,-0.119C0.372,-0.126 0.379,-0.128 0.387,-0.125C0.392,-0.124 0.396,-0.12 0.399,-0.114C0.402,-0.107 0.403,-0.102 0.4,-0.097C0.336,-0.023 0.273,0.015 0.212,0.015C0.159,0.015 0.114,-0.006 0.079,-0.048C0.044,-0.09 0.026,-0.141 0.026,-0.202ZM0.125,-0.311C0.125,-0.309 0.126,-0.307 0.127,-0.306C0.13,-0.304 0.132,-0.303 0.135,-0.302C0.138,-0.302 0.14,-0.302 0.142,-0.302L0.277,-0.302C0.28,-0.302 0.284,-0.302 0.288,-0.304C0.291,-0.305 0.293,-0.306 0.293,-0.308L0.293,-0.309C0.279,-0.362 0.251,-0.388 0.21,-0.388C0.153,-0.388 0.125,-0.362 0.125,-0.311Z" style="fill-rule:nonzero;"/>
        </g>
        <g transform="matrix(33.3333,0,0,33.3333,595.187,305.217)">
            <path d="M0.022,-0.193C0.022,-0.26 0.044,-0.317 0.087,-0.363C0.13,-0.409 0.184,-0.432 0.248,-0.432C0.27,-0.432 0.295,-0.428 0.323,-0.419C0.325,-0.419 0.326,-0.419 0.327,-0.418C0.328,-0.418 0.329,-0.419 0.33,-0.42C0.331,-0.422 0.331,-0.423 0.332,-0.424C0.333,-0.424 0.333,-0.426 0.333,-0.428C0.334,-0.431 0.334,-0.432 0.334,-0.433C0.334,-0.434 0.334,-0.435 0.334,-0.438C0.335,-0.44 0.335,-0.441 0.335,-0.442L0.335,-0.632C0.333,-0.639 0.331,-0.643 0.33,-0.644C0.327,-0.646 0.322,-0.647 0.315,-0.648C0.308,-0.649 0.3,-0.65 0.292,-0.65C0.283,-0.651 0.278,-0.651 0.275,-0.652C0.267,-0.653 0.263,-0.659 0.262,-0.67C0.261,-0.682 0.265,-0.689 0.276,-0.691C0.323,-0.706 0.364,-0.721 0.399,-0.734C0.402,-0.735 0.405,-0.736 0.408,-0.736C0.412,-0.736 0.415,-0.734 0.417,-0.731C0.421,-0.727 0.423,-0.72 0.423,-0.711L0.423,-0.121C0.423,-0.098 0.424,-0.083 0.427,-0.078C0.429,-0.073 0.435,-0.071 0.444,-0.071C0.451,-0.071 0.461,-0.074 0.473,-0.08C0.479,-0.082 0.484,-0.082 0.488,-0.081C0.492,-0.08 0.495,-0.075 0.498,-0.068C0.499,-0.063 0.5,-0.058 0.5,-0.054C0.5,-0.047 0.497,-0.042 0.492,-0.039C0.453,-0.021 0.41,-0.004 0.363,0.01C0.351,0.013 0.344,0.01 0.339,0.002C0.335,-0.007 0.333,-0.016 0.334,-0.026C0.334,-0.03 0.334,-0.034 0.333,-0.037C0.332,-0.04 0.331,-0.042 0.33,-0.043C0.329,-0.044 0.327,-0.044 0.326,-0.043C0.271,-0.004 0.226,0.015 0.192,0.015C0.145,0.015 0.105,-0.005 0.072,-0.046C0.038,-0.087 0.022,-0.136 0.022,-0.193ZM0.113,-0.224C0.113,-0.174 0.124,-0.133 0.146,-0.102C0.168,-0.071 0.195,-0.055 0.228,-0.055C0.255,-0.055 0.288,-0.069 0.327,-0.095C0.33,-0.095 0.333,-0.101 0.334,-0.113L0.334,-0.31C0.302,-0.357 0.266,-0.38 0.227,-0.38C0.193,-0.38 0.166,-0.366 0.145,-0.337C0.123,-0.309 0.113,-0.271 0.113,-0.224Z" style="fill-rule:nonzero;"/>
        </g>
        <g transform="matrix(33.3333,0,0,33.3333,497.808,338.551)">
            <path d="M0.021,-0.39C0.023,-0.393 0.027,-0.396 0.032,-0.399C0.068,-0.418 0.096,-0.458 0.117,-0.52C0.118,-0.528 0.125,-0.531 0.137,-0.532L0.138,-0.532C0.149,-0.532 0.154,-0.527 0.154,-0.518C0.153,-0.497 0.152,-0.479 0.152,-0.465C0.152,-0.45 0.153,-0.44 0.154,-0.433C0.154,-0.43 0.158,-0.427 0.166,-0.425L0.265,-0.425C0.277,-0.425 0.282,-0.42 0.282,-0.412C0.282,-0.409 0.282,-0.406 0.281,-0.403C0.279,-0.393 0.277,-0.382 0.272,-0.369C0.268,-0.362 0.261,-0.358 0.252,-0.359L0.163,-0.36C0.159,-0.361 0.156,-0.359 0.154,-0.353L0.154,-0.181C0.154,-0.131 0.158,-0.098 0.165,-0.082C0.173,-0.065 0.187,-0.057 0.208,-0.057C0.227,-0.057 0.244,-0.073 0.261,-0.105C0.264,-0.111 0.269,-0.113 0.276,-0.113C0.283,-0.112 0.288,-0.11 0.292,-0.106C0.294,-0.104 0.295,-0.1 0.295,-0.094C0.295,-0.087 0.295,-0.083 0.294,-0.082C0.266,-0.02 0.227,0.011 0.176,0.011C0.144,0.011 0.118,-0.001 0.098,-0.025C0.078,-0.049 0.068,-0.08 0.068,-0.117L0.068,-0.353C0.068,-0.356 0.065,-0.358 0.058,-0.359C0.054,-0.36 0.048,-0.36 0.042,-0.361C0.035,-0.361 0.03,-0.362 0.026,-0.362C0.022,-0.369 0.02,-0.375 0.02,-0.381C0.02,-0.385 0.02,-0.388 0.021,-0.39Z" style="fill-rule:nonzero;"/>
        </g>
        <g transform="matrix(33.3333,0,0,33.3333,508.436,338.551)">
            <path d="M0.026,-0.202C0.026,-0.267 0.045,-0.321 0.084,-0.364C0.124,-0.408 0.172,-0.429 0.231,-0.429C0.3,-0.429 0.348,-0.399 0.376,-0.34C0.386,-0.318 0.395,-0.303 0.403,-0.293C0.405,-0.287 0.406,-0.282 0.406,-0.277C0.406,-0.266 0.399,-0.26 0.386,-0.26C0.362,-0.259 0.328,-0.258 0.286,-0.258C0.243,-0.258 0.191,-0.259 0.131,-0.26C0.118,-0.26 0.112,-0.249 0.112,-0.227C0.112,-0.178 0.125,-0.137 0.151,-0.105C0.178,-0.074 0.211,-0.058 0.251,-0.058C0.294,-0.058 0.333,-0.078 0.367,-0.119C0.372,-0.126 0.379,-0.128 0.387,-0.125C0.392,-0.124 0.396,-0.12 0.399,-0.114C0.402,-0.107 0.403,-0.102 0.4,-0.097C0.336,-0.023 0.273,0.015 0.212,0.015C0.159,0.015 0.114,-0.006 0.079,-0.048C0.044,-0.09 0.026,-0.141 0.026,-0.202ZM0.125,-0.311C0.125,-0.309 0.126,-0.307 0.127,-0.306C0.13,-0.304 0.132,-0.303 0.135,-0.302C0.138,-0.302 0.14,-0.302 0.142,-0.302L0.277,-0.302C0.28,-0.302 0.284,-0.302 0.288,-0.304C0.291,-0.305 0.293,-0.306 0.293,-0.308L0.293,-0.309C0.279,-0.362 0.251,-0.388 0.21,-0.388C0.153,-0.388 0.125,-0.362 0.125,-0.311Z" style="fill-rule:nonzero;"/>
        </g>
        <g transform="matrix(33.3333,0,0,33.3333,522.824,338.551)">
            <path d="M0.031,-0.312C0.031,-0.348 0.044,-0.378 0.07,-0.401C0.097,-0.424 0.13,-0.435 0.169,-0.435C0.194,-0.435 0.223,-0.428 0.255,-0.415C0.257,-0.391 0.257,-0.37 0.257,-0.351C0.257,-0.336 0.257,-0.323 0.256,-0.311C0.256,-0.309 0.254,-0.307 0.25,-0.304C0.246,-0.302 0.242,-0.301 0.238,-0.301C0.227,-0.301 0.222,-0.305 0.22,-0.311C0.216,-0.336 0.207,-0.356 0.195,-0.369C0.183,-0.382 0.169,-0.388 0.153,-0.388C0.139,-0.388 0.128,-0.384 0.119,-0.375C0.11,-0.366 0.106,-0.355 0.106,-0.342C0.106,-0.332 0.11,-0.321 0.119,-0.31C0.128,-0.299 0.136,-0.291 0.144,-0.284C0.152,-0.278 0.164,-0.27 0.18,-0.259C0.197,-0.248 0.206,-0.243 0.208,-0.241C0.261,-0.204 0.288,-0.164 0.288,-0.119C0.288,-0.084 0.275,-0.053 0.248,-0.028C0.221,-0.003 0.19,0.01 0.154,0.01C0.132,0.01 0.112,0.006 0.095,-0.001C0.091,-0.002 0.089,-0.003 0.087,-0.004C0.084,-0.001 0.081,0.003 0.079,0.008C0.069,0.011 0.062,0.012 0.059,0.012L0.058,0.012C0.049,0.011 0.044,0.006 0.044,-0.002C0.04,-0.041 0.037,-0.079 0.035,-0.114C0.035,-0.119 0.037,-0.123 0.042,-0.125C0.048,-0.128 0.055,-0.128 0.062,-0.127C0.067,-0.125 0.07,-0.121 0.072,-0.114C0.084,-0.058 0.111,-0.031 0.151,-0.031C0.167,-0.031 0.18,-0.036 0.19,-0.047C0.201,-0.058 0.206,-0.072 0.206,-0.088C0.206,-0.107 0.197,-0.126 0.178,-0.143C0.16,-0.161 0.14,-0.176 0.118,-0.188C0.097,-0.201 0.077,-0.218 0.058,-0.24C0.04,-0.261 0.031,-0.285 0.031,-0.312Z" style="fill-rule:nonzero;"/>
        </g>
        <g transform="matrix(33.3333,0,0,33.3333,533.29,338.551)">
            <path d="M0.031,-0.312C0.031,-0.348 0.044,-0.378 0.07,-0.401C0.097,-0.424 0.13,-0.435 0.169,-0.435C0.194,-0.435 0.223,-0.428 0.255,-0.415C0.257,-0.391 0.257,-0.37 0.257,-0.351C0.257,-0.336 0.257,-0.323 0.256,-0.311C0.256,-0.309 0.254,-0.307 0.25,-0.304C0.246,-0.302 0.242,-0.301 0.238,-0.301C0.227,-0.301 0.222,-0.305 0.22,-0.311C0.216,-0.336 0.207,-0.356 0.195,-0.369C0.183,-0.382 0.169,-0.388 0.153,-0.388C0.139,-0.388 0.128,-0.384 0.119,-0.375C0.11,-0.366 0.106,-0.355 0.106,-0.342C0.106,-0.332 0.11,-0.321 0.119,-0.31C0.128,-0.299 0.136,-0.291 0.144,-0.284C0.152,-0.278 0.164,-0.27 0.18,-0.259C0.197,-0.248 0.206,-0.243 0.208,-0.241C0.261,-0.204 0.288,-0.164 0.288,-0.119C0.288,-0.084 0.275,-0.053 0.248,-0.028C0.221,-0.003 0.19,0.01 0.154,0.01C0.132,0.01 0.112,0.006 0.095,-0.001C0.091,-0.002 0.089,-0.003 0.087,-0.004C0.084,-0.001 0.081,0.003 0.079,0.008C0.069,0.011 0.062,0.012 0.059,0.012L0.058,0.012C0.049,0.011 0.044,0.006 0.044,-0.002C0.04,-0.041 0.037,-0.079 0.035,-0.114C0.035,-0.119 0.037,-0.123 0.042,-0.125C0.048,-0.128 0.055,-0.128 0.062,-0.127C0.067,-0.125 0.07,-0.121 0.072,-0.114C0.084,-0.058 0.111,-0.031 0.151,-0.031C0.167,-0.031 0.18,-0.036 0.19,-0.047C0.201,-0.058 0.206,-0.072 0.206,-0.088C0.206,-0.107 0.197,-0.126 0.178,-0.143C0.16,-0.161 0.14,-0.176 0.118,-0.188C0.097,-0.201 0.077,-0.218 0.058,-0.24C0.04,-0.261 0.031,-0.285 0.031,-0.312Z" style="fill-rule:nonzero;"/>
        </g>
        <g transform="matrix(33.3333,0,0,33.3333,543.755,338.551)">
            <path d="M0.026,-0.202C0.026,-0.267 0.045,-0.321 0.084,-0.364C0.124,-0.408 0.172,-0.429 0.231,-0.429C0.3,-0.429 0.348,-0.399 0.376,-0.34C0.386,-0.318 0.395,-0.303 0.403,-0.293C0.405,-0.287 0.406,-0.282 0.406,-0.277C0.406,-0.266 0.399,-0.26 0.386,-0.26C0.362,-0.259 0.328,-0.258 0.286,-0.258C0.243,-0.258 0.191,-0.259 0.131,-0.26C0.118,-0.26 0.112,-0.249 0.112,-0.227C0.112,-0.178 0.125,-0.137 0.151,-0.105C0.178,-0.074 0.211,-0.058 0.251,-0.058C0.294,-0.058 0.333,-0.078 0.367,-0.119C0.372,-0.126 0.379,-0.128 0.387,-0.125C0.392,-0.124 0.396,-0.12 0.399,-0.114C0.402,-0.107 0.403,-0.102 0.4,-0.097C0.336,-0.023 0.273,0.015 0.212,0.015C0.159,0.015 0.114,-0.006 0.079,-0.048C0.044,-0.09 0.026,-0.141 0.026,-0.202ZM0.125,-0.311C0.125,-0.309 0.126,-0.307 0.127,-0.306C0.13,-0.304 0.132,-0.303 0.135,-0.302C0.138,-0.302 0.14,-0.302 0.142,-0.302L0.277,-0.302C0.28,-0.302 0.284,-0.302 0.288,-0.304C0.291,-0.305 0.293,-0.306 0.293,-0.308L0.293,-0.309C0.279,-0.362 0.251,-0.388 0.21,-0.388C0.153,-0.388 0.125,-0.362 0.125,-0.311Z" style="fill-rule:nonzero;"/>
        </g>
        <g transform="matrix(33.3333,0,0,33.3333,558.143,338.551)">
            <path d="M0.025,-0.01C0.024,-0.014 0.023,-0.018 0.023,-0.021C0.023,-0.026 0.024,-0.03 0.026,-0.033C0.028,-0.038 0.03,-0.04 0.032,-0.041C0.034,-0.041 0.039,-0.041 0.046,-0.041C0.069,-0.041 0.084,-0.045 0.09,-0.052C0.096,-0.059 0.099,-0.076 0.099,-0.101L0.099,-0.619C0.099,-0.627 0.095,-0.631 0.088,-0.631L0.04,-0.64C0.034,-0.641 0.03,-0.647 0.03,-0.658C0.029,-0.669 0.033,-0.675 0.04,-0.678C0.087,-0.692 0.129,-0.706 0.167,-0.72L0.168,-0.72C0.173,-0.72 0.177,-0.717 0.181,-0.712C0.185,-0.706 0.187,-0.7 0.187,-0.694L0.187,-0.102C0.187,-0.073 0.189,-0.056 0.193,-0.05C0.197,-0.044 0.209,-0.041 0.23,-0.041C0.245,-0.041 0.253,-0.038 0.254,-0.031L0.254,-0.018C0.254,-0.005 0.249,0.002 0.239,0.002C0.191,0.001 0.15,0.001 0.117,0.001C0.084,0.001 0.059,0.001 0.041,0.002C0.039,0.002 0.036,0.001 0.032,-0.001C0.028,-0.004 0.026,-0.007 0.025,-0.01Z" style="fill-rule:nonzero;"/>
        </g>
        <g transform="matrix(33.3333,0,0,33.3333,567.209,338.551)">
            <path d="M0.025,-0.01C0.024,-0.014 0.023,-0.018 0.023,-0.021C0.023,-0.026 0.024,-0.03 0.026,-0.033C0.028,-0.038 0.03,-0.04 0.032,-0.041C0.034,-0.041 0.039,-0.041 0.046,-0.041C0.069,-0.041 0.084,-0.045 0.09,-0.052C0.096,-0.059 0.099,-0.076 0.099,-0.101L0.099,-0.619C0.099,-0.627 0.095,-0.631 0.088,-0.631L0.04,-0.64C0.034,-0.641 0.03,-0.647 0.03,-0.658C0.029,-0.669 0.033,-0.675 0.04,-0.678C0.087,-0.692 0.129,-0.706 0.167,-0.72L0.168,-0.72C0.173,-0.72 0.177,-0.717 0.181,-0.712C0.185,-0.706 0.187,-0.7 0.187,-0.694L0.187,-0.102C0.187,-0.073 0.189,-0.056 0.193,-0.05C0.197,-0.044 0.209,-0.041 0.23,-0.041C0.245,-0.041 0.253,-0.038 0.254,-0.031L0.254,-0.018C0.254,-0.005 0.249,0.002 0.239,0.002C0.191,0.001 0.15,0.001 0.117,0.001C0.084,0.001 0.059,0.001 0.041,0.002C0.039,0.002 0.036,0.001 0.032,-0.001C0.028,-0.004 0.026,-0.007 0.025,-0.01Z" style="fill-rule:nonzero;"/>
        </g>
        <g transform="matrix(33.3333,0,0,33.3333,576.275,338.551)">
            <path d="M0.025,-0.081C0.025,-0.132 0.061,-0.167 0.132,-0.186C0.152,-0.191 0.182,-0.203 0.222,-0.221C0.227,-0.226 0.23,-0.231 0.23,-0.234L0.229,-0.297C0.228,-0.352 0.208,-0.379 0.169,-0.379C0.159,-0.379 0.148,-0.375 0.136,-0.366C0.125,-0.358 0.119,-0.35 0.119,-0.341C0.119,-0.33 0.12,-0.322 0.123,-0.316C0.119,-0.311 0.109,-0.305 0.093,-0.297C0.076,-0.289 0.065,-0.285 0.06,-0.283C0.051,-0.28 0.043,-0.28 0.038,-0.282C0.033,-0.285 0.031,-0.292 0.031,-0.303C0.031,-0.327 0.052,-0.356 0.094,-0.39C0.129,-0.417 0.16,-0.431 0.189,-0.431C0.21,-0.431 0.232,-0.426 0.253,-0.415C0.274,-0.404 0.29,-0.39 0.302,-0.373C0.31,-0.362 0.315,-0.351 0.316,-0.341C0.318,-0.331 0.319,-0.31 0.319,-0.279L0.319,-0.102C0.319,-0.089 0.32,-0.079 0.322,-0.072C0.323,-0.065 0.325,-0.062 0.327,-0.061C0.329,-0.06 0.332,-0.059 0.335,-0.059C0.348,-0.059 0.36,-0.065 0.373,-0.076C0.378,-0.079 0.382,-0.08 0.385,-0.08C0.391,-0.079 0.396,-0.074 0.397,-0.066C0.398,-0.063 0.399,-0.061 0.399,-0.058C0.399,-0.054 0.398,-0.05 0.396,-0.047C0.351,-0.007 0.316,0.012 0.289,0.012C0.261,0.012 0.243,-0.003 0.235,-0.034C0.234,-0.038 0.232,-0.038 0.227,-0.035C0.204,-0.017 0.186,-0.005 0.172,0.002C0.159,0.009 0.143,0.012 0.125,0.012C0.096,0.012 0.072,0.003 0.053,-0.014C0.034,-0.031 0.025,-0.054 0.025,-0.081ZM0.16,-0.148C0.127,-0.135 0.11,-0.117 0.11,-0.094C0.11,-0.081 0.115,-0.069 0.124,-0.06C0.133,-0.051 0.145,-0.046 0.159,-0.046C0.169,-0.046 0.182,-0.051 0.198,-0.063C0.215,-0.074 0.225,-0.084 0.229,-0.093L0.229,-0.16C0.229,-0.165 0.228,-0.169 0.227,-0.172C0.225,-0.174 0.224,-0.176 0.222,-0.176L0.221,-0.176C0.204,-0.167 0.184,-0.158 0.16,-0.148Z" style="fill-rule:nonzero;"/>
        </g>
        <g transform="matrix(33.3333,0,0,33.3333,590.061,338.551)">
            <path d="M0.021,-0.39C0.023,-0.393 0.027,-0.396 0.032,-0.399C0.068,-0.418 0.096,-0.458 0.117,-0.52C0.118,-0.528 0.125,-0.531 0.137,-0.532L0.138,-0.532C0.149,-0.532 0.154,-0.527 0.154,-0.518C0.153,-0.497 0.152,-0.479 0.152,-0.465C0.152,-0.45 0.153,-0.44 0.154,-0.433C0.154,-0.43 0.158,-0.427 0.166,-0.425L0.265,-0.425C0.277,-0.425 0.282,-0.42 0.282,-0.412C0.282,-0.409 0.282,-0.406 0.281,-0.403C0.279,-0.393 0.277,-0.382 0.272,-0.369C0.268,-0.362 0.261,-0.358 0.252,-0.359L0.163,-0.36C0.159,-0.361 0.156,-0.359 0.154,-0.353L0.154,-0.181C0.154,-0.131 0.158,-0.098 0.165,-0.082C0.173,-0.065 0.187,-0.057 0.208,-0.057C0.227,-0.057 0.244,-0.073 0.261,-0.105C0.264,-0.111 0.269,-0.113 0.276,-0.113C0.283,-0.112 0.288,-0.11 0.292,-0.106C0.294,-0.104 0.295,-0.1 0.295,-0.094C0.295,-0.087 0.295,-0.083 0.294,-0.082C0.266,-0.02 0.227,0.011 0.176,0.011C0.144,0.011 0.118,-0.001 0.098,-0.025C0.078,-0.049 0.068,-0.08 0.068,-0.117L0.068,-0.353C0.068,-0.356 0.065,-0.358 0.058,-0.359C0.054,-0.36 0.048,-0.36 0.042,-0.361C0.035,-0.361 0.03,-0.362 0.026,-0.362C0.022,-0.369 0.02,-0.375 0.02,-0.381C0.02,-0.385 0.02,-0.388 0.021,-0.39Z" style="fill-rule:nonzero;"/>
        </g>
        <g transform="matrix(33.3333,0,0,33.3333,600.689,338.551)">
            <path d="M0.02,-0.017L0.02,-0.022C0.02,-0.035 0.024,-0.041 0.032,-0.041L0.065,-0.044C0.069,-0.045 0.073,-0.046 0.076,-0.048C0.08,-0.051 0.082,-0.052 0.084,-0.052C0.087,-0.053 0.088,-0.055 0.089,-0.059C0.09,-0.063 0.091,-0.065 0.093,-0.066C0.094,-0.067 0.094,-0.071 0.095,-0.077C0.095,-0.084 0.095,-0.088 0.095,-0.091L0.095,-0.304C0.095,-0.328 0.094,-0.342 0.092,-0.346C0.09,-0.349 0.085,-0.351 0.074,-0.353C0.073,-0.353 0.06,-0.357 0.035,-0.364C0.029,-0.366 0.026,-0.371 0.026,-0.38C0.026,-0.389 0.028,-0.396 0.033,-0.399C0.076,-0.415 0.115,-0.429 0.151,-0.441C0.155,-0.442 0.159,-0.443 0.162,-0.443C0.175,-0.443 0.182,-0.433 0.182,-0.412L0.182,-0.128C0.182,-0.103 0.182,-0.086 0.183,-0.077C0.184,-0.061 0.186,-0.052 0.19,-0.049C0.194,-0.045 0.205,-0.044 0.224,-0.044L0.228,-0.044C0.239,-0.044 0.245,-0.039 0.247,-0.028L0.247,-0.01C0.247,-0.001 0.242,0.003 0.232,0.003C0.231,0.003 0.229,0.003 0.227,0.003C0.212,0.002 0.188,0.001 0.156,0.001C0.124,0.001 0.083,0.002 0.034,0.003C0.032,0.003 0.029,0.001 0.026,-0.003C0.023,-0.008 0.021,-0.012 0.02,-0.017ZM0.085,-0.568C0.075,-0.579 0.07,-0.592 0.07,-0.608C0.07,-0.624 0.075,-0.637 0.086,-0.648C0.097,-0.66 0.111,-0.665 0.126,-0.665C0.143,-0.665 0.156,-0.66 0.167,-0.648C0.179,-0.637 0.184,-0.624 0.184,-0.607C0.184,-0.591 0.178,-0.578 0.167,-0.568C0.156,-0.558 0.142,-0.553 0.125,-0.553C0.109,-0.553 0.096,-0.558 0.085,-0.568Z" style="fill-rule:nonzero;"/>
        </g>
        <g transform="matrix(33.3333,0,0,33.3333,609.543,338.551)">
            <path d="M0.032,-0.208C0.032,-0.272 0.054,-0.325 0.097,-0.367C0.14,-0.409 0.194,-0.43 0.258,-0.43C0.322,-0.43 0.376,-0.409 0.42,-0.366C0.465,-0.323 0.487,-0.27 0.487,-0.207C0.486,-0.145 0.464,-0.093 0.421,-0.05C0.377,-0.006 0.324,0.015 0.261,0.015C0.196,0.015 0.142,-0.006 0.098,-0.049C0.054,-0.091 0.032,-0.145 0.032,-0.208ZM0.129,-0.237C0.129,-0.179 0.143,-0.13 0.171,-0.091C0.2,-0.052 0.233,-0.032 0.272,-0.032C0.305,-0.032 0.332,-0.048 0.354,-0.078C0.375,-0.109 0.386,-0.147 0.386,-0.192C0.386,-0.247 0.372,-0.292 0.344,-0.329C0.316,-0.365 0.283,-0.384 0.244,-0.384C0.212,-0.384 0.184,-0.37 0.162,-0.342C0.14,-0.315 0.129,-0.279 0.129,-0.237Z" style="fill-rule:nonzero;"/>
        </g>
        <g transform="matrix(33.3333,0,0,33.3333,626.796,338.551)">
            <path d="M0.025,-0.006C0.024,-0.009 0.023,-0.012 0.023,-0.015C0.023,-0.019 0.024,-0.023 0.025,-0.027C0.028,-0.035 0.032,-0.039 0.038,-0.039L0.043,-0.039C0.064,-0.039 0.078,-0.045 0.085,-0.055C0.091,-0.066 0.094,-0.093 0.094,-0.135L0.094,-0.269C0.094,-0.314 0.093,-0.339 0.09,-0.346C0.089,-0.35 0.077,-0.354 0.056,-0.358L0.036,-0.362C0.03,-0.363 0.027,-0.369 0.027,-0.38C0.028,-0.391 0.031,-0.397 0.036,-0.399C0.05,-0.403 0.079,-0.414 0.122,-0.431C0.135,-0.436 0.145,-0.44 0.152,-0.441C0.155,-0.442 0.158,-0.442 0.16,-0.442C0.166,-0.442 0.171,-0.44 0.174,-0.438C0.179,-0.433 0.181,-0.427 0.181,-0.419L0.181,-0.376C0.181,-0.375 0.182,-0.373 0.183,-0.37C0.184,-0.368 0.185,-0.365 0.186,-0.364C0.187,-0.362 0.188,-0.361 0.189,-0.362C0.252,-0.406 0.301,-0.428 0.336,-0.428C0.412,-0.428 0.45,-0.368 0.45,-0.247C0.45,-0.228 0.449,-0.199 0.446,-0.16C0.443,-0.121 0.442,-0.091 0.442,-0.071C0.442,-0.058 0.444,-0.05 0.449,-0.046C0.454,-0.043 0.465,-0.041 0.484,-0.041C0.493,-0.045 0.5,-0.043 0.505,-0.036C0.507,-0.032 0.509,-0.026 0.509,-0.016C0.509,-0.007 0.506,-0.001 0.501,0.001C0.498,0.002 0.494,0.002 0.488,0.002C0.474,0.002 0.444,0.002 0.396,0.001L0.354,0.001C0.33,0.001 0.313,0.002 0.303,0.002L0.301,0.002C0.288,0.002 0.281,-0.005 0.281,-0.019C0.281,-0.024 0.282,-0.029 0.285,-0.034C0.288,-0.039 0.291,-0.041 0.295,-0.041L0.301,-0.041C0.321,-0.043 0.335,-0.047 0.342,-0.053C0.349,-0.06 0.354,-0.072 0.356,-0.091C0.36,-0.128 0.362,-0.185 0.362,-0.262C0.362,-0.331 0.34,-0.365 0.296,-0.365C0.267,-0.365 0.229,-0.347 0.181,-0.31L0.181,-0.092C0.181,-0.068 0.184,-0.054 0.19,-0.049C0.196,-0.044 0.211,-0.041 0.235,-0.041C0.243,-0.041 0.248,-0.034 0.249,-0.019C0.249,-0.005 0.243,0.002 0.23,0.003C0.219,0.003 0.201,0.002 0.178,0.002L0.096,0.002C0.072,0.002 0.054,0.002 0.043,0.002L0.04,0.002C0.032,0.002 0.027,-0.001 0.025,-0.006Z" style="fill-rule:nonzero;"/>
        </g>
    </g>
    <path d="M235.693,176.058L377.151,176.058" style="fill:none;stroke:#000;stroke-width:2.29px;stroke-dasharray:6.88,6.88,0,0;"/>
</svg>
