<?xml version="1.0" encoding="UTF-8" standalone="no"?>
<!DOCTYPE svg PUBLIC "-//W3C//DTD SVG 1.1//EN" "http://www.w3.org/Graphics/SVG/1.1/DTD/svg11.dtd">
<svg width="100%" height="100%" viewBox="0 0 268 267" version="1.1" xmlns="http://www.w3.org/2000/svg" xmlns:xlink="http://www.w3.org/1999/xlink" xml:space="preserve" xmlns:serif="http://www.serif.com/" style="fill-rule:evenodd;clip-rule:evenodd;stroke-linecap:round;stroke-miterlimit:1.5;">
    <rect id="et_footprints_no_labels" x="0.987" y="0" width="266.708" height="266.708" style="fill:none;"/>
    <g>
        <path d="M140.034,87.092C140.034,87.092 158.498,63.822 159.023,60.045C159.547,56.267 145.558,47.613 145.558,47.613" style="fill:none;stroke:#bc5b4f;stroke-width:2.29px;"/>
        <path d="M171.818,100.669C171.818,100.669 180.43,74.4 183.206,69.676C185.982,64.952 159.037,60.045 159.037,60.045" style="fill:none;stroke:#bc5b4f;stroke-width:2.29px;"/>
        <path d="M212.511,69.676L183.206,69.676" style="fill:none;stroke:#bc5b4f;stroke-width:2.29px;"/>
        <path d="M111.017,47.595C119.393,41.699 137.841,46.687 143.639,47.595C149.436,48.503 139.89,15.643 143.639,12.495" style="fill:none;stroke:#bc5b4f;stroke-width:2.29px;"/>
        <path d="M146.4,165.901C155.257,165.901 174.952,148.293 176.538,148.822C177.434,149.121 184.216,154.75 186.705,156.961C189.713,159.634 201.741,169.716 201.741,171.764" style="fill:none;stroke:#bc5b4f;stroke-width:2.29px;"/>
        <path d="M180.039,105.125C180.039,110.942 174.878,135.493 173.633,137.983C173.232,138.785 176.456,144.231 176.456,148.811" style="fill:none;stroke:#bc5b4f;stroke-width:2.29px;"/>
        <path d="M128.742,143.705C134.231,143.705 145.288,141.915 149.764,137.438C152.142,135.06 156.386,131.439 159.509,130.398C160.285,130.14 171.445,136.017 173.599,138.171" style="fill:none;stroke:#bc5b4f;stroke-width:2.29px;"/>
        <path d="M159.573,130.39C159.617,130.355 145.395,118.882 142.273,115.759C141.441,114.926 143.576,110.166 143.908,109.635C147.112,104.499 149.75,99.281 149.75,93.272" style="fill:none;stroke:#bc5b4f;stroke-width:2.29px;"/>
        <path d="M104.782,116.427C111.334,115.114 130.924,108.915 131.827,109.367C134.577,110.742 139.708,113.609 142.082,115.573" style="fill:none;stroke:#bc5b4f;stroke-width:2.29px;"/>
        <path d="M131.97,109.343C130.763,108.619 112.958,97.073 113.618,93.117C114.433,88.239 119.98,79.315 122.133,74.721" style="fill:none;stroke:#bc5b4f;stroke-width:2.29px;"/>
        <path d="M86.114,94.366C90.01,91.768 96.359,89.069 98.4,88.424C100.905,87.633 112.052,93.869 113.6,94.366" style="fill:none;stroke:#bc5b4f;stroke-width:2.29px;"/>
        <path d="M63.37,70.102C74.157,62.209 83.468,60.246 86.184,57.529C86.583,57.13 86.175,55.718 86.067,55.069C85.644,52.529 80.142,29.673 78.541,25.513" style="fill:none;stroke:#bc5b4f;stroke-width:2.29px;"/>
        <path d="M86.114,57.598C94.042,61.562 103.497,56.735 111.017,56.735" style="fill:none;stroke:#bc5b4f;stroke-width:2.29px;"/>
        <path d="M138.346,207.33C138.149,207.291 143.345,214.685 144.167,216.34C148.702,225.463 150.54,233.358 151.546,243.356C151.713,245.015 151.997,249.958 150.634,251.32" style="fill:none;stroke:#bc5b4f;stroke-width:2.29px;"/>
        <path d="M111.063,214.171C111.063,224.006 109.755,233.533 108.194,242.878C107.687,245.914 111.063,248.762 111.063,251.278" style="fill:none;stroke:#bc5b4f;stroke-width:2.29px;"/>
        <path d="M138.346,207.33C138.339,207.21 133.313,197.122 130.413,193.816C124.223,186.757 115.89,181.952 109.366,175.429C108.85,174.912 124.782,157.268 126.332,152.654C127.278,149.835 128.925,146.886 128.925,143.949" style="fill:none;stroke:#bc5b4f;stroke-width:2.29px;"/>
        <path d="M43.032,213.251C46.258,213.251 72.327,186.034 73.82,183.048C74.281,182.126 91.824,215.97 95.335,219.481" style="fill:none;stroke:#bc5b4f;stroke-width:2.29px;"/>
        <path d="M73.82,183.048C78.37,183.048 102.391,175.429 109.366,175.429" style="fill:none;stroke:#bc5b4f;stroke-width:2.29px;"/>
        <path d="M13.865,118.396C31.636,117.187 49.174,133.263 49.611,132.826C53.764,128.671 86.92,97.337 86.92,96.893" style="fill:none;stroke:#bc5b4f;stroke-width:2.29px;"/>
        <path d="M49.125,132.623C54.004,136.526 73.137,144.066 75.687,146.092C77.75,147.731 79.248,150.786 81.295,151.81C81.499,151.912 97.228,143.281 99.608,142.282C101.186,141.62 116.253,130.875 116.253,129.913" style="fill:none;stroke:#bc5b4f;stroke-width:2.29px;"/>
        <path d="M81.453,151.719C81.453,153.902 80.154,166.794 80.942,169.75C81.773,172.868 83.984,180.284 83.944,180.399" style="fill:none;stroke:#bc5b4f;stroke-width:2.29px;"/>
        <path d="M16.091,164.377C25.098,164.377 38.395,166.331 46.955,162.979C52.622,160.759 70.752,144.95 70.752,143.495" style="fill:none;stroke:#bc5b4f;stroke-width:2.29px;"/>
        <path d="M192.116,182.01C192.116,182.01 216.594,207.738 219.454,214.913" style="fill:none;stroke:#bc5b4f;stroke-width:2.29px;"/>
        <path d="M219.454,113.65L249.839,109.343" style="fill:none;stroke:#bc5b4f;stroke-width:2.29px;"/>
        <path d="M214.521,81.785C214.521,81.785 234.65,76.241 234.544,70.102" style="fill:none;stroke:#bc5b4f;stroke-width:2.29px;"/>
        <circle cx="131.97" cy="132.623" r="120.128" style="fill:none;stroke:#000;stroke-width:2.29px;stroke-dasharray:6.88,6.88,0,0;"/>
        <path d="M107.163,16.371C107.937,34.779 110.031,60.092 115.328,67.154C141.618,102.205 201.994,96.517 219.559,143.9C225.372,159.582 231.146,175.38 238.392,190.368" style="fill:none;stroke:#3b6e8c;stroke-width:2.29px;"/>
        <path d="M70.837,236.267C81.826,226.898 93.127,219.466 102.559,216.594C134.417,206.892 169.834,204.251 194.79,179.475C236.743,137.823 213.93,85.655 204.31,36.921" style="fill:none;stroke:#3b6e8c;stroke-width:2.29px;"/>
        <path d="M43.461,51.747C57.246,64.133 72.563,80.755 78.029,87.092C107.481,121.23 141.824,154.305 165.142,193.539C173.717,207.967 179.323,224.607 185.003,240.617" style="fill:none;stroke:#3b6e8c;stroke-width:2.29px;"/>
        <path d="M171.542,74.355L161.442,70.003L155.774,83.158L165.874,87.51L171.542,74.355Z"/>
        <path d="M147.353,61.655L134.558,52.398L126.162,64.004L138.956,73.261L147.353,61.655Z"/>
        <path d="M105.791,36.22L92.997,26.963L84.6,38.569L97.395,47.825L105.791,36.22Z"/>
        <path d="M77.72,47.413L64.926,38.156L56.529,49.762L69.324,59.019L77.72,47.413Z"/>
        <path d="M105.568,73.422L92.774,64.165L84.377,75.771L97.172,85.027L105.568,73.422Z"/>
        <path d="M103.46,95.945L98.989,102.649L109.755,109.828L114.226,103.125L103.46,95.945Z"/>
        <path d="M139.344,92.694L128.748,85.027L121.373,95.221L131.97,102.887L139.344,92.694Z"/>
        <path d="M140.493,126.977L130.64,114.637L119.446,123.575L129.299,135.915L140.493,126.977Z"/>
        <path d="M170.866,108.916L156.271,102.887L150.801,116.126L165.396,122.156L170.866,108.916Z"/>
        <path d="M151.874,156.652L163.733,147.378L157.14,138.946L145.281,148.22L151.874,156.652Z"/>
        <path d="M207.814,134.097L191.308,122.156L180.437,137.182L196.943,149.124L207.814,134.097Z"/>
        <path d="M187.396,173.603L177.626,159.432L162.733,169.699L172.503,183.87L187.396,173.603Z"/>
        <path d="M173.709,230.236L167.841,215.575L154.542,220.898L160.41,235.559L173.709,230.236Z"/>
        <path d="M204.979,211.96L194.406,195.126L179.929,204.218L190.502,221.052L204.979,211.96Z"/>
        <path d="M141.512,242.458L141.817,226.669L116.774,226.185L116.468,241.974L141.512,242.458Z"/>
        <path d="M100.59,226.156L88.599,233.369L94.019,242.379L106.01,235.166L100.59,226.156Z"/>
        <path d="M83.085,217.899L73.982,204.995L62.277,213.252L71.38,226.156L83.085,217.899Z"/>
        <path d="M109.598,185.257L91.317,191.421L95.893,204.995L114.175,198.831L109.598,185.257Z"/>
        <path d="M149.19,182.764L133.233,162.261L121.928,171.059L137.885,191.562L149.19,182.764Z"/>
        <path d="M117.052,154.202L109.523,143.199L91.317,155.656L98.846,166.66L117.052,154.202Z"/>
        <path d="M98.162,127.309L87.754,115.432L76.981,124.872L87.389,136.749L98.162,127.309Z"/>
        <path d="M62.029,91.302L44.406,80.597L32.503,100.19L50.126,110.895L62.029,91.302Z"/>
        <path d="M44.976,141.96L31.48,133.761L24.042,146.004L37.539,154.202L44.976,141.96Z"/>
        <path d="M66.302,177.428L57.756,164.149L32.503,180.4L41.049,193.679L66.302,177.428Z"/>
        <path d="M228.81,179.871L216.015,170.615L204.979,185.869L217.774,195.126L228.81,179.871Z"/>
        <path d="M247.264,159.552L246.996,125.276L232.672,125.388L232.94,159.664L247.264,159.552Z"/>
        <path d="M239.968,99.181L235.882,83.927L222.045,87.633L226.131,102.887L239.968,99.181Z"/>
        <path d="M205.957,89.787L190.917,84.972L186.55,98.615L201.59,103.429L205.957,89.787Z"/>
        <path d="M133.833,34.784L132.783,19.027L118.49,19.979L119.54,35.736L133.833,34.784Z"/>
        <path d="M191.114,43.68L164.17,24.187L155.774,35.793L182.717,55.286L191.114,43.68Z"/>
    </g>
</svg>
