<?xml version="1.0" encoding="UTF-8" standalone="no"?>
<!DOCTYPE svg PUBLIC "-//W3C//DTD SVG 1.1//EN" "http://www.w3.org/Graphics/SVG/1.1/DTD/svg11.dtd">
<svg width="100%" height="100%" viewBox="0 0 652 290" version="1.1" xmlns="http://www.w3.org/2000/svg" xmlns:xlink="http://www.w3.org/1999/xlink" xml:space="preserve" xmlns:serif="http://www.serif.com/" style="fill-rule:evenodd;clip-rule:evenodd;stroke-linecap:round;stroke-miterlimit:1.5;">
    <rect id="et_footprints" x="0.497" y="0" width="651.138" height="289.894" style="fill:none;"/>
    <g>
        <path d="M500.203,95.45C500.203,95.45 518.666,72.18 519.191,68.402C519.716,64.625 505.726,55.971 505.726,55.971" style="fill:none;stroke:#bc5b4f;stroke-width:2.29px;"/>
        <path d="M531.986,109.027C531.986,109.027 540.598,82.758 543.374,78.034C546.15,73.31 519.205,68.402 519.205,68.402" style="fill:none;stroke:#bc5b4f;stroke-width:2.29px;"/>
        <path d="M572.679,78.034L543.374,78.034" style="fill:none;stroke:#bc5b4f;stroke-width:2.29px;"/>
        <path d="M471.185,55.953C479.562,50.056 498.009,55.044 503.807,55.953C509.604,56.861 500.058,24.001 503.807,20.853" style="fill:none;stroke:#bc5b4f;stroke-width:2.29px;"/>
        <path d="M506.568,174.258C515.425,174.258 535.12,156.651 536.706,157.18C537.602,157.478 544.384,163.108 546.873,165.319C549.882,167.991 561.909,178.073 561.909,180.122" style="fill:none;stroke:#bc5b4f;stroke-width:2.29px;"/>
        <path d="M540.208,113.483C540.208,119.299 535.046,143.851 533.801,146.341C533.4,147.143 536.624,152.589 536.624,157.168" style="fill:none;stroke:#bc5b4f;stroke-width:2.29px;"/>
        <path d="M488.91,152.062C494.399,152.062 505.456,150.273 509.933,145.796C512.311,143.418 516.554,139.797 519.678,138.756C520.453,138.497 531.613,144.375 533.767,146.528" style="fill:none;stroke:#bc5b4f;stroke-width:2.29px;"/>
        <path d="M519.741,138.747C519.785,138.713 505.564,127.24 502.441,124.117C501.609,123.284 503.744,118.524 504.076,117.992C507.28,112.857 509.918,107.639 509.918,101.63" style="fill:none;stroke:#bc5b4f;stroke-width:2.29px;"/>
        <path d="M464.95,124.785C471.502,123.472 491.093,117.273 491.995,117.724C494.745,119.099 499.876,121.967 502.25,123.93" style="fill:none;stroke:#bc5b4f;stroke-width:2.29px;"/>
        <path d="M492.138,117.701C490.931,116.977 473.126,105.43 473.786,101.474C474.601,96.596 480.148,87.673 482.301,83.078" style="fill:none;stroke:#bc5b4f;stroke-width:2.29px;"/>
        <path d="M446.282,102.723C450.178,100.126 456.527,97.427 458.568,96.782C461.073,95.991 472.22,102.227 473.769,102.723" style="fill:none;stroke:#bc5b4f;stroke-width:2.29px;"/>
        <path d="M423.538,78.46C434.326,70.566 443.636,68.603 446.352,65.887C446.751,65.488 446.344,64.075 446.235,63.427C445.812,60.887 440.31,38.031 438.709,33.871" style="fill:none;stroke:#bc5b4f;stroke-width:2.29px;"/>
        <path d="M446.282,65.956C454.21,69.919 463.665,65.092 471.185,65.092" style="fill:none;stroke:#bc5b4f;stroke-width:2.29px;"/>
        <path d="M498.514,215.688C498.317,215.649 503.513,223.043 504.336,224.697C508.871,233.821 510.709,241.715 511.714,251.714C511.881,253.372 512.165,258.315 510.802,259.678" style="fill:none;stroke:#bc5b4f;stroke-width:2.29px;"/>
        <path d="M471.231,222.529C471.231,232.364 469.923,241.89 468.362,251.236C467.855,254.272 471.231,257.119 471.231,259.636" style="fill:none;stroke:#bc5b4f;stroke-width:2.29px;"/>
        <path d="M498.514,215.688C498.507,215.568 493.481,205.48 490.581,202.174C484.391,195.115 476.058,190.31 469.534,183.786C469.018,183.27 484.95,165.626 486.5,161.011C487.446,158.192 489.093,155.244 489.093,152.307" style="fill:none;stroke:#bc5b4f;stroke-width:2.29px;"/>
        <path d="M403.2,221.609C406.427,221.609 432.495,194.391 433.988,191.406C434.449,190.483 451.992,224.327 455.503,227.839" style="fill:none;stroke:#bc5b4f;stroke-width:2.29px;"/>
        <path d="M433.988,191.406C438.538,191.406 462.559,183.786 469.534,183.786" style="fill:none;stroke:#bc5b4f;stroke-width:2.29px;"/>
        <path d="M374.033,126.754C391.805,125.545 409.342,141.62 409.779,141.183C413.932,137.029 447.088,105.694 447.088,105.251" style="fill:none;stroke:#bc5b4f;stroke-width:2.29px;"/>
        <path d="M409.293,140.981C414.172,144.884 433.305,152.423 435.855,154.45C437.918,156.089 439.416,159.144 441.463,160.168C441.667,160.269 457.396,151.638 459.776,150.64C461.354,149.977 476.421,139.232 476.421,138.27" style="fill:none;stroke:#bc5b4f;stroke-width:2.29px;"/>
        <path d="M441.621,160.077C441.621,162.26 440.322,175.151 441.11,178.108C441.941,181.226 444.152,188.641 444.112,188.756" style="fill:none;stroke:#bc5b4f;stroke-width:2.29px;"/>
        <path d="M376.259,172.735C385.266,172.735 398.564,174.689 407.123,171.337C412.79,169.117 430.92,153.308 430.92,151.853" style="fill:none;stroke:#bc5b4f;stroke-width:2.29px;"/>
        <path d="M552.284,190.367C552.284,190.367 576.763,216.095 579.622,223.271" style="fill:none;stroke:#bc5b4f;stroke-width:2.29px;"/>
        <path d="M579.622,122.008L610.008,117.701" style="fill:none;stroke:#bc5b4f;stroke-width:2.29px;"/>
        <path d="M574.689,90.142C574.689,90.142 594.818,84.599 594.712,78.46" style="fill:none;stroke:#bc5b4f;stroke-width:2.29px;"/>
        <g transform="matrix(1,0,0,1,-468.669,-147.251)">
            <g transform="matrix(33.3333,0,0,33.3333,497.808,305.217)">
                <path d="M0.026,-0.202C0.026,-0.267 0.045,-0.321 0.084,-0.364C0.124,-0.408 0.172,-0.429 0.231,-0.429C0.3,-0.429 0.348,-0.399 0.376,-0.34C0.386,-0.318 0.395,-0.303 0.403,-0.293C0.405,-0.287 0.406,-0.282 0.406,-0.277C0.406,-0.266 0.399,-0.26 0.386,-0.26C0.362,-0.259 0.328,-0.258 0.286,-0.258C0.243,-0.258 0.191,-0.259 0.131,-0.26C0.118,-0.26 0.112,-0.249 0.112,-0.227C0.112,-0.178 0.125,-0.137 0.151,-0.105C0.178,-0.074 0.211,-0.058 0.251,-0.058C0.294,-0.058 0.333,-0.078 0.367,-0.119C0.372,-0.126 0.379,-0.128 0.387,-0.125C0.392,-0.124 0.396,-0.12 0.399,-0.114C0.402,-0.107 0.403,-0.102 0.4,-0.097C0.336,-0.023 0.273,0.015 0.212,0.015C0.159,0.015 0.114,-0.006 0.079,-0.048C0.044,-0.09 0.026,-0.141 0.026,-0.202ZM0.125,-0.311C0.125,-0.309 0.126,-0.307 0.127,-0.306C0.13,-0.304 0.132,-0.303 0.135,-0.302C0.138,-0.302 0.14,-0.302 0.142,-0.302L0.277,-0.302C0.28,-0.302 0.284,-0.302 0.288,-0.304C0.291,-0.305 0.293,-0.306 0.293,-0.308L0.293,-0.309C0.279,-0.362 0.251,-0.388 0.21,-0.388C0.153,-0.388 0.125,-0.362 0.125,-0.311Z" style="fill-rule:nonzero;"/>
            </g>
            <g transform="matrix(33.3333,0,0,33.3333,512.196,305.217)">
                <path d="M0.025,-0.006C0.024,-0.009 0.023,-0.012 0.023,-0.015C0.023,-0.019 0.024,-0.023 0.025,-0.027C0.028,-0.035 0.032,-0.039 0.038,-0.039L0.043,-0.039C0.064,-0.039 0.078,-0.045 0.085,-0.055C0.091,-0.066 0.094,-0.093 0.094,-0.135L0.094,-0.269C0.094,-0.314 0.093,-0.339 0.09,-0.346C0.089,-0.35 0.077,-0.354 0.056,-0.358L0.036,-0.362C0.03,-0.363 0.027,-0.369 0.027,-0.38C0.028,-0.391 0.031,-0.397 0.036,-0.399C0.05,-0.403 0.079,-0.414 0.122,-0.431C0.135,-0.436 0.145,-0.44 0.152,-0.441C0.155,-0.442 0.158,-0.442 0.16,-0.442C0.166,-0.442 0.171,-0.44 0.174,-0.438C0.179,-0.433 0.181,-0.427 0.181,-0.419L0.181,-0.376C0.181,-0.375 0.182,-0.373 0.183,-0.37C0.184,-0.368 0.185,-0.365 0.186,-0.364C0.187,-0.362 0.188,-0.361 0.189,-0.362C0.252,-0.406 0.301,-0.428 0.336,-0.428C0.412,-0.428 0.45,-0.368 0.45,-0.247C0.45,-0.228 0.449,-0.199 0.446,-0.16C0.443,-0.121 0.442,-0.091 0.442,-0.071C0.442,-0.058 0.444,-0.05 0.449,-0.046C0.454,-0.043 0.465,-0.041 0.484,-0.041C0.493,-0.045 0.5,-0.043 0.505,-0.036C0.507,-0.032 0.509,-0.026 0.509,-0.016C0.509,-0.007 0.506,-0.001 0.501,0.001C0.498,0.002 0.494,0.002 0.488,0.002C0.474,0.002 0.444,0.002 0.396,0.001L0.354,0.001C0.33,0.001 0.313,0.002 0.303,0.002L0.301,0.002C0.288,0.002 0.281,-0.005 0.281,-0.019C0.281,-0.024 0.282,-0.029 0.285,-0.034C0.288,-0.039 0.291,-0.041 0.295,-0.041L0.301,-0.041C0.321,-0.043 0.335,-0.047 0.342,-0.053C0.349,-0.06 0.354,-0.072 0.356,-0.091C0.36,-0.128 0.362,-0.185 0.362,-0.262C0.362,-0.331 0.34,-0.365 0.296,-0.365C0.267,-0.365 0.229,-0.347 0.181,-0.31L0.181,-0.092C0.181,-0.068 0.184,-0.054 0.19,-0.049C0.196,-0.044 0.211,-0.041 0.235,-0.041C0.243,-0.041 0.248,-0.034 0.249,-0.019C0.249,-0.005 0.243,0.002 0.23,0.003C0.219,0.003 0.201,0.002 0.178,0.002L0.096,0.002C0.072,0.002 0.054,0.002 0.043,0.002L0.04,0.002C0.032,0.002 0.027,-0.001 0.025,-0.006Z" style="fill-rule:nonzero;"/>
            </g>
            <g transform="matrix(33.3333,0,0,33.3333,529.628,305.217)">
                <path d="M0.03,-0.193C0.03,-0.26 0.053,-0.316 0.1,-0.363C0.147,-0.409 0.203,-0.432 0.27,-0.432C0.303,-0.432 0.331,-0.426 0.355,-0.414C0.379,-0.401 0.391,-0.385 0.391,-0.364C0.391,-0.352 0.387,-0.343 0.38,-0.335C0.372,-0.327 0.362,-0.323 0.351,-0.323C0.333,-0.323 0.311,-0.335 0.287,-0.358C0.27,-0.375 0.252,-0.384 0.235,-0.384C0.205,-0.384 0.178,-0.367 0.156,-0.334C0.133,-0.302 0.121,-0.262 0.121,-0.216C0.121,-0.167 0.133,-0.128 0.156,-0.098C0.18,-0.068 0.21,-0.053 0.247,-0.053C0.292,-0.053 0.329,-0.073 0.357,-0.114C0.362,-0.126 0.37,-0.131 0.38,-0.128C0.387,-0.125 0.392,-0.12 0.393,-0.112C0.394,-0.11 0.394,-0.108 0.394,-0.106C0.394,-0.102 0.392,-0.097 0.389,-0.093C0.346,-0.023 0.287,0.012 0.213,0.012C0.16,0.012 0.116,-0.007 0.082,-0.046C0.047,-0.085 0.03,-0.134 0.03,-0.193Z" style="fill-rule:nonzero;"/>
            </g>
            <g transform="matrix(33.3333,0,0,33.3333,544.016,305.217)">
                <path d="M0.025,-0.01C0.024,-0.014 0.023,-0.018 0.023,-0.021C0.023,-0.026 0.024,-0.03 0.026,-0.033C0.028,-0.038 0.03,-0.04 0.032,-0.041C0.034,-0.041 0.039,-0.041 0.046,-0.041C0.069,-0.041 0.084,-0.045 0.09,-0.052C0.096,-0.059 0.099,-0.076 0.099,-0.101L0.099,-0.619C0.099,-0.627 0.095,-0.631 0.088,-0.631L0.04,-0.64C0.034,-0.641 0.03,-0.647 0.03,-0.658C0.029,-0.669 0.033,-0.675 0.04,-0.678C0.087,-0.692 0.129,-0.706 0.167,-0.72L0.168,-0.72C0.173,-0.72 0.177,-0.717 0.181,-0.712C0.185,-0.706 0.187,-0.7 0.187,-0.694L0.187,-0.102C0.187,-0.073 0.189,-0.056 0.193,-0.05C0.197,-0.044 0.209,-0.041 0.23,-0.041C0.245,-0.041 0.253,-0.038 0.254,-0.031L0.254,-0.018C0.254,-0.005 0.249,0.002 0.239,0.002C0.191,0.001 0.15,0.001 0.117,0.001C0.084,0.001 0.059,0.001 0.041,0.002C0.039,0.002 0.036,0.001 0.032,-0.001C0.028,-0.004 0.026,-0.007 0.025,-0.01Z" style="fill-rule:nonzero;"/>
            </g>
            <g transform="matrix(33.3333,0,0,33.3333,553.081,305.217)">
                <path d="M0.032,-0.208C0.032,-0.272 0.054,-0.325 0.097,-0.367C0.14,-0.409 0.194,-0.43 0.258,-0.43C0.322,-0.43 0.376,-0.409 0.42,-0.366C0.465,-0.323 0.487,-0.27 0.487,-0.207C0.486,-0.145 0.464,-0.093 0.421,-0.05C0.377,-0.006 0.324,0.015 0.261,0.015C0.196,0.015 0.142,-0.006 0.098,-0.049C0.054,-0.091 0.032,-0.145 0.032,-0.208ZM0.129,-0.237C0.129,-0.179 0.143,-0.13 0.171,-0.091C0.2,-0.052 0.233,-0.032 0.272,-0.032C0.305,-0.032 0.332,-0.048 0.354,-0.078C0.375,-0.109 0.386,-0.147 0.386,-0.192C0.386,-0.247 0.372,-0.292 0.344,-0.329C0.316,-0.365 0.283,-0.384 0.244,-0.384C0.212,-0.384 0.184,-0.37 0.162,-0.342C0.14,-0.315 0.129,-0.279 0.129,-0.237Z" style="fill-rule:nonzero;"/>
            </g>
            <g transform="matrix(33.3333,0,0,33.3333,570.334,305.217)">
                <path d="M0.031,-0.312C0.031,-0.348 0.044,-0.378 0.07,-0.401C0.097,-0.424 0.13,-0.435 0.169,-0.435C0.194,-0.435 0.223,-0.428 0.255,-0.415C0.257,-0.391 0.257,-0.37 0.257,-0.351C0.257,-0.336 0.257,-0.323 0.256,-0.311C0.256,-0.309 0.254,-0.307 0.25,-0.304C0.246,-0.302 0.242,-0.301 0.238,-0.301C0.227,-0.301 0.222,-0.305 0.22,-0.311C0.216,-0.336 0.207,-0.356 0.195,-0.369C0.183,-0.382 0.169,-0.388 0.153,-0.388C0.139,-0.388 0.128,-0.384 0.119,-0.375C0.11,-0.366 0.106,-0.355 0.106,-0.342C0.106,-0.332 0.11,-0.321 0.119,-0.31C0.128,-0.299 0.136,-0.291 0.144,-0.284C0.152,-0.278 0.164,-0.27 0.18,-0.259C0.197,-0.248 0.206,-0.243 0.208,-0.241C0.261,-0.204 0.288,-0.164 0.288,-0.119C0.288,-0.084 0.275,-0.053 0.248,-0.028C0.221,-0.003 0.19,0.01 0.154,0.01C0.132,0.01 0.112,0.006 0.095,-0.001C0.091,-0.002 0.089,-0.003 0.087,-0.004C0.084,-0.001 0.081,0.003 0.079,0.008C0.069,0.011 0.062,0.012 0.059,0.012L0.058,0.012C0.049,0.011 0.044,0.006 0.044,-0.002C0.04,-0.041 0.037,-0.079 0.035,-0.114C0.035,-0.119 0.037,-0.123 0.042,-0.125C0.048,-0.128 0.055,-0.128 0.062,-0.127C0.067,-0.125 0.07,-0.121 0.072,-0.114C0.084,-0.058 0.111,-0.031 0.151,-0.031C0.167,-0.031 0.18,-0.036 0.19,-0.047C0.201,-0.058 0.206,-0.072 0.206,-0.088C0.206,-0.107 0.197,-0.126 0.178,-0.143C0.16,-0.161 0.14,-0.176 0.118,-0.188C0.097,-0.201 0.077,-0.218 0.058,-0.24C0.04,-0.261 0.031,-0.285 0.031,-0.312Z" style="fill-rule:nonzero;"/>
            </g>
            <g transform="matrix(33.3333,0,0,33.3333,580.799,305.217)">
                <path d="M0.026,-0.202C0.026,-0.267 0.045,-0.321 0.084,-0.364C0.124,-0.408 0.172,-0.429 0.231,-0.429C0.3,-0.429 0.348,-0.399 0.376,-0.34C0.386,-0.318 0.395,-0.303 0.403,-0.293C0.405,-0.287 0.406,-0.282 0.406,-0.277C0.406,-0.266 0.399,-0.26 0.386,-0.26C0.362,-0.259 0.328,-0.258 0.286,-0.258C0.243,-0.258 0.191,-0.259 0.131,-0.26C0.118,-0.26 0.112,-0.249 0.112,-0.227C0.112,-0.178 0.125,-0.137 0.151,-0.105C0.178,-0.074 0.211,-0.058 0.251,-0.058C0.294,-0.058 0.333,-0.078 0.367,-0.119C0.372,-0.126 0.379,-0.128 0.387,-0.125C0.392,-0.124 0.396,-0.12 0.399,-0.114C0.402,-0.107 0.403,-0.102 0.4,-0.097C0.336,-0.023 0.273,0.015 0.212,0.015C0.159,0.015 0.114,-0.006 0.079,-0.048C0.044,-0.09 0.026,-0.141 0.026,-0.202ZM0.125,-0.311C0.125,-0.309 0.126,-0.307 0.127,-0.306C0.13,-0.304 0.132,-0.303 0.135,-0.302C0.138,-0.302 0.14,-0.302 0.142,-0.302L0.277,-0.302C0.28,-0.302 0.284,-0.302 0.288,-0.304C0.291,-0.305 0.293,-0.306 0.293,-0.308L0.293,-0.309C0.279,-0.362 0.251,-0.388 0.21,-0.388C0.153,-0.388 0.125,-0.362 0.125,-0.311Z" style="fill-rule:nonzero;"/>
            </g>
            <g transform="matrix(33.3333,0,0,33.3333,595.187,305.217)">
                <path d="M0.022,-0.193C0.022,-0.26 0.044,-0.317 0.087,-0.363C0.13,-0.409 0.184,-0.432 0.248,-0.432C0.27,-0.432 0.295,-0.428 0.323,-0.419C0.325,-0.419 0.326,-0.419 0.327,-0.418C0.328,-0.418 0.329,-0.419 0.33,-0.42C0.331,-0.422 0.331,-0.423 0.332,-0.424C0.333,-0.424 0.333,-0.426 0.333,-0.428C0.334,-0.431 0.334,-0.432 0.334,-0.433C0.334,-0.434 0.334,-0.435 0.334,-0.438C0.335,-0.44 0.335,-0.441 0.335,-0.442L0.335,-0.632C0.333,-0.639 0.331,-0.643 0.33,-0.644C0.327,-0.646 0.322,-0.647 0.315,-0.648C0.308,-0.649 0.3,-0.65 0.292,-0.65C0.283,-0.651 0.278,-0.651 0.275,-0.652C0.267,-0.653 0.263,-0.659 0.262,-0.67C0.261,-0.682 0.265,-0.689 0.276,-0.691C0.323,-0.706 0.364,-0.721 0.399,-0.734C0.402,-0.735 0.405,-0.736 0.408,-0.736C0.412,-0.736 0.415,-0.734 0.417,-0.731C0.421,-0.727 0.423,-0.72 0.423,-0.711L0.423,-0.121C0.423,-0.098 0.424,-0.083 0.427,-0.078C0.429,-0.073 0.435,-0.071 0.444,-0.071C0.451,-0.071 0.461,-0.074 0.473,-0.08C0.479,-0.082 0.484,-0.082 0.488,-0.081C0.492,-0.08 0.495,-0.075 0.498,-0.068C0.499,-0.063 0.5,-0.058 0.5,-0.054C0.5,-0.047 0.497,-0.042 0.492,-0.039C0.453,-0.021 0.41,-0.004 0.363,0.01C0.351,0.013 0.344,0.01 0.339,0.002C0.335,-0.007 0.333,-0.016 0.334,-0.026C0.334,-0.03 0.334,-0.034 0.333,-0.037C0.332,-0.04 0.331,-0.042 0.33,-0.043C0.329,-0.044 0.327,-0.044 0.326,-0.043C0.271,-0.004 0.226,0.015 0.192,0.015C0.145,0.015 0.105,-0.005 0.072,-0.046C0.038,-0.087 0.022,-0.136 0.022,-0.193ZM0.113,-0.224C0.113,-0.174 0.124,-0.133 0.146,-0.102C0.168,-0.071 0.195,-0.055 0.228,-0.055C0.255,-0.055 0.288,-0.069 0.327,-0.095C0.33,-0.095 0.333,-0.101 0.334,-0.113L0.334,-0.31C0.302,-0.357 0.266,-0.38 0.227,-0.38C0.193,-0.38 0.166,-0.366 0.145,-0.337C0.123,-0.309 0.113,-0.271 0.113,-0.224Z" style="fill-rule:nonzero;"/>
            </g>
            <g transform="matrix(33.3333,0,0,33.3333,497.808,338.551)">
                <path d="M0.021,-0.39C0.023,-0.393 0.027,-0.396 0.032,-0.399C0.068,-0.418 0.096,-0.458 0.117,-0.52C0.118,-0.528 0.125,-0.531 0.137,-0.532L0.138,-0.532C0.149,-0.532 0.154,-0.527 0.154,-0.518C0.153,-0.497 0.152,-0.479 0.152,-0.465C0.152,-0.45 0.153,-0.44 0.154,-0.433C0.154,-0.43 0.158,-0.427 0.166,-0.425L0.265,-0.425C0.277,-0.425 0.282,-0.42 0.282,-0.412C0.282,-0.409 0.282,-0.406 0.281,-0.403C0.279,-0.393 0.277,-0.382 0.272,-0.369C0.268,-0.362 0.261,-0.358 0.252,-0.359L0.163,-0.36C0.159,-0.361 0.156,-0.359 0.154,-0.353L0.154,-0.181C0.154,-0.131 0.158,-0.098 0.165,-0.082C0.173,-0.065 0.187,-0.057 0.208,-0.057C0.227,-0.057 0.244,-0.073 0.261,-0.105C0.264,-0.111 0.269,-0.113 0.276,-0.113C0.283,-0.112 0.288,-0.11 0.292,-0.106C0.294,-0.104 0.295,-0.1 0.295,-0.094C0.295,-0.087 0.295,-0.083 0.294,-0.082C0.266,-0.02 0.227,0.011 0.176,0.011C0.144,0.011 0.118,-0.001 0.098,-0.025C0.078,-0.049 0.068,-0.08 0.068,-0.117L0.068,-0.353C0.068,-0.356 0.065,-0.358 0.058,-0.359C0.054,-0.36 0.048,-0.36 0.042,-0.361C0.035,-0.361 0.03,-0.362 0.026,-0.362C0.022,-0.369 0.02,-0.375 0.02,-0.381C0.02,-0.385 0.02,-0.388 0.021,-0.39Z" style="fill-rule:nonzero;"/>
            </g>
            <g transform="matrix(33.3333,0,0,33.3333,508.436,338.551)">
                <path d="M0.026,-0.202C0.026,-0.267 0.045,-0.321 0.084,-0.364C0.124,-0.408 0.172,-0.429 0.231,-0.429C0.3,-0.429 0.348,-0.399 0.376,-0.34C0.386,-0.318 0.395,-0.303 0.403,-0.293C0.405,-0.287 0.406,-0.282 0.406,-0.277C0.406,-0.266 0.399,-0.26 0.386,-0.26C0.362,-0.259 0.328,-0.258 0.286,-0.258C0.243,-0.258 0.191,-0.259 0.131,-0.26C0.118,-0.26 0.112,-0.249 0.112,-0.227C0.112,-0.178 0.125,-0.137 0.151,-0.105C0.178,-0.074 0.211,-0.058 0.251,-0.058C0.294,-0.058 0.333,-0.078 0.367,-0.119C0.372,-0.126 0.379,-0.128 0.387,-0.125C0.392,-0.124 0.396,-0.12 0.399,-0.114C0.402,-0.107 0.403,-0.102 0.4,-0.097C0.336,-0.023 0.273,0.015 0.212,0.015C0.159,0.015 0.114,-0.006 0.079,-0.048C0.044,-0.09 0.026,-0.141 0.026,-0.202ZM0.125,-0.311C0.125,-0.309 0.126,-0.307 0.127,-0.306C0.13,-0.304 0.132,-0.303 0.135,-0.302C0.138,-0.302 0.14,-0.302 0.142,-0.302L0.277,-0.302C0.28,-0.302 0.284,-0.302 0.288,-0.304C0.291,-0.305 0.293,-0.306 0.293,-0.308L0.293,-0.309C0.279,-0.362 0.251,-0.388 0.21,-0.388C0.153,-0.388 0.125,-0.362 0.125,-0.311Z" style="fill-rule:nonzero;"/>
            </g>
            <g transform="matrix(33.3333,0,0,33.3333,522.824,338.551)">
                <path d="M0.031,-0.312C0.031,-0.348 0.044,-0.378 0.07,-0.401C0.097,-0.424 0.13,-0.435 0.169,-0.435C0.194,-0.435 0.223,-0.428 0.255,-0.415C0.257,-0.391 0.257,-0.37 0.257,-0.351C0.257,-0.336 0.257,-0.323 0.256,-0.311C0.256,-0.309 0.254,-0.307 0.25,-0.304C0.246,-0.302 0.242,-0.301 0.238,-0.301C0.227,-0.301 0.222,-0.305 0.22,-0.311C0.216,-0.336 0.207,-0.356 0.195,-0.369C0.183,-0.382 0.169,-0.388 0.153,-0.388C0.139,-0.388 0.128,-0.384 0.119,-0.375C0.11,-0.366 0.106,-0.355 0.106,-0.342C0.106,-0.332 0.11,-0.321 0.119,-0.31C0.128,-0.299 0.136,-0.291 0.144,-0.284C0.152,-0.278 0.164,-0.27 0.18,-0.259C0.197,-0.248 0.206,-0.243 0.208,-0.241C0.261,-0.204 0.288,-0.164 0.288,-0.119C0.288,-0.084 0.275,-0.053 0.248,-0.028C0.221,-0.003 0.19,0.01 0.154,0.01C0.132,0.01 0.112,0.006 0.095,-0.001C0.091,-0.002 0.089,-0.003 0.087,-0.004C0.084,-0.001 0.081,0.003 0.079,0.008C0.069,0.011 0.062,0.012 0.059,0.012L0.058,0.012C0.049,0.011 0.044,0.006 0.044,-0.002C0.04,-0.041 0.037,-0.079 0.035,-0.114C0.035,-0.119 0.037,-0.123 0.042,-0.125C0.048,-0.128 0.055,-0.128 0.062,-0.127C0.067,-0.125 0.07,-0.121 0.072,-0.114C0.084,-0.058 0.111,-0.031 0.151,-0.031C0.167,-0.031 0.18,-0.036 0.19,-0.047C0.201,-0.058 0.206,-0.072 0.206,-0.088C0.206,-0.107 0.197,-0.126 0.178,-0.143C0.16,-0.161 0.14,-0.176 0.118,-0.188C0.097,-0.201 0.077,-0.218 0.058,-0.24C0.04,-0.261 0.031,-0.285 0.031,-0.312Z" style="fill-rule:nonzero;"/>
            </g>
            <g transform="matrix(33.3333,0,0,33.3333,533.29,338.551)">
                <path d="M0.031,-0.312C0.031,-0.348 0.044,-0.378 0.07,-0.401C0.097,-0.424 0.13,-0.435 0.169,-0.435C0.194,-0.435 0.223,-0.428 0.255,-0.415C0.257,-0.391 0.257,-0.37 0.257,-0.351C0.257,-0.336 0.257,-0.323 0.256,-0.311C0.256,-0.309 0.254,-0.307 0.25,-0.304C0.246,-0.302 0.242,-0.301 0.238,-0.301C0.227,-0.301 0.222,-0.305 0.22,-0.311C0.216,-0.336 0.207,-0.356 0.195,-0.369C0.183,-0.382 0.169,-0.388 0.153,-0.388C0.139,-0.388 0.128,-0.384 0.119,-0.375C0.11,-0.366 0.106,-0.355 0.106,-0.342C0.106,-0.332 0.11,-0.321 0.119,-0.31C0.128,-0.299 0.136,-0.291 0.144,-0.284C0.152,-0.278 0.164,-0.27 0.18,-0.259C0.197,-0.248 0.206,-0.243 0.208,-0.241C0.261,-0.204 0.288,-0.164 0.288,-0.119C0.288,-0.084 0.275,-0.053 0.248,-0.028C0.221,-0.003 0.19,0.01 0.154,0.01C0.132,0.01 0.112,0.006 0.095,-0.001C0.091,-0.002 0.089,-0.003 0.087,-0.004C0.084,-0.001 0.081,0.003 0.079,0.008C0.069,0.011 0.062,0.012 0.059,0.012L0.058,0.012C0.049,0.011 0.044,0.006 0.044,-0.002C0.04,-0.041 0.037,-0.079 0.035,-0.114C0.035,-0.119 0.037,-0.123 0.042,-0.125C0.048,-0.128 0.055,-0.128 0.062,-0.127C0.067,-0.125 0.07,-0.121 0.072,-0.114C0.084,-0.058 0.111,-0.031 0.151,-0.031C0.167,-0.031 0.18,-0.036 0.19,-0.047C0.201,-0.058 0.206,-0.072 0.206,-0.088C0.206,-0.107 0.197,-0.126 0.178,-0.143C0.16,-0.161 0.14,-0.176 0.118,-0.188C0.097,-0.201 0.077,-0.218 0.058,-0.24C0.04,-0.261 0.031,-0.285 0.031,-0.312Z" style="fill-rule:nonzero;"/>
            </g>
            <g transform="matrix(33.3333,0,0,33.3333,543.755,338.551)">
                <path d="M0.026,-0.202C0.026,-0.267 0.045,-0.321 0.084,-0.364C0.124,-0.408 0.172,-0.429 0.231,-0.429C0.3,-0.429 0.348,-0.399 0.376,-0.34C0.386,-0.318 0.395,-0.303 0.403,-0.293C0.405,-0.287 0.406,-0.282 0.406,-0.277C0.406,-0.266 0.399,-0.26 0.386,-0.26C0.362,-0.259 0.328,-0.258 0.286,-0.258C0.243,-0.258 0.191,-0.259 0.131,-0.26C0.118,-0.26 0.112,-0.249 0.112,-0.227C0.112,-0.178 0.125,-0.137 0.151,-0.105C0.178,-0.074 0.211,-0.058 0.251,-0.058C0.294,-0.058 0.333,-0.078 0.367,-0.119C0.372,-0.126 0.379,-0.128 0.387,-0.125C0.392,-0.124 0.396,-0.12 0.399,-0.114C0.402,-0.107 0.403,-0.102 0.4,-0.097C0.336,-0.023 0.273,0.015 0.212,0.015C0.159,0.015 0.114,-0.006 0.079,-0.048C0.044,-0.09 0.026,-0.141 0.026,-0.202ZM0.125,-0.311C0.125,-0.309 0.126,-0.307 0.127,-0.306C0.13,-0.304 0.132,-0.303 0.135,-0.302C0.138,-0.302 0.14,-0.302 0.142,-0.302L0.277,-0.302C0.28,-0.302 0.284,-0.302 0.288,-0.304C0.291,-0.305 0.293,-0.306 0.293,-0.308L0.293,-0.309C0.279,-0.362 0.251,-0.388 0.21,-0.388C0.153,-0.388 0.125,-0.362 0.125,-0.311Z" style="fill-rule:nonzero;"/>
            </g>
            <g transform="matrix(33.3333,0,0,33.3333,558.143,338.551)">
                <path d="M0.025,-0.01C0.024,-0.014 0.023,-0.018 0.023,-0.021C0.023,-0.026 0.024,-0.03 0.026,-0.033C0.028,-0.038 0.03,-0.04 0.032,-0.041C0.034,-0.041 0.039,-0.041 0.046,-0.041C0.069,-0.041 0.084,-0.045 0.09,-0.052C0.096,-0.059 0.099,-0.076 0.099,-0.101L0.099,-0.619C0.099,-0.627 0.095,-0.631 0.088,-0.631L0.04,-0.64C0.034,-0.641 0.03,-0.647 0.03,-0.658C0.029,-0.669 0.033,-0.675 0.04,-0.678C0.087,-0.692 0.129,-0.706 0.167,-0.72L0.168,-0.72C0.173,-0.72 0.177,-0.717 0.181,-0.712C0.185,-0.706 0.187,-0.7 0.187,-0.694L0.187,-0.102C0.187,-0.073 0.189,-0.056 0.193,-0.05C0.197,-0.044 0.209,-0.041 0.23,-0.041C0.245,-0.041 0.253,-0.038 0.254,-0.031L0.254,-0.018C0.254,-0.005 0.249,0.002 0.239,0.002C0.191,0.001 0.15,0.001 0.117,0.001C0.084,0.001 0.059,0.001 0.041,0.002C0.039,0.002 0.036,0.001 0.032,-0.001C0.028,-0.004 0.026,-0.007 0.025,-0.01Z" style="fill-rule:nonzero;"/>
            </g>
            <g transform="matrix(33.3333,0,0,33.3333,567.209,338.551)">
                <path d="M0.025,-0.01C0.024,-0.014 0.023,-0.018 0.023,-0.021C0.023,-0.026 0.024,-0.03 0.026,-0.033C0.028,-0.038 0.03,-0.04 0.032,-0.041C0.034,-0.041 0.039,-0.041 0.046,-0.041C0.069,-0.041 0.084,-0.045 0.09,-0.052C0.096,-0.059 0.099,-0.076 0.099,-0.101L0.099,-0.619C0.099,-0.627 0.095,-0.631 0.088,-0.631L0.04,-0.64C0.034,-0.641 0.03,-0.647 0.03,-0.658C0.029,-0.669 0.033,-0.675 0.04,-0.678C0.087,-0.692 0.129,-0.706 0.167,-0.72L0.168,-0.72C0.173,-0.72 0.177,-0.717 0.181,-0.712C0.185,-0.706 0.187,-0.7 0.187,-0.694L0.187,-0.102C0.187,-0.073 0.189,-0.056 0.193,-0.05C0.197,-0.044 0.209,-0.041 0.23,-0.041C0.245,-0.041 0.253,-0.038 0.254,-0.031L0.254,-0.018C0.254,-0.005 0.249,0.002 0.239,0.002C0.191,0.001 0.15,0.001 0.117,0.001C0.084,0.001 0.059,0.001 0.041,0.002C0.039,0.002 0.036,0.001 0.032,-0.001C0.028,-0.004 0.026,-0.007 0.025,-0.01Z" style="fill-rule:nonzero;"/>
            </g>
            <g transform="matrix(33.3333,0,0,33.3333,576.275,338.551)">
                <path d="M0.025,-0.081C0.025,-0.132 0.061,-0.167 0.132,-0.186C0.152,-0.191 0.182,-0.203 0.222,-0.221C0.227,-0.226 0.23,-0.231 0.23,-0.234L0.229,-0.297C0.228,-0.352 0.208,-0.379 0.169,-0.379C0.159,-0.379 0.148,-0.375 0.136,-0.366C0.125,-0.358 0.119,-0.35 0.119,-0.341C0.119,-0.33 0.12,-0.322 0.123,-0.316C0.119,-0.311 0.109,-0.305 0.093,-0.297C0.076,-0.289 0.065,-0.285 0.06,-0.283C0.051,-0.28 0.043,-0.28 0.038,-0.282C0.033,-0.285 0.031,-0.292 0.031,-0.303C0.031,-0.327 0.052,-0.356 0.094,-0.39C0.129,-0.417 0.16,-0.431 0.189,-0.431C0.21,-0.431 0.232,-0.426 0.253,-0.415C0.274,-0.404 0.29,-0.39 0.302,-0.373C0.31,-0.362 0.315,-0.351 0.316,-0.341C0.318,-0.331 0.319,-0.31 0.319,-0.279L0.319,-0.102C0.319,-0.089 0.32,-0.079 0.322,-0.072C0.323,-0.065 0.325,-0.062 0.327,-0.061C0.329,-0.06 0.332,-0.059 0.335,-0.059C0.348,-0.059 0.36,-0.065 0.373,-0.076C0.378,-0.079 0.382,-0.08 0.385,-0.08C0.391,-0.079 0.396,-0.074 0.397,-0.066C0.398,-0.063 0.399,-0.061 0.399,-0.058C0.399,-0.054 0.398,-0.05 0.396,-0.047C0.351,-0.007 0.316,0.012 0.289,0.012C0.261,0.012 0.243,-0.003 0.235,-0.034C0.234,-0.038 0.232,-0.038 0.227,-0.035C0.204,-0.017 0.186,-0.005 0.172,0.002C0.159,0.009 0.143,0.012 0.125,0.012C0.096,0.012 0.072,0.003 0.053,-0.014C0.034,-0.031 0.025,-0.054 0.025,-0.081ZM0.16,-0.148C0.127,-0.135 0.11,-0.117 0.11,-0.094C0.11,-0.081 0.115,-0.069 0.124,-0.06C0.133,-0.051 0.145,-0.046 0.159,-0.046C0.169,-0.046 0.182,-0.051 0.198,-0.063C0.215,-0.074 0.225,-0.084 0.229,-0.093L0.229,-0.16C0.229,-0.165 0.228,-0.169 0.227,-0.172C0.225,-0.174 0.224,-0.176 0.222,-0.176L0.221,-0.176C0.204,-0.167 0.184,-0.158 0.16,-0.148Z" style="fill-rule:nonzero;"/>
            </g>
            <g transform="matrix(33.3333,0,0,33.3333,590.061,338.551)">
                <path d="M0.021,-0.39C0.023,-0.393 0.027,-0.396 0.032,-0.399C0.068,-0.418 0.096,-0.458 0.117,-0.52C0.118,-0.528 0.125,-0.531 0.137,-0.532L0.138,-0.532C0.149,-0.532 0.154,-0.527 0.154,-0.518C0.153,-0.497 0.152,-0.479 0.152,-0.465C0.152,-0.45 0.153,-0.44 0.154,-0.433C0.154,-0.43 0.158,-0.427 0.166,-0.425L0.265,-0.425C0.277,-0.425 0.282,-0.42 0.282,-0.412C0.282,-0.409 0.282,-0.406 0.281,-0.403C0.279,-0.393 0.277,-0.382 0.272,-0.369C0.268,-0.362 0.261,-0.358 0.252,-0.359L0.163,-0.36C0.159,-0.361 0.156,-0.359 0.154,-0.353L0.154,-0.181C0.154,-0.131 0.158,-0.098 0.165,-0.082C0.173,-0.065 0.187,-0.057 0.208,-0.057C0.227,-0.057 0.244,-0.073 0.261,-0.105C0.264,-0.111 0.269,-0.113 0.276,-0.113C0.283,-0.112 0.288,-0.11 0.292,-0.106C0.294,-0.104 0.295,-0.1 0.295,-0.094C0.295,-0.087 0.295,-0.083 0.294,-0.082C0.266,-0.02 0.227,0.011 0.176,0.011C0.144,0.011 0.118,-0.001 0.098,-0.025C0.078,-0.049 0.068,-0.08 0.068,-0.117L0.068,-0.353C0.068,-0.356 0.065,-0.358 0.058,-0.359C0.054,-0.36 0.048,-0.36 0.042,-0.361C0.035,-0.361 0.03,-0.362 0.026,-0.362C0.022,-0.369 0.02,-0.375 0.02,-0.381C0.02,-0.385 0.02,-0.388 0.021,-0.39Z" style="fill-rule:nonzero;"/>
            </g>
            <g transform="matrix(33.3333,0,0,33.3333,600.689,338.551)">
                <path d="M0.02,-0.017L0.02,-0.022C0.02,-0.035 0.024,-0.041 0.032,-0.041L0.065,-0.044C0.069,-0.045 0.073,-0.046 0.076,-0.048C0.08,-0.051 0.082,-0.052 0.084,-0.052C0.087,-0.053 0.088,-0.055 0.089,-0.059C0.09,-0.063 0.091,-0.065 0.093,-0.066C0.094,-0.067 0.094,-0.071 0.095,-0.077C0.095,-0.084 0.095,-0.088 0.095,-0.091L0.095,-0.304C0.095,-0.328 0.094,-0.342 0.092,-0.346C0.09,-0.349 0.085,-0.351 0.074,-0.353C0.073,-0.353 0.06,-0.357 0.035,-0.364C0.029,-0.366 0.026,-0.371 0.026,-0.38C0.026,-0.389 0.028,-0.396 0.033,-0.399C0.076,-0.415 0.115,-0.429 0.151,-0.441C0.155,-0.442 0.159,-0.443 0.162,-0.443C0.175,-0.443 0.182,-0.433 0.182,-0.412L0.182,-0.128C0.182,-0.103 0.182,-0.086 0.183,-0.077C0.184,-0.061 0.186,-0.052 0.19,-0.049C0.194,-0.045 0.205,-0.044 0.224,-0.044L0.228,-0.044C0.239,-0.044 0.245,-0.039 0.247,-0.028L0.247,-0.01C0.247,-0.001 0.242,0.003 0.232,0.003C0.231,0.003 0.229,0.003 0.227,0.003C0.212,0.002 0.188,0.001 0.156,0.001C0.124,0.001 0.083,0.002 0.034,0.003C0.032,0.003 0.029,0.001 0.026,-0.003C0.023,-0.008 0.021,-0.012 0.02,-0.017ZM0.085,-0.568C0.075,-0.579 0.07,-0.592 0.07,-0.608C0.07,-0.624 0.075,-0.637 0.086,-0.648C0.097,-0.66 0.111,-0.665 0.126,-0.665C0.143,-0.665 0.156,-0.66 0.167,-0.648C0.179,-0.637 0.184,-0.624 0.184,-0.607C0.184,-0.591 0.178,-0.578 0.167,-0.568C0.156,-0.558 0.142,-0.553 0.125,-0.553C0.109,-0.553 0.096,-0.558 0.085,-0.568Z" style="fill-rule:nonzero;"/>
            </g>
            <g transform="matrix(33.3333,0,0,33.3333,609.543,338.551)">
                <path d="M0.032,-0.208C0.032,-0.272 0.054,-0.325 0.097,-0.367C0.14,-0.409 0.194,-0.43 0.258,-0.43C0.322,-0.43 0.376,-0.409 0.42,-0.366C0.465,-0.323 0.487,-0.27 0.487,-0.207C0.486,-0.145 0.464,-0.093 0.421,-0.05C0.377,-0.006 0.324,0.015 0.261,0.015C0.196,0.015 0.142,-0.006 0.098,-0.049C0.054,-0.091 0.032,-0.145 0.032,-0.208ZM0.129,-0.237C0.129,-0.179 0.143,-0.13 0.171,-0.091C0.2,-0.052 0.233,-0.032 0.272,-0.032C0.305,-0.032 0.332,-0.048 0.354,-0.078C0.375,-0.109 0.386,-0.147 0.386,-0.192C0.386,-0.247 0.372,-0.292 0.344,-0.329C0.316,-0.365 0.283,-0.384 0.244,-0.384C0.212,-0.384 0.184,-0.37 0.162,-0.342C0.14,-0.315 0.129,-0.279 0.129,-0.237Z" style="fill-rule:nonzero;"/>
            </g>
            <g transform="matrix(33.3333,0,0,33.3333,626.796,338.551)">
                <path d="M0.025,-0.006C0.024,-0.009 0.023,-0.012 0.023,-0.015C0.023,-0.019 0.024,-0.023 0.025,-0.027C0.028,-0.035 0.032,-0.039 0.038,-0.039L0.043,-0.039C0.064,-0.039 0.078,-0.045 0.085,-0.055C0.091,-0.066 0.094,-0.093 0.094,-0.135L0.094,-0.269C0.094,-0.314 0.093,-0.339 0.09,-0.346C0.089,-0.35 0.077,-0.354 0.056,-0.358L0.036,-0.362C0.03,-0.363 0.027,-0.369 0.027,-0.38C0.028,-0.391 0.031,-0.397 0.036,-0.399C0.05,-0.403 0.079,-0.414 0.122,-0.431C0.135,-0.436 0.145,-0.44 0.152,-0.441C0.155,-0.442 0.158,-0.442 0.16,-0.442C0.166,-0.442 0.171,-0.44 0.174,-0.438C0.179,-0.433 0.181,-0.427 0.181,-0.419L0.181,-0.376C0.181,-0.375 0.182,-0.373 0.183,-0.37C0.184,-0.368 0.185,-0.365 0.186,-0.364C0.187,-0.362 0.188,-0.361 0.189,-0.362C0.252,-0.406 0.301,-0.428 0.336,-0.428C0.412,-0.428 0.45,-0.368 0.45,-0.247C0.45,-0.228 0.449,-0.199 0.446,-0.16C0.443,-0.121 0.442,-0.091 0.442,-0.071C0.442,-0.058 0.444,-0.05 0.449,-0.046C0.454,-0.043 0.465,-0.041 0.484,-0.041C0.493,-0.045 0.5,-0.043 0.505,-0.036C0.507,-0.032 0.509,-0.026 0.509,-0.016C0.509,-0.007 0.506,-0.001 0.501,0.001C0.498,0.002 0.494,0.002 0.488,0.002C0.474,0.002 0.444,0.002 0.396,0.001L0.354,0.001C0.33,0.001 0.313,0.002 0.303,0.002L0.301,0.002C0.288,0.002 0.281,-0.005 0.281,-0.019C0.281,-0.024 0.282,-0.029 0.285,-0.034C0.288,-0.039 0.291,-0.041 0.295,-0.041L0.301,-0.041C0.321,-0.043 0.335,-0.047 0.342,-0.053C0.349,-0.06 0.354,-0.072 0.356,-0.091C0.36,-0.128 0.362,-0.185 0.362,-0.262C0.362,-0.331 0.34,-0.365 0.296,-0.365C0.267,-0.365 0.229,-0.347 0.181,-0.31L0.181,-0.092C0.181,-0.068 0.184,-0.054 0.19,-0.049C0.196,-0.044 0.211,-0.041 0.235,-0.041C0.243,-0.041 0.248,-0.034 0.249,-0.019C0.249,-0.005 0.243,0.002 0.23,0.003C0.219,0.003 0.201,0.002 0.178,0.002L0.096,0.002C0.072,0.002 0.054,0.002 0.043,0.002L0.04,0.002C0.032,0.002 0.027,-0.001 0.025,-0.006Z" style="fill-rule:nonzero;"/>
            </g>
        </g>
        <path d="M211.376,151.333L352.833,151.333" style="fill:none;stroke:#000;stroke-width:2.29px;stroke-dasharray:6.88,6.88,0,0;"/>
        <circle cx="492.138" cy="140.981" r="120.128" style="fill:none;stroke:#000;stroke-width:2.29px;stroke-dasharray:6.88,6.88,0,0;"/>
        <path d="M467.331,24.728C468.105,43.137 470.199,68.45 475.496,75.512C501.786,110.562 562.162,104.875 579.727,152.257C585.54,167.94 591.314,183.738 598.56,198.726" style="fill:none;stroke:#3b6e8c;stroke-width:2.29px;"/>
        <path d="M431.005,244.625C441.994,235.255 453.295,227.824 462.727,224.951C494.585,215.249 530.002,212.608 554.958,187.832C596.912,146.181 574.098,94.012 564.478,45.279" style="fill:none;stroke:#3b6e8c;stroke-width:2.29px;"/>
        <path d="M403.629,60.105C417.414,72.491 432.731,89.113 438.198,95.45C467.649,129.588 501.993,162.663 525.31,201.896C533.885,216.325 539.491,232.965 545.171,248.975" style="fill:none;stroke:#3b6e8c;stroke-width:2.29px;"/>
        <path d="M531.711,82.713L521.61,78.361L515.942,91.516L526.042,95.868L531.711,82.713Z"/>
        <path d="M507.521,70.012L494.726,60.756L486.33,72.362L499.124,81.618L507.521,70.012Z"/>
        <path d="M465.959,44.577L453.165,35.321L444.768,46.927L457.563,56.183L465.959,44.577Z"/>
        <path d="M437.888,55.771L425.094,46.514L416.697,58.12L429.492,67.376L437.888,55.771Z"/>
        <path d="M465.736,81.779L452.942,72.523L444.545,84.129L457.34,93.385L465.736,81.779Z"/>
        <path d="M463.628,104.303L459.157,111.006L469.923,118.186L474.394,111.483L463.628,104.303Z"/>
        <path d="M499.512,101.051L488.916,93.385L481.542,103.578L492.138,111.244L499.512,101.051Z"/>
        <path d="M500.662,135.335L490.808,122.994L479.614,131.932L489.468,144.273L500.662,135.335Z"/>
        <path d="M531.034,117.274L516.439,111.244L510.969,124.484L525.565,130.513L531.034,117.274Z"/>
        <path d="M512.042,165.01L523.902,155.736L517.308,147.304L505.449,156.577L512.042,165.01Z"/>
        <path d="M567.982,142.455L551.476,130.513L540.605,145.54L557.111,157.481L567.982,142.455Z"/>
        <path d="M547.564,181.961L537.795,167.789L522.902,178.057L532.671,192.228L547.564,181.961Z"/>
        <path d="M533.877,238.594L528.009,223.933L514.71,229.256L520.578,243.917L533.877,238.594Z"/>
        <path d="M565.147,220.318L554.575,203.484L540.098,212.576L550.67,229.41L565.147,220.318Z"/>
        <path d="M501.68,250.816L501.985,235.027L476.942,234.543L476.636,250.332L501.68,250.816Z"/>
        <path d="M460.759,234.514L448.767,241.727L454.187,250.737L466.178,243.524L460.759,234.514Z"/>
        <path d="M443.253,226.257L434.15,213.352L422.445,221.61L431.548,234.514L443.253,226.257Z"/>
        <path d="M469.766,193.615L451.485,199.779L456.061,213.352L474.343,207.188L469.766,193.615Z"/>
        <path d="M509.358,191.122L493.401,170.619L482.096,179.417L498.053,199.92L509.358,191.122Z"/>
        <path d="M477.221,162.56L469.691,151.556L451.485,164.014L459.014,175.018L477.221,162.56Z"/>
        <path d="M458.33,135.666L447.923,123.789L437.149,133.23L447.557,145.107L458.33,135.666Z"/>
        <path d="M422.197,99.66L404.574,88.954L392.672,108.547L410.295,119.253L422.197,99.66Z"/>
        <path d="M405.144,150.317L391.648,142.119L384.211,154.361L397.707,162.56L405.144,150.317Z"/>
        <path d="M426.47,185.786L417.924,172.507L392.672,188.757L401.217,202.037L426.47,185.786Z"/>
        <path d="M588.978,188.229L576.183,178.973L565.147,194.227L577.942,203.484L588.978,188.229Z"/>
        <path d="M607.432,167.909L607.164,133.634L592.84,133.746L593.108,168.021L607.432,167.909Z"/>
        <path d="M600.136,107.538L596.051,92.284L582.214,95.99L586.299,111.244L600.136,107.538Z"/>
        <path d="M566.125,98.144L551.085,93.33L546.718,106.973L561.758,111.787L566.125,98.144Z"/>
        <path d="M494.001,43.141L492.951,27.385L478.658,28.337L479.708,44.094L494.001,43.141Z"/>
        <path d="M551.282,52.038L524.338,32.545L515.942,44.151L542.886,63.643L551.282,52.038Z"/>
    </g>
</svg>
