<?xml version="1.0" encoding="UTF-8" standalone="no"?>
<!DOCTYPE svg PUBLIC "-//W3C//DTD SVG 1.1//EN" "http://www.w3.org/Graphics/SVG/1.1/DTD/svg11.dtd">
<svg width="100%" height="100%" viewBox="0 0 260 259" version="1.1" xmlns="http://www.w3.org/2000/svg" xmlns:xlink="http://www.w3.org/1999/xlink" xml:space="preserve" xmlns:serif="http://www.serif.com/" style="fill-rule:evenodd;clip-rule:evenodd;stroke-linecap:round;stroke-miterlimit:1.5;">
    <rect id="et_no_labels" x="0.507" y="0" width="258.62" height="258.62" style="fill:none;"/>
    <g>
        <path d="M135.392,82.754C135.392,82.754 153.856,59.484 154.381,55.706C154.905,51.929 140.916,43.275 140.916,43.275" style="fill:none;stroke:#bc5b4f;stroke-width:2.29px;"/>
        <path d="M167.176,96.331C167.176,96.331 175.788,70.062 178.564,65.338C181.34,60.614 154.395,55.706 154.395,55.706" style="fill:none;stroke:#bc5b4f;stroke-width:2.29px;"/>
        <path d="M207.869,65.338L178.564,65.338" style="fill:none;stroke:#bc5b4f;stroke-width:2.29px;"/>
        <path d="M106.375,43.256C114.752,37.36 133.199,42.348 138.997,43.256C144.794,44.165 135.248,11.305 138.997,8.156" style="fill:none;stroke:#bc5b4f;stroke-width:2.29px;"/>
        <path d="M141.758,161.562C150.615,161.562 170.31,143.955 171.896,144.484C172.792,144.782 179.574,150.412 182.063,152.623C185.072,155.295 197.099,165.377 197.099,167.425" style="fill:none;stroke:#bc5b4f;stroke-width:2.29px;"/>
        <path d="M175.397,100.787C175.397,106.603 170.236,131.155 168.991,133.644C168.59,134.447 171.814,139.892 171.814,144.472" style="fill:none;stroke:#bc5b4f;stroke-width:2.29px;"/>
        <path d="M124.1,139.366C129.589,139.366 140.646,137.577 145.123,133.1C147.5,130.722 151.744,127.1 154.867,126.059C155.643,125.801 166.803,131.679 168.957,133.832" style="fill:none;stroke:#bc5b4f;stroke-width:2.29px;"/>
        <path d="M154.931,126.051C154.975,126.016 140.753,114.543 137.631,111.42C136.799,110.588 138.934,105.828 139.266,105.296C142.47,100.161 145.108,94.943 145.108,88.934" style="fill:none;stroke:#bc5b4f;stroke-width:2.29px;"/>
        <path d="M100.14,112.088C106.692,110.776 126.283,104.577 127.185,105.028C129.935,106.403 135.066,109.271 137.44,111.234" style="fill:none;stroke:#bc5b4f;stroke-width:2.29px;"/>
        <path d="M127.328,105.005C126.121,104.28 108.316,92.734 108.976,88.778C109.791,83.9 115.338,74.977 117.491,70.382" style="fill:none;stroke:#bc5b4f;stroke-width:2.29px;"/>
        <path d="M81.472,90.027C85.368,87.43 91.717,84.731 93.758,84.086C96.263,83.295 107.41,89.53 108.958,90.027" style="fill:none;stroke:#bc5b4f;stroke-width:2.29px;"/>
        <path d="M58.728,65.764C69.515,57.87 78.826,55.907 81.542,53.191C81.941,52.791 81.533,51.379 81.425,50.731C81.002,48.19 75.5,25.335 73.899,21.175" style="fill:none;stroke:#bc5b4f;stroke-width:2.29px;"/>
        <path d="M81.472,53.259C89.4,57.223 98.855,52.396 106.375,52.396" style="fill:none;stroke:#bc5b4f;stroke-width:2.29px;"/>
        <path d="M133.704,202.992C133.507,202.952 138.703,210.347 139.526,212.001C144.061,221.125 145.898,229.019 146.904,239.017C147.071,240.676 147.355,245.619 145.992,246.982" style="fill:none;stroke:#bc5b4f;stroke-width:2.29px;"/>
        <path d="M106.421,209.832C106.421,219.668 105.113,229.194 103.552,238.54C103.045,241.576 106.421,244.423 106.421,246.939" style="fill:none;stroke:#bc5b4f;stroke-width:2.29px;"/>
        <path d="M133.704,202.992C133.697,202.872 128.671,192.784 125.771,189.477C119.581,182.419 111.248,177.613 104.724,171.09C104.208,170.574 120.14,152.93 121.69,148.315C122.636,145.496 124.283,142.548 124.283,139.611" style="fill:none;stroke:#bc5b4f;stroke-width:2.29px;"/>
        <path d="M38.39,208.913C41.616,208.913 67.685,181.695 69.178,178.71C69.639,177.787 87.182,211.631 90.693,215.142" style="fill:none;stroke:#bc5b4f;stroke-width:2.29px;"/>
        <path d="M69.178,178.71C73.728,178.71 97.749,171.09 104.724,171.09" style="fill:none;stroke:#bc5b4f;stroke-width:2.29px;"/>
        <path d="M9.223,114.057C26.995,112.849 44.532,128.924 44.969,128.487C49.122,124.333 82.278,92.998 82.278,92.554" style="fill:none;stroke:#bc5b4f;stroke-width:2.29px;"/>
        <path d="M44.483,128.284C49.362,132.188 68.495,139.727 71.045,141.754C73.108,143.393 74.606,146.448 76.653,147.471C76.857,147.573 92.586,138.942 94.966,137.943C96.544,137.281 111.611,126.536 111.611,125.574" style="fill:none;stroke:#bc5b4f;stroke-width:2.29px;"/>
        <path d="M76.811,147.381C76.811,149.564 75.512,162.455 76.3,165.412C77.131,168.53 79.342,175.945 79.302,176.06" style="fill:none;stroke:#bc5b4f;stroke-width:2.29px;"/>
        <path d="M11.449,160.038C20.456,160.038 33.753,161.993 42.313,158.64C47.98,156.421 66.11,140.612 66.11,139.157" style="fill:none;stroke:#bc5b4f;stroke-width:2.29px;"/>
        <path d="M187.474,177.671C187.474,177.671 211.952,203.399 214.812,210.574" style="fill:none;stroke:#bc5b4f;stroke-width:2.29px;"/>
        <path d="M214.812,109.311L245.197,105.005" style="fill:none;stroke:#bc5b4f;stroke-width:2.29px;"/>
        <path d="M209.879,77.446C209.879,77.446 230.008,71.903 229.902,65.764" style="fill:none;stroke:#bc5b4f;stroke-width:2.29px;"/>
        <circle cx="127.328" cy="128.284" r="120.128" style="fill:none;stroke:#000;stroke-width:2.29px;stroke-dasharray:6.88,6.88,0,0;"/>
        <path d="M102.521,12.032C103.295,30.441 105.389,55.753 110.686,62.815C136.976,97.866 197.352,92.179 214.917,139.561C220.73,155.243 226.504,171.041 233.75,186.03" style="fill:none;stroke:#3b6e8c;stroke-width:2.29px;"/>
        <path d="M66.195,231.929C77.184,222.559 88.485,215.128 97.917,212.255C129.775,202.553 165.192,199.912 190.148,175.136C232.101,133.485 209.288,81.316 199.668,32.583" style="fill:none;stroke:#3b6e8c;stroke-width:2.29px;"/>
        <path d="M38.819,47.408C52.604,59.794 67.921,76.417 73.388,82.754C102.839,116.892 137.183,149.967 160.5,189.2C169.075,203.629 174.681,220.268 180.361,236.279" style="fill:none;stroke:#3b6e8c;stroke-width:2.29px;"/>
    </g>
</svg>
