<?xml version="1.0" encoding="UTF-8" standalone="no"?>
<!DOCTYPE svg PUBLIC "-//W3C//DTD SVG 1.1//EN" "http://www.w3.org/Graphics/SVG/1.1/DTD/svg11.dtd">
<svg width="100%" height="100%" viewBox="0 0 256 277" version="1.1" xmlns="http://www.w3.org/2000/svg" xmlns:xlink="http://www.w3.org/1999/xlink" xml:space="preserve" xmlns:serif="http://www.serif.com/" style="fill-rule:evenodd;clip-rule:evenodd;stroke-linecap:round;stroke-miterlimit:1.5;">
    <rect id="footprints_no_labels" x="0.733" y="0" width="255.034" height="276.223" style="fill:none;"/>
    <g>
        <path d="M242.972,166.005L158.537,19.759L12.291,104.194L96.726,250.44L242.972,166.005Z" style="fill:#fff;stroke:#000;stroke-width:4.17px;"/>
        <path d="M162.417,88.696L152.316,84.344L146.648,97.499L156.748,101.851L162.417,88.696Z"/>
        <path d="M138.227,75.996L125.432,66.739L117.036,78.345L129.83,87.602L138.227,75.996Z"/>
        <path d="M96.442,87.762L83.648,78.506L75.251,90.112L88.046,99.368L96.442,87.762Z"/>
        <path d="M94.334,110.286L89.863,116.989L100.63,124.169L105.1,117.466L94.334,110.286Z"/>
        <path d="M130.218,107.034L119.622,99.368L112.248,109.561L122.844,117.228L130.218,107.034Z"/>
        <path d="M131.368,141.318L121.514,128.977L110.32,137.916L120.174,150.256L131.368,141.318Z"/>
        <path d="M161.74,123.257L147.145,117.228L141.675,130.467L156.271,136.497L161.74,123.257Z"/>
        <path d="M142.749,170.993L154.608,161.719L148.014,153.287L136.155,162.561L142.749,170.993Z"/>
        <path d="M198.688,148.438L182.182,136.497L171.311,151.523L187.817,163.464L198.688,148.438Z"/>
        <path d="M178.27,187.944L168.501,173.773L153.608,184.04L163.378,198.211L178.27,187.944Z"/>
        <path d="M100.473,199.598L82.191,205.762L86.768,219.336L105.049,213.172L100.473,199.598Z"/>
        <path d="M140.064,197.105L124.107,176.602L112.802,185.4L128.759,205.903L140.064,197.105Z"/>
        <path d="M107.927,168.543L100.398,157.539L82.191,169.997L89.72,181.001L107.927,168.543Z"/>
        <path d="M89.036,141.649L78.629,129.773L67.855,139.213L78.263,151.09L89.036,141.649Z"/>
        <path d="M52.903,105.643L35.28,94.938L23.378,114.531L41.001,125.236L52.903,105.643Z"/>
        <path d="M227.782,139.696L223.546,139.729L223.814,174.005L229.189,173.963L238.099,168.819L238.01,157.41L227.782,139.696Z"/>
        <path d="M196.832,104.128L181.792,99.313L177.424,112.956L192.464,117.77L196.832,104.128Z"/>
        <path d="M124.076,39.655L110.252,47.637L110.414,50.077L124.707,49.125L124.076,39.655Z"/>
        <path d="M181.988,58.021L155.044,38.528L146.648,50.134L173.592,69.627L181.988,58.021Z"/>
    </g>
</svg>
