<?xml version="1.0" encoding="UTF-8" standalone="no"?>
<!DOCTYPE svg PUBLIC "-//W3C//DTD SVG 1.1//EN" "http://www.w3.org/Graphics/SVG/1.1/DTD/svg11.dtd">
<svg width="100%" height="100%" viewBox="0 0 489 815" version="1.1" xmlns="http://www.w3.org/2000/svg" xmlns:xlink="http://www.w3.org/1999/xlink" xml:space="preserve" xmlns:serif="http://www.serif.com/" style="fill-rule:evenodd;clip-rule:evenodd;stroke-linecap:round;stroke-miterlimit:1.5;">
    <rect id="form_function_no_labels" x="0.497" y="0" width="488.213" height="814.784" style="fill:none;"/>
    <g>
        <path d="M249.268,624.22C249.268,624.22 267.731,600.95 268.256,597.173C268.78,593.395 254.791,584.741 254.791,584.741" style="fill:none;stroke:#bc5b4f;stroke-width:2.29px;"/>
        <path d="M281.051,637.797C281.051,637.797 289.663,611.528 292.439,606.804C295.215,602.08 268.27,597.173 268.27,597.173" style="fill:none;stroke:#bc5b4f;stroke-width:2.29px;"/>
        <path d="M321.744,606.804L292.439,606.804" style="fill:none;stroke:#bc5b4f;stroke-width:2.29px;"/>
        <path d="M220.25,584.723C228.627,578.827 247.074,583.815 252.872,584.723C258.669,585.631 249.123,552.771 252.872,549.623" style="fill:none;stroke:#bc5b4f;stroke-width:2.29px;"/>
        <path d="M255.633,703.029C264.49,703.029 284.185,685.421 285.771,685.95C286.667,686.249 293.449,691.878 295.938,694.089C298.947,696.762 310.974,706.844 310.974,708.892" style="fill:none;stroke:#bc5b4f;stroke-width:2.29px;"/>
        <path d="M289.272,642.253C289.272,648.07 284.111,672.621 282.866,675.111C282.465,675.913 285.689,681.359 285.689,685.938" style="fill:none;stroke:#bc5b4f;stroke-width:2.29px;"/>
        <path d="M237.975,680.832C243.464,680.832 254.521,679.043 258.998,674.566C261.375,672.188 265.619,668.567 268.742,667.526C269.518,667.267 280.678,673.145 282.832,675.298" style="fill:none;stroke:#bc5b4f;stroke-width:2.29px;"/>
        <path d="M268.806,667.518C268.85,667.483 254.628,656.01 251.506,652.887C250.674,652.054 252.809,647.294 253.141,646.763C256.345,641.627 258.983,636.409 258.983,630.4" style="fill:none;stroke:#bc5b4f;stroke-width:2.29px;"/>
        <path d="M214.015,653.555C220.567,652.242 240.158,646.043 241.06,646.495C243.81,647.869 248.941,650.737 251.315,652.701" style="fill:none;stroke:#bc5b4f;stroke-width:2.29px;"/>
        <path d="M241.203,646.471C239.996,645.747 222.191,634.201 222.851,630.245C223.666,625.367 229.213,616.443 231.366,611.849" style="fill:none;stroke:#bc5b4f;stroke-width:2.29px;"/>
        <path d="M195.347,631.494C199.243,628.896 205.592,626.197 207.633,625.552C210.138,624.761 221.285,630.997 222.833,631.494" style="fill:none;stroke:#bc5b4f;stroke-width:2.29px;"/>
        <path d="M172.603,607.23C183.39,599.337 192.701,597.374 195.417,594.657C195.816,594.258 195.408,592.846 195.3,592.197C194.877,589.657 189.375,566.801 187.774,562.641" style="fill:none;stroke:#bc5b4f;stroke-width:2.29px;"/>
        <path d="M195.347,594.726C203.275,598.69 212.73,593.863 220.25,593.863" style="fill:none;stroke:#bc5b4f;stroke-width:2.29px;"/>
        <path d="M247.579,744.458C247.382,744.419 252.578,751.813 253.401,753.468C257.936,762.591 259.773,770.486 260.779,780.484C260.946,782.143 261.23,787.086 259.867,788.448" style="fill:none;stroke:#bc5b4f;stroke-width:2.29px;"/>
        <path d="M220.296,751.299C220.296,761.134 218.988,770.661 217.427,780.006C216.92,783.042 220.296,785.89 220.296,788.406" style="fill:none;stroke:#bc5b4f;stroke-width:2.29px;"/>
        <path d="M247.579,744.458C247.572,744.338 242.546,734.25 239.646,730.944C233.456,723.885 225.123,719.08 218.599,712.557C218.083,712.04 234.015,694.396 235.565,689.782C236.511,686.963 238.158,684.014 238.158,681.077" style="fill:none;stroke:#bc5b4f;stroke-width:2.29px;"/>
        <path d="M152.265,750.379C155.491,750.379 181.56,723.162 183.053,720.176C183.514,719.254 201.057,753.098 204.568,756.609" style="fill:none;stroke:#bc5b4f;stroke-width:2.29px;"/>
        <path d="M183.053,720.176C187.603,720.176 211.624,712.557 218.599,712.557" style="fill:none;stroke:#bc5b4f;stroke-width:2.29px;"/>
        <path d="M123.098,655.524C140.87,654.315 158.407,670.39 158.844,669.953C162.997,665.799 196.153,634.465 196.153,634.021" style="fill:none;stroke:#bc5b4f;stroke-width:2.29px;"/>
        <path d="M158.358,669.751C163.237,673.654 182.37,681.193 184.92,683.22C186.983,684.859 188.481,687.914 190.528,688.938C190.732,689.04 206.461,680.409 208.841,679.41C210.419,678.748 225.486,668.003 225.486,667.04" style="fill:none;stroke:#bc5b4f;stroke-width:2.29px;"/>
        <path d="M190.686,688.847C190.686,691.03 189.387,703.922 190.175,706.878C191.006,709.996 193.217,717.412 193.177,717.527" style="fill:none;stroke:#bc5b4f;stroke-width:2.29px;"/>
        <path d="M125.324,701.505C134.331,701.505 147.628,703.459 156.188,700.107C161.855,697.887 179.985,682.078 179.985,680.623" style="fill:none;stroke:#bc5b4f;stroke-width:2.29px;"/>
        <path d="M301.349,719.138C301.349,719.138 325.828,744.865 328.687,752.041" style="fill:none;stroke:#bc5b4f;stroke-width:2.29px;"/>
        <path d="M328.687,650.778L359.072,646.471" style="fill:none;stroke:#bc5b4f;stroke-width:2.29px;"/>
        <path d="M323.754,618.913C323.754,618.913 343.883,613.369 343.777,607.23" style="fill:none;stroke:#bc5b4f;stroke-width:2.29px;"/>
        <path d="M158.091,411.936L111.471,331.187L30.722,377.808L77.342,458.556L158.091,411.936Z" style="fill:#fff;stroke:#000;stroke-width:4.17px;"/>
        <path d="M460.522,411.936L413.901,331.187L333.153,377.808L379.773,458.556L460.522,411.936Z" style="fill:#fff;stroke:#000;stroke-width:4.17px;stroke-linecap:butt;stroke-dasharray:4.17,4.17;"/>
        <path d="M158.091,373.345L111.471,292.596L30.722,339.216L77.342,419.965L158.091,373.345Z" style="fill:#fff;stroke:#000;stroke-width:4.17px;"/>
        <path d="M460.522,373.345L413.901,292.596L333.153,339.216L379.773,419.965L460.522,373.345Z" style="fill:#fff;stroke:#000;stroke-width:4.17px;stroke-linecap:butt;stroke-dasharray:4.17,4.17;"/>
        <path d="M158.091,334.753L111.471,254.005L30.722,300.625L77.342,381.374L158.091,334.753Z" style="fill:#fff;stroke:#000;stroke-width:4.17px;"/>
        <path d="M460.522,334.753L413.901,254.005L333.153,300.625L379.773,381.374L460.522,334.753Z" style="fill:#fff;stroke:#000;stroke-width:4.17px;stroke-linecap:butt;stroke-dasharray:4.17,4.17;"/>
        <path d="M158.091,296.162L111.471,215.413L30.722,262.034L77.342,342.782L158.091,296.162Z" style="fill:#fff;stroke:#000;stroke-width:4.17px;"/>
        <path d="M460.522,296.162L413.901,215.413L333.153,262.034L379.773,342.782L460.522,296.162Z" style="fill:#fff;stroke:#000;stroke-width:4.17px;stroke-linecap:butt;stroke-dasharray:4.17,4.17;"/>
        <path d="M158.091,257.571L111.471,176.822L30.722,223.442L77.342,304.191L158.091,257.571Z" style="fill:#fff;stroke:#000;stroke-width:4.17px;"/>
        <path d="M460.522,257.571L413.901,176.822L333.153,223.442L379.773,304.191L460.522,257.571Z" style="fill:#fff;stroke:#000;stroke-width:4.17px;stroke-linecap:butt;stroke-dasharray:4.17,4.17;"/>
        <path d="M158.091,218.98L111.471,138.231L30.722,184.851L77.342,265.6L158.091,218.98Z" style="fill:#fff;stroke:#000;stroke-width:4.17px;"/>
        <path d="M460.522,218.98L413.901,138.231L333.153,184.851L379.773,265.6L460.522,218.98Z" style="fill:#fff;stroke:#000;stroke-width:4.17px;stroke-linecap:butt;stroke-dasharray:4.17,4.17;"/>
        <path d="M158.091,180.388L111.471,99.64L30.722,146.26L77.342,227.009L158.091,180.388Z" style="fill:#fff;stroke:#000;stroke-width:4.17px;"/>
        <path d="M460.522,180.388L413.901,99.64L333.153,146.26L379.773,227.009L460.522,180.388Z" style="fill:#fff;stroke:#000;stroke-width:4.17px;stroke-linecap:butt;stroke-dasharray:4.17,4.17;"/>
        <path d="M158.091,141.797L111.471,61.048L30.722,107.669L77.342,188.417L158.091,141.797Z" style="fill:#fff;stroke:#000;stroke-width:4.17px;"/>
        <path d="M460.522,141.797L413.901,61.048L333.153,107.669L379.773,188.417L460.522,141.797Z" style="fill:#fff;stroke:#000;stroke-width:4.17px;stroke-linecap:butt;stroke-dasharray:4.17,4.17;"/>
        <path d="M158.091,103.206L111.471,22.457L30.722,69.077L77.342,149.826L158.091,103.206Z" style="fill:#fff;stroke:#000;stroke-width:4.17px;"/>
        <path d="M460.522,103.206L413.901,22.457L333.153,69.077L379.773,149.826L460.522,103.206Z" style="fill:#fff;stroke:#000;stroke-width:4.17px;stroke-linecap:butt;stroke-dasharray:4.17,4.17;"/>
        <circle cx="241.203" cy="669.751" r="120.128" style="fill:none;stroke:#000;stroke-width:2.29px;stroke-dasharray:6.88,6.88,0,0;"/>
        <path d="M216.396,553.499C217.17,571.907 219.264,597.22 224.561,604.282C250.851,639.333 311.227,633.645 328.792,681.028C334.605,696.71 340.379,712.508 347.625,727.496" style="fill:none;stroke:#3b6e8c;stroke-width:2.29px;"/>
        <path d="M180.07,773.395C191.059,764.025 202.36,756.594 211.792,753.722C243.65,744.02 279.067,741.379 304.023,716.602C345.976,674.951 323.163,622.783 313.543,574.049" style="fill:none;stroke:#3b6e8c;stroke-width:2.29px;"/>
        <path d="M152.694,588.875C166.479,601.261 181.796,617.883 187.263,624.22C216.714,658.358 251.058,691.433 274.375,730.667C282.95,745.095 288.556,761.735 294.236,777.745" style="fill:none;stroke:#3b6e8c;stroke-width:2.29px;"/>
        <path d="M202.395,597.87L208.858,617.812L189.026,611.017L202.395,597.87Z" style="fill:#bc5b4f;"/>
        <path d="M121.075,449.225C121.075,496.375 124.471,530.651 198.34,607.117" style="fill:none;stroke:#bc5b4f;stroke-width:6.25px;stroke-linecap:butt;"/>
        <path d="M354.043,449.225C354.043,504.093 109.269,516.436 191.314,598.481" style="fill:none;stroke:#bc5b4f;stroke-width:6.25px;stroke-linecap:butt;"/>
    </g>
</svg>
