<?xml version="1.0" encoding="UTF-8" standalone="no"?>
<!DOCTYPE svg PUBLIC "-//W3C//DTD SVG 1.1//EN" "http://www.w3.org/Graphics/SVG/1.1/DTD/svg11.dtd">
<svg width="100%" height="100%" viewBox="0 0 932 860" version="1.1" xmlns="http://www.w3.org/2000/svg" xmlns:xlink="http://www.w3.org/1999/xlink" xml:space="preserve" xmlns:serif="http://www.serif.com/" style="fill-rule:evenodd;clip-rule:evenodd;stroke-linecap:round;stroke-miterlimit:1.5;">
    <rect id="form_function" x="0.497" y="0" width="930.785" height="859.175" style="fill:none;"/>
    <g>
        <path d="M500.203,647.754C500.203,647.754 518.666,624.484 519.191,620.706C519.716,616.929 505.726,608.275 505.726,608.275" style="fill:none;stroke:#bc5b4f;stroke-width:2.29px;"/>
        <path d="M531.986,661.331C531.986,661.331 540.598,635.062 543.374,630.338C546.15,625.614 519.205,620.706 519.205,620.706" style="fill:none;stroke:#bc5b4f;stroke-width:2.29px;"/>
        <path d="M572.679,630.338L543.374,630.338" style="fill:none;stroke:#bc5b4f;stroke-width:2.29px;"/>
        <path d="M471.185,608.256C479.562,602.36 498.009,607.348 503.807,608.256C509.604,609.165 500.058,576.305 503.807,573.156" style="fill:none;stroke:#bc5b4f;stroke-width:2.29px;"/>
        <path d="M506.568,726.562C515.425,726.562 535.12,708.955 536.706,709.484C537.602,709.782 544.384,715.412 546.873,717.623C549.882,720.295 561.909,730.377 561.909,732.425" style="fill:none;stroke:#bc5b4f;stroke-width:2.29px;"/>
        <path d="M540.208,665.787C540.208,671.603 535.046,696.155 533.801,698.644C533.4,699.447 536.624,704.892 536.624,709.472" style="fill:none;stroke:#bc5b4f;stroke-width:2.29px;"/>
        <path d="M488.91,704.366C494.399,704.366 505.456,702.577 509.933,698.1C512.311,695.722 516.554,692.1 519.678,691.059C520.453,690.801 531.613,696.679 533.767,698.832" style="fill:none;stroke:#bc5b4f;stroke-width:2.29px;"/>
        <path d="M519.741,691.051C519.785,691.016 505.564,679.543 502.441,676.42C501.609,675.588 503.744,670.828 504.076,670.296C507.28,665.161 509.918,659.943 509.918,653.934" style="fill:none;stroke:#bc5b4f;stroke-width:2.29px;"/>
        <path d="M464.95,677.088C471.502,675.776 491.093,669.577 491.995,670.028C494.745,671.403 499.876,674.271 502.25,676.234" style="fill:none;stroke:#bc5b4f;stroke-width:2.29px;"/>
        <path d="M492.138,670.005C490.931,669.28 473.126,657.734 473.786,653.778C474.601,648.9 480.148,639.977 482.301,635.382" style="fill:none;stroke:#bc5b4f;stroke-width:2.29px;"/>
        <path d="M446.282,655.027C450.178,652.43 456.527,649.731 458.568,649.086C461.073,648.295 472.22,654.53 473.769,655.027" style="fill:none;stroke:#bc5b4f;stroke-width:2.29px;"/>
        <path d="M423.538,630.764C434.326,622.87 443.636,620.907 446.352,618.191C446.751,617.791 446.344,616.379 446.235,615.731C445.812,613.19 440.31,590.335 438.709,586.175" style="fill:none;stroke:#bc5b4f;stroke-width:2.29px;"/>
        <path d="M446.282,618.259C454.21,622.223 463.665,617.396 471.185,617.396" style="fill:none;stroke:#bc5b4f;stroke-width:2.29px;"/>
        <path d="M498.514,767.992C498.317,767.952 503.513,775.347 504.336,777.001C508.871,786.125 510.709,794.019 511.714,804.017C511.881,805.676 512.165,810.619 510.802,811.982" style="fill:none;stroke:#bc5b4f;stroke-width:2.29px;"/>
        <path d="M471.231,774.832C471.231,784.668 469.923,794.194 468.362,803.54C467.855,806.576 471.231,809.423 471.231,811.939" style="fill:none;stroke:#bc5b4f;stroke-width:2.29px;"/>
        <path d="M498.514,767.992C498.507,767.872 493.481,757.784 490.581,754.477C484.391,747.419 476.058,742.613 469.534,736.09C469.018,735.574 484.95,717.93 486.5,713.315C487.446,710.496 489.093,707.548 489.093,704.611" style="fill:none;stroke:#bc5b4f;stroke-width:2.29px;"/>
        <path d="M403.2,773.913C406.427,773.913 432.495,746.695 433.988,743.71C434.449,742.787 451.992,776.631 455.503,780.142" style="fill:none;stroke:#bc5b4f;stroke-width:2.29px;"/>
        <path d="M433.988,743.71C438.538,743.71 462.559,736.09 469.534,736.09" style="fill:none;stroke:#bc5b4f;stroke-width:2.29px;"/>
        <path d="M374.033,679.057C391.805,677.849 409.342,693.924 409.779,693.487C413.932,689.333 447.088,657.998 447.088,657.554" style="fill:none;stroke:#bc5b4f;stroke-width:2.29px;"/>
        <path d="M409.293,693.284C414.172,697.188 433.305,704.727 435.855,706.754C437.918,708.393 439.416,711.448 441.463,712.471C441.667,712.573 457.396,703.942 459.776,702.943C461.354,702.281 476.421,691.536 476.421,690.574" style="fill:none;stroke:#bc5b4f;stroke-width:2.29px;"/>
        <path d="M441.621,712.381C441.621,714.564 440.322,727.455 441.11,730.412C441.941,733.53 444.152,740.945 444.112,741.06" style="fill:none;stroke:#bc5b4f;stroke-width:2.29px;"/>
        <path d="M376.259,725.038C385.266,725.038 398.564,726.993 407.123,723.64C412.79,721.421 430.92,705.612 430.92,704.157" style="fill:none;stroke:#bc5b4f;stroke-width:2.29px;"/>
        <path d="M552.284,742.671C552.284,742.671 576.763,768.399 579.622,775.574" style="fill:none;stroke:#bc5b4f;stroke-width:2.29px;"/>
        <path d="M579.622,674.311L610.008,670.005" style="fill:none;stroke:#bc5b4f;stroke-width:2.29px;"/>
        <path d="M574.689,642.446C574.689,642.446 594.818,636.903 594.712,630.764" style="fill:none;stroke:#bc5b4f;stroke-width:2.29px;"/>
        <path d="M409.026,435.47L362.406,354.721L281.657,401.341L328.277,482.09L409.026,435.47Z" style="fill:#fff;stroke:#000;stroke-width:4.17px;"/>
        <path d="M711.457,435.47L664.836,354.721L584.088,401.341L630.708,482.09L711.457,435.47Z" style="fill:#fff;stroke:#000;stroke-width:4.17px;stroke-linecap:butt;stroke-dasharray:4.17,4.17;"/>
        <path d="M409.026,396.878L362.406,316.13L281.657,362.75L328.277,443.499L409.026,396.878Z" style="fill:#fff;stroke:#000;stroke-width:4.17px;"/>
        <path d="M711.457,396.878L664.836,316.13L584.088,362.75L630.708,443.499L711.457,396.878Z" style="fill:#fff;stroke:#000;stroke-width:4.17px;stroke-linecap:butt;stroke-dasharray:4.17,4.17;"/>
        <path d="M409.026,358.287L362.406,277.538L281.657,324.159L328.277,404.907L409.026,358.287Z" style="fill:#fff;stroke:#000;stroke-width:4.17px;"/>
        <path d="M711.457,358.287L664.836,277.538L584.088,324.159L630.708,404.907L711.457,358.287Z" style="fill:#fff;stroke:#000;stroke-width:4.17px;stroke-linecap:butt;stroke-dasharray:4.17,4.17;"/>
        <path d="M409.026,319.696L362.406,238.947L281.657,285.567L328.277,366.316L409.026,319.696Z" style="fill:#fff;stroke:#000;stroke-width:4.17px;"/>
        <path d="M711.457,319.696L664.836,238.947L584.088,285.567L630.708,366.316L711.457,319.696Z" style="fill:#fff;stroke:#000;stroke-width:4.17px;stroke-linecap:butt;stroke-dasharray:4.17,4.17;"/>
        <path d="M409.026,281.104L362.406,200.356L281.657,246.976L328.277,327.725L409.026,281.104Z" style="fill:#fff;stroke:#000;stroke-width:4.17px;"/>
        <path d="M711.457,281.104L664.836,200.356L584.088,246.976L630.708,327.725L711.457,281.104Z" style="fill:#fff;stroke:#000;stroke-width:4.17px;stroke-linecap:butt;stroke-dasharray:4.17,4.17;"/>
        <path d="M409.026,242.513L362.406,161.764L281.657,208.385L328.277,289.133L409.026,242.513Z" style="fill:#fff;stroke:#000;stroke-width:4.17px;"/>
        <path d="M711.457,242.513L664.836,161.764L584.088,208.385L630.708,289.133L711.457,242.513Z" style="fill:#fff;stroke:#000;stroke-width:4.17px;stroke-linecap:butt;stroke-dasharray:4.17,4.17;"/>
        <path d="M409.026,203.922L362.406,123.173L281.657,169.793L328.277,250.542L409.026,203.922Z" style="fill:#fff;stroke:#000;stroke-width:4.17px;"/>
        <path d="M711.457,203.922L664.836,123.173L584.088,169.793L630.708,250.542L711.457,203.922Z" style="fill:#fff;stroke:#000;stroke-width:4.17px;stroke-linecap:butt;stroke-dasharray:4.17,4.17;"/>
        <path d="M409.026,165.331L362.406,84.582L281.657,131.202L328.277,211.951L409.026,165.331Z" style="fill:#fff;stroke:#000;stroke-width:4.17px;"/>
        <path d="M711.457,165.331L664.836,84.582L584.088,131.202L630.708,211.951L711.457,165.331Z" style="fill:#fff;stroke:#000;stroke-width:4.17px;stroke-linecap:butt;stroke-dasharray:4.17,4.17;"/>
        <path d="M409.026,126.739L362.406,45.991L281.657,92.611L328.277,173.36L409.026,126.739Z" style="fill:#fff;stroke:#000;stroke-width:4.17px;"/>
        <path d="M711.457,126.739L664.836,45.991L584.088,92.611L630.708,173.36L711.457,126.739Z" style="fill:#fff;stroke:#000;stroke-width:4.17px;stroke-linecap:butt;stroke-dasharray:4.17,4.17;"/>
        <g transform="matrix(1,0,0,1,-468.669,403.474)">
            <g transform="matrix(33.3333,0,0,33.3333,497.808,305.217)">
                <path d="M0.026,-0.202C0.026,-0.267 0.045,-0.321 0.084,-0.364C0.124,-0.408 0.172,-0.429 0.231,-0.429C0.3,-0.429 0.348,-0.399 0.376,-0.34C0.386,-0.318 0.395,-0.303 0.403,-0.293C0.405,-0.287 0.406,-0.282 0.406,-0.277C0.406,-0.266 0.399,-0.26 0.386,-0.26C0.362,-0.259 0.328,-0.258 0.286,-0.258C0.243,-0.258 0.191,-0.259 0.131,-0.26C0.118,-0.26 0.112,-0.249 0.112,-0.227C0.112,-0.178 0.125,-0.137 0.151,-0.105C0.178,-0.074 0.211,-0.058 0.251,-0.058C0.294,-0.058 0.333,-0.078 0.367,-0.119C0.372,-0.126 0.379,-0.128 0.387,-0.125C0.392,-0.124 0.396,-0.12 0.399,-0.114C0.402,-0.107 0.403,-0.102 0.4,-0.097C0.336,-0.023 0.273,0.015 0.212,0.015C0.159,0.015 0.114,-0.006 0.079,-0.048C0.044,-0.09 0.026,-0.141 0.026,-0.202ZM0.125,-0.311C0.125,-0.309 0.126,-0.307 0.127,-0.306C0.13,-0.304 0.132,-0.303 0.135,-0.302C0.138,-0.302 0.14,-0.302 0.142,-0.302L0.277,-0.302C0.28,-0.302 0.284,-0.302 0.288,-0.304C0.291,-0.305 0.293,-0.306 0.293,-0.308L0.293,-0.309C0.279,-0.362 0.251,-0.388 0.21,-0.388C0.153,-0.388 0.125,-0.362 0.125,-0.311Z" style="fill-rule:nonzero;"/>
            </g>
            <g transform="matrix(33.3333,0,0,33.3333,512.196,305.217)">
                <path d="M0.025,-0.006C0.024,-0.009 0.023,-0.012 0.023,-0.015C0.023,-0.019 0.024,-0.023 0.025,-0.027C0.028,-0.035 0.032,-0.039 0.038,-0.039L0.043,-0.039C0.064,-0.039 0.078,-0.045 0.085,-0.055C0.091,-0.066 0.094,-0.093 0.094,-0.135L0.094,-0.269C0.094,-0.314 0.093,-0.339 0.09,-0.346C0.089,-0.35 0.077,-0.354 0.056,-0.358L0.036,-0.362C0.03,-0.363 0.027,-0.369 0.027,-0.38C0.028,-0.391 0.031,-0.397 0.036,-0.399C0.05,-0.403 0.079,-0.414 0.122,-0.431C0.135,-0.436 0.145,-0.44 0.152,-0.441C0.155,-0.442 0.158,-0.442 0.16,-0.442C0.166,-0.442 0.171,-0.44 0.174,-0.438C0.179,-0.433 0.181,-0.427 0.181,-0.419L0.181,-0.376C0.181,-0.375 0.182,-0.373 0.183,-0.37C0.184,-0.368 0.185,-0.365 0.186,-0.364C0.187,-0.362 0.188,-0.361 0.189,-0.362C0.252,-0.406 0.301,-0.428 0.336,-0.428C0.412,-0.428 0.45,-0.368 0.45,-0.247C0.45,-0.228 0.449,-0.199 0.446,-0.16C0.443,-0.121 0.442,-0.091 0.442,-0.071C0.442,-0.058 0.444,-0.05 0.449,-0.046C0.454,-0.043 0.465,-0.041 0.484,-0.041C0.493,-0.045 0.5,-0.043 0.505,-0.036C0.507,-0.032 0.509,-0.026 0.509,-0.016C0.509,-0.007 0.506,-0.001 0.501,0.001C0.498,0.002 0.494,0.002 0.488,0.002C0.474,0.002 0.444,0.002 0.396,0.001L0.354,0.001C0.33,0.001 0.313,0.002 0.303,0.002L0.301,0.002C0.288,0.002 0.281,-0.005 0.281,-0.019C0.281,-0.024 0.282,-0.029 0.285,-0.034C0.288,-0.039 0.291,-0.041 0.295,-0.041L0.301,-0.041C0.321,-0.043 0.335,-0.047 0.342,-0.053C0.349,-0.06 0.354,-0.072 0.356,-0.091C0.36,-0.128 0.362,-0.185 0.362,-0.262C0.362,-0.331 0.34,-0.365 0.296,-0.365C0.267,-0.365 0.229,-0.347 0.181,-0.31L0.181,-0.092C0.181,-0.068 0.184,-0.054 0.19,-0.049C0.196,-0.044 0.211,-0.041 0.235,-0.041C0.243,-0.041 0.248,-0.034 0.249,-0.019C0.249,-0.005 0.243,0.002 0.23,0.003C0.219,0.003 0.201,0.002 0.178,0.002L0.096,0.002C0.072,0.002 0.054,0.002 0.043,0.002L0.04,0.002C0.032,0.002 0.027,-0.001 0.025,-0.006Z" style="fill-rule:nonzero;"/>
            </g>
            <g transform="matrix(33.3333,0,0,33.3333,529.628,305.217)">
                <path d="M0.03,-0.193C0.03,-0.26 0.053,-0.316 0.1,-0.363C0.147,-0.409 0.203,-0.432 0.27,-0.432C0.303,-0.432 0.331,-0.426 0.355,-0.414C0.379,-0.401 0.391,-0.385 0.391,-0.364C0.391,-0.352 0.387,-0.343 0.38,-0.335C0.372,-0.327 0.362,-0.323 0.351,-0.323C0.333,-0.323 0.311,-0.335 0.287,-0.358C0.27,-0.375 0.252,-0.384 0.235,-0.384C0.205,-0.384 0.178,-0.367 0.156,-0.334C0.133,-0.302 0.121,-0.262 0.121,-0.216C0.121,-0.167 0.133,-0.128 0.156,-0.098C0.18,-0.068 0.21,-0.053 0.247,-0.053C0.292,-0.053 0.329,-0.073 0.357,-0.114C0.362,-0.126 0.37,-0.131 0.38,-0.128C0.387,-0.125 0.392,-0.12 0.393,-0.112C0.394,-0.11 0.394,-0.108 0.394,-0.106C0.394,-0.102 0.392,-0.097 0.389,-0.093C0.346,-0.023 0.287,0.012 0.213,0.012C0.16,0.012 0.116,-0.007 0.082,-0.046C0.047,-0.085 0.03,-0.134 0.03,-0.193Z" style="fill-rule:nonzero;"/>
            </g>
            <g transform="matrix(33.3333,0,0,33.3333,544.016,305.217)">
                <path d="M0.025,-0.01C0.024,-0.014 0.023,-0.018 0.023,-0.021C0.023,-0.026 0.024,-0.03 0.026,-0.033C0.028,-0.038 0.03,-0.04 0.032,-0.041C0.034,-0.041 0.039,-0.041 0.046,-0.041C0.069,-0.041 0.084,-0.045 0.09,-0.052C0.096,-0.059 0.099,-0.076 0.099,-0.101L0.099,-0.619C0.099,-0.627 0.095,-0.631 0.088,-0.631L0.04,-0.64C0.034,-0.641 0.03,-0.647 0.03,-0.658C0.029,-0.669 0.033,-0.675 0.04,-0.678C0.087,-0.692 0.129,-0.706 0.167,-0.72L0.168,-0.72C0.173,-0.72 0.177,-0.717 0.181,-0.712C0.185,-0.706 0.187,-0.7 0.187,-0.694L0.187,-0.102C0.187,-0.073 0.189,-0.056 0.193,-0.05C0.197,-0.044 0.209,-0.041 0.23,-0.041C0.245,-0.041 0.253,-0.038 0.254,-0.031L0.254,-0.018C0.254,-0.005 0.249,0.002 0.239,0.002C0.191,0.001 0.15,0.001 0.117,0.001C0.084,0.001 0.059,0.001 0.041,0.002C0.039,0.002 0.036,0.001 0.032,-0.001C0.028,-0.004 0.026,-0.007 0.025,-0.01Z" style="fill-rule:nonzero;"/>
            </g>
            <g transform="matrix(33.3333,0,0,33.3333,553.081,305.217)">
                <path d="M0.032,-0.208C0.032,-0.272 0.054,-0.325 0.097,-0.367C0.14,-0.409 0.194,-0.43 0.258,-0.43C0.322,-0.43 0.376,-0.409 0.42,-0.366C0.465,-0.323 0.487,-0.27 0.487,-0.207C0.486,-0.145 0.464,-0.093 0.421,-0.05C0.377,-0.006 0.324,0.015 0.261,0.015C0.196,0.015 0.142,-0.006 0.098,-0.049C0.054,-0.091 0.032,-0.145 0.032,-0.208ZM0.129,-0.237C0.129,-0.179 0.143,-0.13 0.171,-0.091C0.2,-0.052 0.233,-0.032 0.272,-0.032C0.305,-0.032 0.332,-0.048 0.354,-0.078C0.375,-0.109 0.386,-0.147 0.386,-0.192C0.386,-0.247 0.372,-0.292 0.344,-0.329C0.316,-0.365 0.283,-0.384 0.244,-0.384C0.212,-0.384 0.184,-0.37 0.162,-0.342C0.14,-0.315 0.129,-0.279 0.129,-0.237Z" style="fill-rule:nonzero;"/>
            </g>
            <g transform="matrix(33.3333,0,0,33.3333,570.334,305.217)">
                <path d="M0.031,-0.312C0.031,-0.348 0.044,-0.378 0.07,-0.401C0.097,-0.424 0.13,-0.435 0.169,-0.435C0.194,-0.435 0.223,-0.428 0.255,-0.415C0.257,-0.391 0.257,-0.37 0.257,-0.351C0.257,-0.336 0.257,-0.323 0.256,-0.311C0.256,-0.309 0.254,-0.307 0.25,-0.304C0.246,-0.302 0.242,-0.301 0.238,-0.301C0.227,-0.301 0.222,-0.305 0.22,-0.311C0.216,-0.336 0.207,-0.356 0.195,-0.369C0.183,-0.382 0.169,-0.388 0.153,-0.388C0.139,-0.388 0.128,-0.384 0.119,-0.375C0.11,-0.366 0.106,-0.355 0.106,-0.342C0.106,-0.332 0.11,-0.321 0.119,-0.31C0.128,-0.299 0.136,-0.291 0.144,-0.284C0.152,-0.278 0.164,-0.27 0.18,-0.259C0.197,-0.248 0.206,-0.243 0.208,-0.241C0.261,-0.204 0.288,-0.164 0.288,-0.119C0.288,-0.084 0.275,-0.053 0.248,-0.028C0.221,-0.003 0.19,0.01 0.154,0.01C0.132,0.01 0.112,0.006 0.095,-0.001C0.091,-0.002 0.089,-0.003 0.087,-0.004C0.084,-0.001 0.081,0.003 0.079,0.008C0.069,0.011 0.062,0.012 0.059,0.012L0.058,0.012C0.049,0.011 0.044,0.006 0.044,-0.002C0.04,-0.041 0.037,-0.079 0.035,-0.114C0.035,-0.119 0.037,-0.123 0.042,-0.125C0.048,-0.128 0.055,-0.128 0.062,-0.127C0.067,-0.125 0.07,-0.121 0.072,-0.114C0.084,-0.058 0.111,-0.031 0.151,-0.031C0.167,-0.031 0.18,-0.036 0.19,-0.047C0.201,-0.058 0.206,-0.072 0.206,-0.088C0.206,-0.107 0.197,-0.126 0.178,-0.143C0.16,-0.161 0.14,-0.176 0.118,-0.188C0.097,-0.201 0.077,-0.218 0.058,-0.24C0.04,-0.261 0.031,-0.285 0.031,-0.312Z" style="fill-rule:nonzero;"/>
            </g>
            <g transform="matrix(33.3333,0,0,33.3333,580.799,305.217)">
                <path d="M0.026,-0.202C0.026,-0.267 0.045,-0.321 0.084,-0.364C0.124,-0.408 0.172,-0.429 0.231,-0.429C0.3,-0.429 0.348,-0.399 0.376,-0.34C0.386,-0.318 0.395,-0.303 0.403,-0.293C0.405,-0.287 0.406,-0.282 0.406,-0.277C0.406,-0.266 0.399,-0.26 0.386,-0.26C0.362,-0.259 0.328,-0.258 0.286,-0.258C0.243,-0.258 0.191,-0.259 0.131,-0.26C0.118,-0.26 0.112,-0.249 0.112,-0.227C0.112,-0.178 0.125,-0.137 0.151,-0.105C0.178,-0.074 0.211,-0.058 0.251,-0.058C0.294,-0.058 0.333,-0.078 0.367,-0.119C0.372,-0.126 0.379,-0.128 0.387,-0.125C0.392,-0.124 0.396,-0.12 0.399,-0.114C0.402,-0.107 0.403,-0.102 0.4,-0.097C0.336,-0.023 0.273,0.015 0.212,0.015C0.159,0.015 0.114,-0.006 0.079,-0.048C0.044,-0.09 0.026,-0.141 0.026,-0.202ZM0.125,-0.311C0.125,-0.309 0.126,-0.307 0.127,-0.306C0.13,-0.304 0.132,-0.303 0.135,-0.302C0.138,-0.302 0.14,-0.302 0.142,-0.302L0.277,-0.302C0.28,-0.302 0.284,-0.302 0.288,-0.304C0.291,-0.305 0.293,-0.306 0.293,-0.308L0.293,-0.309C0.279,-0.362 0.251,-0.388 0.21,-0.388C0.153,-0.388 0.125,-0.362 0.125,-0.311Z" style="fill-rule:nonzero;"/>
            </g>
            <g transform="matrix(33.3333,0,0,33.3333,595.187,305.217)">
                <path d="M0.022,-0.193C0.022,-0.26 0.044,-0.317 0.087,-0.363C0.13,-0.409 0.184,-0.432 0.248,-0.432C0.27,-0.432 0.295,-0.428 0.323,-0.419C0.325,-0.419 0.326,-0.419 0.327,-0.418C0.328,-0.418 0.329,-0.419 0.33,-0.42C0.331,-0.422 0.331,-0.423 0.332,-0.424C0.333,-0.424 0.333,-0.426 0.333,-0.428C0.334,-0.431 0.334,-0.432 0.334,-0.433C0.334,-0.434 0.334,-0.435 0.334,-0.438C0.335,-0.44 0.335,-0.441 0.335,-0.442L0.335,-0.632C0.333,-0.639 0.331,-0.643 0.33,-0.644C0.327,-0.646 0.322,-0.647 0.315,-0.648C0.308,-0.649 0.3,-0.65 0.292,-0.65C0.283,-0.651 0.278,-0.651 0.275,-0.652C0.267,-0.653 0.263,-0.659 0.262,-0.67C0.261,-0.682 0.265,-0.689 0.276,-0.691C0.323,-0.706 0.364,-0.721 0.399,-0.734C0.402,-0.735 0.405,-0.736 0.408,-0.736C0.412,-0.736 0.415,-0.734 0.417,-0.731C0.421,-0.727 0.423,-0.72 0.423,-0.711L0.423,-0.121C0.423,-0.098 0.424,-0.083 0.427,-0.078C0.429,-0.073 0.435,-0.071 0.444,-0.071C0.451,-0.071 0.461,-0.074 0.473,-0.08C0.479,-0.082 0.484,-0.082 0.488,-0.081C0.492,-0.08 0.495,-0.075 0.498,-0.068C0.499,-0.063 0.5,-0.058 0.5,-0.054C0.5,-0.047 0.497,-0.042 0.492,-0.039C0.453,-0.021 0.41,-0.004 0.363,0.01C0.351,0.013 0.344,0.01 0.339,0.002C0.335,-0.007 0.333,-0.016 0.334,-0.026C0.334,-0.03 0.334,-0.034 0.333,-0.037C0.332,-0.04 0.331,-0.042 0.33,-0.043C0.329,-0.044 0.327,-0.044 0.326,-0.043C0.271,-0.004 0.226,0.015 0.192,0.015C0.145,0.015 0.105,-0.005 0.072,-0.046C0.038,-0.087 0.022,-0.136 0.022,-0.193ZM0.113,-0.224C0.113,-0.174 0.124,-0.133 0.146,-0.102C0.168,-0.071 0.195,-0.055 0.228,-0.055C0.255,-0.055 0.288,-0.069 0.327,-0.095C0.33,-0.095 0.333,-0.101 0.334,-0.113L0.334,-0.31C0.302,-0.357 0.266,-0.38 0.227,-0.38C0.193,-0.38 0.166,-0.366 0.145,-0.337C0.123,-0.309 0.113,-0.271 0.113,-0.224Z" style="fill-rule:nonzero;"/>
            </g>
            <g transform="matrix(33.3333,0,0,33.3333,497.808,338.551)">
                <path d="M0.021,-0.39C0.023,-0.393 0.027,-0.396 0.032,-0.399C0.068,-0.418 0.096,-0.458 0.117,-0.52C0.118,-0.528 0.125,-0.531 0.137,-0.532L0.138,-0.532C0.149,-0.532 0.154,-0.527 0.154,-0.518C0.153,-0.497 0.152,-0.479 0.152,-0.465C0.152,-0.45 0.153,-0.44 0.154,-0.433C0.154,-0.43 0.158,-0.427 0.166,-0.425L0.265,-0.425C0.277,-0.425 0.282,-0.42 0.282,-0.412C0.282,-0.409 0.282,-0.406 0.281,-0.403C0.279,-0.393 0.277,-0.382 0.272,-0.369C0.268,-0.362 0.261,-0.358 0.252,-0.359L0.163,-0.36C0.159,-0.361 0.156,-0.359 0.154,-0.353L0.154,-0.181C0.154,-0.131 0.158,-0.098 0.165,-0.082C0.173,-0.065 0.187,-0.057 0.208,-0.057C0.227,-0.057 0.244,-0.073 0.261,-0.105C0.264,-0.111 0.269,-0.113 0.276,-0.113C0.283,-0.112 0.288,-0.11 0.292,-0.106C0.294,-0.104 0.295,-0.1 0.295,-0.094C0.295,-0.087 0.295,-0.083 0.294,-0.082C0.266,-0.02 0.227,0.011 0.176,0.011C0.144,0.011 0.118,-0.001 0.098,-0.025C0.078,-0.049 0.068,-0.08 0.068,-0.117L0.068,-0.353C0.068,-0.356 0.065,-0.358 0.058,-0.359C0.054,-0.36 0.048,-0.36 0.042,-0.361C0.035,-0.361 0.03,-0.362 0.026,-0.362C0.022,-0.369 0.02,-0.375 0.02,-0.381C0.02,-0.385 0.02,-0.388 0.021,-0.39Z" style="fill-rule:nonzero;"/>
            </g>
            <g transform="matrix(33.3333,0,0,33.3333,508.436,338.551)">
                <path d="M0.026,-0.202C0.026,-0.267 0.045,-0.321 0.084,-0.364C0.124,-0.408 0.172,-0.429 0.231,-0.429C0.3,-0.429 0.348,-0.399 0.376,-0.34C0.386,-0.318 0.395,-0.303 0.403,-0.293C0.405,-0.287 0.406,-0.282 0.406,-0.277C0.406,-0.266 0.399,-0.26 0.386,-0.26C0.362,-0.259 0.328,-0.258 0.286,-0.258C0.243,-0.258 0.191,-0.259 0.131,-0.26C0.118,-0.26 0.112,-0.249 0.112,-0.227C0.112,-0.178 0.125,-0.137 0.151,-0.105C0.178,-0.074 0.211,-0.058 0.251,-0.058C0.294,-0.058 0.333,-0.078 0.367,-0.119C0.372,-0.126 0.379,-0.128 0.387,-0.125C0.392,-0.124 0.396,-0.12 0.399,-0.114C0.402,-0.107 0.403,-0.102 0.4,-0.097C0.336,-0.023 0.273,0.015 0.212,0.015C0.159,0.015 0.114,-0.006 0.079,-0.048C0.044,-0.09 0.026,-0.141 0.026,-0.202ZM0.125,-0.311C0.125,-0.309 0.126,-0.307 0.127,-0.306C0.13,-0.304 0.132,-0.303 0.135,-0.302C0.138,-0.302 0.14,-0.302 0.142,-0.302L0.277,-0.302C0.28,-0.302 0.284,-0.302 0.288,-0.304C0.291,-0.305 0.293,-0.306 0.293,-0.308L0.293,-0.309C0.279,-0.362 0.251,-0.388 0.21,-0.388C0.153,-0.388 0.125,-0.362 0.125,-0.311Z" style="fill-rule:nonzero;"/>
            </g>
            <g transform="matrix(33.3333,0,0,33.3333,522.824,338.551)">
                <path d="M0.031,-0.312C0.031,-0.348 0.044,-0.378 0.07,-0.401C0.097,-0.424 0.13,-0.435 0.169,-0.435C0.194,-0.435 0.223,-0.428 0.255,-0.415C0.257,-0.391 0.257,-0.37 0.257,-0.351C0.257,-0.336 0.257,-0.323 0.256,-0.311C0.256,-0.309 0.254,-0.307 0.25,-0.304C0.246,-0.302 0.242,-0.301 0.238,-0.301C0.227,-0.301 0.222,-0.305 0.22,-0.311C0.216,-0.336 0.207,-0.356 0.195,-0.369C0.183,-0.382 0.169,-0.388 0.153,-0.388C0.139,-0.388 0.128,-0.384 0.119,-0.375C0.11,-0.366 0.106,-0.355 0.106,-0.342C0.106,-0.332 0.11,-0.321 0.119,-0.31C0.128,-0.299 0.136,-0.291 0.144,-0.284C0.152,-0.278 0.164,-0.27 0.18,-0.259C0.197,-0.248 0.206,-0.243 0.208,-0.241C0.261,-0.204 0.288,-0.164 0.288,-0.119C0.288,-0.084 0.275,-0.053 0.248,-0.028C0.221,-0.003 0.19,0.01 0.154,0.01C0.132,0.01 0.112,0.006 0.095,-0.001C0.091,-0.002 0.089,-0.003 0.087,-0.004C0.084,-0.001 0.081,0.003 0.079,0.008C0.069,0.011 0.062,0.012 0.059,0.012L0.058,0.012C0.049,0.011 0.044,0.006 0.044,-0.002C0.04,-0.041 0.037,-0.079 0.035,-0.114C0.035,-0.119 0.037,-0.123 0.042,-0.125C0.048,-0.128 0.055,-0.128 0.062,-0.127C0.067,-0.125 0.07,-0.121 0.072,-0.114C0.084,-0.058 0.111,-0.031 0.151,-0.031C0.167,-0.031 0.18,-0.036 0.19,-0.047C0.201,-0.058 0.206,-0.072 0.206,-0.088C0.206,-0.107 0.197,-0.126 0.178,-0.143C0.16,-0.161 0.14,-0.176 0.118,-0.188C0.097,-0.201 0.077,-0.218 0.058,-0.24C0.04,-0.261 0.031,-0.285 0.031,-0.312Z" style="fill-rule:nonzero;"/>
            </g>
            <g transform="matrix(33.3333,0,0,33.3333,533.29,338.551)">
                <path d="M0.031,-0.312C0.031,-0.348 0.044,-0.378 0.07,-0.401C0.097,-0.424 0.13,-0.435 0.169,-0.435C0.194,-0.435 0.223,-0.428 0.255,-0.415C0.257,-0.391 0.257,-0.37 0.257,-0.351C0.257,-0.336 0.257,-0.323 0.256,-0.311C0.256,-0.309 0.254,-0.307 0.25,-0.304C0.246,-0.302 0.242,-0.301 0.238,-0.301C0.227,-0.301 0.222,-0.305 0.22,-0.311C0.216,-0.336 0.207,-0.356 0.195,-0.369C0.183,-0.382 0.169,-0.388 0.153,-0.388C0.139,-0.388 0.128,-0.384 0.119,-0.375C0.11,-0.366 0.106,-0.355 0.106,-0.342C0.106,-0.332 0.11,-0.321 0.119,-0.31C0.128,-0.299 0.136,-0.291 0.144,-0.284C0.152,-0.278 0.164,-0.27 0.18,-0.259C0.197,-0.248 0.206,-0.243 0.208,-0.241C0.261,-0.204 0.288,-0.164 0.288,-0.119C0.288,-0.084 0.275,-0.053 0.248,-0.028C0.221,-0.003 0.19,0.01 0.154,0.01C0.132,0.01 0.112,0.006 0.095,-0.001C0.091,-0.002 0.089,-0.003 0.087,-0.004C0.084,-0.001 0.081,0.003 0.079,0.008C0.069,0.011 0.062,0.012 0.059,0.012L0.058,0.012C0.049,0.011 0.044,0.006 0.044,-0.002C0.04,-0.041 0.037,-0.079 0.035,-0.114C0.035,-0.119 0.037,-0.123 0.042,-0.125C0.048,-0.128 0.055,-0.128 0.062,-0.127C0.067,-0.125 0.07,-0.121 0.072,-0.114C0.084,-0.058 0.111,-0.031 0.151,-0.031C0.167,-0.031 0.18,-0.036 0.19,-0.047C0.201,-0.058 0.206,-0.072 0.206,-0.088C0.206,-0.107 0.197,-0.126 0.178,-0.143C0.16,-0.161 0.14,-0.176 0.118,-0.188C0.097,-0.201 0.077,-0.218 0.058,-0.24C0.04,-0.261 0.031,-0.285 0.031,-0.312Z" style="fill-rule:nonzero;"/>
            </g>
            <g transform="matrix(33.3333,0,0,33.3333,543.755,338.551)">
                <path d="M0.026,-0.202C0.026,-0.267 0.045,-0.321 0.084,-0.364C0.124,-0.408 0.172,-0.429 0.231,-0.429C0.3,-0.429 0.348,-0.399 0.376,-0.34C0.386,-0.318 0.395,-0.303 0.403,-0.293C0.405,-0.287 0.406,-0.282 0.406,-0.277C0.406,-0.266 0.399,-0.26 0.386,-0.26C0.362,-0.259 0.328,-0.258 0.286,-0.258C0.243,-0.258 0.191,-0.259 0.131,-0.26C0.118,-0.26 0.112,-0.249 0.112,-0.227C0.112,-0.178 0.125,-0.137 0.151,-0.105C0.178,-0.074 0.211,-0.058 0.251,-0.058C0.294,-0.058 0.333,-0.078 0.367,-0.119C0.372,-0.126 0.379,-0.128 0.387,-0.125C0.392,-0.124 0.396,-0.12 0.399,-0.114C0.402,-0.107 0.403,-0.102 0.4,-0.097C0.336,-0.023 0.273,0.015 0.212,0.015C0.159,0.015 0.114,-0.006 0.079,-0.048C0.044,-0.09 0.026,-0.141 0.026,-0.202ZM0.125,-0.311C0.125,-0.309 0.126,-0.307 0.127,-0.306C0.13,-0.304 0.132,-0.303 0.135,-0.302C0.138,-0.302 0.14,-0.302 0.142,-0.302L0.277,-0.302C0.28,-0.302 0.284,-0.302 0.288,-0.304C0.291,-0.305 0.293,-0.306 0.293,-0.308L0.293,-0.309C0.279,-0.362 0.251,-0.388 0.21,-0.388C0.153,-0.388 0.125,-0.362 0.125,-0.311Z" style="fill-rule:nonzero;"/>
            </g>
            <g transform="matrix(33.3333,0,0,33.3333,558.143,338.551)">
                <path d="M0.025,-0.01C0.024,-0.014 0.023,-0.018 0.023,-0.021C0.023,-0.026 0.024,-0.03 0.026,-0.033C0.028,-0.038 0.03,-0.04 0.032,-0.041C0.034,-0.041 0.039,-0.041 0.046,-0.041C0.069,-0.041 0.084,-0.045 0.09,-0.052C0.096,-0.059 0.099,-0.076 0.099,-0.101L0.099,-0.619C0.099,-0.627 0.095,-0.631 0.088,-0.631L0.04,-0.64C0.034,-0.641 0.03,-0.647 0.03,-0.658C0.029,-0.669 0.033,-0.675 0.04,-0.678C0.087,-0.692 0.129,-0.706 0.167,-0.72L0.168,-0.72C0.173,-0.72 0.177,-0.717 0.181,-0.712C0.185,-0.706 0.187,-0.7 0.187,-0.694L0.187,-0.102C0.187,-0.073 0.189,-0.056 0.193,-0.05C0.197,-0.044 0.209,-0.041 0.23,-0.041C0.245,-0.041 0.253,-0.038 0.254,-0.031L0.254,-0.018C0.254,-0.005 0.249,0.002 0.239,0.002C0.191,0.001 0.15,0.001 0.117,0.001C0.084,0.001 0.059,0.001 0.041,0.002C0.039,0.002 0.036,0.001 0.032,-0.001C0.028,-0.004 0.026,-0.007 0.025,-0.01Z" style="fill-rule:nonzero;"/>
            </g>
            <g transform="matrix(33.3333,0,0,33.3333,567.209,338.551)">
                <path d="M0.025,-0.01C0.024,-0.014 0.023,-0.018 0.023,-0.021C0.023,-0.026 0.024,-0.03 0.026,-0.033C0.028,-0.038 0.03,-0.04 0.032,-0.041C0.034,-0.041 0.039,-0.041 0.046,-0.041C0.069,-0.041 0.084,-0.045 0.09,-0.052C0.096,-0.059 0.099,-0.076 0.099,-0.101L0.099,-0.619C0.099,-0.627 0.095,-0.631 0.088,-0.631L0.04,-0.64C0.034,-0.641 0.03,-0.647 0.03,-0.658C0.029,-0.669 0.033,-0.675 0.04,-0.678C0.087,-0.692 0.129,-0.706 0.167,-0.72L0.168,-0.72C0.173,-0.72 0.177,-0.717 0.181,-0.712C0.185,-0.706 0.187,-0.7 0.187,-0.694L0.187,-0.102C0.187,-0.073 0.189,-0.056 0.193,-0.05C0.197,-0.044 0.209,-0.041 0.23,-0.041C0.245,-0.041 0.253,-0.038 0.254,-0.031L0.254,-0.018C0.254,-0.005 0.249,0.002 0.239,0.002C0.191,0.001 0.15,0.001 0.117,0.001C0.084,0.001 0.059,0.001 0.041,0.002C0.039,0.002 0.036,0.001 0.032,-0.001C0.028,-0.004 0.026,-0.007 0.025,-0.01Z" style="fill-rule:nonzero;"/>
            </g>
            <g transform="matrix(33.3333,0,0,33.3333,576.275,338.551)">
                <path d="M0.025,-0.081C0.025,-0.132 0.061,-0.167 0.132,-0.186C0.152,-0.191 0.182,-0.203 0.222,-0.221C0.227,-0.226 0.23,-0.231 0.23,-0.234L0.229,-0.297C0.228,-0.352 0.208,-0.379 0.169,-0.379C0.159,-0.379 0.148,-0.375 0.136,-0.366C0.125,-0.358 0.119,-0.35 0.119,-0.341C0.119,-0.33 0.12,-0.322 0.123,-0.316C0.119,-0.311 0.109,-0.305 0.093,-0.297C0.076,-0.289 0.065,-0.285 0.06,-0.283C0.051,-0.28 0.043,-0.28 0.038,-0.282C0.033,-0.285 0.031,-0.292 0.031,-0.303C0.031,-0.327 0.052,-0.356 0.094,-0.39C0.129,-0.417 0.16,-0.431 0.189,-0.431C0.21,-0.431 0.232,-0.426 0.253,-0.415C0.274,-0.404 0.29,-0.39 0.302,-0.373C0.31,-0.362 0.315,-0.351 0.316,-0.341C0.318,-0.331 0.319,-0.31 0.319,-0.279L0.319,-0.102C0.319,-0.089 0.32,-0.079 0.322,-0.072C0.323,-0.065 0.325,-0.062 0.327,-0.061C0.329,-0.06 0.332,-0.059 0.335,-0.059C0.348,-0.059 0.36,-0.065 0.373,-0.076C0.378,-0.079 0.382,-0.08 0.385,-0.08C0.391,-0.079 0.396,-0.074 0.397,-0.066C0.398,-0.063 0.399,-0.061 0.399,-0.058C0.399,-0.054 0.398,-0.05 0.396,-0.047C0.351,-0.007 0.316,0.012 0.289,0.012C0.261,0.012 0.243,-0.003 0.235,-0.034C0.234,-0.038 0.232,-0.038 0.227,-0.035C0.204,-0.017 0.186,-0.005 0.172,0.002C0.159,0.009 0.143,0.012 0.125,0.012C0.096,0.012 0.072,0.003 0.053,-0.014C0.034,-0.031 0.025,-0.054 0.025,-0.081ZM0.16,-0.148C0.127,-0.135 0.11,-0.117 0.11,-0.094C0.11,-0.081 0.115,-0.069 0.124,-0.06C0.133,-0.051 0.145,-0.046 0.159,-0.046C0.169,-0.046 0.182,-0.051 0.198,-0.063C0.215,-0.074 0.225,-0.084 0.229,-0.093L0.229,-0.16C0.229,-0.165 0.228,-0.169 0.227,-0.172C0.225,-0.174 0.224,-0.176 0.222,-0.176L0.221,-0.176C0.204,-0.167 0.184,-0.158 0.16,-0.148Z" style="fill-rule:nonzero;"/>
            </g>
            <g transform="matrix(33.3333,0,0,33.3333,590.061,338.551)">
                <path d="M0.021,-0.39C0.023,-0.393 0.027,-0.396 0.032,-0.399C0.068,-0.418 0.096,-0.458 0.117,-0.52C0.118,-0.528 0.125,-0.531 0.137,-0.532L0.138,-0.532C0.149,-0.532 0.154,-0.527 0.154,-0.518C0.153,-0.497 0.152,-0.479 0.152,-0.465C0.152,-0.45 0.153,-0.44 0.154,-0.433C0.154,-0.43 0.158,-0.427 0.166,-0.425L0.265,-0.425C0.277,-0.425 0.282,-0.42 0.282,-0.412C0.282,-0.409 0.282,-0.406 0.281,-0.403C0.279,-0.393 0.277,-0.382 0.272,-0.369C0.268,-0.362 0.261,-0.358 0.252,-0.359L0.163,-0.36C0.159,-0.361 0.156,-0.359 0.154,-0.353L0.154,-0.181C0.154,-0.131 0.158,-0.098 0.165,-0.082C0.173,-0.065 0.187,-0.057 0.208,-0.057C0.227,-0.057 0.244,-0.073 0.261,-0.105C0.264,-0.111 0.269,-0.113 0.276,-0.113C0.283,-0.112 0.288,-0.11 0.292,-0.106C0.294,-0.104 0.295,-0.1 0.295,-0.094C0.295,-0.087 0.295,-0.083 0.294,-0.082C0.266,-0.02 0.227,0.011 0.176,0.011C0.144,0.011 0.118,-0.001 0.098,-0.025C0.078,-0.049 0.068,-0.08 0.068,-0.117L0.068,-0.353C0.068,-0.356 0.065,-0.358 0.058,-0.359C0.054,-0.36 0.048,-0.36 0.042,-0.361C0.035,-0.361 0.03,-0.362 0.026,-0.362C0.022,-0.369 0.02,-0.375 0.02,-0.381C0.02,-0.385 0.02,-0.388 0.021,-0.39Z" style="fill-rule:nonzero;"/>
            </g>
            <g transform="matrix(33.3333,0,0,33.3333,600.689,338.551)">
                <path d="M0.02,-0.017L0.02,-0.022C0.02,-0.035 0.024,-0.041 0.032,-0.041L0.065,-0.044C0.069,-0.045 0.073,-0.046 0.076,-0.048C0.08,-0.051 0.082,-0.052 0.084,-0.052C0.087,-0.053 0.088,-0.055 0.089,-0.059C0.09,-0.063 0.091,-0.065 0.093,-0.066C0.094,-0.067 0.094,-0.071 0.095,-0.077C0.095,-0.084 0.095,-0.088 0.095,-0.091L0.095,-0.304C0.095,-0.328 0.094,-0.342 0.092,-0.346C0.09,-0.349 0.085,-0.351 0.074,-0.353C0.073,-0.353 0.06,-0.357 0.035,-0.364C0.029,-0.366 0.026,-0.371 0.026,-0.38C0.026,-0.389 0.028,-0.396 0.033,-0.399C0.076,-0.415 0.115,-0.429 0.151,-0.441C0.155,-0.442 0.159,-0.443 0.162,-0.443C0.175,-0.443 0.182,-0.433 0.182,-0.412L0.182,-0.128C0.182,-0.103 0.182,-0.086 0.183,-0.077C0.184,-0.061 0.186,-0.052 0.19,-0.049C0.194,-0.045 0.205,-0.044 0.224,-0.044L0.228,-0.044C0.239,-0.044 0.245,-0.039 0.247,-0.028L0.247,-0.01C0.247,-0.001 0.242,0.003 0.232,0.003C0.231,0.003 0.229,0.003 0.227,0.003C0.212,0.002 0.188,0.001 0.156,0.001C0.124,0.001 0.083,0.002 0.034,0.003C0.032,0.003 0.029,0.001 0.026,-0.003C0.023,-0.008 0.021,-0.012 0.02,-0.017ZM0.085,-0.568C0.075,-0.579 0.07,-0.592 0.07,-0.608C0.07,-0.624 0.075,-0.637 0.086,-0.648C0.097,-0.66 0.111,-0.665 0.126,-0.665C0.143,-0.665 0.156,-0.66 0.167,-0.648C0.179,-0.637 0.184,-0.624 0.184,-0.607C0.184,-0.591 0.178,-0.578 0.167,-0.568C0.156,-0.558 0.142,-0.553 0.125,-0.553C0.109,-0.553 0.096,-0.558 0.085,-0.568Z" style="fill-rule:nonzero;"/>
            </g>
            <g transform="matrix(33.3333,0,0,33.3333,609.543,338.551)">
                <path d="M0.032,-0.208C0.032,-0.272 0.054,-0.325 0.097,-0.367C0.14,-0.409 0.194,-0.43 0.258,-0.43C0.322,-0.43 0.376,-0.409 0.42,-0.366C0.465,-0.323 0.487,-0.27 0.487,-0.207C0.486,-0.145 0.464,-0.093 0.421,-0.05C0.377,-0.006 0.324,0.015 0.261,0.015C0.196,0.015 0.142,-0.006 0.098,-0.049C0.054,-0.091 0.032,-0.145 0.032,-0.208ZM0.129,-0.237C0.129,-0.179 0.143,-0.13 0.171,-0.091C0.2,-0.052 0.233,-0.032 0.272,-0.032C0.305,-0.032 0.332,-0.048 0.354,-0.078C0.375,-0.109 0.386,-0.147 0.386,-0.192C0.386,-0.247 0.372,-0.292 0.344,-0.329C0.316,-0.365 0.283,-0.384 0.244,-0.384C0.212,-0.384 0.184,-0.37 0.162,-0.342C0.14,-0.315 0.129,-0.279 0.129,-0.237Z" style="fill-rule:nonzero;"/>
            </g>
            <g transform="matrix(33.3333,0,0,33.3333,626.796,338.551)">
                <path d="M0.025,-0.006C0.024,-0.009 0.023,-0.012 0.023,-0.015C0.023,-0.019 0.024,-0.023 0.025,-0.027C0.028,-0.035 0.032,-0.039 0.038,-0.039L0.043,-0.039C0.064,-0.039 0.078,-0.045 0.085,-0.055C0.091,-0.066 0.094,-0.093 0.094,-0.135L0.094,-0.269C0.094,-0.314 0.093,-0.339 0.09,-0.346C0.089,-0.35 0.077,-0.354 0.056,-0.358L0.036,-0.362C0.03,-0.363 0.027,-0.369 0.027,-0.38C0.028,-0.391 0.031,-0.397 0.036,-0.399C0.05,-0.403 0.079,-0.414 0.122,-0.431C0.135,-0.436 0.145,-0.44 0.152,-0.441C0.155,-0.442 0.158,-0.442 0.16,-0.442C0.166,-0.442 0.171,-0.44 0.174,-0.438C0.179,-0.433 0.181,-0.427 0.181,-0.419L0.181,-0.376C0.181,-0.375 0.182,-0.373 0.183,-0.37C0.184,-0.368 0.185,-0.365 0.186,-0.364C0.187,-0.362 0.188,-0.361 0.189,-0.362C0.252,-0.406 0.301,-0.428 0.336,-0.428C0.412,-0.428 0.45,-0.368 0.45,-0.247C0.45,-0.228 0.449,-0.199 0.446,-0.16C0.443,-0.121 0.442,-0.091 0.442,-0.071C0.442,-0.058 0.444,-0.05 0.449,-0.046C0.454,-0.043 0.465,-0.041 0.484,-0.041C0.493,-0.045 0.5,-0.043 0.505,-0.036C0.507,-0.032 0.509,-0.026 0.509,-0.016C0.509,-0.007 0.506,-0.001 0.501,0.001C0.498,0.002 0.494,0.002 0.488,0.002C0.474,0.002 0.444,0.002 0.396,0.001L0.354,0.001C0.33,0.001 0.313,0.002 0.303,0.002L0.301,0.002C0.288,0.002 0.281,-0.005 0.281,-0.019C0.281,-0.024 0.282,-0.029 0.285,-0.034C0.288,-0.039 0.291,-0.041 0.295,-0.041L0.301,-0.041C0.321,-0.043 0.335,-0.047 0.342,-0.053C0.349,-0.06 0.354,-0.072 0.356,-0.091C0.36,-0.128 0.362,-0.185 0.362,-0.262C0.362,-0.331 0.34,-0.365 0.296,-0.365C0.267,-0.365 0.229,-0.347 0.181,-0.31L0.181,-0.092C0.181,-0.068 0.184,-0.054 0.19,-0.049C0.196,-0.044 0.211,-0.041 0.235,-0.041C0.243,-0.041 0.248,-0.034 0.249,-0.019C0.249,-0.005 0.243,0.002 0.23,0.003C0.219,0.003 0.201,0.002 0.178,0.002L0.096,0.002C0.072,0.002 0.054,0.002 0.043,0.002L0.04,0.002C0.032,0.002 0.027,-0.001 0.025,-0.006Z" style="fill-rule:nonzero;"/>
            </g>
        </g>
        <path d="M211.376,702.058L352.833,702.058" style="fill:none;stroke:#000;stroke-width:2.29px;stroke-dasharray:6.88,6.88,0,0;"/>
        <path d="M61.756,255.647C61.778,255.386 61.832,255.224 61.919,255.159C62.743,254.985 63.432,254.741 63.986,254.426C64.159,254.339 64.252,254.139 64.263,253.824C64.284,253.694 64.301,253.501 64.311,253.246C64.322,252.991 64.328,252.799 64.328,252.668C64.393,251.312 64.585,250.205 64.905,249.348C65.226,248.491 65.82,247.596 66.688,246.662C68.283,244.861 70.03,243.961 71.929,243.961C72.547,243.961 73.228,244.099 73.971,244.376C74.714,244.652 75.254,245.035 75.591,245.523C75.677,245.632 75.721,245.789 75.721,245.995C75.721,246.169 75.498,246.657 75.054,247.46C74.902,247.731 74.725,247.883 74.525,247.916C74.324,247.948 74.15,247.927 74.004,247.851C73.857,247.775 73.676,247.644 73.459,247.46C72.439,246.635 71.435,246.223 70.447,246.223C69.829,246.223 69.27,246.407 68.771,246.776C68.272,247.145 67.914,247.639 67.697,248.258C67.404,249.115 67.257,250.108 67.257,251.236L67.257,251.464L67.29,253.596C67.29,253.998 67.409,254.198 67.648,254.198L69.927,254.198C70.057,254.198 70.16,254.209 70.236,254.231C70.312,254.253 70.361,254.274 70.382,254.296C70.404,254.318 70.434,254.361 70.472,254.426C70.51,254.491 70.529,254.535 70.529,254.556L70.789,256.168C70.724,256.461 70.534,256.602 70.22,256.591L67.518,256.558C67.366,256.558 67.29,256.759 67.29,257.161L67.29,263.834C67.29,265.233 67.377,266.053 67.55,266.291C67.8,266.584 68.38,266.731 69.292,266.731L70.382,266.731C70.697,266.753 70.898,267.04 70.985,267.593C70.985,267.767 70.93,267.927 70.822,268.074C70.713,268.22 70.605,268.293 70.496,268.293C68.847,268.239 67.344,268.212 65.988,268.212C64.631,268.212 63.411,268.239 62.326,268.293C62.033,268.293 61.886,268.06 61.886,267.593C61.886,267.376 61.908,267.235 61.951,267.17C62.06,266.953 62.315,266.839 62.716,266.828C63.4,266.828 63.829,266.644 64.002,266.275C64.176,265.906 64.263,265.049 64.263,263.703L64.263,257.193C64.263,256.77 64.181,256.537 64.018,256.493L62.326,256.493C62.033,256.493 61.854,256.417 61.789,256.265C61.756,256.168 61.74,256.043 61.74,255.891C61.74,255.815 61.745,255.734 61.756,255.647Z" style="fill-rule:nonzero;"/>
        <path d="M72.433,255.028C72.422,254.963 72.417,254.904 72.417,254.849C72.417,254.621 72.536,254.47 72.775,254.394C72.97,254.35 73.602,254.19 74.671,253.913C75.74,253.637 76.497,253.455 76.942,253.368C77.159,253.325 77.335,253.39 77.471,253.564C77.606,253.737 77.674,253.938 77.674,254.166L77.674,262.027C77.674,263.741 77.853,264.875 78.211,265.429C78.569,265.982 79.258,266.259 80.278,266.259C81.168,266.259 82.313,265.716 83.712,264.631C83.799,264.414 83.843,264.246 83.843,264.127L83.843,257.665C83.843,257.557 83.837,257.397 83.826,257.185C83.816,256.973 83.788,256.805 83.745,256.68C83.702,256.556 83.647,256.423 83.582,256.282C83.517,256.141 83.428,256.024 83.314,255.932C83.2,255.839 83.067,255.782 82.915,255.761C82.6,255.717 82.356,255.674 82.182,255.631C82.161,255.631 81.792,255.576 81.076,255.468C80.88,255.359 80.794,255.148 80.815,254.833C80.837,254.518 80.962,254.328 81.19,254.263C83.544,253.732 85.118,253.422 85.91,253.336L86.04,253.336C86.528,253.336 86.778,253.569 86.789,254.036L86.789,265.461C86.789,265.841 86.916,266.053 87.171,266.096C87.426,266.139 87.684,266.107 87.944,265.998L88.644,265.803C88.839,265.781 88.98,265.874 89.067,266.08C89.121,266.21 89.154,266.346 89.165,266.487C89.165,266.584 89.154,266.677 89.132,266.763C89.078,267.002 88.948,267.149 88.742,267.203C87.537,267.735 86.306,268.131 85.047,268.391C84.873,268.434 84.722,268.456 84.591,268.456C84.136,268.456 83.897,268.223 83.875,267.756L83.826,267.097C83.816,266.918 83.799,266.774 83.778,266.666C83.756,266.329 83.647,266.237 83.452,266.389C82.834,266.834 82.324,267.184 81.922,267.439C81.521,267.694 81.008,267.938 80.384,268.171C79.76,268.405 79.15,268.521 78.553,268.521C77.24,268.521 76.266,268.112 75.631,267.292C74.997,266.473 74.679,265.331 74.679,263.866L74.679,256.965C74.679,256.629 74.641,256.396 74.565,256.265C74.489,256.135 74.327,256.021 74.077,255.924C73.947,255.88 73.738,255.82 73.45,255.744C73.163,255.669 72.938,255.609 72.775,255.565C72.623,255.544 72.509,255.365 72.433,255.028Z" style="fill-rule:nonzero;"/>
        <path d="M90.402,268C90.369,267.903 90.353,267.8 90.353,267.691C90.353,267.561 90.375,267.425 90.418,267.284C90.494,267.024 90.635,266.894 90.841,266.894L91.004,266.894C91.72,266.894 92.184,266.712 92.396,266.348C92.607,265.985 92.713,265.103 92.713,263.703L92.713,259.228C92.713,257.741 92.664,256.884 92.567,256.656C92.523,256.526 92.149,256.396 91.444,256.265L90.776,256.135C90.559,256.092 90.459,255.891 90.475,255.533C90.491,255.175 90.592,254.963 90.776,254.898C91.243,254.746 92.198,254.388 93.641,253.824C94.086,253.65 94.417,253.542 94.634,253.498C94.731,253.477 94.824,253.466 94.91,253.466C95.106,253.466 95.258,253.515 95.366,253.612C95.54,253.753 95.621,253.96 95.61,254.231L95.61,255.663C95.61,255.707 95.626,255.772 95.659,255.858C95.692,255.945 95.73,256.018 95.773,256.078C95.816,256.138 95.849,256.157 95.871,256.135C97.965,254.67 99.598,253.932 100.77,253.922C103.298,253.922 104.567,255.934 104.578,259.96C104.578,260.6 104.532,261.571 104.44,262.873C104.348,264.175 104.302,265.163 104.302,265.836C104.302,266.259 104.38,266.53 104.538,266.649C104.695,266.769 105.083,266.828 105.701,266.828C105.994,266.698 106.228,266.753 106.401,266.991C106.488,267.121 106.531,267.344 106.531,267.659C106.531,267.973 106.445,268.163 106.271,268.228C106.184,268.25 106.038,268.261 105.832,268.261C105.387,268.261 104.372,268.255 102.788,268.244L101.388,268.244C100.574,268.244 100.005,268.25 99.679,268.261L99.614,268.261C99.18,268.261 98.952,268.027 98.931,267.561C98.931,267.387 98.977,267.222 99.069,267.064C99.161,266.907 99.272,266.828 99.403,266.828L99.598,266.828C100.281,266.763 100.743,266.625 100.981,266.413C101.22,266.202 101.372,265.787 101.437,265.168C101.567,263.92 101.632,262.016 101.632,259.455C101.632,257.166 100.9,256.021 99.435,256.021C98.48,256.021 97.205,256.634 95.61,257.86L95.61,265.136C95.61,265.917 95.711,266.394 95.911,266.568C96.112,266.742 96.608,266.828 97.401,266.828C97.672,266.828 97.829,267.073 97.873,267.561C97.873,268.027 97.661,268.272 97.238,268.293C96.869,268.282 96.288,268.277 95.496,268.277L92.778,268.277C91.975,268.277 91.384,268.272 91.004,268.261L90.906,268.261C90.635,268.261 90.467,268.174 90.402,268Z" style="fill-rule:nonzero;"/>
        <path d="M107.996,261.767C107.996,259.542 108.775,257.657 110.332,256.111C111.889,254.564 113.78,253.791 116.004,253.791C117.089,253.791 118.033,253.998 118.836,254.41C119.639,254.822 120.041,255.376 120.041,256.07C120.041,256.45 119.913,256.77 119.658,257.03C119.403,257.291 119.086,257.421 118.706,257.421C118.087,257.421 117.377,257.036 116.574,256.265C115.999,255.69 115.418,255.403 114.832,255.403C113.834,255.403 112.952,255.951 112.187,257.047C111.422,258.143 111.04,259.461 111.04,261.002C111.04,262.629 111.433,263.939 112.22,264.932C113.007,265.925 114.013,266.422 115.239,266.422C116.747,266.422 117.968,265.749 118.901,264.403C119.075,264.002 119.33,263.845 119.666,263.931C119.916,264.018 120.062,264.197 120.106,264.468C120.127,264.534 120.138,264.593 120.138,264.647C120.138,264.799 120.084,264.951 119.975,265.103C118.532,267.436 116.574,268.603 114.1,268.603C112.342,268.603 110.885,267.952 109.73,266.649C108.574,265.347 107.996,263.72 107.996,261.767Z" style="fill-rule:nonzero;"/>
        <path d="M122.091,255.191C122.156,255.083 122.281,254.985 122.466,254.898C123.648,254.258 124.592,252.912 125.298,250.862C125.341,250.612 125.558,250.482 125.949,250.471L125.998,250.471C126.366,250.471 126.54,250.623 126.518,250.927C126.486,251.643 126.47,252.237 126.47,252.709C126.47,253.181 126.486,253.531 126.518,253.759C126.518,253.867 126.654,253.96 126.925,254.036L130.229,254.036C130.609,254.036 130.799,254.182 130.799,254.475C130.799,254.562 130.783,254.659 130.75,254.768C130.707,255.104 130.609,255.479 130.457,255.891C130.327,256.141 130.105,256.254 129.79,256.233L126.828,256.2C126.697,256.157 126.594,256.233 126.518,256.428L126.518,262.157C126.518,263.828 126.646,264.935 126.901,265.478C127.156,266.02 127.631,266.291 128.325,266.291C128.944,266.291 129.535,265.76 130.099,264.696C130.186,264.501 130.346,264.414 130.579,264.436C130.813,264.458 130.994,264.534 131.125,264.664C131.19,264.729 131.222,264.867 131.222,265.079C131.222,265.29 131.211,265.418 131.19,265.461C130.256,267.534 128.944,268.57 127.251,268.57C126.187,268.57 125.322,268.169 124.655,267.366C123.987,266.563 123.654,265.537 123.654,264.289L123.654,256.428C123.654,256.341 123.545,256.276 123.328,256.233C123.176,256.211 122.995,256.189 122.783,256.168C122.571,256.146 122.395,256.135 122.254,256.135C122.113,255.896 122.042,255.679 122.042,255.484C122.042,255.376 122.059,255.278 122.091,255.191Z" style="fill-rule:nonzero;"/>
        <path d="M132.687,267.626L132.687,267.447C132.687,267.035 132.823,266.828 133.094,266.828L134.184,266.715C134.336,266.704 134.464,266.66 134.567,266.584C134.67,266.508 134.76,266.462 134.835,266.446C134.911,266.43 134.966,266.356 134.998,266.226C135.031,266.096 135.066,266.015 135.104,265.982C135.142,265.95 135.166,265.828 135.177,265.616C135.188,265.404 135.194,265.258 135.194,265.176L135.194,258.056C135.194,257.253 135.156,256.786 135.08,256.656C135.036,256.569 134.841,256.493 134.494,256.428C134.45,256.428 134.016,256.309 133.192,256.07C132.996,256.005 132.896,255.82 132.89,255.517C132.885,255.213 132.964,255.007 133.126,254.898C134.548,254.366 135.855,253.9 137.049,253.498C137.19,253.455 137.315,253.433 137.423,253.433C137.857,253.433 138.08,253.775 138.091,254.459L138.091,263.931C138.091,264.756 138.102,265.32 138.123,265.624C138.145,266.156 138.221,266.473 138.351,266.576C138.481,266.679 138.861,266.731 139.49,266.731L139.621,266.731C139.99,266.731 140.201,266.91 140.255,267.268L140.255,267.87C140.255,268.163 140.093,268.31 139.767,268.31C139.713,268.31 139.653,268.304 139.588,268.293C139.078,268.261 138.286,268.244 137.212,268.244C136.138,268.244 134.787,268.261 133.159,268.293C133.072,268.293 132.977,268.223 132.874,268.082C132.771,267.941 132.709,267.789 132.687,267.626ZM134.868,249.25C134.521,248.903 134.347,248.464 134.347,247.932C134.347,247.4 134.532,246.95 134.901,246.581C135.269,246.212 135.709,246.028 136.219,246.028C136.772,246.028 137.233,246.212 137.602,246.581C137.971,246.95 138.156,247.411 138.156,247.965C138.156,248.496 137.966,248.928 137.586,249.258C137.206,249.589 136.74,249.755 136.186,249.755C135.655,249.755 135.215,249.587 134.868,249.25Z" style="fill-rule:nonzero;"/>
        <path d="M141.948,261.262C141.948,259.124 142.67,257.356 144.113,255.956C145.556,254.556 147.344,253.856 149.476,253.856C151.608,253.856 153.412,254.57 154.888,255.997C156.363,257.424 157.101,259.19 157.101,261.295C157.079,263.356 156.344,265.106 154.896,266.544C153.447,267.981 151.676,268.7 149.582,268.7C147.422,268.7 145.61,267.99 144.145,266.568C142.681,265.147 141.948,263.378 141.948,261.262ZM145.171,260.302C145.171,262.233 145.643,263.853 146.587,265.16C147.531,266.468 148.648,267.121 149.94,267.121C151.025,267.121 151.931,266.611 152.658,265.592C153.385,264.572 153.748,263.307 153.748,261.799C153.748,259.976 153.282,258.454 152.348,257.234C151.415,256.013 150.303,255.403 149.012,255.403C147.927,255.403 147.015,255.864 146.278,256.786C145.54,257.708 145.171,258.88 145.171,260.302Z" style="fill-rule:nonzero;"/>
        <path d="M158.957,268C158.924,267.903 158.908,267.8 158.908,267.691C158.908,267.561 158.929,267.425 158.973,267.284C159.049,267.024 159.19,266.894 159.396,266.894L159.559,266.894C160.275,266.894 160.739,266.712 160.95,266.348C161.162,265.985 161.268,265.103 161.268,263.703L161.268,259.228C161.268,257.741 161.219,256.884 161.121,256.656C161.078,256.526 160.704,256.396 159.998,256.265L159.331,256.135C159.114,256.092 159.014,255.891 159.03,255.533C159.046,255.175 159.146,254.963 159.331,254.898C159.797,254.746 160.752,254.388 162.195,253.824C162.64,253.65 162.971,253.542 163.188,253.498C163.286,253.477 163.378,253.466 163.465,253.466C163.66,253.466 163.812,253.515 163.921,253.612C164.094,253.753 164.176,253.96 164.165,254.231L164.165,255.663C164.165,255.707 164.181,255.772 164.214,255.858C164.246,255.945 164.284,256.018 164.328,256.078C164.371,256.138 164.404,256.157 164.425,256.135C166.519,254.67 168.153,253.932 169.324,253.922C171.853,253.922 173.122,255.934 173.133,259.96C173.133,260.6 173.087,261.571 172.995,262.873C172.902,264.175 172.856,265.163 172.856,265.836C172.856,266.259 172.935,266.53 173.092,266.649C173.25,266.769 173.638,266.828 174.256,266.828C174.549,266.698 174.782,266.753 174.956,266.991C175.043,267.121 175.086,267.344 175.086,267.659C175.086,267.973 174.999,268.163 174.826,268.228C174.739,268.25 174.592,268.261 174.386,268.261C173.941,268.261 172.927,268.255 171.343,268.244L169.943,268.244C169.129,268.244 168.559,268.25 168.234,268.261L168.169,268.261C167.735,268.261 167.507,268.027 167.485,267.561C167.485,267.387 167.531,267.222 167.624,267.064C167.716,266.907 167.827,266.828 167.957,266.828L168.153,266.828C168.836,266.763 169.297,266.625 169.536,266.413C169.775,266.202 169.927,265.787 169.992,265.168C170.122,263.92 170.187,262.016 170.187,259.455C170.187,257.166 169.455,256.021 167.99,256.021C167.035,256.021 165.76,256.634 164.165,257.86L164.165,265.136C164.165,265.917 164.265,266.394 164.466,266.568C164.667,266.742 165.163,266.828 165.955,266.828C166.227,266.828 166.384,267.073 166.427,267.561C166.427,268.027 166.216,268.272 165.792,268.293C165.424,268.282 164.843,268.277 164.051,268.277L161.333,268.277C160.53,268.277 159.939,268.272 159.559,268.261L159.461,268.261C159.19,268.261 159.022,268.174 158.957,268Z" style="fill-rule:nonzero;"/>
        <path d="M822.613,255.647C822.635,255.386 822.689,255.224 822.776,255.159C823.6,254.985 824.289,254.741 824.843,254.426C825.016,254.339 825.109,254.139 825.119,253.824C825.141,253.694 825.157,253.501 825.168,253.246C825.179,252.991 825.185,252.799 825.185,252.668C825.25,251.312 825.442,250.205 825.762,249.348C826.082,248.491 826.677,247.596 827.545,246.662C829.14,244.861 830.887,243.961 832.786,243.961C833.404,243.961 834.085,244.099 834.828,244.376C835.571,244.652 836.111,245.035 836.448,245.523C836.534,245.632 836.578,245.789 836.578,245.995C836.578,246.169 836.355,246.657 835.911,247.46C835.759,247.731 835.582,247.883 835.382,247.916C835.181,247.948 835.007,247.927 834.861,247.851C834.714,247.775 834.532,247.644 834.315,247.46C833.295,246.635 832.292,246.223 831.304,246.223C830.686,246.223 830.127,246.407 829.628,246.776C829.129,247.145 828.771,247.639 828.554,248.258C828.261,249.115 828.114,250.108 828.114,251.236L828.114,251.464L828.147,253.596C828.147,253.998 828.266,254.198 828.505,254.198L830.784,254.198C830.914,254.198 831.017,254.209 831.093,254.231C831.169,254.253 831.218,254.274 831.239,254.296C831.261,254.318 831.291,254.361 831.329,254.426C831.367,254.491 831.386,254.535 831.386,254.556L831.646,256.168C831.581,256.461 831.391,256.602 831.077,256.591L828.375,256.558C828.223,256.558 828.147,256.759 828.147,257.161L828.147,263.834C828.147,265.233 828.234,266.053 828.407,266.291C828.657,266.584 829.237,266.731 830.149,266.731L831.239,266.731C831.554,266.753 831.755,267.04 831.841,267.593C831.841,267.767 831.787,267.927 831.679,268.074C831.57,268.22 831.462,268.293 831.353,268.293C829.704,268.239 828.201,268.212 826.845,268.212C825.488,268.212 824.268,268.239 823.183,268.293C822.89,268.293 822.743,268.06 822.743,267.593C822.743,267.376 822.765,267.235 822.808,267.17C822.917,266.953 823.172,266.839 823.573,266.828C824.257,266.828 824.685,266.644 824.859,266.275C825.033,265.906 825.119,265.049 825.119,263.703L825.119,257.193C825.119,256.77 825.038,256.537 824.875,256.493L823.183,256.493C822.89,256.493 822.711,256.417 822.646,256.265C822.613,256.168 822.597,256.043 822.597,255.891C822.597,255.815 822.602,255.734 822.613,255.647Z" style="fill-rule:nonzero;"/>
        <path d="M833.713,261.262C833.713,259.124 834.435,257.356 835.878,255.956C837.321,254.556 839.109,253.856 841.241,253.856C843.373,253.856 845.177,254.57 846.653,255.997C848.128,257.424 848.866,259.19 848.866,261.295C848.845,263.356 848.109,265.106 846.661,266.544C845.212,267.981 843.441,268.7 841.347,268.7C839.187,268.7 837.375,267.99 835.911,266.568C834.446,265.147 833.713,263.378 833.713,261.262ZM836.936,260.302C836.936,262.233 837.408,263.853 838.352,265.16C839.296,266.468 840.414,267.121 841.705,267.121C842.79,267.121 843.696,266.611 844.423,265.592C845.15,264.572 845.513,263.307 845.513,261.799C845.513,259.976 845.047,258.454 844.114,257.234C843.18,256.013 842.068,255.403 840.777,255.403C839.692,255.403 838.781,255.864 838.043,256.786C837.305,257.708 836.936,258.88 836.936,260.302Z" style="fill-rule:nonzero;"/>
        <path d="M850.559,267.561L850.559,267.252C850.559,267.197 850.575,267.13 850.608,267.048C850.64,266.967 850.7,266.915 850.787,266.894C850.874,266.872 850.998,266.861 851.161,266.861C851.877,266.861 852.338,266.685 852.545,266.332C852.751,265.979 852.854,265.114 852.854,263.736L852.854,257.828C852.832,257.784 852.816,257.706 852.805,257.592C852.794,257.478 852.778,257.383 852.756,257.307C852.735,257.231 852.691,257.182 852.626,257.161C852.583,257.139 852.36,257.049 851.959,256.892C851.557,256.735 851.259,256.613 851.063,256.526C850.814,256.417 850.678,256.238 850.657,255.989L850.657,255.728C850.657,255.435 850.781,255.256 851.031,255.191C851.389,255.018 852.018,254.784 852.919,254.491C853.874,254.155 854.53,253.9 854.888,253.726C855.019,253.661 855.133,253.629 855.23,253.629C855.328,253.629 855.409,253.656 855.474,253.71C855.615,253.829 855.697,254.014 855.718,254.263C855.718,255.305 855.729,256.059 855.751,256.526C856.348,255.169 856.804,254.404 857.118,254.231C857.411,254.079 857.712,254.003 858.022,254.003C858.331,254.003 858.597,254.036 858.819,254.101C859.041,254.166 859.326,254.258 859.674,254.377C860.021,254.497 860.292,254.578 860.487,254.621C860.531,254.643 860.588,254.659 860.658,254.67C860.729,254.681 860.775,254.692 860.797,254.703C861.079,254.8 861.22,254.947 861.22,255.142C861.22,255.197 861.209,255.256 861.187,255.321C861.014,255.896 860.683,256.634 860.194,257.535C859.771,257.513 859.315,257.367 858.827,257.095C858.382,256.878 858.013,256.77 857.72,256.77C857.124,256.77 856.494,257.399 855.832,258.658L855.832,263.492C855.832,264.002 855.843,264.55 855.865,265.136C855.887,265.917 855.979,266.394 856.142,266.568C856.304,266.742 856.766,266.828 857.525,266.828L858.258,266.828C858.507,266.828 858.664,267.024 858.73,267.414C858.795,267.805 858.735,268.076 858.55,268.228C858.485,268.272 858.377,268.293 858.225,268.293L854.693,268.261C853.738,268.239 852.979,268.228 852.414,268.228C851.557,268.228 851.129,268.25 851.129,268.293L851.047,268.293C850.863,268.293 850.738,268.239 850.673,268.131C850.586,268 850.548,267.81 850.559,267.561Z" style="fill-rule:nonzero;"/>
        <path d="M862.408,267.17C862.495,266.953 862.799,266.839 863.319,266.828C863.96,266.807 864.375,266.622 864.564,266.275C864.754,265.928 864.849,265.082 864.849,263.736L864.849,259.065C864.849,257.6 864.828,256.819 864.784,256.721C864.676,256.526 864.274,256.385 863.58,256.298L862.815,256.2C862.544,256.135 862.435,255.929 862.489,255.582C862.544,255.235 862.641,255.028 862.782,254.963C863.846,254.497 865.289,254.03 867.112,253.564C867.198,253.542 867.274,253.531 867.34,253.531C867.491,253.531 867.605,253.58 867.681,253.677C867.79,253.819 867.844,254.036 867.844,254.328L867.844,255.858C867.844,255.88 867.85,255.913 867.86,255.956C867.871,255.999 867.887,256.04 867.909,256.078C867.931,256.116 867.953,256.135 867.974,256.135C870.112,254.649 871.87,253.9 873.248,253.889C874.007,253.889 874.675,254.09 875.25,254.491C875.825,254.893 876.237,255.452 876.487,256.168C876.573,256.32 876.693,256.33 876.845,256.2C877.626,255.669 878.182,255.291 878.513,255.069C878.844,254.847 879.354,254.594 880.043,254.312C880.732,254.03 881.386,253.889 882.004,253.889C883.556,253.889 884.636,254.578 885.243,255.956C885.58,256.737 885.748,258.273 885.748,260.562C885.748,261.137 885.726,261.997 885.683,263.142C885.639,264.287 885.618,265.136 885.618,265.689C885.618,266.156 885.723,266.451 885.935,266.576C886.147,266.701 886.692,266.763 887.571,266.763C887.864,266.698 888.113,266.731 888.319,266.861C888.482,266.948 888.563,267.132 888.563,267.414C888.563,267.48 888.558,267.55 888.547,267.626C888.547,267.8 888.49,267.954 888.376,268.09C888.262,268.226 888.14,268.293 888.01,268.293C887.402,268.272 886.491,268.261 885.276,268.261C884.06,268.261 882.552,268.272 880.751,268.293L880.572,268.293C880.442,268.293 880.333,268.25 880.246,268.163C880.16,268.076 880.105,267.96 880.084,267.813C880.062,267.667 880.062,267.528 880.084,267.398C880.105,267.268 880.16,267.151 880.246,267.048C880.333,266.945 880.431,266.894 880.539,266.894L880.881,266.894C881.521,266.894 881.947,266.799 882.159,266.609C882.37,266.419 882.498,266.004 882.541,265.364C882.628,264.474 882.672,262.96 882.672,260.823C882.672,258.826 882.522,257.505 882.224,256.859C881.926,256.214 881.375,255.891 880.572,255.891C879.812,255.891 878.548,256.493 876.78,257.698L876.78,265.136C876.78,265.895 876.88,266.378 877.081,266.584C877.281,266.791 877.713,266.894 878.375,266.894C878.776,266.894 878.988,267.116 879.009,267.561C879.009,267.713 878.961,267.873 878.863,268.041C878.765,268.209 878.635,268.293 878.472,268.293C876.834,268.25 875.364,268.228 874.062,268.228C873.193,268.228 872.401,268.239 871.685,268.261C871.327,268.239 871.154,268.038 871.164,267.659C871.175,267.279 871.289,267.035 871.506,266.926C871.571,266.883 871.739,266.861 872.011,266.861C872.814,266.861 873.316,266.696 873.516,266.365C873.717,266.034 873.817,265.157 873.817,263.736L873.817,258.43C873.817,257.605 873.633,256.976 873.264,256.542C872.895,256.108 872.401,255.891 871.783,255.891C871.631,255.891 871.46,255.907 871.27,255.94C871.08,255.972 870.912,256.013 870.766,256.062C870.619,256.111 870.435,256.189 870.212,256.298C869.99,256.406 869.824,256.482 869.716,256.526C869.607,256.569 869.436,256.67 869.203,256.827C868.97,256.984 868.818,257.079 868.747,257.112C868.677,257.144 868.514,257.25 868.259,257.429C868.004,257.608 867.866,257.698 867.844,257.698L867.844,265.136C867.844,265.917 867.944,266.405 868.145,266.601C868.346,266.796 868.837,266.894 869.618,266.894C869.705,266.872 869.857,266.894 870.074,266.959C870.204,266.98 870.275,267.284 870.286,267.87C870.22,268.152 870.063,268.293 869.813,268.293C868.728,268.25 867.605,268.228 866.444,268.228C865.283,268.228 864.084,268.25 862.847,268.293C862.674,268.293 862.544,268.228 862.457,268.098C862.37,267.979 862.327,267.843 862.327,267.691C862.327,267.507 862.354,267.333 862.408,267.17Z" style="fill-rule:nonzero;"/>
        <path d="M211.376,261.562L259.646,261.562" style="fill:none;stroke:#000;stroke-width:2.29px;stroke-dasharray:6.88,6.88,0,0;"/>
        <path d="M737.113,261.562L785.384,261.562" style="fill:none;stroke:#000;stroke-width:2.29px;stroke-dasharray:6.88,6.88,0,0;"/>
        <circle cx="492.138" cy="693.284" r="120.128" style="fill:none;stroke:#000;stroke-width:2.29px;stroke-dasharray:6.88,6.88,0,0;"/>
        <path d="M467.331,577.032C468.105,595.441 470.199,620.753 475.496,627.815C501.786,662.866 562.162,657.179 579.727,704.561C585.54,720.243 591.314,736.041 598.56,751.03" style="fill:none;stroke:#3b6e8c;stroke-width:2.29px;"/>
        <path d="M431.005,796.929C441.994,787.559 453.295,780.128 462.727,777.255C494.585,767.553 530.002,764.912 554.958,740.136C596.912,698.485 574.098,646.316 564.478,597.583" style="fill:none;stroke:#3b6e8c;stroke-width:2.29px;"/>
        <path d="M403.629,612.408C417.414,624.794 432.731,641.417 438.198,647.754C467.649,681.892 501.993,714.967 525.31,754.2C533.885,768.629 539.491,785.268 545.171,801.279" style="fill:none;stroke:#3b6e8c;stroke-width:2.29px;"/>
        <path d="M453.33,621.403L459.793,641.346L439.962,634.55L453.33,621.403Z" style="fill:#bc5b4f;"/>
        <path d="M372.01,472.759C372.01,519.909 375.406,554.185 449.275,630.651" style="fill:none;stroke:#bc5b4f;stroke-width:6.25px;stroke-linecap:butt;"/>
        <path d="M604.978,472.759C604.978,527.626 360.204,539.97 442.249,622.015" style="fill:none;stroke:#bc5b4f;stroke-width:6.25px;stroke-linecap:butt;"/>
    </g>
</svg>
