<?xml version="1.0" encoding="UTF-8" standalone="no"?>
<!DOCTYPE svg PUBLIC "-//W3C//DTD SVG 1.1//EN" "http://www.w3.org/Graphics/SVG/1.1/DTD/svg11.dtd">
<svg width="100%" height="100%" viewBox="0 0 1814 947" version="1.1" xmlns="http://www.w3.org/2000/svg" xmlns:xlink="http://www.w3.org/1999/xlink" xml:space="preserve" xmlns:serif="http://www.serif.com/" style="fill-rule:evenodd;clip-rule:evenodd;stroke-linecap:round;stroke-miterlimit:1.5;">
    <rect id="horizontal" x="0" y="0" width="1813.19" height="946.092" style="fill:none;"/>
    <g>
        <path d="M1719.55,571.481C1747.71,593.47 1765.83,627.739 1765.83,666.206C1765.83,698.037 1753.42,726.993 1733.19,748.496L1705.85,715.593L1715.47,705.347L1690.19,682.394L1688.29,672.79L1693.77,638.709L1686.12,634.267L1697.08,603.981L1726.24,603.981L1719.55,571.481Z" style="fill:#3b6e8c;"/>
        <path d="M1529.68,697.958C1527,688.001 1525.57,677.532 1525.57,666.731C1525.57,600.431 1579.4,546.604 1645.7,546.604C1649.52,546.604 1653.3,546.782 1657.03,547.133L1658.68,569.188L1659.29,581.197L1645.7,578.995L1629.99,578.995L1624.75,581.197L1624.75,590.318L1627.96,600.936L1635.87,608.304L1627.96,628.606L1645.7,643.022L1618.51,650.01L1629.99,663.496L1615.63,674.445L1595.18,685.303L1584.48,677.083L1569.36,690.857L1557.19,697.602L1529.82,697.96L1529.68,697.958Z" style="fill:#bc5b4f;"/>
        <path d="M1656.99,546.604C1680.45,548.793 1701.95,557.737 1719.54,571.472L1724.16,603.981L1697.08,603.981L1686.12,634.267L1693.77,638.709L1687.8,670.345L1690.19,682.394L1715.47,705.347L1705.85,715.593L1724.16,735.982L1733.19,748.496C1711.27,771.785 1680.17,786.334 1645.7,786.334C1590.39,786.334 1543.77,748.876 1529.82,697.96L1561.02,697.96L1585,677.479L1596.15,684.856L1630.16,663.809L1619.02,650.52L1644.53,643.323L1627.97,629.062L1628.95,621.966L1636.47,607.905L1627.97,599.519L1624.75,582.05L1629.99,578.995L1658.75,581.197L1660.13,577.804L1656.49,550.944L1656.99,546.604Z" style="fill:#efc758;"/>
        <circle cx="1645.7" cy="666.206" r="120.128" style="fill:none;stroke:#000;stroke-width:2.29px;stroke-dasharray:6.88,6.88,0,0;"/>
        <path d="M1686.12,635.211C1688.7,636.34 1691.25,637.498 1693.77,638.709" style="fill:none;stroke:#000;stroke-width:2.29px;"/>
        <path d="M1705.85,715.593C1706.75,714.775 1707.64,713.93 1708.52,713.058C1711.07,710.526 1713.38,707.954 1715.47,705.347" style="fill:none;stroke:#000;stroke-width:2.29px;"/>
        <path d="M1725.23,603.26C1722.61,592.033 1720.22,581.541 1718.04,570.505" style="fill:none;stroke:#000;stroke-width:2.29px;"/>
        <path d="M1618.51,651.143C1622.1,655.269 1625.86,659.625 1629.69,664.101" style="fill:none;stroke:#000;stroke-width:2.29px;"/>
        <path d="M1685.55,634.253C1685.55,634.253 1694.16,607.984 1696.94,603.26" style="fill:none;stroke:#000;stroke-width:2.29px;"/>
        <path d="M1725.23,603.26L1696.94,603.26" style="fill:none;stroke:#000;stroke-width:2.29px;"/>
        <path d="M1624.75,581.178C1633.12,575.282 1651.57,580.27 1657.37,581.178C1663.17,582.086 1653.62,549.227 1657.37,546.078" style="fill:none;stroke:#000;stroke-width:2.29px;"/>
        <path d="M1690.27,682.406C1691.17,682.704 1697.95,688.333 1700.44,690.545C1703.44,693.217 1715.47,703.299 1715.47,705.347" style="fill:none;stroke:#000;stroke-width:2.29px;"/>
        <path d="M1693.77,638.709C1693.77,644.525 1688.61,669.076 1687.37,671.566C1686.96,672.369 1690.19,677.814 1690.19,682.394" style="fill:none;stroke:#000;stroke-width:2.29px;"/>
        <path d="M1618.51,650.01C1625.07,648.698 1644.66,642.499 1645.56,642.95" style="fill:none;stroke:#000;stroke-width:2.29px;"/>
        <path d="M1645.7,642.927C1644.5,642.202 1626.69,630.656 1627.35,626.7C1628.16,621.822 1633.71,612.899 1635.87,608.304" style="fill:none;stroke:#000;stroke-width:2.29px;"/>
        <path d="M1584.55,677.112C1586.94,678.235 1588.75,679.145 1589.42,679.676C1591.48,681.315 1592.98,684.37 1595.03,685.393C1595.23,685.495 1610.96,676.864 1613.34,675.865C1614.92,675.203 1629.99,664.458 1629.99,663.496" style="fill:none;stroke:#000;stroke-width:2.29px;"/>
        <path d="M1529.82,697.96C1538.83,697.96 1552.13,699.915 1560.69,696.562C1566.35,694.343 1584.48,678.534 1584.48,677.079" style="fill:none;stroke:#000;stroke-width:2.29px;"/>
        <path d="M1705.85,715.593C1705.85,715.593 1730.33,741.321 1733.19,748.496" style="fill:none;stroke:#000;stroke-width:2.29px;"/>
        <path d="M1623.55,581.789C1624.82,590.456 1626.59,597.706 1629.06,600.996C1631.18,603.819 1633.52,606.378 1636.04,608.722" style="fill:none;stroke:#000;stroke-width:2.29px;"/>
    </g>
    <g>
        <path d="M1418.05,571.481C1446.21,593.47 1464.33,627.739 1464.33,666.206C1464.33,698.037 1451.92,726.993 1431.68,748.496L1404.35,715.593L1413.97,705.347L1388.69,682.394L1386.79,672.79L1392.27,638.709L1384.62,634.267L1395.58,603.981L1424.74,603.981L1418.05,571.481Z" style="fill:#3b6e8c;"/>
        <path d="M1228.18,697.958C1225.5,688.001 1224.07,677.532 1224.07,666.731C1224.07,600.431 1277.9,546.604 1344.2,546.604C1348.02,546.604 1351.8,546.782 1355.53,547.133L1357.18,569.188L1357.79,581.197L1344.2,578.995L1328.48,578.995L1323.25,581.197L1323.25,590.318L1326.46,600.936L1334.36,608.304L1326.46,628.606L1344.2,643.022L1317.01,650.01L1328.48,663.496L1314.13,674.445L1293.68,685.303L1282.98,677.083L1267.86,690.857L1255.69,697.602L1228.32,697.96L1228.18,697.958Z" style="fill:#bc5b4f;"/>
        <path d="M1355.49,546.604C1378.94,548.793 1400.45,557.737 1418.04,571.472L1422.66,603.981L1395.58,603.981L1384.62,634.267L1392.27,638.709L1386.3,670.345L1388.69,682.394L1413.97,705.347L1404.35,715.593L1422.66,735.982L1431.68,748.496C1409.77,771.785 1378.67,786.334 1344.2,786.334C1288.89,786.334 1242.27,748.876 1228.32,697.96L1259.51,697.96L1283.5,677.479L1294.65,684.856L1328.66,663.809L1317.52,650.52L1343.03,643.323L1326.46,629.062L1327.45,621.966L1334.97,607.905L1326.46,599.519L1323.25,582.05L1328.48,578.995L1357.25,581.197L1358.63,577.804L1354.98,550.944L1355.49,546.604Z" style="fill:#efc758;"/>
        <g>
            <circle cx="1344.2" cy="666.206" r="120.128" style="fill:none;stroke:#000;stroke-width:2.29px;stroke-dasharray:6.88,6.88,0,0;"/>
            <path d="M1319.39,549.954C1320.17,568.362 1322.26,593.675 1327.56,600.737C1353.85,635.788 1414.23,630.101 1431.79,677.483C1437.6,693.165 1443.38,708.963 1450.62,723.952" style="fill:none;stroke:#000;stroke-width:2.29px;"/>
            <path d="M1283.07,769.851C1294.06,760.481 1305.36,753.05 1314.79,750.177C1346.65,740.475 1382.07,737.834 1407.02,713.058C1448.97,671.407 1426.16,619.238 1416.54,570.505" style="fill:none;stroke:#000;stroke-width:2.29px;"/>
            <path d="M1255.69,585.33C1269.48,597.716 1284.79,614.339 1290.26,620.676C1319.71,654.814 1354.06,687.889 1377.37,727.122C1385.95,741.55 1391.55,758.19 1397.23,774.201" style="fill:none;stroke:#000;stroke-width:2.29px;"/>
            <path d="M1352.27,620.676C1352.27,620.676 1370.73,597.406 1371.25,593.628C1371.78,589.85 1357.79,581.197 1357.79,581.197" style="fill:none;stroke:#000;stroke-width:2.29px;"/>
            <path d="M1384.05,634.253C1384.05,634.253 1392.66,607.984 1395.44,603.26C1398.21,598.536 1371.27,593.628 1371.27,593.628" style="fill:none;stroke:#000;stroke-width:2.29px;"/>
            <path d="M1424.74,603.26L1395.44,603.26" style="fill:none;stroke:#000;stroke-width:2.29px;"/>
            <path d="M1323.25,581.178C1331.62,575.282 1350.07,580.27 1355.87,581.178C1361.67,582.086 1352.12,549.227 1355.87,546.078" style="fill:none;stroke:#000;stroke-width:2.29px;"/>
            <path d="M1358.63,699.484C1367.49,699.484 1387.18,681.877 1388.77,682.406C1389.66,682.704 1396.45,688.333 1398.94,690.545C1401.94,693.217 1413.97,703.299 1413.97,705.347" style="fill:none;stroke:#000;stroke-width:2.29px;"/>
            <path d="M1392.27,638.709C1392.27,644.525 1387.11,669.076 1385.86,671.566C1385.46,672.369 1388.69,677.814 1388.69,682.394" style="fill:none;stroke:#000;stroke-width:2.29px;"/>
            <path d="M1340.97,677.288C1346.46,677.288 1357.52,675.498 1362,671.022C1364.37,668.644 1368.62,665.022 1371.74,663.981C1372.52,663.723 1383.68,669.601 1385.83,671.754" style="fill:none;stroke:#000;stroke-width:2.29px;"/>
            <path d="M1371.8,663.973C1371.85,663.938 1357.63,652.465 1354.5,649.342C1353.67,648.51 1355.81,643.749 1356.14,643.218C1359.34,638.083 1361.98,632.865 1361.98,626.856" style="fill:none;stroke:#000;stroke-width:2.29px;"/>
            <path d="M1317.01,650.01C1323.57,648.698 1343.15,642.499 1344.06,642.95C1346.81,644.325 1351.94,647.193 1354.31,649.156" style="fill:none;stroke:#000;stroke-width:2.29px;"/>
            <path d="M1344.2,642.927C1342.99,642.202 1325.19,630.656 1325.85,626.7C1326.66,621.822 1332.21,612.899 1334.36,608.304" style="fill:none;stroke:#000;stroke-width:2.29px;"/>
            <path d="M1298.35,627.949C1302.24,625.352 1308.59,622.652 1310.63,622.008C1313.13,621.217 1324.28,627.452 1325.83,627.949" style="fill:none;stroke:#000;stroke-width:2.29px;"/>
            <path d="M1275.6,603.686C1286.39,595.792 1295.7,593.829 1298.41,591.113C1298.81,590.713 1298.41,589.301 1298.3,588.653C1297.88,586.112 1292.37,563.257 1290.77,559.097" style="fill:none;stroke:#000;stroke-width:2.29px;"/>
            <path d="M1298.35,591.181C1306.27,595.145 1315.73,590.318 1323.25,590.318" style="fill:none;stroke:#000;stroke-width:2.29px;"/>
            <path d="M1350.58,740.914C1350.38,740.874 1355.58,748.269 1356.4,749.923C1360.93,759.047 1362.77,766.941 1363.78,776.939C1363.94,778.598 1364.23,783.541 1362.87,784.903" style="fill:none;stroke:#000;stroke-width:2.29px;"/>
            <path d="M1323.29,747.754C1323.29,757.59 1321.99,767.116 1320.42,776.462C1319.92,779.498 1323.29,782.345 1323.29,784.861" style="fill:none;stroke:#000;stroke-width:2.29px;"/>
            <path d="M1350.58,740.914C1350.57,740.794 1345.54,730.706 1342.64,727.399C1336.45,720.34 1328.12,715.535 1321.6,709.012C1321.08,708.496 1337.01,690.852 1338.56,686.237C1339.51,683.418 1341.15,680.469 1341.15,677.533" style="fill:none;stroke:#000;stroke-width:2.29px;"/>
            <path d="M1255.26,746.834C1258.49,746.834 1284.56,719.617 1286.05,716.632C1286.51,715.709 1304.06,749.553 1307.57,753.064" style="fill:none;stroke:#000;stroke-width:2.29px;"/>
            <path d="M1286.05,716.632C1290.6,716.632 1314.62,709.012 1321.6,709.012" style="fill:none;stroke:#000;stroke-width:2.29px;"/>
            <path d="M1226.1,651.979C1243.87,650.771 1261.4,666.846 1261.84,666.409C1266,662.255 1299.15,630.92 1299.15,630.476" style="fill:none;stroke:#000;stroke-width:2.29px;"/>
            <path d="M1261.36,666.206C1266.24,670.11 1285.37,677.649 1287.92,679.676C1289.98,681.315 1291.48,684.37 1293.53,685.393C1293.73,685.495 1309.46,676.864 1311.84,675.865C1313.42,675.203 1328.48,664.458 1328.48,663.496" style="fill:none;stroke:#000;stroke-width:2.29px;"/>
            <path d="M1293.68,685.303C1293.68,687.486 1292.38,700.377 1293.17,703.334C1294,706.452 1296.21,713.867 1296.17,713.982" style="fill:none;stroke:#000;stroke-width:2.29px;"/>
            <path d="M1228.32,697.96C1237.33,697.96 1250.63,699.915 1259.18,696.562C1264.85,694.343 1282.98,678.534 1282.98,677.079" style="fill:none;stroke:#000;stroke-width:2.29px;"/>
            <path d="M1404.35,715.593C1404.35,715.593 1428.83,741.321 1431.68,748.496" style="fill:none;stroke:#000;stroke-width:2.29px;"/>
            <path d="M1431.68,647.233L1462.07,642.927" style="fill:none;stroke:#000;stroke-width:2.29px;"/>
            <path d="M1426.75,615.368C1426.75,615.368 1446.88,609.825 1446.78,603.686" style="fill:none;stroke:#000;stroke-width:2.29px;"/>
        </g>
    </g>
    <g>
        <path d="M759.878,620.676C759.878,620.676 778.342,597.406 778.867,593.628C779.391,589.85 765.402,581.197 765.402,581.197" style="fill:none;stroke:#bc5b4f;stroke-width:2.29px;"/>
        <path d="M791.662,634.253C791.662,634.253 800.274,607.984 803.05,603.26C805.826,598.536 778.881,593.628 778.881,593.628" style="fill:none;stroke:#bc5b4f;stroke-width:2.29px;"/>
        <path d="M832.355,603.26L803.05,603.26" style="fill:none;stroke:#bc5b4f;stroke-width:2.29px;"/>
        <path d="M730.861,581.178C739.237,575.282 757.685,580.27 763.483,581.178C769.28,582.086 759.734,549.227 763.483,546.078" style="fill:none;stroke:#bc5b4f;stroke-width:2.29px;"/>
        <path d="M766.244,699.484C775.101,699.484 794.795,681.877 796.382,682.406C797.278,682.704 804.06,688.333 806.549,690.545C809.557,693.217 821.585,703.299 821.585,705.347" style="fill:none;stroke:#bc5b4f;stroke-width:2.29px;"/>
        <path d="M799.883,638.709C799.883,644.525 794.722,669.076 793.477,671.566C793.076,672.369 796.3,677.814 796.3,682.394" style="fill:none;stroke:#bc5b4f;stroke-width:2.29px;"/>
        <path d="M748.586,677.288C754.075,677.288 765.132,675.498 769.608,671.022C771.986,668.644 776.23,665.022 779.353,663.981C780.129,663.723 791.289,669.601 793.443,671.754" style="fill:none;stroke:#bc5b4f;stroke-width:2.29px;"/>
        <path d="M779.417,663.973C779.461,663.938 765.239,652.465 762.117,649.342C761.285,648.51 763.42,643.749 763.752,643.218C766.956,638.083 769.594,632.865 769.594,626.856" style="fill:none;stroke:#bc5b4f;stroke-width:2.29px;"/>
        <path d="M724.626,650.01C731.178,648.698 750.768,642.499 751.671,642.95C754.421,644.325 759.552,647.193 761.926,649.156" style="fill:none;stroke:#bc5b4f;stroke-width:2.29px;"/>
        <path d="M751.814,642.927C750.607,642.202 732.802,630.656 733.462,626.7C734.276,621.822 739.824,612.899 741.977,608.304" style="fill:none;stroke:#bc5b4f;stroke-width:2.29px;"/>
        <path d="M705.958,627.949C709.854,625.352 716.203,622.652 718.244,622.008C720.749,621.217 731.896,627.452 733.444,627.949" style="fill:none;stroke:#bc5b4f;stroke-width:2.29px;"/>
        <path d="M683.214,603.686C694.001,595.792 703.312,593.829 706.028,591.113C706.427,590.713 706.019,589.301 705.911,588.653C705.488,586.112 699.986,563.257 698.385,559.097" style="fill:none;stroke:#bc5b4f;stroke-width:2.29px;"/>
        <path d="M705.958,591.181C713.886,595.145 723.341,590.318 730.861,590.318" style="fill:none;stroke:#bc5b4f;stroke-width:2.29px;"/>
        <path d="M758.19,740.914C757.993,740.874 763.189,748.269 764.011,749.923C768.546,759.047 770.384,766.941 771.39,776.939C771.557,778.598 771.841,783.541 770.478,784.903" style="fill:none;stroke:#bc5b4f;stroke-width:2.29px;"/>
        <path d="M730.907,747.754C730.907,757.59 729.598,767.116 728.038,776.462C727.531,779.498 730.907,782.345 730.907,784.861" style="fill:none;stroke:#bc5b4f;stroke-width:2.29px;"/>
        <path d="M758.19,740.914C758.183,740.794 753.157,730.706 750.257,727.399C744.067,720.34 735.734,715.535 729.21,709.012C728.694,708.496 744.626,690.852 746.176,686.237C747.122,683.418 748.768,680.469 748.768,677.533" style="fill:none;stroke:#bc5b4f;stroke-width:2.29px;"/>
        <path d="M662.875,746.834C666.102,746.834 692.171,719.617 693.664,716.632C694.125,715.709 711.668,749.553 715.179,753.064" style="fill:none;stroke:#bc5b4f;stroke-width:2.29px;"/>
        <path d="M693.664,716.632C698.214,716.632 722.235,709.012 729.21,709.012" style="fill:none;stroke:#bc5b4f;stroke-width:2.29px;"/>
        <path d="M633.709,651.979C651.48,650.771 669.018,666.846 669.455,666.409C673.608,662.255 706.764,630.92 706.764,630.476" style="fill:none;stroke:#bc5b4f;stroke-width:2.29px;"/>
        <path d="M668.969,666.206C673.848,670.11 692.981,677.649 695.531,679.676C697.594,681.315 699.092,684.37 701.139,685.393C701.343,685.495 717.072,676.864 719.452,675.865C721.03,675.203 736.097,664.458 736.097,663.496" style="fill:none;stroke:#bc5b4f;stroke-width:2.29px;"/>
        <path d="M701.297,685.303C701.297,687.486 699.998,700.377 700.786,703.334C701.617,706.452 703.828,713.867 703.788,713.982" style="fill:none;stroke:#bc5b4f;stroke-width:2.29px;"/>
        <path d="M635.935,697.96C644.942,697.96 658.239,699.915 666.799,696.562C672.466,694.343 690.596,678.534 690.596,677.079" style="fill:none;stroke:#bc5b4f;stroke-width:2.29px;"/>
        <path d="M811.96,715.593C811.96,715.593 836.438,741.321 839.298,748.496" style="fill:none;stroke:#bc5b4f;stroke-width:2.29px;"/>
        <path d="M839.298,647.233L869.683,642.927" style="fill:none;stroke:#bc5b4f;stroke-width:2.29px;"/>
        <path d="M834.365,615.368C834.365,615.368 854.494,609.825 854.388,603.686" style="fill:none;stroke:#bc5b4f;stroke-width:2.29px;"/>
        <circle cx="751.814" cy="666.206" r="120.128" style="fill:none;stroke:#000;stroke-width:2.29px;stroke-dasharray:6.88,6.88,0,0;"/>
        <path d="M727.007,549.954C727.781,568.362 729.875,593.675 735.172,600.737C761.462,635.788 821.838,630.101 839.403,677.483C845.216,693.165 850.99,708.963 858.236,723.952" style="fill:none;stroke:#3b6e8c;stroke-width:2.29px;"/>
        <path d="M690.681,769.851C701.67,760.481 712.971,753.05 722.403,750.177C754.261,740.475 789.678,737.834 814.634,713.058C856.587,671.407 833.774,619.238 824.154,570.505" style="fill:none;stroke:#3b6e8c;stroke-width:2.29px;"/>
        <path d="M663.305,585.33C677.09,597.716 692.407,614.339 697.873,620.676C727.325,654.814 761.668,687.889 784.986,727.122C793.561,741.55 799.167,758.19 804.847,774.201" style="fill:none;stroke:#3b6e8c;stroke-width:2.29px;"/>
        <path d="M791.386,607.938L781.286,603.586L775.618,616.742L785.718,621.094L791.386,607.938Z"/>
        <path d="M767.197,595.238L754.402,585.982L746.006,597.588L758.8,606.844L767.197,595.238Z"/>
        <path d="M725.635,569.803L712.841,560.547L704.444,572.152L717.239,581.409L725.635,569.803Z"/>
        <path d="M697.564,580.996L684.77,571.74L676.373,583.346L689.168,592.602L697.564,580.996Z"/>
        <path d="M725.412,607.005L712.618,597.749L704.221,609.354L717.016,618.611L725.412,607.005Z"/>
        <path d="M723.304,629.528L718.833,636.232L729.599,643.412L734.07,636.708L723.304,629.528Z"/>
        <path d="M759.188,626.277L748.592,618.611L741.217,628.804L751.814,636.47L759.188,626.277Z"/>
        <path d="M760.337,660.56L750.484,648.22L739.29,657.158L749.143,669.499L760.337,660.56Z"/>
        <path d="M790.71,642.5L776.115,636.47L770.645,649.709L785.24,655.739L790.71,642.5Z"/>
        <path d="M771.718,690.235L783.577,680.961L776.984,672.529L765.124,681.803L771.718,690.235Z"/>
        <path d="M827.658,667.681L811.152,655.739L800.281,670.766L816.787,682.707L827.658,667.681Z"/>
        <path d="M807.24,707.187L797.47,693.015L782.577,703.282L792.347,717.454L807.24,707.187Z"/>
        <path d="M793.553,763.82L787.684,749.159L774.385,754.482L780.254,769.143L793.553,763.82Z"/>
        <path d="M824.823,745.543L814.25,728.709L799.773,737.802L810.346,754.636L824.823,745.543Z"/>
        <path d="M761.356,776.042L761.661,760.253L736.617,759.769L736.312,775.557L761.356,776.042Z"/>
        <path d="M720.434,759.74L708.443,766.952L713.863,775.963L725.854,768.75L720.434,759.74Z"/>
        <path d="M702.929,751.482L693.826,738.578L682.121,746.836L691.224,759.74L702.929,751.482Z"/>
        <path d="M729.442,718.84L711.161,725.004L715.737,738.578L734.019,732.414L729.442,718.84Z"/>
        <path d="M769.034,716.348L753.077,695.844L741.772,704.642L757.729,725.146L769.034,716.348Z"/>
        <path d="M736.896,687.786L729.367,676.782L711.161,689.239L718.69,700.243L736.896,687.786Z"/>
        <path d="M718.006,660.892L707.598,649.015L696.825,658.456L707.233,670.333L718.006,660.892Z"/>
        <path d="M681.873,624.886L664.25,614.18L652.347,633.773L669.97,644.479L681.873,624.886Z"/>
        <path d="M664.82,675.543L651.324,667.344L643.886,679.587L657.383,687.786L664.82,675.543Z"/>
        <path d="M686.146,711.012L677.6,697.732L652.347,713.983L660.893,727.263L686.146,711.012Z"/>
        <path d="M848.654,713.455L835.859,704.198L824.823,719.453L837.617,728.709L848.654,713.455Z"/>
        <path d="M867.108,693.135L866.84,658.859L852.516,658.971L852.784,693.247L867.108,693.135Z"/>
        <path d="M859.812,632.764L855.726,617.51L841.889,621.216L845.975,636.47L859.812,632.764Z"/>
        <path d="M825.801,623.37L810.761,618.556L806.394,632.198L821.434,637.013L825.801,623.37Z"/>
        <path d="M753.677,568.367L752.627,552.61L738.334,553.563L739.384,569.32L753.677,568.367Z"/>
        <path d="M810.958,577.263L784.014,557.77L775.618,569.376L802.561,588.869L810.958,577.263Z"/>
    </g>
    <g>
        <path d="M578.912,342.088L494.477,195.842L348.231,280.277L432.666,426.523L578.912,342.088Z" style="fill:#fff;stroke:#000;stroke-width:4.17px;"/>
        <path d="M498.357,264.778L488.257,260.427L482.588,273.582L492.689,277.934L498.357,264.778Z"/>
        <path d="M474.167,252.078L461.373,242.822L452.976,254.428L465.771,263.684L474.167,252.078Z"/>
        <path d="M432.383,263.845L419.588,254.589L411.192,266.195L423.986,275.451L432.383,263.845Z"/>
        <path d="M430.274,286.369L425.804,293.072L436.57,300.252L441.04,293.548L430.274,286.369Z"/>
        <path d="M466.159,283.117L455.562,275.451L448.188,285.644L458.784,293.31L466.159,283.117Z"/>
        <path d="M467.308,317.401L457.455,305.06L446.261,313.998L456.114,326.339L467.308,317.401Z"/>
        <path d="M497.681,299.34L483.085,293.31L477.616,306.55L492.211,312.579L497.681,299.34Z"/>
        <path d="M478.689,347.075L490.548,337.802L483.954,329.37L472.095,338.643L478.689,347.075Z"/>
        <path d="M534.628,324.521L518.123,312.579L507.252,327.606L523.757,339.547L534.628,324.521Z"/>
        <path d="M514.211,364.027L504.441,349.855L489.548,360.123L499.318,374.294L514.211,364.027Z"/>
        <path d="M436.413,375.681L418.131,381.845L422.708,395.418L440.99,389.254L436.413,375.681Z"/>
        <path d="M476.004,373.188L460.047,352.685L448.743,361.483L464.7,381.986L476.004,373.188Z"/>
        <path d="M443.867,344.626L436.338,333.622L418.131,346.08L425.66,357.084L443.867,344.626Z"/>
        <path d="M424.977,317.732L414.569,305.855L403.796,315.296L414.203,327.173L424.977,317.732Z"/>
        <path d="M388.843,281.726L371.22,271.02L359.318,290.613L376.941,301.319L388.843,281.726Z"/>
        <path d="M563.722,315.779L559.486,315.812L559.755,350.087L565.13,350.045L574.039,344.901L573.95,333.493L563.722,315.779Z"/>
        <path d="M532.772,280.21L517.732,275.396L513.365,289.039L528.405,293.853L532.772,280.21Z"/>
        <path d="M460.017,215.738L446.192,223.719L446.355,226.16L460.648,225.207L460.017,215.738Z"/>
        <path d="M517.929,234.104L490.985,214.611L482.588,226.217L509.532,245.709L517.929,234.104Z"/>
    </g>
    <path d="M462.387,460.729L462.387,489.514L433.72,489.514L433.72,491.883L462.387,491.883L462.387,520.668L464.756,520.668L464.756,491.883L493.423,491.883L493.423,489.514L464.756,489.514L464.756,460.729L462.387,460.729Z" style="fill-rule:nonzero;"/>
    <g>
        <circle cx="458.784" cy="666.413" r="120.128" style="fill:none;stroke:#000;stroke-width:2.29px;stroke-dasharray:6.88,6.88,0,0;"/>
        <path d="M433.978,550.161C434.752,568.569 436.845,593.882 442.142,600.944C468.433,635.995 528.809,630.307 546.374,677.69C552.187,693.372 557.961,709.17 565.207,724.159" style="fill:none;stroke:#3b6e8c;stroke-width:2.29px;"/>
        <path d="M397.652,770.057C408.641,760.688 419.941,753.256 429.373,750.384C461.231,740.682 496.649,738.041 521.605,713.265C563.558,671.614 540.745,619.445 531.125,570.712" style="fill:none;stroke:#3b6e8c;stroke-width:2.29px;"/>
        <path d="M370.276,585.537C384.06,597.923 399.377,614.546 404.844,620.882C434.295,655.021 468.639,688.096 491.957,727.329C500.532,741.757 506.138,758.397 511.817,774.408" style="fill:none;stroke:#3b6e8c;stroke-width:2.29px;"/>
    </g>
    <g>
        <path d="M271.087,803.692L186.652,657.446L40.406,741.881L124.841,888.127L271.087,803.692Z" style="fill:#fff;stroke:#000;stroke-width:4.17px;"/>
        <path d="M271.087,732.638L186.652,586.393L40.406,670.828L124.841,817.073L271.087,732.638Z" style="fill:#fff;stroke:#000;stroke-width:4.17px;"/>
        <path d="M271.087,661.585L186.652,515.339L40.406,599.774L124.841,746.02L271.087,661.585Z" style="fill:#fff;stroke:#000;stroke-width:4.17px;"/>
        <path d="M271.087,590.531L186.652,444.286L40.406,528.721L124.841,674.966L271.087,590.531Z" style="fill:#fff;stroke:#000;stroke-width:4.17px;"/>
        <path d="M228.594,757.639C232.639,762.523 236.033,768.221 238.549,775.007C243.368,788.008 248.16,801.088 253.787,813.721" style="fill:none;stroke:#000;stroke-width:2.29px;"/>
        <path d="M102.073,633.757C106.675,630.566 111.189,627.893 115.451,625.932C117.551,624.966 119.59,624.173 121.548,623.577C153.406,613.874 188.824,611.233 213.78,586.457C230.318,570.038 236.792,551.983 237.976,533.15" style="fill:none;stroke:#000;stroke-width:2.29px;"/>
        <path d="M98.222,495.555C127.673,529.693 160.814,561.288 184.132,600.521C190.251,610.818 194.858,622.241 199.06,633.757" style="fill:none;stroke:#000;stroke-width:2.29px;"/>
    </g>
    <g>
        <path d="M1057.8,620.676C1057.8,620.676 1076.27,597.406 1076.79,593.628C1077.32,589.85 1063.33,581.197 1063.33,581.197" style="fill:none;stroke:#bc5b4f;stroke-width:2.29px;"/>
        <path d="M1089.59,634.253C1089.59,634.253 1098.2,607.984 1100.98,603.26C1103.75,598.536 1076.81,593.628 1076.81,593.628" style="fill:none;stroke:#bc5b4f;stroke-width:2.29px;"/>
        <path d="M1130.28,603.26L1100.98,603.26" style="fill:none;stroke:#bc5b4f;stroke-width:2.29px;"/>
        <path d="M1028.79,581.178C1037.16,575.282 1055.61,580.27 1061.41,581.178C1067.21,582.086 1057.66,549.227 1061.41,546.078" style="fill:none;stroke:#bc5b4f;stroke-width:2.29px;"/>
        <path d="M1064.17,699.484C1073.03,699.484 1092.72,681.877 1094.31,682.406C1095.2,682.704 1101.99,688.333 1104.48,690.545C1107.48,693.217 1119.51,703.299 1119.51,705.347" style="fill:none;stroke:#bc5b4f;stroke-width:2.29px;"/>
        <path d="M1097.81,638.709C1097.81,644.525 1092.65,669.076 1091.4,671.566C1091,672.369 1094.23,677.814 1094.23,682.394" style="fill:none;stroke:#bc5b4f;stroke-width:2.29px;"/>
        <path d="M1046.51,677.288C1052,677.288 1063.06,675.498 1067.53,671.022C1069.91,668.644 1074.16,665.022 1077.28,663.981C1078.05,663.723 1089.21,669.601 1091.37,671.754" style="fill:none;stroke:#bc5b4f;stroke-width:2.29px;"/>
        <path d="M1077.34,663.973C1077.39,663.938 1063.16,652.465 1060.04,649.342C1059.21,648.51 1061.35,643.749 1061.68,643.218C1064.88,638.083 1067.52,632.865 1067.52,626.856" style="fill:none;stroke:#bc5b4f;stroke-width:2.29px;"/>
        <path d="M1022.55,650.01C1029.1,648.698 1048.69,642.499 1049.6,642.95C1052.35,644.325 1057.48,647.193 1059.85,649.156" style="fill:none;stroke:#bc5b4f;stroke-width:2.29px;"/>
        <path d="M1049.74,642.927C1048.53,642.202 1030.73,630.656 1031.39,626.7C1032.2,621.822 1037.75,612.899 1039.9,608.304" style="fill:none;stroke:#bc5b4f;stroke-width:2.29px;"/>
        <path d="M1003.88,627.949C1007.78,625.352 1014.13,622.652 1016.17,622.008C1018.67,621.217 1029.82,627.452 1031.37,627.949" style="fill:none;stroke:#bc5b4f;stroke-width:2.29px;"/>
        <path d="M981.14,603.686C991.927,595.792 1001.24,593.829 1003.95,591.113C1004.35,590.713 1003.95,589.301 1003.84,588.653C1003.41,586.112 997.912,563.257 996.311,559.097" style="fill:none;stroke:#bc5b4f;stroke-width:2.29px;"/>
        <path d="M1003.88,591.181C1011.81,595.145 1021.27,590.318 1028.79,590.318" style="fill:none;stroke:#bc5b4f;stroke-width:2.29px;"/>
        <path d="M1056.12,740.914C1055.92,740.874 1061.12,748.269 1061.94,749.923C1066.47,759.047 1068.31,766.941 1069.32,776.939C1069.48,778.598 1069.77,783.541 1068.4,784.903" style="fill:none;stroke:#bc5b4f;stroke-width:2.29px;"/>
        <path d="M1028.83,747.754C1028.83,757.59 1027.52,767.116 1025.96,776.462C1025.46,779.498 1028.83,782.345 1028.83,784.861" style="fill:none;stroke:#bc5b4f;stroke-width:2.29px;"/>
        <path d="M1056.12,740.914C1056.11,740.794 1051.08,730.706 1048.18,727.399C1041.99,720.34 1033.66,715.535 1027.14,709.012C1026.62,708.496 1042.55,690.852 1044.1,686.237C1045.05,683.418 1046.69,680.469 1046.69,677.533" style="fill:none;stroke:#bc5b4f;stroke-width:2.29px;"/>
        <path d="M960.801,746.834C964.028,746.834 990.097,719.617 991.59,716.632C992.051,715.709 1009.59,749.553 1013.11,753.064" style="fill:none;stroke:#bc5b4f;stroke-width:2.29px;"/>
        <path d="M991.59,716.632C996.14,716.632 1020.16,709.012 1027.14,709.012" style="fill:none;stroke:#bc5b4f;stroke-width:2.29px;"/>
        <path d="M931.635,651.979C949.406,650.771 966.944,666.846 967.381,666.409C971.534,662.255 1004.69,630.92 1004.69,630.476" style="fill:none;stroke:#bc5b4f;stroke-width:2.29px;"/>
        <path d="M966.895,666.206C971.774,670.11 990.907,677.649 993.457,679.676C995.52,681.315 997.018,684.37 999.065,685.393C999.269,685.495 1015,676.864 1017.38,675.865C1018.96,675.203 1034.02,664.458 1034.02,663.496" style="fill:none;stroke:#bc5b4f;stroke-width:2.29px;"/>
        <path d="M999.223,685.303C999.223,687.486 997.924,700.377 998.712,703.334C999.543,706.452 1001.75,713.867 1001.71,713.982" style="fill:none;stroke:#bc5b4f;stroke-width:2.29px;"/>
        <path d="M933.861,697.96C942.868,697.96 956.165,699.915 964.725,696.562C970.392,694.343 988.522,678.534 988.522,677.079" style="fill:none;stroke:#bc5b4f;stroke-width:2.29px;"/>
        <path d="M1109.89,715.593C1109.89,715.593 1134.36,741.321 1137.22,748.496" style="fill:none;stroke:#bc5b4f;stroke-width:2.29px;"/>
        <path d="M1137.22,647.233L1167.61,642.927" style="fill:none;stroke:#bc5b4f;stroke-width:2.29px;"/>
        <path d="M1132.29,615.368C1132.29,615.368 1152.42,609.825 1152.31,603.686" style="fill:none;stroke:#bc5b4f;stroke-width:2.29px;"/>
        <path d="M966.628,408.391L920.007,327.643L839.259,374.263L885.879,455.012L966.628,408.391Z" style="fill:#fff;stroke:#000;stroke-width:4.17px;"/>
        <path d="M1269.06,408.391L1222.44,327.643L1141.69,374.263L1188.31,455.012L1269.06,408.391Z" style="fill:#fff;stroke:#000;stroke-width:4.17px;stroke-linecap:butt;stroke-dasharray:4.17,4.17;"/>
        <path d="M966.628,369.8L920.007,289.052L839.259,335.672L885.879,416.42L966.628,369.8Z" style="fill:#fff;stroke:#000;stroke-width:4.17px;"/>
        <path d="M1269.06,369.8L1222.44,289.052L1141.69,335.672L1188.31,416.42L1269.06,369.8Z" style="fill:#fff;stroke:#000;stroke-width:4.17px;stroke-linecap:butt;stroke-dasharray:4.17,4.17;"/>
        <path d="M966.628,331.209L920.007,250.46L839.259,297.08L885.879,377.829L966.628,331.209Z" style="fill:#fff;stroke:#000;stroke-width:4.17px;"/>
        <path d="M1269.06,331.209L1222.44,250.46L1141.69,297.08L1188.31,377.829L1269.06,331.209Z" style="fill:#fff;stroke:#000;stroke-width:4.17px;stroke-linecap:butt;stroke-dasharray:4.17,4.17;"/>
        <path d="M966.628,292.618L920.007,211.869L839.259,258.489L885.879,339.238L966.628,292.618Z" style="fill:#fff;stroke:#000;stroke-width:4.17px;"/>
        <path d="M1269.06,292.618L1222.44,211.869L1141.69,258.489L1188.31,339.238L1269.06,292.618Z" style="fill:#fff;stroke:#000;stroke-width:4.17px;stroke-linecap:butt;stroke-dasharray:4.17,4.17;"/>
        <path d="M966.628,254.026L920.007,173.278L839.259,219.898L885.879,300.647L966.628,254.026Z" style="fill:#fff;stroke:#000;stroke-width:4.17px;"/>
        <path d="M1269.06,254.026L1222.44,173.278L1141.69,219.898L1188.31,300.647L1269.06,254.026Z" style="fill:#fff;stroke:#000;stroke-width:4.17px;stroke-linecap:butt;stroke-dasharray:4.17,4.17;"/>
        <path d="M966.628,215.435L920.007,134.686L839.259,181.307L885.879,262.055L966.628,215.435Z" style="fill:#fff;stroke:#000;stroke-width:4.17px;"/>
        <path d="M1269.06,215.435L1222.44,134.686L1141.69,181.307L1188.31,262.055L1269.06,215.435Z" style="fill:#fff;stroke:#000;stroke-width:4.17px;stroke-linecap:butt;stroke-dasharray:4.17,4.17;"/>
        <path d="M966.628,176.844L920.007,96.095L839.259,142.715L885.879,223.464L966.628,176.844Z" style="fill:#fff;stroke:#000;stroke-width:4.17px;"/>
        <path d="M1269.06,176.844L1222.44,96.095L1141.69,142.715L1188.31,223.464L1269.06,176.844Z" style="fill:#fff;stroke:#000;stroke-width:4.17px;stroke-linecap:butt;stroke-dasharray:4.17,4.17;"/>
        <path d="M966.628,138.252L920.007,57.504L839.259,104.124L885.879,184.873L966.628,138.252Z" style="fill:#fff;stroke:#000;stroke-width:4.17px;"/>
        <path d="M1269.06,138.252L1222.44,57.504L1141.69,104.124L1188.31,184.873L1269.06,138.252Z" style="fill:#fff;stroke:#000;stroke-width:4.17px;stroke-linecap:butt;stroke-dasharray:4.17,4.17;"/>
        <path d="M966.628,99.661L920.007,18.913L839.259,65.533L885.879,146.281L966.628,99.661Z" style="fill:#fff;stroke:#000;stroke-width:4.17px;"/>
        <path d="M1269.06,99.661L1222.44,18.913L1141.69,65.533L1188.31,146.281L1269.06,99.661Z" style="fill:#fff;stroke:#000;stroke-width:4.17px;stroke-linecap:butt;stroke-dasharray:4.17,4.17;"/>
        <circle cx="1049.74" cy="666.206" r="120.128" style="fill:none;stroke:#000;stroke-width:2.29px;stroke-dasharray:6.88,6.88,0,0;"/>
        <path d="M1024.93,549.954C1025.71,568.362 1027.8,593.675 1033.1,600.737C1059.39,635.788 1119.76,630.101 1137.33,677.483C1143.14,693.165 1148.92,708.963 1156.16,723.952" style="fill:none;stroke:#3b6e8c;stroke-width:2.29px;"/>
        <path d="M988.607,769.851C999.596,760.481 1010.9,753.05 1020.33,750.177C1052.19,740.475 1087.6,737.834 1112.56,713.058C1154.51,671.407 1131.7,619.238 1122.08,570.505" style="fill:none;stroke:#3b6e8c;stroke-width:2.29px;"/>
        <path d="M961.231,585.33C975.016,597.716 990.333,614.339 995.799,620.676C1025.25,654.814 1059.59,687.889 1082.91,727.122C1091.49,741.55 1097.09,758.19 1102.77,774.201" style="fill:none;stroke:#3b6e8c;stroke-width:2.29px;"/>
        <path d="M1010.93,594.325L1017.39,614.268L997.563,607.472L1010.93,594.325Z" style="fill:#bc5b4f;"/>
        <path d="M929.612,445.681C929.612,492.831 933.008,527.107 1006.88,603.573" style="fill:none;stroke:#bc5b4f;stroke-width:6.25px;stroke-linecap:butt;"/>
        <path d="M1162.58,445.681C1162.58,500.548 917.806,512.892 999.851,594.937" style="fill:none;stroke:#bc5b4f;stroke-width:6.25px;stroke-linecap:butt;"/>
    </g>
</svg>
