<?xml version="1.0" encoding="UTF-8" standalone="no"?>
<!DOCTYPE svg PUBLIC "-//W3C//DTD SVG 1.1//EN" "http://www.w3.org/Graphics/SVG/1.1/DTD/svg11.dtd">
<svg width="100%" height="100%" viewBox="0 0 261 262" version="1.1" xmlns="http://www.w3.org/2000/svg" xmlns:xlink="http://www.w3.org/1999/xlink" xml:space="preserve" xmlns:serif="http://www.serif.com/" style="fill-rule:evenodd;clip-rule:evenodd;stroke-linecap:round;stroke-miterlimit:1.5;">
    <rect id="signatures_no_labels" x="0.065" y="-0.004" width="260.004" height="261.609" style="fill:none;"/>
    <g>
        <path d="M202.739,36.115C230.897,58.104 249.018,92.373 249.018,130.84C249.018,162.671 236.611,191.627 216.374,213.13L189.036,180.227L198.661,169.981L173.376,147.028L171.475,137.424L176.959,103.343L169.305,98.901L180.267,68.615L209.431,68.615L202.739,36.115Z" style="fill:#3b6e8c;"/>
        <path d="M12.868,162.592C10.19,152.635 8.762,142.166 8.762,131.365C8.762,65.065 62.589,11.238 128.89,11.238C132.709,11.238 136.486,11.416 140.221,11.767L141.869,33.822L142.478,45.831L128.89,43.629L113.173,43.629L107.937,45.831L107.937,54.952L111.152,65.57L119.053,72.938L111.152,93.24L128.89,107.656L101.702,114.644L113.173,128.13L98.823,139.079L78.373,149.937L67.672,141.717L52.551,155.491L40.381,162.236L13.011,162.594L12.868,162.592Z" style="fill:#bc5b4f;"/>
        <path d="M140.181,11.238C163.634,13.427 185.138,22.371 202.727,36.106L207.352,68.615L180.267,68.615L169.305,98.901L176.959,103.343L170.991,134.979L173.376,147.028L198.661,169.981L189.036,180.227L207.352,200.616L216.374,213.13C194.457,236.419 163.359,250.968 128.89,250.968C73.582,250.968 26.954,213.51 13.011,162.594L44.203,162.594L68.187,142.113L79.343,149.49L113.348,128.443L102.207,115.154L127.718,107.957L111.153,93.696L112.14,86.6L119.661,72.539L111.153,64.153L107.937,46.684L113.173,43.629L141.935,45.831L143.32,42.438L139.673,15.578L140.181,11.238Z" style="fill:#efc758;"/>
        <circle cx="128.89" cy="130.84" r="120.128" style="fill:none;stroke:#000;stroke-width:2.29px;stroke-dasharray:6.88,6.88,0,0;"/>
        <path d="M169.305,99.845C171.884,100.974 174.442,102.132 176.959,103.343" style="fill:none;stroke:#000;stroke-width:2.29px;"/>
        <path d="M189.036,180.227C189.94,179.409 190.831,178.564 191.71,177.692C194.261,175.16 196.572,172.588 198.661,169.981" style="fill:none;stroke:#000;stroke-width:2.29px;"/>
        <path d="M208.419,67.894C205.793,56.667 203.409,46.175 201.23,35.139" style="fill:none;stroke:#000;stroke-width:2.29px;"/>
        <path d="M101.702,115.777C105.286,119.903 109.046,124.259 112.875,128.735" style="fill:none;stroke:#000;stroke-width:2.29px;"/>
        <path d="M168.738,98.887C168.738,98.887 177.35,72.618 180.126,67.894" style="fill:none;stroke:#000;stroke-width:2.29px;"/>
        <path d="M208.419,67.894L180.126,67.894" style="fill:none;stroke:#000;stroke-width:2.29px;"/>
        <path d="M107.937,45.812C116.314,39.916 134.761,44.904 140.559,45.812C146.356,46.72 136.81,13.861 140.559,10.712" style="fill:none;stroke:#000;stroke-width:2.29px;"/>
        <path d="M173.458,147.04C174.354,147.338 181.136,152.967 183.625,155.179C186.633,157.851 198.661,167.933 198.661,169.981" style="fill:none;stroke:#000;stroke-width:2.29px;"/>
        <path d="M176.959,103.343C176.959,109.159 171.798,133.71 170.553,136.2C170.152,137.003 173.376,142.448 173.376,147.028" style="fill:none;stroke:#000;stroke-width:2.29px;"/>
        <path d="M101.702,114.644C108.254,113.332 127.845,107.133 128.747,107.584" style="fill:none;stroke:#000;stroke-width:2.29px;"/>
        <path d="M128.89,107.561C127.683,106.836 109.878,95.29 110.538,91.334C111.353,86.456 116.9,77.533 119.053,72.938" style="fill:none;stroke:#000;stroke-width:2.29px;"/>
        <path d="M67.742,141.746C70.132,142.869 71.939,143.779 72.607,144.31C74.67,145.949 76.168,149.004 78.215,150.027C78.419,150.129 94.148,141.498 96.528,140.499C98.106,139.837 113.173,129.092 113.173,128.13" style="fill:none;stroke:#000;stroke-width:2.29px;"/>
        <path d="M13.011,162.594C22.018,162.594 35.315,164.549 43.875,161.196C49.542,158.977 67.672,143.168 67.672,141.713" style="fill:none;stroke:#000;stroke-width:2.29px;"/>
        <path d="M189.036,180.227C189.036,180.227 213.514,205.955 216.374,213.13" style="fill:none;stroke:#000;stroke-width:2.29px;"/>
        <path d="M106.74,46.423C108.008,55.09 109.78,62.34 112.248,65.63C114.365,68.453 116.704,71.012 119.224,73.356" style="fill:none;stroke:#000;stroke-width:2.29px;"/>
    </g>
</svg>
