<?xml version="1.0" encoding="UTF-8" standalone="no"?>
<!DOCTYPE svg PUBLIC "-//W3C//DTD SVG 1.1//EN" "http://www.w3.org/Graphics/SVG/1.1/DTD/svg11.dtd">
<svg width="100%" height="100%" viewBox="0 0 652 301" version="1.1" xmlns="http://www.w3.org/2000/svg" xmlns:xlink="http://www.w3.org/1999/xlink" xml:space="preserve" xmlns:serif="http://www.serif.com/" style="fill-rule:evenodd;clip-rule:evenodd;stroke-linecap:round;stroke-miterlimit:1.5;">
    <rect id="signatures" x="0.497" y="-0.005" width="651.138" height="300.283" style="fill:none;"/>
    <g>
        <g transform="matrix(1,0,0,1,-455.517,-140.157)">
            <g transform="matrix(33.3333,0,0,33.3333,497.808,305.217)">
                <path d="M0.031,-0.312C0.031,-0.348 0.044,-0.378 0.07,-0.401C0.097,-0.424 0.13,-0.435 0.169,-0.435C0.194,-0.435 0.223,-0.428 0.255,-0.415C0.257,-0.391 0.257,-0.37 0.257,-0.351C0.257,-0.336 0.257,-0.323 0.256,-0.311C0.256,-0.309 0.254,-0.307 0.25,-0.304C0.246,-0.302 0.242,-0.301 0.238,-0.301C0.227,-0.301 0.222,-0.305 0.22,-0.311C0.216,-0.336 0.207,-0.356 0.195,-0.369C0.183,-0.382 0.169,-0.388 0.153,-0.388C0.139,-0.388 0.128,-0.384 0.119,-0.375C0.11,-0.366 0.106,-0.355 0.106,-0.342C0.106,-0.332 0.11,-0.321 0.119,-0.31C0.128,-0.299 0.136,-0.291 0.144,-0.284C0.152,-0.278 0.164,-0.27 0.18,-0.259C0.197,-0.248 0.206,-0.243 0.208,-0.241C0.261,-0.204 0.288,-0.164 0.288,-0.119C0.288,-0.084 0.275,-0.053 0.248,-0.028C0.221,-0.003 0.19,0.01 0.154,0.01C0.132,0.01 0.112,0.006 0.095,-0.001C0.091,-0.002 0.089,-0.003 0.087,-0.004C0.084,-0.001 0.081,0.003 0.079,0.008C0.069,0.011 0.062,0.012 0.059,0.012L0.058,0.012C0.049,0.011 0.044,0.006 0.044,-0.002C0.04,-0.041 0.037,-0.079 0.035,-0.114C0.035,-0.119 0.037,-0.123 0.042,-0.125C0.048,-0.128 0.055,-0.128 0.062,-0.127C0.067,-0.125 0.07,-0.121 0.072,-0.114C0.084,-0.058 0.111,-0.031 0.151,-0.031C0.167,-0.031 0.18,-0.036 0.19,-0.047C0.201,-0.058 0.206,-0.072 0.206,-0.088C0.206,-0.107 0.197,-0.126 0.178,-0.143C0.16,-0.161 0.14,-0.176 0.118,-0.188C0.097,-0.201 0.077,-0.218 0.058,-0.24C0.04,-0.261 0.031,-0.285 0.031,-0.312Z" style="fill-rule:nonzero;"/>
            </g>
            <g transform="matrix(33.3333,0,0,33.3333,508.273,305.217)">
                <path d="M0.008,0.249C0.01,0.239 0.014,0.234 0.021,0.234L0.03,0.234C0.055,0.234 0.07,0.228 0.077,0.217C0.084,0.205 0.087,0.176 0.087,0.129L0.087,-0.303C0.087,-0.314 0.086,-0.321 0.084,-0.323C0.082,-0.326 0.076,-0.328 0.066,-0.331C0.062,-0.332 0.056,-0.334 0.049,-0.337C0.041,-0.34 0.035,-0.341 0.032,-0.342C0.026,-0.343 0.022,-0.348 0.021,-0.355C0.02,-0.363 0.021,-0.368 0.024,-0.37C0.025,-0.373 0.028,-0.376 0.032,-0.379L0.139,-0.447C0.146,-0.451 0.152,-0.454 0.159,-0.454L0.164,-0.453C0.172,-0.452 0.176,-0.446 0.176,-0.435L0.176,-0.382C0.176,-0.37 0.179,-0.364 0.182,-0.364C0.239,-0.404 0.284,-0.424 0.317,-0.424C0.36,-0.424 0.398,-0.403 0.429,-0.363C0.461,-0.322 0.477,-0.276 0.477,-0.223C0.477,-0.16 0.455,-0.104 0.41,-0.055C0.365,-0.007 0.313,0.017 0.254,0.017C0.235,0.017 0.21,0.012 0.181,0.003C0.179,0.002 0.177,0.005 0.176,0.011L0.176,0.129C0.176,0.175 0.179,0.204 0.185,0.215C0.192,0.226 0.207,0.231 0.232,0.231L0.246,0.231C0.258,0.231 0.266,0.235 0.269,0.242C0.27,0.246 0.271,0.251 0.271,0.258C0.27,0.264 0.269,0.268 0.267,0.271C0.265,0.276 0.259,0.279 0.25,0.279C0.238,0.278 0.212,0.277 0.171,0.277L0.138,0.277C0.078,0.278 0.04,0.278 0.025,0.278C0.017,0.278 0.012,0.276 0.01,0.272C0.007,0.269 0.006,0.265 0.006,0.26C0.006,0.257 0.007,0.253 0.008,0.249ZM0.176,-0.087C0.211,-0.054 0.246,-0.037 0.281,-0.037C0.311,-0.037 0.336,-0.052 0.356,-0.081C0.376,-0.11 0.386,-0.146 0.386,-0.19C0.386,-0.239 0.375,-0.278 0.352,-0.309C0.329,-0.339 0.301,-0.354 0.268,-0.354C0.243,-0.354 0.214,-0.341 0.18,-0.314C0.178,-0.309 0.176,-0.304 0.176,-0.3L0.176,-0.087Z" style="fill-rule:nonzero;"/>
            </g>
            <g transform="matrix(33.3333,0,0,33.3333,525.038,305.217)">
                <path d="M0.025,-0.081C0.025,-0.132 0.061,-0.167 0.132,-0.186C0.152,-0.191 0.182,-0.203 0.222,-0.221C0.227,-0.226 0.23,-0.231 0.23,-0.234L0.229,-0.297C0.228,-0.352 0.208,-0.379 0.169,-0.379C0.159,-0.379 0.148,-0.375 0.136,-0.366C0.125,-0.358 0.119,-0.35 0.119,-0.341C0.119,-0.33 0.12,-0.322 0.123,-0.316C0.119,-0.311 0.109,-0.305 0.093,-0.297C0.076,-0.289 0.065,-0.285 0.06,-0.283C0.051,-0.28 0.043,-0.28 0.038,-0.282C0.033,-0.285 0.031,-0.292 0.031,-0.303C0.031,-0.327 0.052,-0.356 0.094,-0.39C0.129,-0.417 0.16,-0.431 0.189,-0.431C0.21,-0.431 0.232,-0.426 0.253,-0.415C0.274,-0.404 0.29,-0.39 0.302,-0.373C0.31,-0.362 0.315,-0.351 0.316,-0.341C0.318,-0.331 0.319,-0.31 0.319,-0.279L0.319,-0.102C0.319,-0.089 0.32,-0.079 0.322,-0.072C0.323,-0.065 0.325,-0.062 0.327,-0.061C0.329,-0.06 0.332,-0.059 0.335,-0.059C0.348,-0.059 0.36,-0.065 0.373,-0.076C0.378,-0.079 0.382,-0.08 0.385,-0.08C0.391,-0.079 0.396,-0.074 0.397,-0.066C0.398,-0.063 0.399,-0.061 0.399,-0.058C0.399,-0.054 0.398,-0.05 0.396,-0.047C0.351,-0.007 0.316,0.012 0.289,0.012C0.261,0.012 0.243,-0.003 0.235,-0.034C0.234,-0.038 0.232,-0.038 0.227,-0.035C0.204,-0.017 0.186,-0.005 0.172,0.002C0.159,0.009 0.143,0.012 0.125,0.012C0.096,0.012 0.072,0.003 0.053,-0.014C0.034,-0.031 0.025,-0.054 0.025,-0.081ZM0.16,-0.148C0.127,-0.135 0.11,-0.117 0.11,-0.094C0.11,-0.081 0.115,-0.069 0.124,-0.06C0.133,-0.051 0.145,-0.046 0.159,-0.046C0.169,-0.046 0.182,-0.051 0.198,-0.063C0.215,-0.074 0.225,-0.084 0.229,-0.093L0.229,-0.16C0.229,-0.165 0.228,-0.169 0.227,-0.172C0.225,-0.174 0.224,-0.176 0.222,-0.176L0.221,-0.176C0.204,-0.167 0.184,-0.158 0.16,-0.148Z" style="fill-rule:nonzero;"/>
            </g>
            <g transform="matrix(33.3333,0,0,33.3333,538.824,305.217)">
                <path d="M0.021,-0.39C0.023,-0.393 0.027,-0.396 0.032,-0.399C0.068,-0.418 0.096,-0.458 0.117,-0.52C0.118,-0.528 0.125,-0.531 0.137,-0.532L0.138,-0.532C0.149,-0.532 0.154,-0.527 0.154,-0.518C0.153,-0.497 0.152,-0.479 0.152,-0.465C0.152,-0.45 0.153,-0.44 0.154,-0.433C0.154,-0.43 0.158,-0.427 0.166,-0.425L0.265,-0.425C0.277,-0.425 0.282,-0.42 0.282,-0.412C0.282,-0.409 0.282,-0.406 0.281,-0.403C0.279,-0.393 0.277,-0.382 0.272,-0.369C0.268,-0.362 0.261,-0.358 0.252,-0.359L0.163,-0.36C0.159,-0.361 0.156,-0.359 0.154,-0.353L0.154,-0.181C0.154,-0.131 0.158,-0.098 0.165,-0.082C0.173,-0.065 0.187,-0.057 0.208,-0.057C0.227,-0.057 0.244,-0.073 0.261,-0.105C0.264,-0.111 0.269,-0.113 0.276,-0.113C0.283,-0.112 0.288,-0.11 0.292,-0.106C0.294,-0.104 0.295,-0.1 0.295,-0.094C0.295,-0.087 0.295,-0.083 0.294,-0.082C0.266,-0.02 0.227,0.011 0.176,0.011C0.144,0.011 0.118,-0.001 0.098,-0.025C0.078,-0.049 0.068,-0.08 0.068,-0.117L0.068,-0.353C0.068,-0.356 0.065,-0.358 0.058,-0.359C0.054,-0.36 0.048,-0.36 0.042,-0.361C0.035,-0.361 0.03,-0.362 0.026,-0.362C0.022,-0.369 0.02,-0.375 0.02,-0.381C0.02,-0.385 0.02,-0.388 0.021,-0.39Z" style="fill-rule:nonzero;"/>
            </g>
            <g transform="matrix(33.3333,0,0,33.3333,549.452,305.217)">
                <path d="M0.02,-0.017L0.02,-0.022C0.02,-0.035 0.024,-0.041 0.032,-0.041L0.065,-0.044C0.069,-0.045 0.073,-0.046 0.076,-0.048C0.08,-0.051 0.082,-0.052 0.084,-0.052C0.087,-0.053 0.088,-0.055 0.089,-0.059C0.09,-0.063 0.091,-0.065 0.093,-0.066C0.094,-0.067 0.094,-0.071 0.095,-0.077C0.095,-0.084 0.095,-0.088 0.095,-0.091L0.095,-0.304C0.095,-0.328 0.094,-0.342 0.092,-0.346C0.09,-0.349 0.085,-0.351 0.074,-0.353C0.073,-0.353 0.06,-0.357 0.035,-0.364C0.029,-0.366 0.026,-0.371 0.026,-0.38C0.026,-0.389 0.028,-0.396 0.033,-0.399C0.076,-0.415 0.115,-0.429 0.151,-0.441C0.155,-0.442 0.159,-0.443 0.162,-0.443C0.175,-0.443 0.182,-0.433 0.182,-0.412L0.182,-0.128C0.182,-0.103 0.182,-0.086 0.183,-0.077C0.184,-0.061 0.186,-0.052 0.19,-0.049C0.194,-0.045 0.205,-0.044 0.224,-0.044L0.228,-0.044C0.239,-0.044 0.245,-0.039 0.247,-0.028L0.247,-0.01C0.247,-0.001 0.242,0.003 0.232,0.003C0.231,0.003 0.229,0.003 0.227,0.003C0.212,0.002 0.188,0.001 0.156,0.001C0.124,0.001 0.083,0.002 0.034,0.003C0.032,0.003 0.029,0.001 0.026,-0.003C0.023,-0.008 0.021,-0.012 0.02,-0.017ZM0.085,-0.568C0.075,-0.579 0.07,-0.592 0.07,-0.608C0.07,-0.624 0.075,-0.637 0.086,-0.648C0.097,-0.66 0.111,-0.665 0.126,-0.665C0.143,-0.665 0.156,-0.66 0.167,-0.648C0.179,-0.637 0.184,-0.624 0.184,-0.607C0.184,-0.591 0.178,-0.578 0.167,-0.568C0.156,-0.558 0.142,-0.553 0.125,-0.553C0.109,-0.553 0.096,-0.558 0.085,-0.568Z" style="fill-rule:nonzero;"/>
            </g>
            <g transform="matrix(33.3333,0,0,33.3333,558.306,305.217)">
                <path d="M0.025,-0.081C0.025,-0.132 0.061,-0.167 0.132,-0.186C0.152,-0.191 0.182,-0.203 0.222,-0.221C0.227,-0.226 0.23,-0.231 0.23,-0.234L0.229,-0.297C0.228,-0.352 0.208,-0.379 0.169,-0.379C0.159,-0.379 0.148,-0.375 0.136,-0.366C0.125,-0.358 0.119,-0.35 0.119,-0.341C0.119,-0.33 0.12,-0.322 0.123,-0.316C0.119,-0.311 0.109,-0.305 0.093,-0.297C0.076,-0.289 0.065,-0.285 0.06,-0.283C0.051,-0.28 0.043,-0.28 0.038,-0.282C0.033,-0.285 0.031,-0.292 0.031,-0.303C0.031,-0.327 0.052,-0.356 0.094,-0.39C0.129,-0.417 0.16,-0.431 0.189,-0.431C0.21,-0.431 0.232,-0.426 0.253,-0.415C0.274,-0.404 0.29,-0.39 0.302,-0.373C0.31,-0.362 0.315,-0.351 0.316,-0.341C0.318,-0.331 0.319,-0.31 0.319,-0.279L0.319,-0.102C0.319,-0.089 0.32,-0.079 0.322,-0.072C0.323,-0.065 0.325,-0.062 0.327,-0.061C0.329,-0.06 0.332,-0.059 0.335,-0.059C0.348,-0.059 0.36,-0.065 0.373,-0.076C0.378,-0.079 0.382,-0.08 0.385,-0.08C0.391,-0.079 0.396,-0.074 0.397,-0.066C0.398,-0.063 0.399,-0.061 0.399,-0.058C0.399,-0.054 0.398,-0.05 0.396,-0.047C0.351,-0.007 0.316,0.012 0.289,0.012C0.261,0.012 0.243,-0.003 0.235,-0.034C0.234,-0.038 0.232,-0.038 0.227,-0.035C0.204,-0.017 0.186,-0.005 0.172,0.002C0.159,0.009 0.143,0.012 0.125,0.012C0.096,0.012 0.072,0.003 0.053,-0.014C0.034,-0.031 0.025,-0.054 0.025,-0.081ZM0.16,-0.148C0.127,-0.135 0.11,-0.117 0.11,-0.094C0.11,-0.081 0.115,-0.069 0.124,-0.06C0.133,-0.051 0.145,-0.046 0.159,-0.046C0.169,-0.046 0.182,-0.051 0.198,-0.063C0.215,-0.074 0.225,-0.084 0.229,-0.093L0.229,-0.16C0.229,-0.165 0.228,-0.169 0.227,-0.172C0.225,-0.174 0.224,-0.176 0.222,-0.176L0.221,-0.176C0.204,-0.167 0.184,-0.158 0.16,-0.148Z" style="fill-rule:nonzero;"/>
            </g>
            <g transform="matrix(33.3333,0,0,33.3333,572.092,305.217)">
                <path d="M0.025,-0.01C0.024,-0.014 0.023,-0.018 0.023,-0.021C0.023,-0.026 0.024,-0.03 0.026,-0.033C0.028,-0.038 0.03,-0.04 0.032,-0.041C0.034,-0.041 0.039,-0.041 0.046,-0.041C0.069,-0.041 0.084,-0.045 0.09,-0.052C0.096,-0.059 0.099,-0.076 0.099,-0.101L0.099,-0.619C0.099,-0.627 0.095,-0.631 0.088,-0.631L0.04,-0.64C0.034,-0.641 0.03,-0.647 0.03,-0.658C0.029,-0.669 0.033,-0.675 0.04,-0.678C0.087,-0.692 0.129,-0.706 0.167,-0.72L0.168,-0.72C0.173,-0.72 0.177,-0.717 0.181,-0.712C0.185,-0.706 0.187,-0.7 0.187,-0.694L0.187,-0.102C0.187,-0.073 0.189,-0.056 0.193,-0.05C0.197,-0.044 0.209,-0.041 0.23,-0.041C0.245,-0.041 0.253,-0.038 0.254,-0.031L0.254,-0.018C0.254,-0.005 0.249,0.002 0.239,0.002C0.191,0.001 0.15,0.001 0.117,0.001C0.084,0.001 0.059,0.001 0.041,0.002C0.039,0.002 0.036,0.001 0.032,-0.001C0.028,-0.004 0.026,-0.007 0.025,-0.01Z" style="fill-rule:nonzero;"/>
            </g>
            <g transform="matrix(33.3333,0,0,33.3333,497.808,338.551)">
                <path d="M0.031,-0.312C0.031,-0.348 0.044,-0.378 0.07,-0.401C0.097,-0.424 0.13,-0.435 0.169,-0.435C0.194,-0.435 0.223,-0.428 0.255,-0.415C0.257,-0.391 0.257,-0.37 0.257,-0.351C0.257,-0.336 0.257,-0.323 0.256,-0.311C0.256,-0.309 0.254,-0.307 0.25,-0.304C0.246,-0.302 0.242,-0.301 0.238,-0.301C0.227,-0.301 0.222,-0.305 0.22,-0.311C0.216,-0.336 0.207,-0.356 0.195,-0.369C0.183,-0.382 0.169,-0.388 0.153,-0.388C0.139,-0.388 0.128,-0.384 0.119,-0.375C0.11,-0.366 0.106,-0.355 0.106,-0.342C0.106,-0.332 0.11,-0.321 0.119,-0.31C0.128,-0.299 0.136,-0.291 0.144,-0.284C0.152,-0.278 0.164,-0.27 0.18,-0.259C0.197,-0.248 0.206,-0.243 0.208,-0.241C0.261,-0.204 0.288,-0.164 0.288,-0.119C0.288,-0.084 0.275,-0.053 0.248,-0.028C0.221,-0.003 0.19,0.01 0.154,0.01C0.132,0.01 0.112,0.006 0.095,-0.001C0.091,-0.002 0.089,-0.003 0.087,-0.004C0.084,-0.001 0.081,0.003 0.079,0.008C0.069,0.011 0.062,0.012 0.059,0.012L0.058,0.012C0.049,0.011 0.044,0.006 0.044,-0.002C0.04,-0.041 0.037,-0.079 0.035,-0.114C0.035,-0.119 0.037,-0.123 0.042,-0.125C0.048,-0.128 0.055,-0.128 0.062,-0.127C0.067,-0.125 0.07,-0.121 0.072,-0.114C0.084,-0.058 0.111,-0.031 0.151,-0.031C0.167,-0.031 0.18,-0.036 0.19,-0.047C0.201,-0.058 0.206,-0.072 0.206,-0.088C0.206,-0.107 0.197,-0.126 0.178,-0.143C0.16,-0.161 0.14,-0.176 0.118,-0.188C0.097,-0.201 0.077,-0.218 0.058,-0.24C0.04,-0.261 0.031,-0.285 0.031,-0.312Z" style="fill-rule:nonzero;"/>
            </g>
            <g transform="matrix(33.3333,0,0,33.3333,508.273,338.551)">
                <path d="M0.02,-0.017L0.02,-0.022C0.02,-0.035 0.024,-0.041 0.032,-0.041L0.065,-0.044C0.069,-0.045 0.073,-0.046 0.076,-0.048C0.08,-0.051 0.082,-0.052 0.084,-0.052C0.087,-0.053 0.088,-0.055 0.089,-0.059C0.09,-0.063 0.091,-0.065 0.093,-0.066C0.094,-0.067 0.094,-0.071 0.095,-0.077C0.095,-0.084 0.095,-0.088 0.095,-0.091L0.095,-0.304C0.095,-0.328 0.094,-0.342 0.092,-0.346C0.09,-0.349 0.085,-0.351 0.074,-0.353C0.073,-0.353 0.06,-0.357 0.035,-0.364C0.029,-0.366 0.026,-0.371 0.026,-0.38C0.026,-0.389 0.028,-0.396 0.033,-0.399C0.076,-0.415 0.115,-0.429 0.151,-0.441C0.155,-0.442 0.159,-0.443 0.162,-0.443C0.175,-0.443 0.182,-0.433 0.182,-0.412L0.182,-0.128C0.182,-0.103 0.182,-0.086 0.183,-0.077C0.184,-0.061 0.186,-0.052 0.19,-0.049C0.194,-0.045 0.205,-0.044 0.224,-0.044L0.228,-0.044C0.239,-0.044 0.245,-0.039 0.247,-0.028L0.247,-0.01C0.247,-0.001 0.242,0.003 0.232,0.003C0.231,0.003 0.229,0.003 0.227,0.003C0.212,0.002 0.188,0.001 0.156,0.001C0.124,0.001 0.083,0.002 0.034,0.003C0.032,0.003 0.029,0.001 0.026,-0.003C0.023,-0.008 0.021,-0.012 0.02,-0.017ZM0.085,-0.568C0.075,-0.579 0.07,-0.592 0.07,-0.608C0.07,-0.624 0.075,-0.637 0.086,-0.648C0.097,-0.66 0.111,-0.665 0.126,-0.665C0.143,-0.665 0.156,-0.66 0.167,-0.648C0.179,-0.637 0.184,-0.624 0.184,-0.607C0.184,-0.591 0.178,-0.578 0.167,-0.568C0.156,-0.558 0.142,-0.553 0.125,-0.553C0.109,-0.553 0.096,-0.558 0.085,-0.568Z" style="fill-rule:nonzero;"/>
            </g>
            <g transform="matrix(33.3333,0,0,33.3333,517.128,338.551)">
                <path d="M0.026,0.136C0.026,0.117 0.031,0.1 0.04,0.084C0.049,0.069 0.059,0.058 0.068,0.051C0.077,0.044 0.092,0.034 0.112,0.021C0.118,0.016 0.117,0.013 0.11,0.011C0.066,-0.007 0.044,-0.032 0.044,-0.065C0.044,-0.071 0.047,-0.078 0.052,-0.085C0.058,-0.092 0.063,-0.096 0.068,-0.099C0.072,-0.101 0.079,-0.105 0.09,-0.111C0.103,-0.117 0.112,-0.123 0.118,-0.127C0.125,-0.132 0.126,-0.136 0.121,-0.139C0.075,-0.167 0.051,-0.207 0.051,-0.26C0.051,-0.308 0.067,-0.348 0.1,-0.38C0.133,-0.413 0.174,-0.429 0.221,-0.429C0.266,-0.429 0.301,-0.416 0.327,-0.388L0.333,-0.388C0.336,-0.388 0.365,-0.391 0.42,-0.398C0.429,-0.399 0.435,-0.399 0.438,-0.397C0.442,-0.395 0.444,-0.389 0.445,-0.38C0.447,-0.36 0.448,-0.345 0.448,-0.334L0.448,-0.33C0.447,-0.319 0.442,-0.313 0.433,-0.313C0.425,-0.313 0.407,-0.315 0.379,-0.319C0.373,-0.319 0.37,-0.317 0.37,-0.314C0.37,-0.313 0.37,-0.312 0.371,-0.311C0.375,-0.298 0.377,-0.284 0.377,-0.268C0.377,-0.223 0.361,-0.186 0.328,-0.156C0.296,-0.127 0.256,-0.113 0.207,-0.113C0.196,-0.113 0.184,-0.115 0.169,-0.118C0.166,-0.114 0.157,-0.106 0.143,-0.095C0.139,-0.091 0.135,-0.087 0.133,-0.085C0.131,-0.082 0.129,-0.079 0.127,-0.076C0.125,-0.073 0.125,-0.069 0.128,-0.067C0.131,-0.064 0.135,-0.062 0.142,-0.06C0.159,-0.056 0.192,-0.053 0.242,-0.052C0.315,-0.05 0.367,-0.043 0.398,-0.029C0.435,-0.012 0.453,0.02 0.453,0.067C0.453,0.119 0.427,0.163 0.375,0.198C0.323,0.233 0.261,0.25 0.189,0.25C0.152,0.25 0.115,0.239 0.079,0.218C0.044,0.197 0.026,0.169 0.026,0.136ZM0.11,0.11C0.109,0.133 0.122,0.152 0.148,0.167C0.175,0.181 0.206,0.189 0.243,0.189C0.274,0.189 0.306,0.179 0.336,0.158C0.367,0.137 0.383,0.116 0.383,0.094C0.383,0.074 0.376,0.058 0.361,0.048C0.347,0.038 0.32,0.031 0.28,0.029C0.277,0.029 0.241,0.028 0.17,0.026C0.168,0.028 0.165,0.031 0.162,0.034C0.159,0.038 0.155,0.041 0.152,0.044C0.148,0.048 0.145,0.051 0.143,0.053C0.121,0.077 0.11,0.096 0.11,0.11ZM0.135,-0.281C0.135,-0.243 0.143,-0.213 0.159,-0.191C0.175,-0.169 0.195,-0.158 0.218,-0.158C0.24,-0.158 0.258,-0.167 0.272,-0.186C0.287,-0.204 0.294,-0.229 0.294,-0.262C0.294,-0.299 0.286,-0.329 0.27,-0.352C0.253,-0.375 0.233,-0.386 0.21,-0.386C0.188,-0.386 0.171,-0.376 0.156,-0.357C0.142,-0.337 0.135,-0.312 0.135,-0.281Z" style="fill-rule:nonzero;"/>
            </g>
            <g transform="matrix(33.3333,0,0,33.3333,533.225,338.551)">
                <path d="M0.025,-0.006C0.024,-0.009 0.023,-0.012 0.023,-0.015C0.023,-0.019 0.024,-0.023 0.025,-0.027C0.028,-0.035 0.032,-0.039 0.038,-0.039L0.043,-0.039C0.064,-0.039 0.078,-0.045 0.085,-0.055C0.091,-0.066 0.094,-0.093 0.094,-0.135L0.094,-0.269C0.094,-0.314 0.093,-0.339 0.09,-0.346C0.089,-0.35 0.077,-0.354 0.056,-0.358L0.036,-0.362C0.03,-0.363 0.027,-0.369 0.027,-0.38C0.028,-0.391 0.031,-0.397 0.036,-0.399C0.05,-0.403 0.079,-0.414 0.122,-0.431C0.135,-0.436 0.145,-0.44 0.152,-0.441C0.155,-0.442 0.158,-0.442 0.16,-0.442C0.166,-0.442 0.171,-0.44 0.174,-0.438C0.179,-0.433 0.181,-0.427 0.181,-0.419L0.181,-0.376C0.181,-0.375 0.182,-0.373 0.183,-0.37C0.184,-0.368 0.185,-0.365 0.186,-0.364C0.187,-0.362 0.188,-0.361 0.189,-0.362C0.252,-0.406 0.301,-0.428 0.336,-0.428C0.412,-0.428 0.45,-0.368 0.45,-0.247C0.45,-0.228 0.449,-0.199 0.446,-0.16C0.443,-0.121 0.442,-0.091 0.442,-0.071C0.442,-0.058 0.444,-0.05 0.449,-0.046C0.454,-0.043 0.465,-0.041 0.484,-0.041C0.493,-0.045 0.5,-0.043 0.505,-0.036C0.507,-0.032 0.509,-0.026 0.509,-0.016C0.509,-0.007 0.506,-0.001 0.501,0.001C0.498,0.002 0.494,0.002 0.488,0.002C0.474,0.002 0.444,0.002 0.396,0.001L0.354,0.001C0.33,0.001 0.313,0.002 0.303,0.002L0.301,0.002C0.288,0.002 0.281,-0.005 0.281,-0.019C0.281,-0.024 0.282,-0.029 0.285,-0.034C0.288,-0.039 0.291,-0.041 0.295,-0.041L0.301,-0.041C0.321,-0.043 0.335,-0.047 0.342,-0.053C0.349,-0.06 0.354,-0.072 0.356,-0.091C0.36,-0.128 0.362,-0.185 0.362,-0.262C0.362,-0.331 0.34,-0.365 0.296,-0.365C0.267,-0.365 0.229,-0.347 0.181,-0.31L0.181,-0.092C0.181,-0.068 0.184,-0.054 0.19,-0.049C0.196,-0.044 0.211,-0.041 0.235,-0.041C0.243,-0.041 0.248,-0.034 0.249,-0.019C0.249,-0.005 0.243,0.002 0.23,0.003C0.219,0.003 0.201,0.002 0.178,0.002L0.096,0.002C0.072,0.002 0.054,0.002 0.043,0.002L0.04,0.002C0.032,0.002 0.027,-0.001 0.025,-0.006Z" style="fill-rule:nonzero;"/>
            </g>
            <g transform="matrix(33.3333,0,0,33.3333,550.656,338.551)">
                <path d="M0.025,-0.081C0.025,-0.132 0.061,-0.167 0.132,-0.186C0.152,-0.191 0.182,-0.203 0.222,-0.221C0.227,-0.226 0.23,-0.231 0.23,-0.234L0.229,-0.297C0.228,-0.352 0.208,-0.379 0.169,-0.379C0.159,-0.379 0.148,-0.375 0.136,-0.366C0.125,-0.358 0.119,-0.35 0.119,-0.341C0.119,-0.33 0.12,-0.322 0.123,-0.316C0.119,-0.311 0.109,-0.305 0.093,-0.297C0.076,-0.289 0.065,-0.285 0.06,-0.283C0.051,-0.28 0.043,-0.28 0.038,-0.282C0.033,-0.285 0.031,-0.292 0.031,-0.303C0.031,-0.327 0.052,-0.356 0.094,-0.39C0.129,-0.417 0.16,-0.431 0.189,-0.431C0.21,-0.431 0.232,-0.426 0.253,-0.415C0.274,-0.404 0.29,-0.39 0.302,-0.373C0.31,-0.362 0.315,-0.351 0.316,-0.341C0.318,-0.331 0.319,-0.31 0.319,-0.279L0.319,-0.102C0.319,-0.089 0.32,-0.079 0.322,-0.072C0.323,-0.065 0.325,-0.062 0.327,-0.061C0.329,-0.06 0.332,-0.059 0.335,-0.059C0.348,-0.059 0.36,-0.065 0.373,-0.076C0.378,-0.079 0.382,-0.08 0.385,-0.08C0.391,-0.079 0.396,-0.074 0.397,-0.066C0.398,-0.063 0.399,-0.061 0.399,-0.058C0.399,-0.054 0.398,-0.05 0.396,-0.047C0.351,-0.007 0.316,0.012 0.289,0.012C0.261,0.012 0.243,-0.003 0.235,-0.034C0.234,-0.038 0.232,-0.038 0.227,-0.035C0.204,-0.017 0.186,-0.005 0.172,0.002C0.159,0.009 0.143,0.012 0.125,0.012C0.096,0.012 0.072,0.003 0.053,-0.014C0.034,-0.031 0.025,-0.054 0.025,-0.081ZM0.16,-0.148C0.127,-0.135 0.11,-0.117 0.11,-0.094C0.11,-0.081 0.115,-0.069 0.124,-0.06C0.133,-0.051 0.145,-0.046 0.159,-0.046C0.169,-0.046 0.182,-0.051 0.198,-0.063C0.215,-0.074 0.225,-0.084 0.229,-0.093L0.229,-0.16C0.229,-0.165 0.228,-0.169 0.227,-0.172C0.225,-0.174 0.224,-0.176 0.222,-0.176L0.221,-0.176C0.204,-0.167 0.184,-0.158 0.16,-0.148Z" style="fill-rule:nonzero;"/>
            </g>
            <g transform="matrix(33.3333,0,0,33.3333,564.442,338.551)">
                <path d="M0.021,-0.39C0.023,-0.393 0.027,-0.396 0.032,-0.399C0.068,-0.418 0.096,-0.458 0.117,-0.52C0.118,-0.528 0.125,-0.531 0.137,-0.532L0.138,-0.532C0.149,-0.532 0.154,-0.527 0.154,-0.518C0.153,-0.497 0.152,-0.479 0.152,-0.465C0.152,-0.45 0.153,-0.44 0.154,-0.433C0.154,-0.43 0.158,-0.427 0.166,-0.425L0.265,-0.425C0.277,-0.425 0.282,-0.42 0.282,-0.412C0.282,-0.409 0.282,-0.406 0.281,-0.403C0.279,-0.393 0.277,-0.382 0.272,-0.369C0.268,-0.362 0.261,-0.358 0.252,-0.359L0.163,-0.36C0.159,-0.361 0.156,-0.359 0.154,-0.353L0.154,-0.181C0.154,-0.131 0.158,-0.098 0.165,-0.082C0.173,-0.065 0.187,-0.057 0.208,-0.057C0.227,-0.057 0.244,-0.073 0.261,-0.105C0.264,-0.111 0.269,-0.113 0.276,-0.113C0.283,-0.112 0.288,-0.11 0.292,-0.106C0.294,-0.104 0.295,-0.1 0.295,-0.094C0.295,-0.087 0.295,-0.083 0.294,-0.082C0.266,-0.02 0.227,0.011 0.176,0.011C0.144,0.011 0.118,-0.001 0.098,-0.025C0.078,-0.049 0.068,-0.08 0.068,-0.117L0.068,-0.353C0.068,-0.356 0.065,-0.358 0.058,-0.359C0.054,-0.36 0.048,-0.36 0.042,-0.361C0.035,-0.361 0.03,-0.362 0.026,-0.362C0.022,-0.369 0.02,-0.375 0.02,-0.381C0.02,-0.385 0.02,-0.388 0.021,-0.39Z" style="fill-rule:nonzero;"/>
            </g>
            <g transform="matrix(33.3333,0,0,33.3333,575.07,338.551)">
                <path d="M0.02,-0.395C0.019,-0.397 0.019,-0.399 0.019,-0.4C0.019,-0.407 0.023,-0.412 0.03,-0.414C0.036,-0.415 0.055,-0.42 0.087,-0.428C0.119,-0.437 0.141,-0.442 0.155,-0.445C0.161,-0.446 0.167,-0.444 0.171,-0.439C0.175,-0.434 0.177,-0.428 0.177,-0.421L0.177,-0.185C0.177,-0.134 0.182,-0.1 0.193,-0.083C0.204,-0.066 0.224,-0.058 0.255,-0.058C0.282,-0.058 0.316,-0.074 0.358,-0.107C0.361,-0.113 0.362,-0.118 0.362,-0.122L0.362,-0.316C0.362,-0.319 0.362,-0.324 0.361,-0.33C0.361,-0.337 0.36,-0.342 0.359,-0.345C0.358,-0.349 0.356,-0.353 0.354,-0.357C0.352,-0.362 0.349,-0.365 0.346,-0.368C0.343,-0.371 0.339,-0.372 0.334,-0.373C0.325,-0.374 0.317,-0.376 0.312,-0.377C0.311,-0.377 0.3,-0.379 0.279,-0.382C0.273,-0.385 0.27,-0.391 0.271,-0.401C0.272,-0.41 0.275,-0.416 0.282,-0.418C0.353,-0.434 0.4,-0.443 0.424,-0.446L0.428,-0.446C0.442,-0.446 0.45,-0.439 0.45,-0.425L0.45,-0.082C0.45,-0.071 0.454,-0.064 0.462,-0.063C0.469,-0.062 0.477,-0.063 0.485,-0.066L0.506,-0.072C0.512,-0.072 0.516,-0.07 0.519,-0.063C0.52,-0.06 0.521,-0.056 0.521,-0.051C0.521,-0.048 0.521,-0.046 0.521,-0.043C0.519,-0.036 0.515,-0.031 0.509,-0.03C0.473,-0.014 0.436,-0.002 0.398,0.006C0.393,0.007 0.388,0.008 0.384,0.008C0.371,0.008 0.363,0.001 0.363,-0.013L0.361,-0.033C0.361,-0.038 0.361,-0.043 0.36,-0.046C0.359,-0.056 0.356,-0.059 0.35,-0.054C0.332,-0.041 0.316,-0.03 0.304,-0.023C0.292,-0.015 0.277,-0.008 0.258,-0.001C0.239,0.006 0.221,0.01 0.203,0.01C0.164,0.01 0.135,-0.003 0.115,-0.027C0.096,-0.052 0.087,-0.086 0.087,-0.13L0.087,-0.337C0.087,-0.347 0.086,-0.354 0.083,-0.358C0.081,-0.362 0.076,-0.365 0.069,-0.368C0.065,-0.369 0.059,-0.371 0.05,-0.374C0.041,-0.376 0.035,-0.378 0.03,-0.379C0.025,-0.38 0.022,-0.385 0.02,-0.395Z" style="fill-rule:nonzero;"/>
            </g>
            <g transform="matrix(33.3333,0,0,33.3333,592.86,338.551)">
                <path d="M0.02,-0.019L0.02,-0.028C0.02,-0.03 0.021,-0.032 0.021,-0.034C0.022,-0.037 0.024,-0.038 0.027,-0.039C0.029,-0.04 0.033,-0.04 0.038,-0.04C0.06,-0.04 0.073,-0.045 0.08,-0.056C0.086,-0.066 0.089,-0.092 0.089,-0.134L0.089,-0.311C0.088,-0.312 0.088,-0.315 0.087,-0.318C0.087,-0.322 0.087,-0.324 0.086,-0.327C0.085,-0.329 0.084,-0.33 0.082,-0.331C0.081,-0.332 0.074,-0.334 0.062,-0.339C0.05,-0.344 0.041,-0.347 0.035,-0.35C0.028,-0.353 0.024,-0.359 0.023,-0.366L0.023,-0.374C0.023,-0.383 0.027,-0.388 0.034,-0.39C0.045,-0.395 0.064,-0.402 0.091,-0.411C0.119,-0.421 0.139,-0.429 0.15,-0.434C0.154,-0.436 0.157,-0.437 0.16,-0.437C0.163,-0.437 0.166,-0.436 0.167,-0.435C0.172,-0.431 0.174,-0.425 0.175,-0.418C0.175,-0.387 0.175,-0.364 0.176,-0.35C0.194,-0.391 0.207,-0.414 0.217,-0.419C0.226,-0.424 0.235,-0.426 0.244,-0.426C0.253,-0.426 0.261,-0.425 0.268,-0.423C0.274,-0.421 0.283,-0.418 0.293,-0.415C0.304,-0.411 0.312,-0.409 0.318,-0.407C0.319,-0.407 0.321,-0.406 0.323,-0.406C0.325,-0.405 0.326,-0.405 0.327,-0.405C0.336,-0.402 0.34,-0.397 0.34,-0.392C0.34,-0.39 0.34,-0.388 0.339,-0.386C0.334,-0.369 0.324,-0.347 0.309,-0.32C0.296,-0.32 0.283,-0.325 0.268,-0.333C0.255,-0.34 0.244,-0.343 0.235,-0.343C0.217,-0.343 0.198,-0.324 0.178,-0.286L0.178,-0.141C0.178,-0.126 0.179,-0.109 0.179,-0.092C0.18,-0.068 0.183,-0.054 0.188,-0.049C0.192,-0.044 0.206,-0.041 0.229,-0.041L0.251,-0.041C0.258,-0.041 0.263,-0.035 0.265,-0.023C0.267,-0.012 0.265,-0.004 0.26,0.001C0.258,0.002 0.255,0.003 0.25,0.003L0.144,0.002C0.115,0.001 0.093,0.001 0.076,0.001C0.05,0.001 0.037,0.002 0.037,0.003L0.035,0.003C0.029,0.003 0.025,0.001 0.023,-0.002C0.021,-0.006 0.02,-0.012 0.02,-0.019Z" style="fill-rule:nonzero;"/>
            </g>
            <g transform="matrix(33.3333,0,0,33.3333,604.514,338.551)">
                <path d="M0.026,-0.202C0.026,-0.267 0.045,-0.321 0.084,-0.364C0.124,-0.408 0.172,-0.429 0.231,-0.429C0.3,-0.429 0.348,-0.399 0.376,-0.34C0.386,-0.318 0.395,-0.303 0.403,-0.293C0.405,-0.287 0.406,-0.282 0.406,-0.277C0.406,-0.266 0.399,-0.26 0.386,-0.26C0.362,-0.259 0.328,-0.258 0.286,-0.258C0.243,-0.258 0.191,-0.259 0.131,-0.26C0.118,-0.26 0.112,-0.249 0.112,-0.227C0.112,-0.178 0.125,-0.137 0.151,-0.105C0.178,-0.074 0.211,-0.058 0.251,-0.058C0.294,-0.058 0.333,-0.078 0.367,-0.119C0.372,-0.126 0.379,-0.128 0.387,-0.125C0.392,-0.124 0.396,-0.12 0.399,-0.114C0.402,-0.107 0.403,-0.102 0.4,-0.097C0.336,-0.023 0.273,0.015 0.212,0.015C0.159,0.015 0.114,-0.006 0.079,-0.048C0.044,-0.09 0.026,-0.141 0.026,-0.202ZM0.125,-0.311C0.125,-0.309 0.126,-0.307 0.127,-0.306C0.13,-0.304 0.132,-0.303 0.135,-0.302C0.138,-0.302 0.14,-0.302 0.142,-0.302L0.277,-0.302C0.28,-0.302 0.284,-0.302 0.288,-0.304C0.291,-0.305 0.293,-0.306 0.293,-0.308L0.293,-0.309C0.279,-0.362 0.251,-0.388 0.21,-0.388C0.153,-0.388 0.125,-0.362 0.125,-0.311Z" style="fill-rule:nonzero;"/>
            </g>
            <g transform="matrix(33.3333,0,0,33.3333,618.902,338.551)">
                <path d="M0.031,-0.312C0.031,-0.348 0.044,-0.378 0.07,-0.401C0.097,-0.424 0.13,-0.435 0.169,-0.435C0.194,-0.435 0.223,-0.428 0.255,-0.415C0.257,-0.391 0.257,-0.37 0.257,-0.351C0.257,-0.336 0.257,-0.323 0.256,-0.311C0.256,-0.309 0.254,-0.307 0.25,-0.304C0.246,-0.302 0.242,-0.301 0.238,-0.301C0.227,-0.301 0.222,-0.305 0.22,-0.311C0.216,-0.336 0.207,-0.356 0.195,-0.369C0.183,-0.382 0.169,-0.388 0.153,-0.388C0.139,-0.388 0.128,-0.384 0.119,-0.375C0.11,-0.366 0.106,-0.355 0.106,-0.342C0.106,-0.332 0.11,-0.321 0.119,-0.31C0.128,-0.299 0.136,-0.291 0.144,-0.284C0.152,-0.278 0.164,-0.27 0.18,-0.259C0.197,-0.248 0.206,-0.243 0.208,-0.241C0.261,-0.204 0.288,-0.164 0.288,-0.119C0.288,-0.084 0.275,-0.053 0.248,-0.028C0.221,-0.003 0.19,0.01 0.154,0.01C0.132,0.01 0.112,0.006 0.095,-0.001C0.091,-0.002 0.089,-0.003 0.087,-0.004C0.084,-0.001 0.081,0.003 0.079,0.008C0.069,0.011 0.062,0.012 0.059,0.012L0.058,0.012C0.049,0.011 0.044,0.006 0.044,-0.002C0.04,-0.041 0.037,-0.079 0.035,-0.114C0.035,-0.119 0.037,-0.123 0.042,-0.125C0.048,-0.128 0.055,-0.128 0.062,-0.127C0.067,-0.125 0.07,-0.121 0.072,-0.114C0.084,-0.058 0.111,-0.031 0.151,-0.031C0.167,-0.031 0.18,-0.036 0.19,-0.047C0.201,-0.058 0.206,-0.072 0.206,-0.088C0.206,-0.107 0.197,-0.126 0.178,-0.143C0.16,-0.161 0.14,-0.176 0.118,-0.188C0.097,-0.201 0.077,-0.218 0.058,-0.24C0.04,-0.261 0.031,-0.285 0.031,-0.312Z" style="fill-rule:nonzero;"/>
            </g>
        </g>
        <path d="M211.376,158.427L352.833,158.427" style="fill:none;stroke:#000;stroke-width:2.29px;stroke-dasharray:6.88,6.88,0,0;"/>
        <path d="M565.987,54.835C594.146,76.824 612.266,111.093 612.266,149.56C612.266,181.391 599.859,210.347 579.622,231.85L552.284,198.947L561.909,188.701L536.624,165.748L534.723,156.144L540.208,122.062L532.553,117.621L543.515,87.334L572.679,87.334L565.987,54.835Z" style="fill:#3b6e8c;"/>
        <path d="M376.116,181.312C373.438,171.355 372.01,160.886 372.01,150.085C372.01,83.785 425.838,29.958 492.138,29.958C495.957,29.958 499.734,30.136 503.469,30.486L505.117,52.541L505.726,64.551L492.138,62.349L476.421,62.349L471.185,64.551L471.185,73.672L474.4,84.29L482.301,91.658L474.4,111.96L492.138,126.376L464.95,133.364L476.421,146.85L462.071,157.799L441.621,168.657L430.92,160.437L415.799,174.211L403.629,180.956L376.259,181.314L376.116,181.312Z" style="fill:#bc5b4f;"/>
        <path d="M503.429,29.958C526.882,32.147 548.386,41.091 565.975,54.826L570.6,87.334L543.515,87.334L532.553,117.621L540.208,122.062L534.239,153.699L536.624,165.748L561.909,188.701L552.284,198.947L570.6,219.336L579.622,231.85C557.706,255.139 526.607,269.688 492.138,269.688C436.83,269.688 390.202,232.23 376.259,181.314L407.451,181.314L431.435,160.833L442.591,168.209L476.596,147.162L465.455,133.874L490.967,126.677L474.401,112.415L475.389,105.32L482.909,91.259L474.401,82.873L471.185,65.403L476.421,62.349L505.183,64.551L506.568,61.158L502.921,34.298L503.429,29.958Z" style="fill:#efc758;"/>
        <circle cx="492.138" cy="149.56" r="120.128" style="fill:none;stroke:#000;stroke-width:2.29px;stroke-dasharray:6.88,6.88,0,0;"/>
        <path d="M532.553,118.565C535.133,119.694 537.69,120.852 540.208,122.062" style="fill:none;stroke:#000;stroke-width:2.29px;"/>
        <path d="M552.284,198.947C553.188,198.129 554.08,197.284 554.958,196.412C557.509,193.879 559.82,191.308 561.909,188.701" style="fill:none;stroke:#000;stroke-width:2.29px;"/>
        <path d="M571.667,86.614C569.041,75.387 566.657,64.895 564.478,53.859" style="fill:none;stroke:#000;stroke-width:2.29px;"/>
        <path d="M464.95,134.497C468.534,138.623 472.295,142.979 476.123,147.455" style="fill:none;stroke:#000;stroke-width:2.29px;"/>
        <path d="M531.986,117.607C531.986,117.607 540.598,91.338 543.374,86.614" style="fill:none;stroke:#000;stroke-width:2.29px;"/>
        <path d="M571.667,86.614L543.374,86.614" style="fill:none;stroke:#000;stroke-width:2.29px;"/>
        <path d="M471.185,64.532C479.562,58.636 498.009,63.624 503.807,64.532C509.604,65.44 500.058,32.581 503.807,29.432" style="fill:none;stroke:#000;stroke-width:2.29px;"/>
        <path d="M536.706,165.76C537.602,166.058 544.384,171.687 546.873,173.899C549.882,176.571 561.909,186.653 561.909,188.701" style="fill:none;stroke:#000;stroke-width:2.29px;"/>
        <path d="M540.208,122.062C540.208,127.879 535.046,152.43 533.801,154.92C533.4,155.722 536.624,161.168 536.624,165.748" style="fill:none;stroke:#000;stroke-width:2.29px;"/>
        <path d="M464.95,133.364C471.502,132.051 491.093,125.853 491.995,126.304" style="fill:none;stroke:#000;stroke-width:2.29px;"/>
        <path d="M492.138,126.281C490.931,125.556 473.126,114.01 473.786,110.054C474.601,105.176 480.148,96.253 482.301,91.658" style="fill:none;stroke:#000;stroke-width:2.29px;"/>
        <path d="M430.99,160.466C433.38,161.589 435.187,162.498 435.855,163.03C437.918,164.669 439.416,167.723 441.463,168.747C441.667,168.849 457.396,160.218 459.776,159.219C461.354,158.557 476.421,147.812 476.421,146.85" style="fill:none;stroke:#000;stroke-width:2.29px;"/>
        <path d="M376.259,181.314C385.266,181.314 398.564,183.268 407.123,179.916C412.79,177.696 430.92,161.888 430.92,160.433" style="fill:none;stroke:#000;stroke-width:2.29px;"/>
        <path d="M552.284,198.947C552.284,198.947 576.763,224.675 579.622,231.85" style="fill:none;stroke:#000;stroke-width:2.29px;"/>
        <path d="M469.988,65.143C471.256,73.81 473.028,81.06 475.496,84.35C477.613,87.173 479.952,89.732 482.472,92.076" style="fill:none;stroke:#000;stroke-width:2.29px;"/>
    </g>
</svg>
