<?xml version="1.0" encoding="UTF-8" standalone="no"?>
<!DOCTYPE svg PUBLIC "-//W3C//DTD SVG 1.1//EN" "http://www.w3.org/Graphics/SVG/1.1/DTD/svg11.dtd">
<svg width="100%" height="100%" viewBox="0 0 1440 900" version="1.1" xmlns="http://www.w3.org/2000/svg" xmlns:xlink="http://www.w3.org/1999/xlink" xml:space="preserve" xmlns:serif="http://www.serif.com/" style="fill-rule:evenodd;clip-rule:evenodd;stroke-linejoin:round;stroke-miterlimit:1.5;">
    <g transform="matrix(1,0,0,1,181.353,-24.5171)">
        <path d="M721.505,445.189C782.033,476.306 823.456,539.408 823.456,612.11C823.456,715.702 739.352,799.806 635.76,799.806C598.673,799.806 564.085,789.027 534.981,770.384C587.235,737.09 621.9,678.616 621.9,612.11C621.9,605.086 621.513,598.152 620.727,591.333C675.408,563.223 714.497,509.007 721.505,445.189Z" style="fill:rgb(190,65,55);stroke:white;stroke-width:12px;"/>
    </g>
    <g transform="matrix(1,0,0,1,80.5742,-212.214)">
        <path d="M635.772,641.524C606.667,622.892 572.073,612.11 534.981,612.11C504.09,612.11 474.932,619.588 449.236,632.886C448.449,626.067 448.063,619.133 448.063,612.11C448.063,508.517 532.167,424.413 635.76,424.413C739.352,424.413 823.456,508.517 823.456,612.11C823.456,619.133 823.07,626.066 822.306,632.898C796.607,619.594 767.44,612.11 736.538,612.11C699.452,612.11 664.863,622.889 635.772,641.524Z" style="fill:rgb(243,190,29);stroke:white;stroke-width:12px;"/>
    </g>
    <g transform="matrix(1,0,0,1,80.5742,-212.214)">
        <path d="M635.772,641.524C664.863,622.889 699.452,612.11 736.538,612.11C767.44,612.11 796.607,619.594 822.306,632.898C815.275,696.704 776.186,750.92 721.505,779.03C715.148,721.238 682.499,671.316 635.772,641.524Z" style="fill:rgb(33,34,32);stroke:white;stroke-width:12px;"/>
    </g>
    <g transform="matrix(1,0,0,1,-20.2041,-24.5171)">
        <path d="M550.014,445.189C557.034,509.006 596.112,563.226 650.792,591.333C650.006,598.152 649.619,605.086 649.619,612.11C649.619,678.616 684.284,737.09 736.538,770.384C707.434,789.027 672.846,799.806 635.76,799.806C532.167,799.806 448.063,715.702 448.063,612.11C448.063,539.408 489.486,476.306 550.014,445.189Z" style="fill:rgb(22,96,130);stroke:white;stroke-width:12px;"/>
    </g>
    <g transform="matrix(1,0,0,1,-20.2041,-24.5171)">
        <path d="M814.722,555.525L812.618,549.217C813.36,551.302 814.067,553.404 814.722,555.525L815.1,556.658L815.495,558.032L815.915,559.396L816.685,562.181L817.275,564.234L817.856,566.641L818.637,569.821L818.751,570.35L819.134,571.938L819.574,574.176L819.777,575.12L820.055,576.625L820.671,579.762L821.593,585.818L821.602,585.879L821.603,585.884L821.879,587.698L822.205,590.709L822.283,591.333L822.273,591.338C823.07,598.156 823.456,605.088 823.456,612.11C823.456,678.616 788.792,737.09 736.538,770.384C684.284,737.09 649.619,678.616 649.619,612.11C649.619,605.093 650.005,598.166 650.78,591.349C676.486,604.63 705.645,612.11 736.538,612.11C767.426,612.11 796.582,604.632 822.273,591.338L822.205,590.709L821.603,585.884L821.593,585.818L820.766,580.473L820.055,576.625L819.574,574.176L818.751,570.35L817.856,566.641L817.349,564.579L816.685,562.181L815.495,558.032L814.722,555.525Z" style="fill:rgb(141,83,94);stroke:white;stroke-width:12px;"/>
    </g>
    <g transform="matrix(1,0,0,1,-20.2041,-24.5171)">
        <path d="M650.78,591.349C596.112,563.226 557.034,509.006 550.014,445.189C575.71,431.892 604.868,424.413 635.76,424.413C678.993,424.413 718.833,439.062 750.553,463.696C746.044,460.203 741.366,456.912 736.538,453.836C689.797,483.617 657.129,533.545 650.78,591.349Z" style="fill:rgb(126,153,107);stroke:white;stroke-width:12px;"/>
    </g>
    <g transform="matrix(1,0,0,1,-195.152,76.446)">
        <g transform="matrix(96,0,0,96,760.595,101.409)">
            <path d="M0.023,-0.191C0.023,-0.258 0.044,-0.314 0.087,-0.359C0.13,-0.404 0.184,-0.427 0.248,-0.427C0.271,-0.427 0.299,-0.422 0.331,-0.411C0.334,-0.41 0.336,-0.412 0.338,-0.415C0.341,-0.417 0.342,-0.422 0.342,-0.429C0.343,-0.452 0.343,-0.481 0.343,-0.515C0.343,-0.55 0.343,-0.591 0.342,-0.637C0.339,-0.647 0.336,-0.652 0.334,-0.653C0.33,-0.655 0.325,-0.657 0.319,-0.658C0.313,-0.659 0.306,-0.659 0.298,-0.66C0.289,-0.66 0.283,-0.66 0.28,-0.661C0.273,-0.662 0.27,-0.665 0.269,-0.668C0.268,-0.674 0.267,-0.679 0.268,-0.682C0.269,-0.687 0.273,-0.69 0.278,-0.691C0.324,-0.706 0.366,-0.72 0.404,-0.734C0.406,-0.735 0.409,-0.735 0.41,-0.735C0.413,-0.735 0.415,-0.734 0.417,-0.732C0.42,-0.729 0.421,-0.723 0.421,-0.716L0.421,-0.117C0.421,-0.09 0.423,-0.074 0.426,-0.069C0.429,-0.063 0.437,-0.06 0.448,-0.06C0.451,-0.06 0.458,-0.062 0.47,-0.066C0.471,-0.066 0.473,-0.066 0.476,-0.067C0.479,-0.068 0.481,-0.069 0.482,-0.069C0.484,-0.07 0.486,-0.07 0.489,-0.07C0.491,-0.07 0.493,-0.069 0.495,-0.068C0.496,-0.067 0.497,-0.065 0.498,-0.062C0.5,-0.057 0.5,-0.053 0.5,-0.049C0.5,-0.044 0.499,-0.041 0.495,-0.039C0.451,-0.017 0.405,-0 0.36,0.011C0.355,0.013 0.352,0.013 0.349,0.011C0.346,0.009 0.344,0.006 0.343,0.001C0.341,-0.003 0.341,-0.007 0.341,-0.011C0.341,-0.015 0.341,-0.019 0.342,-0.024L0.342,-0.032C0.342,-0.037 0.341,-0.041 0.339,-0.044C0.337,-0.048 0.334,-0.049 0.331,-0.047C0.271,-0.006 0.224,0.015 0.19,0.015C0.143,0.015 0.104,-0.005 0.072,-0.045C0.039,-0.086 0.023,-0.134 0.023,-0.191ZM0.103,-0.222C0.103,-0.171 0.115,-0.128 0.138,-0.094C0.162,-0.059 0.192,-0.042 0.227,-0.042C0.256,-0.042 0.29,-0.056 0.331,-0.083C0.336,-0.086 0.34,-0.093 0.341,-0.106L0.341,-0.311C0.305,-0.362 0.267,-0.387 0.226,-0.387C0.189,-0.387 0.16,-0.372 0.137,-0.342C0.114,-0.311 0.103,-0.271 0.103,-0.222Z" style="fill:rgb(33,34,32);fill-rule:nonzero;"/>
        </g>
        <g transform="matrix(96,0,0,96,809.814,101.409)">
            <path d="M0.024,-0.202C0.024,-0.268 0.043,-0.322 0.083,-0.365C0.122,-0.408 0.17,-0.429 0.229,-0.429C0.298,-0.429 0.346,-0.4 0.373,-0.341L0.381,-0.324C0.387,-0.312 0.394,-0.301 0.401,-0.292C0.402,-0.289 0.402,-0.286 0.402,-0.282C0.402,-0.28 0.402,-0.278 0.402,-0.276C0.401,-0.271 0.397,-0.267 0.388,-0.267C0.362,-0.266 0.327,-0.266 0.283,-0.266C0.238,-0.266 0.184,-0.266 0.12,-0.267C0.108,-0.267 0.102,-0.264 0.101,-0.257C0.1,-0.249 0.099,-0.239 0.099,-0.227C0.099,-0.176 0.113,-0.133 0.142,-0.099C0.171,-0.066 0.206,-0.049 0.249,-0.049C0.296,-0.049 0.337,-0.07 0.373,-0.113C0.376,-0.117 0.381,-0.119 0.388,-0.118C0.392,-0.117 0.395,-0.114 0.397,-0.109C0.4,-0.104 0.4,-0.1 0.398,-0.097C0.376,-0.071 0.352,-0.048 0.327,-0.028C0.29,0.001 0.25,0.015 0.209,0.015C0.156,0.015 0.112,-0.006 0.077,-0.048C0.042,-0.09 0.024,-0.141 0.024,-0.202ZM0.11,-0.306C0.11,-0.305 0.111,-0.303 0.115,-0.302C0.12,-0.3 0.123,-0.299 0.126,-0.299L0.276,-0.299C0.281,-0.299 0.287,-0.3 0.292,-0.302C0.298,-0.304 0.3,-0.307 0.3,-0.311C0.292,-0.338 0.28,-0.36 0.264,-0.375C0.247,-0.39 0.228,-0.398 0.207,-0.398C0.142,-0.398 0.11,-0.367 0.11,-0.306Z" style="fill:rgb(33,34,32);fill-rule:nonzero;"/>
        </g>
        <g transform="matrix(96,0,0,96,850.502,101.409)">
            <path d="M0.021,-0.39C0.022,-0.393 0.025,-0.395 0.029,-0.397C0.067,-0.416 0.098,-0.458 0.121,-0.524C0.121,-0.526 0.123,-0.528 0.127,-0.53C0.13,-0.531 0.133,-0.532 0.135,-0.532C0.137,-0.532 0.138,-0.532 0.14,-0.531C0.144,-0.53 0.146,-0.528 0.146,-0.524C0.145,-0.504 0.145,-0.487 0.145,-0.472C0.145,-0.458 0.145,-0.445 0.146,-0.436C0.147,-0.433 0.148,-0.431 0.151,-0.427C0.153,-0.424 0.156,-0.423 0.158,-0.423L0.269,-0.423C0.28,-0.423 0.284,-0.418 0.281,-0.407C0.279,-0.396 0.277,-0.385 0.272,-0.374C0.269,-0.369 0.263,-0.366 0.256,-0.366L0.161,-0.368C0.159,-0.368 0.156,-0.367 0.152,-0.364C0.149,-0.361 0.147,-0.359 0.146,-0.356L0.146,-0.179C0.146,-0.128 0.151,-0.093 0.16,-0.074C0.169,-0.056 0.186,-0.047 0.21,-0.047C0.231,-0.047 0.251,-0.065 0.27,-0.1C0.271,-0.103 0.274,-0.105 0.28,-0.104C0.286,-0.104 0.29,-0.102 0.293,-0.099C0.295,-0.097 0.296,-0.094 0.296,-0.09C0.296,-0.087 0.295,-0.084 0.294,-0.08C0.267,-0.02 0.228,0.011 0.177,0.011C0.146,0.011 0.12,-0 0.1,-0.024C0.08,-0.047 0.07,-0.077 0.07,-0.114L0.07,-0.355C0.07,-0.361 0.068,-0.365 0.064,-0.366L0.044,-0.366C0.039,-0.366 0.032,-0.367 0.024,-0.369C0.021,-0.374 0.02,-0.379 0.02,-0.383C0.02,-0.385 0.02,-0.388 0.021,-0.39Z" style="fill:rgb(33,34,32);fill-rule:nonzero;"/>
        </g>
        <g transform="matrix(96,0,0,96,881.111,101.409)">
            <path d="M0.025,-0.078C0.025,-0.128 0.06,-0.162 0.131,-0.18C0.158,-0.188 0.189,-0.2 0.226,-0.217C0.234,-0.221 0.237,-0.227 0.237,-0.235L0.236,-0.299C0.235,-0.359 0.212,-0.389 0.168,-0.389C0.157,-0.389 0.144,-0.384 0.131,-0.375C0.118,-0.365 0.111,-0.355 0.111,-0.344C0.111,-0.333 0.112,-0.325 0.114,-0.32C0.111,-0.317 0.101,-0.311 0.085,-0.303C0.07,-0.296 0.059,-0.291 0.054,-0.29C0.045,-0.287 0.039,-0.286 0.036,-0.288C0.032,-0.29 0.031,-0.296 0.031,-0.305C0.031,-0.33 0.052,-0.358 0.094,-0.39C0.128,-0.417 0.159,-0.431 0.188,-0.431C0.209,-0.431 0.231,-0.426 0.252,-0.415C0.273,-0.404 0.289,-0.391 0.3,-0.374C0.308,-0.363 0.313,-0.353 0.314,-0.344C0.316,-0.334 0.317,-0.313 0.317,-0.281L0.317,-0.099C0.317,-0.079 0.319,-0.066 0.322,-0.06C0.325,-0.053 0.331,-0.05 0.339,-0.05C0.347,-0.05 0.353,-0.051 0.357,-0.053C0.365,-0.056 0.373,-0.061 0.381,-0.068C0.384,-0.07 0.387,-0.071 0.39,-0.071C0.397,-0.069 0.4,-0.066 0.4,-0.059C0.4,-0.056 0.399,-0.051 0.397,-0.046C0.353,-0.007 0.318,0.012 0.291,0.012C0.262,0.012 0.245,-0.005 0.239,-0.04C0.237,-0.042 0.236,-0.043 0.235,-0.043C0.234,-0.043 0.232,-0.042 0.229,-0.039L0.224,-0.035C0.203,-0.017 0.185,-0.004 0.171,0.002C0.157,0.009 0.141,0.012 0.122,0.012C0.093,0.012 0.07,0.004 0.052,-0.013C0.034,-0.03 0.025,-0.051 0.025,-0.078ZM0.102,-0.091C0.102,-0.076 0.107,-0.063 0.118,-0.052C0.128,-0.041 0.142,-0.036 0.157,-0.036C0.168,-0.036 0.183,-0.042 0.202,-0.054C0.221,-0.067 0.232,-0.078 0.236,-0.089L0.236,-0.176C0.236,-0.177 0.236,-0.179 0.235,-0.181C0.234,-0.183 0.233,-0.184 0.232,-0.184C0.231,-0.184 0.229,-0.184 0.227,-0.183C0.212,-0.176 0.188,-0.165 0.156,-0.152C0.12,-0.137 0.102,-0.117 0.102,-0.091Z" style="fill:rgb(33,34,32);fill-rule:nonzero;"/>
        </g>
        <g transform="matrix(96,0,0,96,920.814,101.409)">
            <path d="M0.02,-0.013C0.02,-0.015 0.02,-0.017 0.02,-0.019C0.02,-0.026 0.022,-0.03 0.028,-0.031L0.041,-0.032C0.07,-0.034 0.087,-0.039 0.092,-0.048C0.097,-0.057 0.1,-0.082 0.1,-0.125L0.1,-0.304C0.1,-0.329 0.099,-0.344 0.096,-0.348C0.093,-0.353 0.086,-0.356 0.073,-0.359C0.058,-0.362 0.044,-0.366 0.032,-0.37C0.029,-0.371 0.027,-0.375 0.027,-0.382C0.026,-0.389 0.028,-0.393 0.031,-0.395C0.101,-0.421 0.142,-0.435 0.152,-0.437C0.155,-0.438 0.159,-0.439 0.162,-0.439C0.172,-0.439 0.178,-0.43 0.178,-0.413L0.178,-0.125C0.178,-0.1 0.179,-0.082 0.179,-0.073C0.18,-0.055 0.183,-0.044 0.188,-0.04C0.194,-0.036 0.208,-0.034 0.229,-0.034C0.232,-0.035 0.236,-0.035 0.24,-0.032C0.244,-0.029 0.246,-0.026 0.247,-0.023C0.247,-0.022 0.247,-0.021 0.247,-0.019C0.246,-0.016 0.246,-0.014 0.246,-0.013C0.246,-0.002 0.241,0.003 0.232,0.003C0.187,0.002 0.148,0.001 0.114,0.001C0.08,0.001 0.052,0.002 0.029,0.003C0.024,0.003 0.021,-0.002 0.02,-0.013ZM0.086,-0.576C0.077,-0.586 0.072,-0.598 0.072,-0.613C0.072,-0.627 0.077,-0.64 0.087,-0.65C0.098,-0.66 0.111,-0.665 0.126,-0.665C0.142,-0.665 0.155,-0.66 0.166,-0.65C0.177,-0.641 0.182,-0.628 0.182,-0.613C0.182,-0.598 0.176,-0.586 0.165,-0.576C0.154,-0.567 0.14,-0.562 0.125,-0.562C0.109,-0.562 0.096,-0.567 0.086,-0.576Z" style="fill:rgb(33,34,32);fill-rule:nonzero;"/>
        </g>
        <g transform="matrix(96,0,0,96,946.314,101.409)">
            <path d="M0.018,-0.006C0.017,-0.01 0.016,-0.014 0.016,-0.017C0.016,-0.024 0.019,-0.028 0.024,-0.031L0.035,-0.031C0.061,-0.031 0.078,-0.035 0.085,-0.043C0.093,-0.052 0.096,-0.07 0.096,-0.097L0.096,-0.623C0.096,-0.633 0.091,-0.639 0.08,-0.641C0.074,-0.642 0.066,-0.644 0.055,-0.646C0.044,-0.648 0.035,-0.649 0.03,-0.65C0.026,-0.651 0.024,-0.656 0.023,-0.663C0.022,-0.671 0.025,-0.676 0.03,-0.678C0.074,-0.69 0.118,-0.704 0.162,-0.72L0.164,-0.72C0.167,-0.721 0.17,-0.718 0.172,-0.714C0.174,-0.709 0.176,-0.704 0.176,-0.699L0.176,-0.098C0.176,-0.068 0.178,-0.049 0.184,-0.042C0.189,-0.035 0.204,-0.031 0.228,-0.031C0.24,-0.031 0.246,-0.029 0.247,-0.025L0.247,-0.013C0.247,-0.002 0.243,0.003 0.235,0.003C0.217,0.004 0.198,0.004 0.179,0.004C0.159,0.004 0.14,0.004 0.12,0.003C0.094,0.002 0.072,0.001 0.054,0.001C0.045,0.001 0.037,0.002 0.03,0.002C0.028,0.002 0.026,0.001 0.023,-0C0.021,-0.002 0.019,-0.004 0.018,-0.006Z" style="fill:rgb(33,34,32);fill-rule:nonzero;"/>
        </g>
        <g transform="matrix(96,0,0,96,971.439,101.409)">
            <path d="M0.024,-0.202C0.024,-0.268 0.043,-0.322 0.083,-0.365C0.122,-0.408 0.17,-0.429 0.229,-0.429C0.298,-0.429 0.346,-0.4 0.373,-0.341L0.381,-0.324C0.387,-0.312 0.394,-0.301 0.401,-0.292C0.402,-0.289 0.402,-0.286 0.402,-0.282C0.402,-0.28 0.402,-0.278 0.402,-0.276C0.401,-0.271 0.397,-0.267 0.388,-0.267C0.362,-0.266 0.327,-0.266 0.283,-0.266C0.238,-0.266 0.184,-0.266 0.12,-0.267C0.108,-0.267 0.102,-0.264 0.101,-0.257C0.1,-0.249 0.099,-0.239 0.099,-0.227C0.099,-0.176 0.113,-0.133 0.142,-0.099C0.171,-0.066 0.206,-0.049 0.249,-0.049C0.296,-0.049 0.337,-0.07 0.373,-0.113C0.376,-0.117 0.381,-0.119 0.388,-0.118C0.392,-0.117 0.395,-0.114 0.397,-0.109C0.4,-0.104 0.4,-0.1 0.398,-0.097C0.376,-0.071 0.352,-0.048 0.327,-0.028C0.29,0.001 0.25,0.015 0.209,0.015C0.156,0.015 0.112,-0.006 0.077,-0.048C0.042,-0.09 0.024,-0.141 0.024,-0.202ZM0.11,-0.306C0.11,-0.305 0.111,-0.303 0.115,-0.302C0.12,-0.3 0.123,-0.299 0.126,-0.299L0.276,-0.299C0.281,-0.299 0.287,-0.3 0.292,-0.302C0.298,-0.304 0.3,-0.307 0.3,-0.311C0.292,-0.338 0.28,-0.36 0.264,-0.375C0.247,-0.39 0.228,-0.398 0.207,-0.398C0.142,-0.398 0.11,-0.367 0.11,-0.306Z" style="fill:rgb(33,34,32);fill-rule:nonzero;"/>
        </g>
        <g transform="matrix(96,0,0,96,1012.13,101.409)">
            <path d="M0.023,-0.191C0.023,-0.258 0.044,-0.314 0.087,-0.359C0.13,-0.404 0.184,-0.427 0.248,-0.427C0.271,-0.427 0.299,-0.422 0.331,-0.411C0.334,-0.41 0.336,-0.412 0.338,-0.415C0.341,-0.417 0.342,-0.422 0.342,-0.429C0.343,-0.452 0.343,-0.481 0.343,-0.515C0.343,-0.55 0.343,-0.591 0.342,-0.637C0.339,-0.647 0.336,-0.652 0.334,-0.653C0.33,-0.655 0.325,-0.657 0.319,-0.658C0.313,-0.659 0.306,-0.659 0.298,-0.66C0.289,-0.66 0.283,-0.66 0.28,-0.661C0.273,-0.662 0.27,-0.665 0.269,-0.668C0.268,-0.674 0.267,-0.679 0.268,-0.682C0.269,-0.687 0.273,-0.69 0.278,-0.691C0.324,-0.706 0.366,-0.72 0.404,-0.734C0.406,-0.735 0.409,-0.735 0.41,-0.735C0.413,-0.735 0.415,-0.734 0.417,-0.732C0.42,-0.729 0.421,-0.723 0.421,-0.716L0.421,-0.117C0.421,-0.09 0.423,-0.074 0.426,-0.069C0.429,-0.063 0.437,-0.06 0.448,-0.06C0.451,-0.06 0.458,-0.062 0.47,-0.066C0.471,-0.066 0.473,-0.066 0.476,-0.067C0.479,-0.068 0.481,-0.069 0.482,-0.069C0.484,-0.07 0.486,-0.07 0.489,-0.07C0.491,-0.07 0.493,-0.069 0.495,-0.068C0.496,-0.067 0.497,-0.065 0.498,-0.062C0.5,-0.057 0.5,-0.053 0.5,-0.049C0.5,-0.044 0.499,-0.041 0.495,-0.039C0.451,-0.017 0.405,-0 0.36,0.011C0.355,0.013 0.352,0.013 0.349,0.011C0.346,0.009 0.344,0.006 0.343,0.001C0.341,-0.003 0.341,-0.007 0.341,-0.011C0.341,-0.015 0.341,-0.019 0.342,-0.024L0.342,-0.032C0.342,-0.037 0.341,-0.041 0.339,-0.044C0.337,-0.048 0.334,-0.049 0.331,-0.047C0.271,-0.006 0.224,0.015 0.19,0.015C0.143,0.015 0.104,-0.005 0.072,-0.045C0.039,-0.086 0.023,-0.134 0.023,-0.191ZM0.103,-0.222C0.103,-0.171 0.115,-0.128 0.138,-0.094C0.162,-0.059 0.192,-0.042 0.227,-0.042C0.256,-0.042 0.29,-0.056 0.331,-0.083C0.336,-0.086 0.34,-0.093 0.341,-0.106L0.341,-0.311C0.305,-0.362 0.267,-0.387 0.226,-0.387C0.189,-0.387 0.16,-0.372 0.137,-0.342C0.114,-0.311 0.103,-0.271 0.103,-0.222Z" style="fill:rgb(33,34,32);fill-rule:nonzero;"/>
        </g>
    </g>
    <g transform="matrix(1,0,0,1,273.437,555.887)">
        <g transform="matrix(96,0,0,96,760.595,101.409)">
            <path d="M0.025,-0.193C0.025,-0.26 0.048,-0.316 0.095,-0.363C0.142,-0.409 0.2,-0.432 0.267,-0.432C0.3,-0.432 0.328,-0.426 0.351,-0.414C0.375,-0.402 0.386,-0.387 0.386,-0.368C0.386,-0.357 0.383,-0.349 0.376,-0.342C0.369,-0.335 0.36,-0.331 0.35,-0.331C0.333,-0.331 0.312,-0.343 0.288,-0.366C0.27,-0.385 0.25,-0.394 0.231,-0.394C0.198,-0.394 0.168,-0.376 0.143,-0.341C0.118,-0.306 0.105,-0.264 0.105,-0.216C0.105,-0.164 0.118,-0.123 0.144,-0.09C0.17,-0.058 0.203,-0.042 0.243,-0.042C0.291,-0.042 0.33,-0.064 0.361,-0.109C0.364,-0.119 0.37,-0.123 0.378,-0.121C0.38,-0.12 0.381,-0.12 0.382,-0.119C0.382,-0.118 0.383,-0.117 0.384,-0.116C0.385,-0.115 0.386,-0.113 0.386,-0.112C0.389,-0.11 0.39,-0.108 0.39,-0.105C0.39,-0.102 0.388,-0.098 0.385,-0.093C0.34,-0.023 0.281,0.012 0.208,0.012C0.155,0.012 0.112,-0.007 0.077,-0.046C0.042,-0.085 0.025,-0.134 0.025,-0.193Z" style="fill:rgb(33,34,32);fill-rule:nonzero;"/>
        </g>
        <g transform="matrix(96,0,0,96,801.095,101.409)">
            <path d="M0.023,-0.207C0.023,-0.271 0.044,-0.324 0.087,-0.367C0.13,-0.409 0.184,-0.43 0.248,-0.43C0.313,-0.43 0.367,-0.409 0.411,-0.366C0.454,-0.323 0.476,-0.271 0.476,-0.209L0.476,-0.206C0.476,-0.144 0.454,-0.092 0.411,-0.049C0.368,-0.006 0.314,0.015 0.251,0.015C0.186,0.015 0.132,-0.006 0.088,-0.048C0.045,-0.091 0.023,-0.144 0.023,-0.207ZM0.11,-0.239C0.11,-0.178 0.125,-0.127 0.155,-0.085C0.185,-0.043 0.221,-0.022 0.263,-0.022C0.299,-0.022 0.328,-0.037 0.352,-0.067C0.375,-0.097 0.387,-0.136 0.387,-0.182C0.387,-0.24 0.372,-0.29 0.342,-0.332C0.311,-0.373 0.275,-0.394 0.234,-0.394C0.198,-0.394 0.169,-0.379 0.145,-0.35C0.122,-0.321 0.11,-0.284 0.11,-0.239Z" style="fill:rgb(33,34,32);fill-rule:nonzero;"/>
        </g>
        <g transform="matrix(96,0,0,96,848.58,101.409)">
            <path d="M0.016,-0.02C0.017,-0.026 0.02,-0.029 0.025,-0.029L0.031,-0.029C0.054,-0.029 0.07,-0.035 0.077,-0.048C0.084,-0.061 0.088,-0.089 0.088,-0.133L0.088,-0.27C0.088,-0.319 0.087,-0.346 0.084,-0.351C0.081,-0.357 0.068,-0.362 0.045,-0.367L0.025,-0.371C0.022,-0.372 0.02,-0.376 0.02,-0.384C0.02,-0.392 0.022,-0.397 0.025,-0.398C0.036,-0.4 0.055,-0.407 0.083,-0.419C0.111,-0.431 0.131,-0.438 0.143,-0.441C0.146,-0.442 0.149,-0.442 0.151,-0.442C0.161,-0.442 0.166,-0.436 0.166,-0.424L0.166,-0.369C0.166,-0.367 0.167,-0.364 0.169,-0.36C0.172,-0.356 0.174,-0.355 0.177,-0.357C0.208,-0.379 0.236,-0.396 0.26,-0.408C0.288,-0.422 0.311,-0.428 0.33,-0.428C0.404,-0.428 0.441,-0.368 0.441,-0.248C0.441,-0.228 0.44,-0.198 0.437,-0.158C0.434,-0.118 0.433,-0.088 0.433,-0.067C0.433,-0.052 0.436,-0.042 0.441,-0.037C0.447,-0.033 0.46,-0.031 0.483,-0.031C0.489,-0.035 0.494,-0.034 0.499,-0.028C0.501,-0.024 0.502,-0.02 0.502,-0.016C0.502,-0.013 0.502,-0.01 0.501,-0.007C0.5,-0.003 0.499,-0 0.498,0C0.497,0.001 0.494,0.002 0.489,0.002L0.486,0.002C0.472,0.002 0.44,0.002 0.392,0.001L0.348,0.001C0.323,0.001 0.306,0.002 0.296,0.002C0.289,0.002 0.285,0.001 0.283,-0.001C0.282,-0.003 0.28,-0.007 0.28,-0.014C0.28,-0.026 0.283,-0.031 0.288,-0.031L0.295,-0.031C0.317,-0.033 0.332,-0.037 0.341,-0.045C0.349,-0.052 0.354,-0.066 0.356,-0.087C0.36,-0.126 0.362,-0.184 0.362,-0.263C0.362,-0.337 0.338,-0.374 0.289,-0.374C0.258,-0.374 0.217,-0.354 0.166,-0.315L0.166,-0.089C0.166,-0.063 0.17,-0.047 0.177,-0.041C0.184,-0.034 0.201,-0.031 0.227,-0.031C0.232,-0.031 0.235,-0.025 0.236,-0.014C0.236,-0.003 0.231,0.002 0.222,0.003C0.214,0.003 0.203,0.002 0.187,0.002C0.171,0.002 0.151,0.003 0.127,0.003C0.111,0.003 0.097,0.003 0.084,0.003C0.059,0.003 0.042,0.003 0.031,0.002C0.023,0.002 0.018,0 0.017,-0.003C0.016,-0.006 0.015,-0.009 0.015,-0.012C0.015,-0.014 0.015,-0.017 0.016,-0.02Z" style="fill:rgb(33,34,32);fill-rule:nonzero;"/>
        </g>
        <g transform="matrix(96,0,0,96,898.08,101.409)">
            <path d="M0.034,-0.313C0.034,-0.349 0.047,-0.378 0.072,-0.401C0.097,-0.424 0.13,-0.435 0.169,-0.435C0.194,-0.435 0.222,-0.429 0.253,-0.416C0.255,-0.389 0.256,-0.366 0.256,-0.346C0.256,-0.334 0.256,-0.323 0.255,-0.314C0.255,-0.311 0.25,-0.309 0.241,-0.309C0.237,-0.309 0.234,-0.31 0.231,-0.311C0.228,-0.312 0.227,-0.313 0.228,-0.314C0.223,-0.341 0.215,-0.361 0.201,-0.376C0.188,-0.391 0.172,-0.398 0.153,-0.398C0.137,-0.398 0.124,-0.393 0.114,-0.383C0.103,-0.373 0.098,-0.361 0.098,-0.345C0.098,-0.322 0.118,-0.295 0.158,-0.266C0.165,-0.262 0.175,-0.255 0.188,-0.246C0.202,-0.236 0.214,-0.228 0.224,-0.22C0.234,-0.213 0.243,-0.205 0.251,-0.196C0.274,-0.171 0.285,-0.143 0.285,-0.113C0.285,-0.078 0.272,-0.049 0.247,-0.026C0.221,-0.002 0.19,0.01 0.154,0.01C0.137,0.01 0.12,0.007 0.104,0.003C0.103,0.003 0.101,0.002 0.095,-0C0.09,-0.002 0.087,-0.003 0.084,-0.004C0.079,-0.004 0.074,0 0.071,0.009C0.063,0.011 0.058,0.012 0.056,0.012L0.055,0.012C0.049,0.012 0.046,0.008 0.045,0.002C0.039,-0.045 0.036,-0.081 0.036,-0.105L0.036,-0.112C0.035,-0.116 0.037,-0.118 0.041,-0.119C0.045,-0.121 0.05,-0.121 0.056,-0.12C0.059,-0.119 0.062,-0.115 0.063,-0.11C0.077,-0.05 0.106,-0.02 0.151,-0.02C0.169,-0.02 0.184,-0.026 0.197,-0.039C0.209,-0.052 0.216,-0.067 0.216,-0.084C0.216,-0.09 0.215,-0.097 0.213,-0.103C0.212,-0.11 0.209,-0.116 0.204,-0.122C0.199,-0.129 0.195,-0.134 0.192,-0.138C0.189,-0.142 0.184,-0.147 0.176,-0.153C0.168,-0.159 0.163,-0.163 0.16,-0.166C0.157,-0.168 0.151,-0.172 0.142,-0.178C0.133,-0.185 0.127,-0.188 0.126,-0.189C0.107,-0.202 0.092,-0.213 0.081,-0.222C0.07,-0.231 0.059,-0.244 0.049,-0.26C0.039,-0.277 0.034,-0.294 0.034,-0.313Z" style="fill:rgb(33,34,32);fill-rule:nonzero;"/>
        </g>
        <g transform="matrix(96,0,0,96,928.22,101.409)">
            <path d="M0.02,-0.013C0.02,-0.015 0.02,-0.017 0.02,-0.019C0.02,-0.026 0.022,-0.03 0.028,-0.031L0.041,-0.032C0.07,-0.034 0.087,-0.039 0.092,-0.048C0.097,-0.057 0.1,-0.082 0.1,-0.125L0.1,-0.304C0.1,-0.329 0.099,-0.344 0.096,-0.348C0.093,-0.353 0.086,-0.356 0.073,-0.359C0.058,-0.362 0.044,-0.366 0.032,-0.37C0.029,-0.371 0.027,-0.375 0.027,-0.382C0.026,-0.389 0.028,-0.393 0.031,-0.395C0.101,-0.421 0.142,-0.435 0.152,-0.437C0.155,-0.438 0.159,-0.439 0.162,-0.439C0.172,-0.439 0.178,-0.43 0.178,-0.413L0.178,-0.125C0.178,-0.1 0.179,-0.082 0.179,-0.073C0.18,-0.055 0.183,-0.044 0.188,-0.04C0.194,-0.036 0.208,-0.034 0.229,-0.034C0.232,-0.035 0.236,-0.035 0.24,-0.032C0.244,-0.029 0.246,-0.026 0.247,-0.023C0.247,-0.022 0.247,-0.021 0.247,-0.019C0.246,-0.016 0.246,-0.014 0.246,-0.013C0.246,-0.002 0.241,0.003 0.232,0.003C0.187,0.002 0.148,0.001 0.114,0.001C0.08,0.001 0.052,0.002 0.029,0.003C0.024,0.003 0.021,-0.002 0.02,-0.013ZM0.086,-0.576C0.077,-0.586 0.072,-0.598 0.072,-0.613C0.072,-0.627 0.077,-0.64 0.087,-0.65C0.098,-0.66 0.111,-0.665 0.126,-0.665C0.142,-0.665 0.155,-0.66 0.166,-0.65C0.177,-0.641 0.182,-0.628 0.182,-0.613C0.182,-0.598 0.176,-0.586 0.165,-0.576C0.154,-0.567 0.14,-0.562 0.125,-0.562C0.109,-0.562 0.096,-0.567 0.086,-0.576Z" style="fill:rgb(33,34,32);fill-rule:nonzero;"/>
        </g>
        <g transform="matrix(96,0,0,96,953.72,101.409)">
            <path d="M0.034,-0.313C0.034,-0.349 0.047,-0.378 0.072,-0.401C0.097,-0.424 0.13,-0.435 0.169,-0.435C0.194,-0.435 0.222,-0.429 0.253,-0.416C0.255,-0.389 0.256,-0.366 0.256,-0.346C0.256,-0.334 0.256,-0.323 0.255,-0.314C0.255,-0.311 0.25,-0.309 0.241,-0.309C0.237,-0.309 0.234,-0.31 0.231,-0.311C0.228,-0.312 0.227,-0.313 0.228,-0.314C0.223,-0.341 0.215,-0.361 0.201,-0.376C0.188,-0.391 0.172,-0.398 0.153,-0.398C0.137,-0.398 0.124,-0.393 0.114,-0.383C0.103,-0.373 0.098,-0.361 0.098,-0.345C0.098,-0.322 0.118,-0.295 0.158,-0.266C0.165,-0.262 0.175,-0.255 0.188,-0.246C0.202,-0.236 0.214,-0.228 0.224,-0.22C0.234,-0.213 0.243,-0.205 0.251,-0.196C0.274,-0.171 0.285,-0.143 0.285,-0.113C0.285,-0.078 0.272,-0.049 0.247,-0.026C0.221,-0.002 0.19,0.01 0.154,0.01C0.137,0.01 0.12,0.007 0.104,0.003C0.103,0.003 0.101,0.002 0.095,-0C0.09,-0.002 0.087,-0.003 0.084,-0.004C0.079,-0.004 0.074,0 0.071,0.009C0.063,0.011 0.058,0.012 0.056,0.012L0.055,0.012C0.049,0.012 0.046,0.008 0.045,0.002C0.039,-0.045 0.036,-0.081 0.036,-0.105L0.036,-0.112C0.035,-0.116 0.037,-0.118 0.041,-0.119C0.045,-0.121 0.05,-0.121 0.056,-0.12C0.059,-0.119 0.062,-0.115 0.063,-0.11C0.077,-0.05 0.106,-0.02 0.151,-0.02C0.169,-0.02 0.184,-0.026 0.197,-0.039C0.209,-0.052 0.216,-0.067 0.216,-0.084C0.216,-0.09 0.215,-0.097 0.213,-0.103C0.212,-0.11 0.209,-0.116 0.204,-0.122C0.199,-0.129 0.195,-0.134 0.192,-0.138C0.189,-0.142 0.184,-0.147 0.176,-0.153C0.168,-0.159 0.163,-0.163 0.16,-0.166C0.157,-0.168 0.151,-0.172 0.142,-0.178C0.133,-0.185 0.127,-0.188 0.126,-0.189C0.107,-0.202 0.092,-0.213 0.081,-0.222C0.07,-0.231 0.059,-0.244 0.049,-0.26C0.039,-0.277 0.034,-0.294 0.034,-0.313Z" style="fill:rgb(33,34,32);fill-rule:nonzero;"/>
        </g>
        <g transform="matrix(96,0,0,96,983.861,101.409)">
            <path d="M0.021,-0.39C0.022,-0.393 0.025,-0.395 0.029,-0.397C0.067,-0.416 0.098,-0.458 0.121,-0.524C0.121,-0.526 0.123,-0.528 0.127,-0.53C0.13,-0.531 0.133,-0.532 0.135,-0.532C0.137,-0.532 0.138,-0.532 0.14,-0.531C0.144,-0.53 0.146,-0.528 0.146,-0.524C0.145,-0.504 0.145,-0.487 0.145,-0.472C0.145,-0.458 0.145,-0.445 0.146,-0.436C0.147,-0.433 0.148,-0.431 0.151,-0.427C0.153,-0.424 0.156,-0.423 0.158,-0.423L0.269,-0.423C0.28,-0.423 0.284,-0.418 0.281,-0.407C0.279,-0.396 0.277,-0.385 0.272,-0.374C0.269,-0.369 0.263,-0.366 0.256,-0.366L0.161,-0.368C0.159,-0.368 0.156,-0.367 0.152,-0.364C0.149,-0.361 0.147,-0.359 0.146,-0.356L0.146,-0.179C0.146,-0.128 0.151,-0.093 0.16,-0.074C0.169,-0.056 0.186,-0.047 0.21,-0.047C0.231,-0.047 0.251,-0.065 0.27,-0.1C0.271,-0.103 0.274,-0.105 0.28,-0.104C0.286,-0.104 0.29,-0.102 0.293,-0.099C0.295,-0.097 0.296,-0.094 0.296,-0.09C0.296,-0.087 0.295,-0.084 0.294,-0.08C0.267,-0.02 0.228,0.011 0.177,0.011C0.146,0.011 0.12,-0 0.1,-0.024C0.08,-0.047 0.07,-0.077 0.07,-0.114L0.07,-0.355C0.07,-0.361 0.068,-0.365 0.064,-0.366L0.044,-0.366C0.039,-0.366 0.032,-0.367 0.024,-0.369C0.021,-0.374 0.02,-0.379 0.02,-0.383C0.02,-0.385 0.02,-0.388 0.021,-0.39Z" style="fill:rgb(33,34,32);fill-rule:nonzero;"/>
        </g>
        <g transform="matrix(96,0,0,96,1014.47,101.409)">
            <path d="M0.024,-0.202C0.024,-0.268 0.043,-0.322 0.083,-0.365C0.122,-0.408 0.17,-0.429 0.229,-0.429C0.298,-0.429 0.346,-0.4 0.373,-0.341L0.381,-0.324C0.387,-0.312 0.394,-0.301 0.401,-0.292C0.402,-0.289 0.402,-0.286 0.402,-0.282C0.402,-0.28 0.402,-0.278 0.402,-0.276C0.401,-0.271 0.397,-0.267 0.388,-0.267C0.362,-0.266 0.327,-0.266 0.283,-0.266C0.238,-0.266 0.184,-0.266 0.12,-0.267C0.108,-0.267 0.102,-0.264 0.101,-0.257C0.1,-0.249 0.099,-0.239 0.099,-0.227C0.099,-0.176 0.113,-0.133 0.142,-0.099C0.171,-0.066 0.206,-0.049 0.249,-0.049C0.296,-0.049 0.337,-0.07 0.373,-0.113C0.376,-0.117 0.381,-0.119 0.388,-0.118C0.392,-0.117 0.395,-0.114 0.397,-0.109C0.4,-0.104 0.4,-0.1 0.398,-0.097C0.376,-0.071 0.352,-0.048 0.327,-0.028C0.29,0.001 0.25,0.015 0.209,0.015C0.156,0.015 0.112,-0.006 0.077,-0.048C0.042,-0.09 0.024,-0.141 0.024,-0.202ZM0.11,-0.306C0.11,-0.305 0.111,-0.303 0.115,-0.302C0.12,-0.3 0.123,-0.299 0.126,-0.299L0.276,-0.299C0.281,-0.299 0.287,-0.3 0.292,-0.302C0.298,-0.304 0.3,-0.307 0.3,-0.311C0.292,-0.338 0.28,-0.36 0.264,-0.375C0.247,-0.39 0.228,-0.398 0.207,-0.398C0.142,-0.398 0.11,-0.367 0.11,-0.306Z" style="fill:rgb(33,34,32);fill-rule:nonzero;"/>
        </g>
        <g transform="matrix(96,0,0,96,1055.16,101.409)">
            <path d="M0.016,-0.02C0.017,-0.026 0.02,-0.029 0.025,-0.029L0.031,-0.029C0.054,-0.029 0.07,-0.035 0.077,-0.048C0.084,-0.061 0.088,-0.089 0.088,-0.133L0.088,-0.27C0.088,-0.319 0.087,-0.346 0.084,-0.351C0.081,-0.357 0.068,-0.362 0.045,-0.367L0.025,-0.371C0.022,-0.372 0.02,-0.376 0.02,-0.384C0.02,-0.392 0.022,-0.397 0.025,-0.398C0.036,-0.4 0.055,-0.407 0.083,-0.419C0.111,-0.431 0.131,-0.438 0.143,-0.441C0.146,-0.442 0.149,-0.442 0.151,-0.442C0.161,-0.442 0.166,-0.436 0.166,-0.424L0.166,-0.369C0.166,-0.367 0.167,-0.364 0.169,-0.36C0.172,-0.356 0.174,-0.355 0.177,-0.357C0.208,-0.379 0.236,-0.396 0.26,-0.408C0.288,-0.422 0.311,-0.428 0.33,-0.428C0.404,-0.428 0.441,-0.368 0.441,-0.248C0.441,-0.228 0.44,-0.198 0.437,-0.158C0.434,-0.118 0.433,-0.088 0.433,-0.067C0.433,-0.052 0.436,-0.042 0.441,-0.037C0.447,-0.033 0.46,-0.031 0.483,-0.031C0.489,-0.035 0.494,-0.034 0.499,-0.028C0.501,-0.024 0.502,-0.02 0.502,-0.016C0.502,-0.013 0.502,-0.01 0.501,-0.007C0.5,-0.003 0.499,-0 0.498,0C0.497,0.001 0.494,0.002 0.489,0.002L0.486,0.002C0.472,0.002 0.44,0.002 0.392,0.001L0.348,0.001C0.323,0.001 0.306,0.002 0.296,0.002C0.289,0.002 0.285,0.001 0.283,-0.001C0.282,-0.003 0.28,-0.007 0.28,-0.014C0.28,-0.026 0.283,-0.031 0.288,-0.031L0.295,-0.031C0.317,-0.033 0.332,-0.037 0.341,-0.045C0.349,-0.052 0.354,-0.066 0.356,-0.087C0.36,-0.126 0.362,-0.184 0.362,-0.263C0.362,-0.337 0.338,-0.374 0.289,-0.374C0.258,-0.374 0.217,-0.354 0.166,-0.315L0.166,-0.089C0.166,-0.063 0.17,-0.047 0.177,-0.041C0.184,-0.034 0.201,-0.031 0.227,-0.031C0.232,-0.031 0.235,-0.025 0.236,-0.014C0.236,-0.003 0.231,0.002 0.222,0.003C0.214,0.003 0.203,0.002 0.187,0.002C0.171,0.002 0.151,0.003 0.127,0.003C0.111,0.003 0.097,0.003 0.084,0.003C0.059,0.003 0.042,0.003 0.031,0.002C0.023,0.002 0.018,0 0.017,-0.003C0.016,-0.006 0.015,-0.009 0.015,-0.012C0.015,-0.014 0.015,-0.017 0.016,-0.02Z" style="fill:rgb(33,34,32);fill-rule:nonzero;"/>
        </g>
        <g transform="matrix(96,0,0,96,1104.66,101.409)">
            <path d="M0.021,-0.39C0.022,-0.393 0.025,-0.395 0.029,-0.397C0.067,-0.416 0.098,-0.458 0.121,-0.524C0.121,-0.526 0.123,-0.528 0.127,-0.53C0.13,-0.531 0.133,-0.532 0.135,-0.532C0.137,-0.532 0.138,-0.532 0.14,-0.531C0.144,-0.53 0.146,-0.528 0.146,-0.524C0.145,-0.504 0.145,-0.487 0.145,-0.472C0.145,-0.458 0.145,-0.445 0.146,-0.436C0.147,-0.433 0.148,-0.431 0.151,-0.427C0.153,-0.424 0.156,-0.423 0.158,-0.423L0.269,-0.423C0.28,-0.423 0.284,-0.418 0.281,-0.407C0.279,-0.396 0.277,-0.385 0.272,-0.374C0.269,-0.369 0.263,-0.366 0.256,-0.366L0.161,-0.368C0.159,-0.368 0.156,-0.367 0.152,-0.364C0.149,-0.361 0.147,-0.359 0.146,-0.356L0.146,-0.179C0.146,-0.128 0.151,-0.093 0.16,-0.074C0.169,-0.056 0.186,-0.047 0.21,-0.047C0.231,-0.047 0.251,-0.065 0.27,-0.1C0.271,-0.103 0.274,-0.105 0.28,-0.104C0.286,-0.104 0.29,-0.102 0.293,-0.099C0.295,-0.097 0.296,-0.094 0.296,-0.09C0.296,-0.087 0.295,-0.084 0.294,-0.08C0.267,-0.02 0.228,0.011 0.177,0.011C0.146,0.011 0.12,-0 0.1,-0.024C0.08,-0.047 0.07,-0.077 0.07,-0.114L0.07,-0.355C0.07,-0.361 0.068,-0.365 0.064,-0.366L0.044,-0.366C0.039,-0.366 0.032,-0.367 0.024,-0.369C0.021,-0.374 0.02,-0.379 0.02,-0.383C0.02,-0.385 0.02,-0.388 0.021,-0.39Z" style="fill:rgb(33,34,32);fill-rule:nonzero;"/>
        </g>
    </g>
    <g transform="matrix(1,0,0,1,-651.638,555.887)">
        <g transform="matrix(96,0,0,96,760.595,101.409)">
            <path d="M0.034,-0.313C0.034,-0.349 0.047,-0.378 0.072,-0.401C0.097,-0.424 0.13,-0.435 0.169,-0.435C0.194,-0.435 0.222,-0.429 0.253,-0.416C0.255,-0.389 0.256,-0.366 0.256,-0.346C0.256,-0.334 0.256,-0.323 0.255,-0.314C0.255,-0.311 0.25,-0.309 0.241,-0.309C0.237,-0.309 0.234,-0.31 0.231,-0.311C0.228,-0.312 0.227,-0.313 0.228,-0.314C0.223,-0.341 0.215,-0.361 0.201,-0.376C0.188,-0.391 0.172,-0.398 0.153,-0.398C0.137,-0.398 0.124,-0.393 0.114,-0.383C0.103,-0.373 0.098,-0.361 0.098,-0.345C0.098,-0.322 0.118,-0.295 0.158,-0.266C0.165,-0.262 0.175,-0.255 0.188,-0.246C0.202,-0.236 0.214,-0.228 0.224,-0.22C0.234,-0.213 0.243,-0.205 0.251,-0.196C0.274,-0.171 0.285,-0.143 0.285,-0.113C0.285,-0.078 0.272,-0.049 0.247,-0.026C0.221,-0.002 0.19,0.01 0.154,0.01C0.137,0.01 0.12,0.007 0.104,0.003C0.103,0.003 0.101,0.002 0.095,-0C0.09,-0.002 0.087,-0.003 0.084,-0.004C0.079,-0.004 0.074,0 0.071,0.009C0.063,0.011 0.058,0.012 0.056,0.012L0.055,0.012C0.049,0.012 0.046,0.008 0.045,0.002C0.039,-0.045 0.036,-0.081 0.036,-0.105L0.036,-0.112C0.035,-0.116 0.037,-0.118 0.041,-0.119C0.045,-0.121 0.05,-0.121 0.056,-0.12C0.059,-0.119 0.062,-0.115 0.063,-0.11C0.077,-0.05 0.106,-0.02 0.151,-0.02C0.169,-0.02 0.184,-0.026 0.197,-0.039C0.209,-0.052 0.216,-0.067 0.216,-0.084C0.216,-0.09 0.215,-0.097 0.213,-0.103C0.212,-0.11 0.209,-0.116 0.204,-0.122C0.199,-0.129 0.195,-0.134 0.192,-0.138C0.189,-0.142 0.184,-0.147 0.176,-0.153C0.168,-0.159 0.163,-0.163 0.16,-0.166C0.157,-0.168 0.151,-0.172 0.142,-0.178C0.133,-0.185 0.127,-0.188 0.126,-0.189C0.107,-0.202 0.092,-0.213 0.081,-0.222C0.07,-0.231 0.059,-0.244 0.049,-0.26C0.039,-0.277 0.034,-0.294 0.034,-0.313Z" style="fill:rgb(33,34,32);fill-rule:nonzero;"/>
        </g>
        <g transform="matrix(96,0,0,96,790.736,101.409)">
            <path d="M0.025,-0.193C0.025,-0.26 0.048,-0.316 0.095,-0.363C0.142,-0.409 0.2,-0.432 0.267,-0.432C0.3,-0.432 0.328,-0.426 0.351,-0.414C0.375,-0.402 0.386,-0.387 0.386,-0.368C0.386,-0.357 0.383,-0.349 0.376,-0.342C0.369,-0.335 0.36,-0.331 0.35,-0.331C0.333,-0.331 0.312,-0.343 0.288,-0.366C0.27,-0.385 0.25,-0.394 0.231,-0.394C0.198,-0.394 0.168,-0.376 0.143,-0.341C0.118,-0.306 0.105,-0.264 0.105,-0.216C0.105,-0.164 0.118,-0.123 0.144,-0.09C0.17,-0.058 0.203,-0.042 0.243,-0.042C0.291,-0.042 0.33,-0.064 0.361,-0.109C0.364,-0.119 0.37,-0.123 0.378,-0.121C0.38,-0.12 0.381,-0.12 0.382,-0.119C0.382,-0.118 0.383,-0.117 0.384,-0.116C0.385,-0.115 0.386,-0.113 0.386,-0.112C0.389,-0.11 0.39,-0.108 0.39,-0.105C0.39,-0.102 0.388,-0.098 0.385,-0.093C0.34,-0.023 0.281,0.012 0.208,0.012C0.155,0.012 0.112,-0.007 0.077,-0.046C0.042,-0.085 0.025,-0.134 0.025,-0.193Z" style="fill:rgb(33,34,32);fill-rule:nonzero;"/>
        </g>
        <g transform="matrix(96,0,0,96,831.236,101.409)">
            <path d="M0.025,-0.078C0.025,-0.128 0.06,-0.162 0.131,-0.18C0.158,-0.188 0.189,-0.2 0.226,-0.217C0.234,-0.221 0.237,-0.227 0.237,-0.235L0.236,-0.299C0.235,-0.359 0.212,-0.389 0.168,-0.389C0.157,-0.389 0.144,-0.384 0.131,-0.375C0.118,-0.365 0.111,-0.355 0.111,-0.344C0.111,-0.333 0.112,-0.325 0.114,-0.32C0.111,-0.317 0.101,-0.311 0.085,-0.303C0.07,-0.296 0.059,-0.291 0.054,-0.29C0.045,-0.287 0.039,-0.286 0.036,-0.288C0.032,-0.29 0.031,-0.296 0.031,-0.305C0.031,-0.33 0.052,-0.358 0.094,-0.39C0.128,-0.417 0.159,-0.431 0.188,-0.431C0.209,-0.431 0.231,-0.426 0.252,-0.415C0.273,-0.404 0.289,-0.391 0.3,-0.374C0.308,-0.363 0.313,-0.353 0.314,-0.344C0.316,-0.334 0.317,-0.313 0.317,-0.281L0.317,-0.099C0.317,-0.079 0.319,-0.066 0.322,-0.06C0.325,-0.053 0.331,-0.05 0.339,-0.05C0.347,-0.05 0.353,-0.051 0.357,-0.053C0.365,-0.056 0.373,-0.061 0.381,-0.068C0.384,-0.07 0.387,-0.071 0.39,-0.071C0.397,-0.069 0.4,-0.066 0.4,-0.059C0.4,-0.056 0.399,-0.051 0.397,-0.046C0.353,-0.007 0.318,0.012 0.291,0.012C0.262,0.012 0.245,-0.005 0.239,-0.04C0.237,-0.042 0.236,-0.043 0.235,-0.043C0.234,-0.043 0.232,-0.042 0.229,-0.039L0.224,-0.035C0.203,-0.017 0.185,-0.004 0.171,0.002C0.157,0.009 0.141,0.012 0.122,0.012C0.093,0.012 0.07,0.004 0.052,-0.013C0.034,-0.03 0.025,-0.051 0.025,-0.078ZM0.102,-0.091C0.102,-0.076 0.107,-0.063 0.118,-0.052C0.128,-0.041 0.142,-0.036 0.157,-0.036C0.168,-0.036 0.183,-0.042 0.202,-0.054C0.221,-0.067 0.232,-0.078 0.236,-0.089L0.236,-0.176C0.236,-0.177 0.236,-0.179 0.235,-0.181C0.234,-0.183 0.233,-0.184 0.232,-0.184C0.231,-0.184 0.229,-0.184 0.227,-0.183C0.212,-0.176 0.188,-0.165 0.156,-0.152C0.12,-0.137 0.102,-0.117 0.102,-0.091Z" style="fill:rgb(33,34,32);fill-rule:nonzero;"/>
        </g>
        <g transform="matrix(96,0,0,96,870.939,101.409)">
            <path d="M0.018,-0.006C0.017,-0.01 0.016,-0.014 0.016,-0.017C0.016,-0.024 0.019,-0.028 0.024,-0.031L0.035,-0.031C0.061,-0.031 0.078,-0.035 0.085,-0.043C0.093,-0.052 0.096,-0.07 0.096,-0.097L0.096,-0.623C0.096,-0.633 0.091,-0.639 0.08,-0.641C0.074,-0.642 0.066,-0.644 0.055,-0.646C0.044,-0.648 0.035,-0.649 0.03,-0.65C0.026,-0.651 0.024,-0.656 0.023,-0.663C0.022,-0.671 0.025,-0.676 0.03,-0.678C0.074,-0.69 0.118,-0.704 0.162,-0.72L0.164,-0.72C0.167,-0.721 0.17,-0.718 0.172,-0.714C0.174,-0.709 0.176,-0.704 0.176,-0.699L0.176,-0.098C0.176,-0.068 0.178,-0.049 0.184,-0.042C0.189,-0.035 0.204,-0.031 0.228,-0.031C0.24,-0.031 0.246,-0.029 0.247,-0.025L0.247,-0.013C0.247,-0.002 0.243,0.003 0.235,0.003C0.217,0.004 0.198,0.004 0.179,0.004C0.159,0.004 0.14,0.004 0.12,0.003C0.094,0.002 0.072,0.001 0.054,0.001C0.045,0.001 0.037,0.002 0.03,0.002C0.028,0.002 0.026,0.001 0.023,-0C0.021,-0.002 0.019,-0.004 0.018,-0.006Z" style="fill:rgb(33,34,32);fill-rule:nonzero;"/>
        </g>
        <g transform="matrix(96,0,0,96,896.064,101.409)">
            <path d="M0.025,-0.078C0.025,-0.128 0.06,-0.162 0.131,-0.18C0.158,-0.188 0.189,-0.2 0.226,-0.217C0.234,-0.221 0.237,-0.227 0.237,-0.235L0.236,-0.299C0.235,-0.359 0.212,-0.389 0.168,-0.389C0.157,-0.389 0.144,-0.384 0.131,-0.375C0.118,-0.365 0.111,-0.355 0.111,-0.344C0.111,-0.333 0.112,-0.325 0.114,-0.32C0.111,-0.317 0.101,-0.311 0.085,-0.303C0.07,-0.296 0.059,-0.291 0.054,-0.29C0.045,-0.287 0.039,-0.286 0.036,-0.288C0.032,-0.29 0.031,-0.296 0.031,-0.305C0.031,-0.33 0.052,-0.358 0.094,-0.39C0.128,-0.417 0.159,-0.431 0.188,-0.431C0.209,-0.431 0.231,-0.426 0.252,-0.415C0.273,-0.404 0.289,-0.391 0.3,-0.374C0.308,-0.363 0.313,-0.353 0.314,-0.344C0.316,-0.334 0.317,-0.313 0.317,-0.281L0.317,-0.099C0.317,-0.079 0.319,-0.066 0.322,-0.06C0.325,-0.053 0.331,-0.05 0.339,-0.05C0.347,-0.05 0.353,-0.051 0.357,-0.053C0.365,-0.056 0.373,-0.061 0.381,-0.068C0.384,-0.07 0.387,-0.071 0.39,-0.071C0.397,-0.069 0.4,-0.066 0.4,-0.059C0.4,-0.056 0.399,-0.051 0.397,-0.046C0.353,-0.007 0.318,0.012 0.291,0.012C0.262,0.012 0.245,-0.005 0.239,-0.04C0.237,-0.042 0.236,-0.043 0.235,-0.043C0.234,-0.043 0.232,-0.042 0.229,-0.039L0.224,-0.035C0.203,-0.017 0.185,-0.004 0.171,0.002C0.157,0.009 0.141,0.012 0.122,0.012C0.093,0.012 0.07,0.004 0.052,-0.013C0.034,-0.03 0.025,-0.051 0.025,-0.078ZM0.102,-0.091C0.102,-0.076 0.107,-0.063 0.118,-0.052C0.128,-0.041 0.142,-0.036 0.157,-0.036C0.168,-0.036 0.183,-0.042 0.202,-0.054C0.221,-0.067 0.232,-0.078 0.236,-0.089L0.236,-0.176C0.236,-0.177 0.236,-0.179 0.235,-0.181C0.234,-0.183 0.233,-0.184 0.232,-0.184C0.231,-0.184 0.229,-0.184 0.227,-0.183C0.212,-0.176 0.188,-0.165 0.156,-0.152C0.12,-0.137 0.102,-0.117 0.102,-0.091Z" style="fill:rgb(33,34,32);fill-rule:nonzero;"/>
        </g>
        <g transform="matrix(96,0,0,96,935.767,101.409)">
            <path d="M0.015,-0.656C0.01,-0.657 0.008,-0.662 0.008,-0.67C0.008,-0.677 0.01,-0.682 0.015,-0.683L0.137,-0.724C0.141,-0.725 0.144,-0.726 0.147,-0.726C0.15,-0.726 0.152,-0.725 0.153,-0.724C0.156,-0.722 0.157,-0.716 0.156,-0.707C0.155,-0.671 0.154,-0.625 0.154,-0.57C0.154,-0.514 0.155,-0.449 0.156,-0.373C0.156,-0.368 0.157,-0.364 0.159,-0.362C0.16,-0.36 0.163,-0.36 0.166,-0.362C0.167,-0.363 0.171,-0.366 0.177,-0.37L0.204,-0.389C0.211,-0.394 0.216,-0.397 0.219,-0.399C0.223,-0.401 0.228,-0.404 0.234,-0.407C0.24,-0.41 0.245,-0.413 0.25,-0.415C0.255,-0.417 0.26,-0.419 0.265,-0.42C0.27,-0.422 0.275,-0.423 0.281,-0.424C0.286,-0.425 0.29,-0.426 0.295,-0.426C0.34,-0.426 0.377,-0.406 0.408,-0.367C0.44,-0.328 0.455,-0.281 0.455,-0.226C0.455,-0.157 0.434,-0.099 0.392,-0.053C0.349,-0.008 0.295,0.015 0.228,0.015C0.194,0.015 0.148,0.009 0.091,-0.004C0.086,-0.006 0.082,-0.012 0.081,-0.022C0.082,-0.105 0.083,-0.194 0.083,-0.289C0.083,-0.384 0.082,-0.485 0.081,-0.593C0.081,-0.599 0.081,-0.607 0.081,-0.615C0.08,-0.623 0.08,-0.628 0.08,-0.629C0.079,-0.64 0.072,-0.646 0.058,-0.648C0.054,-0.649 0.046,-0.65 0.037,-0.651C0.027,-0.653 0.02,-0.654 0.015,-0.656ZM0.155,-0.217C0.155,-0.158 0.158,-0.118 0.163,-0.096C0.168,-0.076 0.179,-0.059 0.195,-0.046C0.211,-0.033 0.231,-0.027 0.254,-0.027C0.291,-0.027 0.322,-0.043 0.345,-0.074C0.368,-0.105 0.38,-0.146 0.38,-0.197C0.38,-0.248 0.368,-0.289 0.345,-0.321C0.322,-0.353 0.292,-0.369 0.257,-0.369C0.235,-0.369 0.202,-0.352 0.156,-0.319C0.156,-0.318 0.156,-0.305 0.155,-0.281C0.155,-0.256 0.155,-0.235 0.155,-0.217Z" style="fill:rgb(33,34,32);fill-rule:nonzero;"/>
        </g>
        <g transform="matrix(96,0,0,96,982.877,101.409)">
            <path d="M0.018,-0.006C0.017,-0.01 0.016,-0.014 0.016,-0.017C0.016,-0.024 0.019,-0.028 0.024,-0.031L0.035,-0.031C0.061,-0.031 0.078,-0.035 0.085,-0.043C0.093,-0.052 0.096,-0.07 0.096,-0.097L0.096,-0.623C0.096,-0.633 0.091,-0.639 0.08,-0.641C0.074,-0.642 0.066,-0.644 0.055,-0.646C0.044,-0.648 0.035,-0.649 0.03,-0.65C0.026,-0.651 0.024,-0.656 0.023,-0.663C0.022,-0.671 0.025,-0.676 0.03,-0.678C0.074,-0.69 0.118,-0.704 0.162,-0.72L0.164,-0.72C0.167,-0.721 0.17,-0.718 0.172,-0.714C0.174,-0.709 0.176,-0.704 0.176,-0.699L0.176,-0.098C0.176,-0.068 0.178,-0.049 0.184,-0.042C0.189,-0.035 0.204,-0.031 0.228,-0.031C0.24,-0.031 0.246,-0.029 0.247,-0.025L0.247,-0.013C0.247,-0.002 0.243,0.003 0.235,0.003C0.217,0.004 0.198,0.004 0.179,0.004C0.159,0.004 0.14,0.004 0.12,0.003C0.094,0.002 0.072,0.001 0.054,0.001C0.045,0.001 0.037,0.002 0.03,0.002C0.028,0.002 0.026,0.001 0.023,-0C0.021,-0.002 0.019,-0.004 0.018,-0.006Z" style="fill:rgb(33,34,32);fill-rule:nonzero;"/>
        </g>
        <g transform="matrix(96,0,0,96,1008,101.409)">
            <path d="M0.024,-0.202C0.024,-0.268 0.043,-0.322 0.083,-0.365C0.122,-0.408 0.17,-0.429 0.229,-0.429C0.298,-0.429 0.346,-0.4 0.373,-0.341L0.381,-0.324C0.387,-0.312 0.394,-0.301 0.401,-0.292C0.402,-0.289 0.402,-0.286 0.402,-0.282C0.402,-0.28 0.402,-0.278 0.402,-0.276C0.401,-0.271 0.397,-0.267 0.388,-0.267C0.362,-0.266 0.327,-0.266 0.283,-0.266C0.238,-0.266 0.184,-0.266 0.12,-0.267C0.108,-0.267 0.102,-0.264 0.101,-0.257C0.1,-0.249 0.099,-0.239 0.099,-0.227C0.099,-0.176 0.113,-0.133 0.142,-0.099C0.171,-0.066 0.206,-0.049 0.249,-0.049C0.296,-0.049 0.337,-0.07 0.373,-0.113C0.376,-0.117 0.381,-0.119 0.388,-0.118C0.392,-0.117 0.395,-0.114 0.397,-0.109C0.4,-0.104 0.4,-0.1 0.398,-0.097C0.376,-0.071 0.352,-0.048 0.327,-0.028C0.29,0.001 0.25,0.015 0.209,0.015C0.156,0.015 0.112,-0.006 0.077,-0.048C0.042,-0.09 0.024,-0.141 0.024,-0.202ZM0.11,-0.306C0.11,-0.305 0.111,-0.303 0.115,-0.302C0.12,-0.3 0.123,-0.299 0.126,-0.299L0.276,-0.299C0.281,-0.299 0.287,-0.3 0.292,-0.302C0.298,-0.304 0.3,-0.307 0.3,-0.311C0.292,-0.338 0.28,-0.36 0.264,-0.375C0.247,-0.39 0.228,-0.398 0.207,-0.398C0.142,-0.398 0.11,-0.367 0.11,-0.306Z" style="fill:rgb(33,34,32);fill-rule:nonzero;"/>
        </g>
    </g>
    <g transform="matrix(1,0,0,1,-58.1267,446.26)">
        <g transform="matrix(96,0,0,96,760.595,101.409)">
            <path d="M0.042,-0.615C0.042,-0.652 0.074,-0.67 0.138,-0.67C0.193,-0.67 0.237,-0.652 0.272,-0.616C0.306,-0.58 0.323,-0.534 0.323,-0.477C0.323,-0.411 0.299,-0.362 0.251,-0.329C0.232,-0.316 0.208,-0.304 0.179,-0.293C0.151,-0.284 0.137,-0.27 0.137,-0.251C0.137,-0.234 0.152,-0.208 0.18,-0.174C0.181,-0.173 0.18,-0.171 0.179,-0.168C0.177,-0.166 0.176,-0.165 0.174,-0.164C0.17,-0.163 0.165,-0.163 0.158,-0.165C0.151,-0.166 0.147,-0.169 0.144,-0.172C0.109,-0.214 0.091,-0.251 0.091,-0.284C0.091,-0.308 0.097,-0.327 0.109,-0.342C0.122,-0.356 0.143,-0.368 0.172,-0.38C0.216,-0.396 0.246,-0.412 0.261,-0.428C0.277,-0.445 0.285,-0.466 0.285,-0.493C0.285,-0.52 0.276,-0.541 0.259,-0.555C0.242,-0.57 0.217,-0.577 0.185,-0.577C0.175,-0.577 0.162,-0.576 0.145,-0.573C0.128,-0.571 0.116,-0.57 0.107,-0.57C0.064,-0.57 0.042,-0.585 0.042,-0.615ZM0.113,0.001C0.102,-0.009 0.096,-0.022 0.096,-0.038C0.096,-0.054 0.102,-0.067 0.113,-0.077C0.124,-0.088 0.138,-0.093 0.155,-0.093C0.172,-0.093 0.186,-0.088 0.197,-0.078C0.208,-0.068 0.214,-0.055 0.214,-0.038C0.214,-0.022 0.208,-0.009 0.198,0.001C0.187,0.012 0.172,0.017 0.155,0.017C0.138,0.017 0.124,0.012 0.113,0.001Z" style="fill:rgb(33,34,32);fill-rule:nonzero;"/>
        </g>
    </g>
</svg>
