<?xml version="1.0" encoding="UTF-8" standalone="no"?>
<!DOCTYPE svg PUBLIC "-//W3C//DTD SVG 1.1//EN" "http://www.w3.org/Graphics/SVG/1.1/DTD/svg11.dtd">
<svg width="100%" height="100%" viewBox="0 0 581 337" version="1.1" xmlns="http://www.w3.org/2000/svg" xmlns:xlink="http://www.w3.org/1999/xlink" xml:space="preserve" xmlns:serif="http://www.serif.com/" style="fill-rule:evenodd;clip-rule:evenodd;stroke-miterlimit:10;">
    <g id="Artboard1" transform="matrix(1.18154,0,0,0.71176,26.6451,12.7241)">
        <rect x="-22.551" y="-17.877" width="491.163" height="472.272" style="fill:none;"/>
        <g transform="matrix(0.846354,0,0,1.40497,27.3303,-272.911)">
            <path d="M351.864,349.054C351.864,315.594 338.992,283.384 315.931,259.139C292.87,234.895 261.344,220.427 227.926,218.754C194.507,217.08 161.693,228.325 136.326,250.144C110.958,271.963 94.932,302.726 91.589,336.019L221.4,349.054L351.864,349.054Z" style="fill:rgb(215,165,159);fill-rule:nonzero;"/>
        </g>
        <g transform="matrix(-0.711792,0.760115,0.457894,1.18159,194.775,-13.9303)">
            <path d="M171.426,70.085C189.775,93.163 199.77,121.794 199.77,151.278C199.77,180.762 189.775,209.393 171.426,232.471L69.306,151.278L171.426,70.085Z" style="fill:rgb(143,163,126);fill-rule:nonzero;"/>
        </g>
        <g transform="matrix(0.336993,1.28879,0.77637,-0.559416,43.1619,60.6535)">
            <path d="M279.725,53.809C301.502,77.806 313.576,109.078 313.576,141.484C313.576,173.89 301.502,205.161 279.725,229.158L183.112,141.484L279.725,53.809Z" style="fill:rgb(195,171,175);fill-rule:nonzero;"/>
        </g>
        <g transform="matrix(0.827376,0.295859,0.178226,-1.37346,-1.13256,431.694)">
            <path d="M344.746,175.268C346.69,184.296 347.671,193.506 347.671,202.741C347.671,211.977 346.69,221.186 344.746,230.214L217.207,202.741L344.746,175.268Z" style="fill:rgb(240,209,125);fill-rule:nonzero;"/>
        </g>
        <g transform="matrix(0.846354,0,0,1.40497,27.3303,-87.4914)">
            <path d="M221.4,308.405C245.62,308.405 268.851,298.782 285.976,281.656C303.102,264.531 312.725,241.3 312.725,217.08C312.725,192.86 303.102,169.629 285.976,152.504C268.851,135.378 245.62,125.755 221.4,125.755C197.18,125.755 173.949,135.378 156.824,152.504C139.698,169.629 130.075,192.86 130.075,217.08C130.075,241.3 139.698,264.531 156.824,281.656C173.949,298.782 197.18,308.405 221.4,308.405Z" style="fill:white;fill-rule:nonzero;stroke:white;stroke-width:1px;"/>
        </g>
        <g transform="matrix(0.846354,0,0,1.40497,27.3303,-94.2619)">
            <text x="228.578px" y="77.441px" style="font-family:'ETBembo-RomanLF', 'ETBembo';font-size:15px;">O<tspan x="241.335px 249.235px 255.949px 264.04px 268.066px 273.132px 281.033px 286.633px 293.193px 304.844px " y="77.441px 77.441px 77.441px 77.441px 77.441px 77.441px 77.441px 77.441px 77.441px 77.441px ">pen sprawl</tspan></text>
        </g>
        <g transform="matrix(0.846354,0,0,1.40497,2.14826,-84.4567)">
            <text x="1.534px" y="298.414px" style="font-family:'ETBembo-RomanLF', 'ETBembo';font-size:15px;">A<tspan x="12.387px 18.905px 25.422px 31.968px 36.866px 41.765px 45.938px 53.488px 57.603px 64.149px 68.603px 73.501px 81.695px 89.245px 97.44px 102.873px 110.422px 114.596px " y="298.414px 298.414px 298.414px 298.414px 298.414px 298.414px 298.414px 298.414px 298.414px 298.414px 298.414px 298.414px 298.414px 298.414px 298.414px 298.414px 298.414px 298.414px ">ccessible suburbia</tspan></text>
        </g>
        <g transform="matrix(0.846354,0,0,1.40497,27.3303,-84.4567)">
            <text x="278.542px" y="352.415px" style="font-family:'ETBembo-RomanLF', 'ETBembo';font-size:15px;">W<tspan x="295.008px 301.389px 306.81px 313.345px 321.411px 329.007px 337.19px 342.077px 348.612px 355.967px 364.794px 371.175px 376.596px 384.537px 388.384px 392.487px 398.868px 406.78px " y="352.415px 352.415px 352.415px 352.415px 352.415px 352.415px 352.415px 352.415px 352.415px 352.415px 352.415px 352.415px 352.415px 352.415px 352.415px 352.415px 352.415px 352.415px ">arehouse/Park land</tspan></text>
        </g>
        <g transform="matrix(0.846354,0,0,1.40497,27.3303,-84.4567)">
            <text x="361.692px" y="250.992px" style="font-family:'ETBembo-RomanLF', 'ETBembo';font-size:15px;">D<tspan x="373.524px 377.746px 382.692px 389.258px 396.915px 404.886px 412.858px 419.453px 426.018px 431.038px 437.633px " y="250.992px 250.992px 250.992px 250.992px 250.992px 250.992px 250.992px 250.992px 250.992px 250.992px 250.992px ">isconnected</tspan></text>
            <text x="450.315px" y="250.992px" style="font-family:'ETBembo-RomanLF', 'ETBembo';font-size:15px;">s<tspan x="455.262px 463.505px 471.103px 479.345px 484.827px 492.425px 496.647px " y="250.992px 250.992px 250.992px 250.992px 250.992px 250.992px 250.992px ">uburbia</tspan></text>
        </g>
    </g>
</svg>
