<?xml version="1.0" encoding="UTF-8" standalone="no"?>
<!DOCTYPE svg PUBLIC "-//W3C//DTD SVG 1.1//EN" "http://www.w3.org/Graphics/SVG/1.1/DTD/svg11.dtd">
<svg width="100%" height="100%" viewBox="0 0 667 337" version="1.1" xmlns="http://www.w3.org/2000/svg" xmlns:xlink="http://www.w3.org/1999/xlink" xml:space="preserve" xmlns:serif="http://www.serif.com/" style="fill-rule:evenodd;clip-rule:evenodd;stroke-miterlimit:10;">
    <g transform="matrix(1,0,0,1,-1160.83,0)">
        <g id="Artboard3" transform="matrix(1.08081,0,0,1,-102.672,0)">
            <rect x="1169.04" y="0" width="617.055" height="336.145" style="fill:none;"/>
            <g transform="matrix(0.925236,0,0,1,1270.39,-175.502)">
                <path d="M351.864,349.41C351.864,324.934 344.976,300.945 331.991,280.197C319.006,259.449 300.44,242.768 278.426,232.069C256.412,221.371 231.825,217.08 207.488,219.69C183.152,222.3 160.034,231.707 140.789,246.83L221.4,349.41L351.864,349.41Z" style="fill:rgb(103,142,166);fill-rule:nonzero;"/>
            </g>
            <g transform="matrix(-0.899143,-0.235812,-0.218182,0.971799,1605,-48.276)">
                <path d="M186.427,168.312C204.521,191.306 214.363,219.731 214.363,248.99C214.363,278.249 204.521,306.675 186.427,329.668L83.899,248.99L186.427,168.312Z" style="fill:rgb(239,199,88);fill-rule:nonzero;"/>
            </g>
            <g transform="matrix(-0.428536,0.886272,0.820011,0.463164,1382.27,17.1275)">
                <path d="M195.428,81.621C213.213,104.51 222.873,132.686 222.873,161.672C222.873,190.658 213.213,218.834 195.428,241.723L92.409,161.672L195.428,81.621Z" style="fill:rgb(148,102,110);fill-rule:nonzero;"/>
            </g>
            <g transform="matrix(0.430752,0.885017,0.818849,-0.465559,1277.58,72.3449)">
                <path d="M313.777,102.578C317.774,115.263 319.808,128.485 319.808,141.785C319.808,155.085 317.774,168.307 313.777,180.992L189.344,141.785L313.777,102.578Z" style="fill:rgb(228,203,200);fill-rule:nonzero;"/>
            </g>
            <g transform="matrix(0.806943,0.489241,0.452663,-0.872149,1226.61,229.798)">
                <path d="M332.76,145.408C335.898,156.745 337.489,168.453 337.489,180.216C337.489,191.979 335.898,203.688 332.76,215.024L207.025,180.216L332.76,145.408Z" style="fill:rgb(59,110,140);fill-rule:nonzero;"/>
            </g>
            <g transform="matrix(0.914591,0.151254,0.139946,-0.988495,1245.24,345.335)">
                <path d="M349.737,195.417C350.083,199.286 350.257,203.169 350.257,207.053C350.257,210.938 350.083,214.82 349.737,218.689L219.793,207.053L349.737,195.417Z" style="fill:rgb(171,136,142);fill-rule:nonzero;"/>
            </g>
            <g transform="matrix(0.924375,0.0431407,0.0399153,-0.999069,1262.14,378.425)">
                <path d="M351.724,211.735C351.741,212.578 351.749,213.42 351.749,214.263C351.749,215.105 351.741,215.948 351.724,216.79L221.285,214.263L351.724,211.735Z" style="fill:rgb(188,91,79);fill-rule:nonzero;"/>
            </g>
            <g transform="matrix(0.925138,0.0145692,0.01348,-0.999894,1267.52,386.789)">
                <path d="M351.843,214.928C351.846,215.328 351.848,215.729 351.848,216.13C351.848,216.53 351.846,216.931 351.843,217.331L221.384,216.129L351.843,214.928Z" style="fill:rgb(51,52,50);fill-rule:nonzero;"/>
            </g>
            <g transform="matrix(0.925233,0.00267871,0.00247844,-0.999996,1269.86,390.22)">
                <path d="M351.863,216.556C351.863,216.672 351.863,216.789 351.863,216.905C351.863,217.022 351.863,217.138 351.863,217.255L221.399,216.905L351.863,216.556Z" style="fill:rgb(167,183,153);fill-rule:nonzero;"/>
            </g>
            <g transform="matrix(0.925236,0,0,1,1270.39,-43.1719)">
                <path d="M221.4,308.405C245.62,308.405 268.851,298.782 285.976,281.656C303.102,264.531 312.725,241.3 312.725,217.08C312.725,192.86 303.102,169.629 285.976,152.504C268.851,135.378 245.62,125.755 221.4,125.755C197.18,125.755 173.949,135.378 156.824,152.504C139.698,169.629 130.075,192.86 130.075,217.08C130.075,241.3 139.698,264.531 156.824,281.656C173.949,298.782 197.18,308.405 221.4,308.405Z" style="fill:white;fill-rule:nonzero;stroke:white;stroke-width:1px;"/>
            </g>
            <g transform="matrix(0.925236,0,0,1,1270.39,-41.0119)">
                <text x="284.129px" y="88.939px" style="font-family:'ETBembo-RomanLF', 'ETBembo';font-size:15px;">D<tspan x="295.947px 302.529px 310.488px 315.422px 322.003px 326.472px 331.941px 338.522px 343.456px 347.665px 355.58px 362.162px 370.12px 375.127px 379.336px 385.764px 389.914px 394.383px 402.342px 408.923px 413.132px 420.6px 428.713px 436.298px 443.941px 452.171px 457.64px 465.752px 473.396px 481.04px 488.955px " y="88.939px 88.939px 88.939px 88.939px 88.939px 88.939px 88.939px 88.939px 88.939px 88.939px 88.939px 88.939px 88.939px 88.939px 88.939px 88.939px 88.939px 88.939px 88.939px 88.939px 88.939px 88.939px 88.939px 88.939px 88.939px 88.939px 88.939px 88.939px 88.939px 88.939px 88.939px ">ense residential neighbourhoods</tspan></text>
            </g>
            <g transform="matrix(0.925236,0,0,1,1245.64,-41.0119)">
                <text x="-74.62px" y="184.172px" style="font-family:'ETBembo-RomanLF', 'ETBembo';font-size:15px;">D<tspan x="-62.793px -56.202px -48.235px -43.293px -36.702px -32.23px -23.992px -18.514px -10.921px -4.484px 3.483px 7.956px 15.923px 22.513px 26.731px 34.207px 42.328px 49.922px 57.575px 65.813px 71.29px 79.411px 87.064px 94.716px 102.64px " y="184.172px 184.172px 184.172px 184.172px 184.172px 184.172px 184.172px 184.172px 184.172px 184.172px 184.172px 184.172px 184.172px 184.172px 184.172px 184.172px 184.172px 184.172px 184.172px 184.172px 184.172px 184.172px 184.172px 184.172px 184.172px ">ense urban neighbourhoods</tspan></text>
            </g>
            <g transform="matrix(0.925236,0,0,1,1229.35,-41.0119)">
                <text x="-38.851px" y="345.203px" style="font-family:'ETBembo-RomanLF', 'ETBembo';font-size:15px;">C<tspan x="-27.206px -19.569px -11.616px -3.664px 2.912px 9.458px 14.459px 21.035px " y="345.203px 345.203px 345.203px 345.203px 345.203px 345.203px 345.203px 345.203px ">onnected</tspan></text>
                <text x="33.789px" y="345.203px" style="font-family:'ETBembo-RomanLF', 'ETBembo';font-size:15px;">r<tspan x="39.252px 45.827px 50.755px 54.958px 62.866px 69.442px 77.395px 82.396px 86.598px 93.02px 97.164px 101.052px 109.004px 115.58px 119.783px 127.245px 135.351px 142.93px 150.568px 158.791px 164.254px 172.36px 179.998px 187.636px 195.544px " y="345.203px 345.203px 345.203px 345.203px 345.203px 345.203px 345.203px 345.203px 345.203px 345.203px 345.203px 345.203px 345.203px 345.203px 345.203px 345.203px 345.203px 345.203px 345.203px 345.203px 345.203px 345.203px 345.203px 345.203px 345.203px ">esidential neighbourhoods</tspan></text>
            </g>
            <g transform="matrix(0.925236,0,0,1,1270.39,-41.0119)">
                <text x="288.213px" y="345.023px" style="font-family:'ETBembo-RomanLF', 'ETBembo';font-size:15px;">G<tspan x="299.922px 305.435px 309.689px 317.648px 325.608px 332.234px 340.194px 344.132px 349.646px 356.272px 361.251px 365.504px 373.464px 380.09px 388.094px 393.146px 397.399px 403.872px " y="345.023px 345.023px 345.023px 345.023px 345.023px 345.023px 345.023px 345.023px 345.023px 345.023px 345.023px 345.023px 345.023px 345.023px 345.023px 345.023px 345.023px 345.023px ">ridded residential</tspan></text>
                <text x="411.01px" y="345.023px" style="font-family:'ETBembo-RomanLF', 'ETBembo';font-size:15px;">q<tspan x="418.838px 427.112px 433.585px 439.098px 444.15px 450.776px 456.29px " y="345.023px 345.023px 345.023px 345.023px 345.023px 345.023px 345.023px ">uarters</tspan></text>
            </g>
            <g transform="matrix(0.925236,0,0,1,1270.39,-41.0119)">
                <text x="346.562px" y="288.225px" style="font-family:'ETBembo-RomanLF', 'ETBembo';font-size:15px;">L<tspan x="355.725px 363.387px 369.957px 376.403px 380.571px 384.483px 392.73px 398.216px 405.819px 412.265px 420.242px 424.468px 429.493px " y="288.225px 288.225px 288.225px 288.225px 288.225px 288.225px 288.225px 288.225px 288.225px 288.225px 288.225px 288.225px 288.225px ">ocal urbanity</tspan></text>
            </g>
            <g transform="matrix(0.925236,0,0,1,1268.21,-31.9115)">
                <text x="363.259px" y="239.72px" style="font-family:'ETBembo-RomanLF', 'ETBembo';font-size:15px;">R<tspan x="373.936px 380.534px 388.017px 392.241px 399.901px 407.875px 414.319px 418.484px 422.394px 430.639px 436.123px 443.724px 450.167px 458.141px 462.366px 467.388px " y="239.72px 239.72px 239.72px 239.72px 239.72px 239.72px 239.72px 239.72px 239.72px 239.72px 239.72px 239.72px 239.72px 239.72px 239.72px 239.72px ">egional urbanity</tspan></text>
            </g>
            <g transform="matrix(0.925236,0,0,1,1270.39,-36.3192)">
                <text x="364.777px" y="229.423px" style="font-family:'ETBembo-RomanLF', 'ETBembo';font-size:15px;">M<tspan x="379.087px 385.626px 390.591px 396.017px 403.619px 411.344px 418.946px 423.053px 427.22px 432.184px 438.57px 446.486px 450.374px 458.561px 463.987px 471.53px 477.915px 485.832px 489.998px 494.963px " y="229.423px 229.423px 229.423px 229.423px 229.423px 229.423px 229.423px 229.423px 229.423px 229.423px 229.423px 229.423px 229.423px 229.423px 229.423px 229.423px 229.423px 229.423px 229.423px 229.423px ">etropolitan urbanity</tspan></text>
            </g>
            <g transform="matrix(0.925236,0,0,1,1270.28,-41.2285)">
                <text x="364.895px" y="220.105px" style="font-family:'ETBembo-RomanLF', 'ETBembo';font-size:15px;">C<tspan x="376.629px 384.356px 392.399px 399.035px 405.701px 413.743px 418.834px 424.386px 430.898px 435.988px 442.654px 450.652px 454.63px 462.943px 468.495px 476.164px 482.676px 490.718px 495.011px 500.101px " y="220.105px 220.105px 220.105px 220.105px 220.105px 220.105px 220.105px 220.105px 220.105px 220.105px 220.105px 220.105px 220.105px 220.105px 220.105px 220.105px 220.105px 220.105px 220.105px 220.105px ">oncentrated urbanity</tspan></text>
            </g>
            <g transform="matrix(0.925236,0,0,1,1270.27,-46.0705)">
                <text x="364.91px" y="212.143px" style="font-family:'ETBembo-RomanLF', 'ETBembo';font-size:15px;">H<tspan x="377.083px 384.758px 392.661px 399.377px 404.98px 409.008px 415.694px 423.472px 431.566px 438.252px 444.968px 453.061px 458.203px 463.806px 470.368px 475.509px 482.225px 490.274px 494.302px 502.666px 508.269px 515.989px 522.551px 530.644px 534.987px 540.128px " y="212.143px 212.143px 212.143px 212.143px 212.143px 212.143px 212.143px 212.143px 212.143px 212.143px 212.143px 212.143px 212.143px 212.143px 212.143px 212.143px 212.143px 212.143px 212.143px 212.143px 212.143px 212.143px 212.143px 212.143px 212.143px 212.143px ">yper concentrated urbanity</tspan></text>
            </g>
        </g>
    </g>
</svg>
