<?xml version="1.0" encoding="UTF-8" standalone="no"?>
<!DOCTYPE svg PUBLIC "-//W3C//DTD SVG 1.1//EN" "http://www.w3.org/Graphics/SVG/1.1/DTD/svg11.dtd">
<svg width="100%" height="100%" viewBox="0 0 126 126" version="1.1" xmlns="http://www.w3.org/2000/svg" xmlns:xlink="http://www.w3.org/1999/xlink" xml:space="preserve" xmlns:serif="http://www.serif.com/" style="fill-rule:evenodd;clip-rule:evenodd;stroke-linejoin:round;stroke-miterlimit:10;">
    <g id="Artboard1" transform="matrix(1,0,0,1,-310.439,-291.39)">
        <rect x="310.439" y="291.39" width="125.09" height="125.09" style="fill:none;"/>
        <g transform="matrix(1,0,0,1,3.98403,-7.86532)">
            <path d="M369,418.071C383.923,418.071 398.237,412.142 408.79,401.59C419.342,391.037 425.271,376.723 425.271,361.8C425.271,346.877 419.342,332.563 408.79,322.01C398.237,311.458 383.923,305.529 369,305.529C354.077,305.529 339.763,311.458 329.21,322.01C318.658,332.563 312.729,346.877 312.729,361.8C312.729,376.723 318.658,391.037 329.21,401.59C339.763,412.142 354.077,418.071 369,418.071Z" style="fill:rgb(239,199,88);fill-rule:nonzero;stroke:rgb(239,199,88);stroke-width:1px;"/>
        </g>
        <g transform="matrix(1,0,0,1,3.98403,-7.86532)">
            <path d="M369,400.071C379.149,400.071 388.885,396.038 396.061,388.861C403.238,381.685 407.271,371.949 407.271,361.8C407.271,351.651 403.238,341.915 396.061,334.739C388.885,327.562 379.149,323.529 369,323.529C358.851,323.529 349.115,327.562 341.939,334.739C334.762,341.915 330.729,351.651 330.729,361.8C330.729,371.949 334.762,381.685 341.939,388.861C349.115,396.038 358.851,400.071 369,400.071Z" style="fill:rgb(59,110,140);fill-rule:nonzero;stroke:rgb(59,110,140);stroke-width:1px;"/>
        </g>
        <g transform="matrix(1,0,0,1,3.98403,-7.86532)">
            <path d="M369,384.468C375.012,384.468 380.778,382.079 385.029,377.829C389.279,373.578 391.668,367.812 391.668,361.8C391.668,355.788 389.279,350.022 385.029,345.771C380.778,341.521 375.012,339.132 369,339.132C362.988,339.132 357.222,341.521 352.971,345.771C348.721,350.022 346.332,355.788 346.332,361.8C346.332,367.812 348.721,373.578 352.971,377.829C357.222,382.079 362.988,384.468 369,384.468Z" style="fill:rgb(171,136,142);fill-rule:nonzero;stroke:rgb(171,136,142);stroke-width:1px;"/>
        </g>
        <g transform="matrix(1,0,0,1,3.98403,-7.86532)">
            <path d="M369,375.463C372.623,375.463 376.099,374.023 378.661,371.461C381.223,368.899 382.663,365.423 382.663,361.8C382.663,358.177 381.223,354.701 378.661,352.139C376.099,349.577 372.623,348.137 369,348.137C365.377,348.137 361.901,349.577 359.339,352.139C356.777,354.701 355.337,358.177 355.337,361.8C355.337,365.423 356.777,368.899 359.339,371.461C361.901,374.023 365.377,375.463 369,375.463Z" style="fill:rgb(188,91,79);fill-rule:nonzero;stroke:rgb(188,91,79);stroke-width:1px;"/>
        </g>
        <g transform="matrix(1,0,0,1,3.98403,-7.86532)">
            <path d="M369,370.551C371.321,370.551 373.547,369.629 375.188,367.988C376.829,366.347 377.751,364.121 377.751,361.8C377.751,359.479 376.829,357.253 375.188,355.612C373.547,353.971 371.321,353.049 369,353.049C366.679,353.049 364.453,353.971 362.812,355.612C361.171,357.253 360.249,359.479 360.249,361.8C360.249,364.121 361.171,366.347 362.812,367.988C364.453,369.629 366.679,370.551 369,370.551Z" style="fill:rgb(51,52,50);fill-rule:nonzero;stroke:rgb(51,52,50);stroke-width:1px;"/>
        </g>
        <g transform="matrix(1,0,0,1,3.98403,-7.86532)">
            <path d="M369,365.099C369.875,365.099 370.714,364.752 371.333,364.133C371.952,363.514 372.299,362.675 372.299,361.8C372.299,360.925 371.952,360.086 371.333,359.467C370.714,358.848 369.875,358.501 369,358.501C368.125,358.501 367.286,358.848 366.667,359.467C366.048,360.086 365.701,360.925 365.701,361.8C365.701,362.675 366.048,363.514 366.667,364.133C367.286,364.752 368.125,365.099 369,365.099Z" style="fill:rgb(167,183,153);fill-rule:nonzero;stroke:rgb(167,183,153);stroke-width:1px;"/>
        </g>
    </g>
</svg>
